<svg xmlns="http://www.w3.org/2000/svg" viewBox="0 0 24 24">
	<path d="M12 1a11 11 0 0 0-3.48 21.44c.55.1.76-.24.76-.53l-.02-2.05c-2.76.51-3.47-.67-3.7-1.29-.12-.31-.65-1.29-1.12-1.55-.39-.2-.94-.72-.02-.73.87-.01 1.49.8 1.7 1.13.99 1.66 2.57 1.2 3.2.9.1-.71.38-1.2.7-1.47-2.45-.27-5-1.22-5-5.43 0-1.2.42-2.18 1.12-2.95-.1-.28-.5-1.4.11-2.92 0 0 .92-.29 3.03 1.13a10 10 0 0 1 5.5 0c2.1-1.43 3.02-1.13 3.02-1.13a4 4 0 0 1 .11 2.92c.7.77 1.13 1.74 1.13 2.95 0 4.22-2.57 5.16-5.02 5.43.4.35.74 1 .74 2.04l-.01 3.02c0 .3.2.64.76.53A11.02 11.02 0 0 0 12 1"/>
</svg>
