<svg width="487" height="352" fill="#fff" xmlns="http://www.w3.org/2000/svg"><path fill-rule="evenodd" clip-rule="evenodd" d="M273.485 105.314c.029.271-.048.343-.082.374-.342.313-1.45.26-2.198.099.027-1.195.051-2.463.072-3.772.121.003.248.009.362.009.583 0 1.059-.041 1.479-.102.086.797.226 2.075.367 3.392zm-3.462-26.217c.17.315.341.645.511 1.006 2.164 4.6 3.334 11.328 3.48 19.999-.275.153-1.02.422-2.715.382.082-6.287.051-13.133-.346-16.88a23.146 23.146 0 00-.93-4.507zm-.51 34.26c-1.84-.574-6.326-2.534-8.771-8.429a.738.738 0 00-.337-.365c.558-2.427.739-4.559.794-5.488.913-.37 1.651-.9 2.107-1.658 1.411-2.343 1.747-4.256 1.002-5.686-.529-1.017-1.552-1.716-3.091-2.114a57.439 57.439 0 00-.166-3.297c2.078-4.353 3.782-8.371 4.112-9.478.204-.683.419-1.828.526-2.925 1.294 1.64 3.267 4.875 3.796 9.855.733 6.911.175 25.226.028 29.585zm-1.879 23.738h-9.151c.555-3.875 1.413-12.238.342-21.98a.75.75 0 00-.818-.674c-.406.048-.696.428-.65.849 1.073 9.753.176 18.105-.367 21.805h-11.419c.615-6.607.598-14.877-.041-21.498.711.103 1.486.168 2.331.168 1.407 0 2.996-.173 4.76-.616 3.952-.994 6.089-4.842 7.246-8.579 2.369 4.874 5.985 7.015 8.23 7.908a.759.759 0 00-.531.848c.865 5.528.889 13.813.068 21.769zm-8.308 5.027c.069-1.41-.227-2.565-.884-3.496l9.648.001c1.26.822 1.831 1.947 1.767 3.495h-10.531zm-13.834-3.495h10.82c1.169.772 1.649 1.846 1.541 3.495h-12.361v-3.495zm9.021-40.58c1.234-1.587 2.782-4.284 4.316-7.249.491.036.936.093 1.348.166.092.043.193.07.3.07h.006c.014 0 .026-.006.039-.007 1.286.277 2.136.758 2.487 1.432.59 1.133-.194 2.881-.957 4.147-.919 1.53-4.045 1.79-7.539 1.442zm-13.361-4.376a15.328 15.328 0 007.768-4.72c.037-.042.054-.092.081-.14 1.041.415 2.224.824 3.513 1.158-1.887 2.706-4.794 4.666-7.954 5.297a.733.733 0 00-.462.313c-.916-.39-1.97-1.04-2.946-1.908zm18.573-4.633l.009.316-.157-.02.148-.296zm-7.032 8.782a44.978 44.978 0 01-6.363-1.443c3.144-1.02 5.944-3.203 7.746-6.058a23.18 23.18 0 003.115.399c-1.446 2.755-2.872 5.2-3.977 6.56-.169.21-.342.39-.521.542zm-13.45-15.033c3.686-6.806 11.304-10.82 11.381-10.86a.748.748 0 00.382-.545c1.934 1.868 4.502 3.358 7.253 3.486.247 1.754.94 6.845 1.285 11.152a156.9 156.9 0 01-1.582 3.203c-4.231-.102-8.103-1.61-10.423-2.732.125-.673.508-2.48 1.229-3.862a.78.78 0 00-.298-1.038.725.725 0 00-1.002.31c-.698 1.338-1.105 2.958-1.298 3.88-.54-.298-.856-.5-.87-.508a.72.72 0 00-.834.035l-5.462 4.23a.784.784 0 00-.151 1.07.722.722 0 001.034.157l5.068-3.924c.5.298 1.407.803 2.608 1.354-2.027 2.18-4.775 3.676-7.656 4.169-.63-.785-1.169-1.677-1.509-2.687-.734-2.182-.45-4.5.845-6.89zm9.548-16.77c-.008-.002-.83-.218-1.204-.886-.241-.43-.263-.996-.061-1.68.11-.37.305-.832.62-.923.424-.122 1.088.306 1.399.574.036.06.072.136.119.232.29.6.776 1.603 1.786 1.766.09.014.178.022.269.022.641 0 1.298-.367 2.001-1.113.45-.478.683-1.16.711-2.088.005-.17.005-.34.004-.51-.002-.373-.005-.723.066-1.029.161-.7.718-1.288 1.308-1.911.153-.163.306-.325.453-.489.94-1.051 1.381-2.165 1.274-3.163 2-.786 4.209-.912 6.286-.352l.304.084c.561.16 1.198.339 1.878.273l.008-.001c.845 2.385 1.049 5.264 1.046 5.48-.338 2.513.315 3.98.839 5.16.245.55.462 1.037.542 1.557-.218.007-.529-.028-.704-.045-.555-.058-1.185-.123-1.439.485-.267.635-.54 1.223-.831 1.764a.739.739 0 00-.457-.35l-1.993-.504a.736.736 0 00-.893.561.767.767 0 00.542.926l1.994.506c.035.009.071.01.107.014-1.28 1.828-2.989 2.874-5.892 2.976-4.325.148-8.396-3.973-9.561-6.882a.746.746 0 00-.521-.454zm-1.947-13.06c1.281-2.63 3.961-4.645 6.994-5.261 2.833-.573 5.96-.02 8.805 1.562a16.132 16.132 0 014.037 3.19.756.756 0 00-.115.343c-.014.23-.35.472-.704.508-.409.043-.864-.087-1.345-.225l-.323-.09a11.486 11.486 0 00-7.835.684.753.753 0 00-.389.427.789.789 0 00.019.587c.368.844-.527 1.942-.809 2.259-.138.153-.282.304-.426.457-.672.71-1.433 1.516-1.689 2.63-.112.484-.109.945-.106 1.391.001.152.002.303-.003.454-.017.526-.112.875-.291 1.066-.487.516-.831.674-.987.647-.258-.041-.542-.626-.694-.94-.112-.232-.2-.415-.325-.563-.01-.012-.025-.017-.036-.029-.01-.011-.015-.026-.026-.037-.148-.14-1.491-1.353-2.842-.966-.14.04-.293.104-.45.198-1.546-2.288-1.755-5.633-.46-8.292zm17.424 20.146c-.053 1.079-.275 2.482-.515 3.286-.258.86-1.43 3.659-2.964 6.984-.352-3.51-.824-6.994-1.043-8.545 1.911-.189 3.361-.794 4.522-1.725zm7.593 6.328c-1.63-3.466-3.421-4.965-4.282-5.686a5.544 5.544 0 01-.382-.336c-.656-.892-1.219-1.477-1.519-1.76.695-.905 1.271-1.97 1.794-3.163.037.005.076.009.116.012.668.071 1.5.157 2.01-.35.242-.241.365-.577.344-.948-.052-.914-.383-1.659-.704-2.38-.489-1.1-.995-2.237-.717-4.306.055-.415-.202-3.662-1.15-6.295.368-.328.633-.776.668-1.325a.769.769 0 00-.143-.488.777.777 0 00-.069-.935 17.601 17.601 0 00-4.486-3.563c-3.145-1.749-6.621-2.356-9.787-1.715-3.523.714-6.524 2.985-8.029 6.074-1.619 3.326-1.3 7.415.789 10.196-.073.164-.142.34-.201.542-.326 1.108-.259 2.083.197 2.897.494.88 1.301 1.305 1.78 1.49.451 1 1.165 2.084 2.07 3.11-.066.012-.133.022-.197.055-.329.17-8.096 4.257-12.008 11.48-1.511 2.789-1.831 5.53-.951 8.145.447 1.328 1.173 2.492 2.026 3.48a.73.73 0 00.136.143c1.362 1.526 3.014 2.618 4.385 3.198 1.253.53 3.903 1.375 6.885 1.99.062.12.144.229.265.302.39.237.835.356 1.279.356.333 0 .661-.081.971-.215 1.353.194 2.714.316 3.992.316.976 0 1.898-.078 2.739-.239-.259 3.095-1.534 12.67-7.409 14.147-5.906 1.484-9.695-.354-10.851-1.053l2.527-13.039a.764.764 0 00-.578-.902c-.399-.085-.789.185-.87.6l-2.626 13.552a.781.781 0 00.276.759c.099.078 1.432 1.104 3.869 1.722.702 6.877.702 15.699-.001 22.481-.001.013.005.026.004.039-.001.015-.008.027-.008.042v5.027c0 .423.331.766.738.766h25.773a.748.748 0 00.731-.655c.336-2.371-.425-4.261-2.18-5.513.678-6.477 1.01-15.615-.053-22.406a.762.762 0 00-.128-.314 9.255 9.255 0 001.207.316.723.723 0 00.585-.165.78.78 0 00.268-.563c.012-.32.116-3.136.212-7.015.313.057.732.114 1.196.114.71 0 1.49-.136 2.017-.617.312-.287.666-.813.572-1.691-.156-1.454-.308-2.849-.392-3.613.535-.257.763-.555.855-.744a.767.767 0 00.08-.356c-.123-9.068-1.345-16.134-3.635-21.001z"/><path fill-rule="evenodd" clip-rule="evenodd" d="M262.204 61.46l.091.002a5.1 5.1 0 002.518-.67.78.78 0 00.292-1.04.724.724 0 00-1.003-.303 3.529 3.529 0 01-1.872.48c-.416-.021-.744.33-.751.754a.752.752 0 00.725.778zM263.956 62.545c-.536 0-.972.45-.972 1.008 0 .556.436 1.007.972 1.007.537 0 .971-.45.971-1.007 0-.557-.434-1.008-.971-1.008z"/><path opacity=".7" d="M230.482 162.091V173h-1.321v-9.737h-5.498V173h-1.321v-10.909h8.14zm5.924 11.079c-.788 0-1.468-.174-2.04-.522a3.5 3.5 0 01-1.316-1.47c-.305-.632-.458-1.367-.458-2.205 0-.838.153-1.577.458-2.216.309-.643.739-1.143 1.289-1.502.554-.362 1.201-.543 1.939-.543.426 0 .847.071 1.263.213.415.142.793.373 1.134.692.341.316.613.735.815 1.257.203.522.304 1.165.304 1.929v.532h-5.939c.028.874.275 1.543.74 2.008.469.466 1.073.698 1.811.698.494 0 .918-.106 1.273-.319.355-.213.613-.533.773-.959l1.214.341c-.192.618-.575 1.117-1.15 1.496-.576.38-1.279.57-2.11.57zm-2.551-4.921h4.661c0-.693-.203-1.266-.608-1.721-.405-.458-.948-.687-1.63-.687-.479 0-.895.112-1.246.335a2.408 2.408 0 00-.831.89c-.203.366-.318.76-.346 1.183zm7.851 7.819v-11.25h1.215v1.3h.149c.092-.142.22-.323.383-.543.167-.224.405-.423.714-.597.313-.178.735-.266 1.268-.266.689 0 1.296.172 1.822.516.525.345.935.833 1.23 1.465.295.632.442 1.378.442 2.237 0 .867-.147 1.618-.442 2.254-.295.632-.703 1.122-1.225 1.47-.522.344-1.124.516-1.806.516-.525 0-.946-.087-1.262-.261a2.337 2.337 0 01-.73-.601 8.3 8.3 0 01-.394-.565h-.107v4.325h-1.257zm1.236-7.159c0 .927.201 1.682.602 2.264.405.579.985.868 1.742.868.525 0 .964-.138 1.315-.415a2.53 2.53 0 00.799-1.13 4.408 4.408 0 00.272-1.587c0-.575-.089-1.094-.266-1.555a2.402 2.402 0 00-.794-1.103c-.351-.273-.794-.41-1.326-.41-.767 0-1.35.282-1.747.847-.398.564-.597 1.305-.597 2.221zm11.335 4.261c-.788 0-1.468-.174-2.04-.522a3.5 3.5 0 01-1.316-1.47c-.305-.632-.458-1.367-.458-2.205 0-.838.153-1.577.458-2.216.309-.643.739-1.143 1.289-1.502.554-.362 1.201-.543 1.939-.543.427 0 .847.071 1.263.213.415.142.794.373 1.134.692.341.316.613.735.815 1.257.203.522.304 1.165.304 1.929v.532h-5.939c.028.874.275 1.543.74 2.008.469.466 1.073.698 1.811.698.494 0 .918-.106 1.273-.319.355-.213.613-.533.773-.959l1.214.341c-.192.618-.575 1.117-1.15 1.496-.576.38-1.279.57-2.11.57zm-2.551-4.921h4.661c0-.693-.203-1.266-.608-1.721-.404-.458-.948-.687-1.63-.687-.479 0-.894.112-1.246.335a2.408 2.408 0 00-.831.89c-.202.366-.318.76-.346 1.183zm7.127 4.751v-1.172h.298c.327 0 .583-.09.767-.272.185-.184.322-.52.41-1.006.089-.49.151-1.193.187-2.11l.149-3.622h5.455V173h-1.258v-7.01h-3.004l-.128 2.919c-.039.895-.135 1.646-.287 2.253-.153.608-.402 1.066-.746 1.375-.341.309-.813.463-1.417.463h-.426zm12.896.17c-.739 0-1.387-.175-1.944-.527a3.575 3.575 0 01-1.3-1.475c-.309-.632-.464-1.371-.464-2.216 0-.853.155-1.597.464-2.232a3.574 3.574 0 011.3-1.481c.557-.352 1.205-.527 1.944-.527.738 0 1.385.175 1.939.527.557.352.991.845 1.299 1.481.313.635.469 1.379.469 2.232 0 .845-.156 1.584-.469 2.216a3.525 3.525 0 01-1.299 1.475c-.554.352-1.201.527-1.939.527zm0-1.129c.561 0 1.023-.144 1.385-.431.362-.288.63-.666.804-1.135.174-.469.261-.976.261-1.523 0-.547-.087-1.057-.261-1.529a2.577 2.577 0 00-.804-1.145c-.362-.291-.824-.437-1.385-.437s-1.023.146-1.385.437c-.362.291-.63.673-.804 1.145a4.388 4.388 0 00-.261 1.529c0 .547.087 1.054.261 1.523.174.469.442.847.804 1.135.362.287.824.431 1.385.431zm10.101-.746l2.855-6.477h1.619V173h-1.257v-6.259L282.361 173h-1.023l-2.706-6.376V173h-1.257v-8.182h1.662l2.813 6.477z"/><path d="M210.076 14V3.09h4.176c1.183 0 2.067.269 2.653.805.589.536.884 1.211.884 2.024 0 .664-.185 1.186-.554 1.566-.369.38-.82.633-1.353.757v.106c.387.018.758.135 1.113.352.359.217.652.522.879.916.228.39.341.861.341 1.412 0 .564-.137 1.072-.41 1.523-.273.448-.685.8-1.236 1.06-.55.26-1.243.389-2.077.389h-4.416zm1.976-1.651h2.126c.717 0 1.234-.137 1.55-.41.319-.277.479-.633.479-1.066 0-.486-.178-.895-.533-1.225-.351-.33-.832-.495-1.443-.495h-2.179v3.196zm0-4.619h1.955c.515 0 .945-.138 1.289-.415.345-.28.517-.66.517-1.14 0-.423-.149-.77-.448-1.044-.294-.273-.733-.41-1.315-.41h-1.998v3.01zm7.797 9.338V5.818h1.896v1.353h.112c.1-.199.238-.41.416-.634a2.23 2.23 0 01.735-.58c.312-.164.708-.245 1.188-.245.632 0 1.202.161 1.71.484.511.324.916.798 1.214 1.423.302.625.453 1.392.453 2.3 0 .9-.147 1.663-.442 2.291-.295.629-.696 1.108-1.204 1.438a3.096 3.096 0 01-1.726.496c-.469 0-.858-.078-1.166-.235a2.37 2.37 0 01-.746-.564 3.641 3.641 0 01-.432-.634h-.08v4.357h-1.928zm1.891-7.159c0 .792.167 1.433.501 1.923.334.486.808.73 1.422.73.636 0 1.119-.25 1.449-.751.33-.501.495-1.135.495-1.902 0-.763-.163-1.39-.49-1.88-.326-.49-.811-.735-1.454-.735-.621 0-1.097.238-1.427.713-.331.473-.496 1.107-.496 1.902zm11.106 4.25c-.82 0-1.528-.171-2.125-.516a3.466 3.466 0 01-1.369-1.46c-.32-.628-.479-1.37-.479-2.226 0-.842.159-1.58.479-2.216.32-.64.769-1.136 1.348-1.491.582-.359 1.264-.538 2.045-.538.671 0 1.291.145 1.859.436.568.288 1.023.737 1.364 1.348.344.607.516 1.39.516 2.35v.59h-5.699c.011.7.204 1.245.581 1.636.379.39.882.586 1.507.586.415 0 .774-.09 1.076-.267.305-.18.524-.444.655-.788l1.801.202c-.171.71-.569 1.28-1.194 1.71-.621.43-1.409.645-2.365.645zm-2.056-5.022h3.846c-.003-.558-.177-1.018-.522-1.38-.341-.362-.788-.543-1.342-.543-.576 0-1.043.19-1.401.57-.359.38-.552.83-.581 1.353zm12.035 2.62l2.429-5.939h2.343V14h-1.843V8.428L243.501 14h-1.348l-2.178-5.513V14h-1.859V5.818h2.344l2.365 5.94zm10.339 2.403c-.821 0-1.529-.172-2.126-.517a3.466 3.466 0 01-1.369-1.46c-.319-.628-.479-1.37-.479-2.226 0-.842.16-1.58.479-2.216.32-.64.769-1.136 1.348-1.491.582-.359 1.264-.538 2.045-.538a4.02 4.02 0 011.86.436c.568.288 1.022.737 1.363 1.348.345.607.517 1.39.517 2.35v.59h-5.7c.011.7.204 1.245.581 1.636.38.39.882.586 1.507.586.416 0 .774-.09 1.076-.267.306-.18.524-.444.656-.788l1.8.202c-.171.71-.568 1.28-1.193 1.71-.622.43-1.41.645-2.365.645zm-2.056-5.023h3.845c-.003-.558-.177-1.018-.522-1.38-.34-.362-.788-.543-1.342-.543-.575 0-1.042.19-1.401.57-.358.38-.552.83-.58 1.353zm9.184-3.319V9.11h3.17V5.818h1.853V14h-1.853v-3.308h-3.17V14h-1.859V5.818h1.859zm8.833 0V9.11h3.17V5.818h1.853V14h-1.853v-3.308h-3.17V14h-1.859V5.818h1.859zm8.833 2.664h1.859c1.041 0 1.847.253 2.419.761.575.505.864 1.17.868 1.998-.004.802-.293 1.463-.868 1.981-.572.519-1.378.778-2.419.778h-3.718V5.818h1.859v2.664zm0 1.582v2.354h1.859c.419 0 .764-.107 1.034-.32a1.02 1.02 0 00.404-.83c0-.356-.135-.645-.404-.869-.27-.224-.615-.335-1.034-.335h-1.859zM284.121 14V5.818h1.928V14h-1.928zm7.539.16c-.821 0-1.529-.172-2.126-.517a3.466 3.466 0 01-1.369-1.46c-.319-.628-.479-1.37-.479-2.226 0-.842.16-1.58.479-2.216.32-.64.769-1.136 1.348-1.491.583-.359 1.264-.538 2.046-.538.671 0 1.29.145 1.859.436.568.288 1.022.737 1.363 1.348.345.607.517 1.39.517 2.35v.59h-5.7c.011.7.205 1.245.581 1.636.38.39.882.586 1.507.586.416 0 .775-.09 1.076-.267.306-.18.524-.444.656-.788l1.8.202c-.17.71-.568 1.28-1.193 1.71-.622.43-1.41.645-2.365.645zm-2.056-5.023h3.846c-.004-.558-.178-1.018-.522-1.38-.341-.362-.789-.543-1.343-.543-.575 0-1.042.19-1.401.57-.358.38-.552.83-.58 1.353z" /><path fill-rule="evenodd" clip-rule="evenodd" d="M80.151 97.19c-4.283.159-8.87-1.138-12.975-3.653.571-3.145 1.947-6.128 4.011-8.531a.783.783 0 00.114-.203c.796-.176 1.592-.34 2.39-.492 2.407-.456 4.416-.697 6.392-.4 2.262.341 4.033 1.395 5.742 3.42.006.008.016.01.022.018.007.008.01.017.017.024 1.697 1.73 1.083 4.934-.532 6.73-1.37 1.522-3.28 2.405-5.18 3.086zm1.227 3.502c-2.106 1.977-5.543 2.793-9.939 2.387a4.344 4.344 0 00-.093-1.444c1.747-.5 3.492-1.066 5.186-1.632.746-.249 1.49-.497 2.233-.739 1.42-.46 3.035-.996 4.549-1.794a6.771 6.771 0 01-1.936 3.222zm-19.1 2.107c-.36-.235-.586-.64-.523-.941.071-.348.493-.596.854-.679.388-.088.82-.073 1.278-.056.176.006.351.013.526.014.645.007 1.596-.063 2.339-.698.086-.073.169-.155.252-.238.08-.079.2-.199.242-.215.041-.003.147.028.46.249l2.074 1.467c.183.244.245.795.172 1.375-2.053.968-7.035.045-7.674-.278zm8.155-2.486l-1.898-1.343c-.315-.224-.895-.628-1.585-.48a18.122 18.122 0 01.007-3.32c2.958 1.722 6.133 2.86 9.285 3.322l-.16.053c-1.85.618-3.758 1.248-5.65 1.768zm-10.118 1.223a2.122 2.122 0 00-.036.513c-.057-.015-.11-.037-.172-.037-2.328-.022-3.84-.523-4.762-1.575-1.922-2.2-.397-6.983 1.542-9.445 2.011-2.551 3.783-3.125 7.077-4.193a80.366 80.366 0 015.075-1.457c-1.77 2.496-2.932 5.426-3.399 8.478l-.001.008a19.838 19.838 0 00-.064 5.583c-.277.131-.657.192-1.153.195a16.31 16.31 0 01-.483-.012c-.529-.02-1.078-.041-1.647.09-1.017.234-1.793.961-1.977 1.852zm-5.748.669c-.46 1.16-.904 2.322-1.346 3.477-.677.133-1.479-.19-2.067-.595-.336-.232-.52-.431-.563-.608-.034-.144.002-.371.036-.59l.519-3.272c.175-1.059.368-2.112.56-3.163.676-3.693 1.374-7.512 1.198-11.341v-.001c0-2.343 1.455-5.513 3.63-6.628.838.504 1.742.917 2.724 1.144a6.836 6.836 0 001.53.175c2.099 0 4.031-.989 4.997-2.66a5.38 5.38 0 00.64-1.804c.158.06.315.126.474.173a5.615 5.615 0 001.592.236c1.25 0 2.394-.45 3.22-1.264-.248.538-.209.994-.109 1.288.309.902 1.33 1.387 2.388 1.777.443.163.968.291 1.476.416.564.138 1.148.282 1.502.447.81.38 1.02.932 1.378 2.046.081.25.168.52.27.799-1.756-.038-3.517.231-5.19.548-3.33.63-6.66 1.482-9.979 2.558-1.716.557-3.123 1.022-4.407 1.755a7.55 7.55 0 00.101-1.51.756.756 0 00-.763-.737c-.406.015-.723.37-.708.793a6.019 6.019 0 01-.387 2.327.767.767 0 00-.027.42c-.504.452-1.003.97-1.508 1.611-2.284 2.9-4.074 8.49-1.493 11.444.155.176.323.325.494.473a.758.758 0 00-.183.266zm-2.869 10.496c-.616.168-1.35-.085-1.748-.601-.665-.861-.417-2.169-.28-2.691.146-.557.363-1.098.594-1.67.151-.375.3-.763.435-1.161.647.379 1.303.597 1.93.646l.716 1.682c.168.394.294.715.259.968-.011.079-.08.163-.04.178-.395-.11-.796.138-.898.547a.778.778 0 00.243.775c-.135.616-.625 1.167-1.211 1.327zm.791-39.19c-.319-.734-.412-1.783.099-2.47.327-.44.875-.722 1.455-1.022.647-.334 1.316-.68 1.842-1.295 1.277-1.492.968-3.524.697-5.318l-.077-.513c-.342-2.394.011-6.896 1.366-8.789 1.314-1.836 5.526-4.457 8.783-4.457.07 0 .142 0 .212.003 1.096.04 2.98.763 4.803 1.462 1.45.557 2.821 1.084 3.943 1.338.868.197 1.765.437 2.376 1.009.465.435.726 1.265.378 1.726-.165.22-.465.38-.809.55-.29.144-.588.3-.895.46-2.515 1.303-5.645 2.926-10.774 2.084-.4-.067-.778.22-.842.637-.063.417.211.81.612.876.783.128 1.523.203 2.227.233-.775 1.753-1.763 1.91-2.719 2.061-.75.12-1.78.283-2.1 1.505-.68 2.592-.484 4.521.722 7.12 1.39 2.995 1.625 5.107.736 6.644-.978 1.69-3.23 2.175-4.947 1.777-2.026-.466-3.762-1.902-5.193-3.246-.704-.66-1.49-1.443-1.895-2.375zM75.7 60.965c-.834 2.037-.774 3.605-.77 3.671 0 .014.007.027.01.041.001.016-.004.029-.003.043l.667 4.327a.41.41 0 01-.269.443l-1.63.16a.748.748 0 00-.659.65 3.94 3.94 0 01-.618 1.653c-.27-.04-.574-.117-.78-.289-.058-.049-.11-.104-.165-.16l-.35-.357a.717.717 0 00-1.04.01.789.789 0 00.01 1.084l.347.354c.089.09.178.18.275.261.237.198.5.326.76.421a9.637 9.637 0 00-.371.571c-.708 1.198-2.204 1.666-3.812 1.192a5.125 5.125 0 01-.802-.326c-.121-1.695-.778-3.363-1.384-4.669-1.046-2.251-1.21-3.834-.629-6.05.054-.209.102-.268.903-.394 1.1-.176 2.762-.44 3.868-3.017a.793.793 0 00.025-.557c2.63-.108 4.68-.843 6.361-1.627.296.74.321 1.639.056 2.565zm-4.579 75.229c-.01.043 0 .083-.003.125-1.427.261-2.283.216-3.539-.1l.584-8.405a.765.765 0 00-.336-.686c1.9-.014 3.787-.073 5.312-.206l-2.018 9.272zm5.815 4.845l-5.666.018c-.555-1.291-1.4-2.207-2.26-3.057.158.011.317.022.48.022.584 0 1.216-.069 1.97-.211.9.402 4.367 2.031 4.86 2.414.288.224.497.518.616.814zm-14.885-3.074l.016-.022c.016-.02.03-.042.046-.064.012-.018.026-.034.037-.053.014-.023.017-.049.028-.072 0-.004.003-.006.005-.01a9.55 9.55 0 001.678.161c.808 0 1.685-.097 2.678-.28.382.421.769.812 1.147 1.181.755.739 1.433 1.407 1.929 2.255l-7.596.022.032-3.118zm4.792-10.833h.181a.761.761 0 00-.328.572l-.588 8.447c-1.578.275-2.796.292-3.969.045l-.889-9.164c1.497.054 3.513.1 5.593.1zm20.093-40.806l-.003-.004c-1.957-2.319-4.003-3.53-6.637-3.926l-.016-.002c-.23-.49-.389-.964-.537-1.423-.362-1.122-.736-2.284-2.169-2.955-.484-.226-1.109-.38-1.77-.541-.469-.115-.955-.234-1.321-.369-1.31-.483-1.473-.789-1.492-.846-.004-.014.007-.077.07-.185a.784.784 0 00-.245-1.053.7.7 0 00-.684-.028c.081-.112.164-.223.236-.344.223-.376.468-.703.707-1.02.511-.68 1.039-1.381 1.313-2.508l1.145-.113a.762.762 0 00.095-.016c.944-.224 1.56-1.146 1.433-2.166l-.661-4.295c-.002-.162.008-1.388.683-3.046.396-1.366.352-2.663-.103-3.748.114-.058.23-.117.34-.175.3-.156.59-.306.874-.447.475-.236.97-.507 1.332-.987.899-1.191.414-2.904-.552-3.808-.878-.822-2.033-1.137-3.047-1.366-1.022-.232-2.408-.764-3.747-1.279-2.02-.775-3.93-1.507-5.262-1.556-3.571-.155-8.508 2.669-10.227 5.07-1.664 2.326-2.022 7.261-1.641 9.929l.078.525c.232 1.53.472 3.111-.342 4.062-.337.395-.852.66-1.397.942-.671.347-1.431.739-1.965 1.456-.779 1.048-.886 2.632-.275 4.037.522 1.201 1.435 2.118 2.25 2.882a24.85 24.85 0 001.76 1.517c-2.348 1.65-3.726 4.97-3.726 7.572 0 .007.004.013.004.018 0 .008-.003.014-.003.02.174 3.66-.48 7.234-1.173 11.018-.194 1.06-.39 2.122-.565 3.191v.002l-.001.002-.52 3.277c-.053.338-.12.758-.011 1.209.066.278.196.506.342.712-.02.04-.047.072-.06.117-.144.489-.336.966-.539 1.471-.238.591-.485 1.203-.657 1.856-.415 1.583-.215 3.061.552 4.053a3.17 3.17 0 002.49 1.228c.262 0 .524-.034.78-.104 1.188-.324 2.12-1.388 2.319-2.647a.78.78 0 00-.01-.27c.361-.279.616-.707.68-1.172.1-.709-.171-1.344-.368-1.807l-.562-1.315c.053-.025.112-.035.163-.063.301-.164.434-.51.366-.84.416-1.089.834-2.185 1.269-3.279.008-.021.005-.043.012-.064 1.382.678 2.948.806 4.154.817h.007c.232 0 .43-.119.565-.293.223.347.515.641.828.846.465.305 3.161.951 5.718.951 1.267 0 2.479-.176 3.39-.615a.7.7 0 00.342.146c.933.099 1.822.148 2.67.148.848 0 1.645-.056 2.407-.154.583 5.839 1.047 13.992-.811 20.512-2.197.691-11.826.573-15.496.354-1.553-7.562-1.408-12.048-1.162-19.349l.017-.472c.014-.422-.304-.777-.71-.791a.749.749 0 00-.762.737l-.016.472c-.247 7.343-.41 12.194 1.308 20.296.004.015.013.027.018.042.01.038.026.071.041.106.023.052.047.1.08.144a.79.79 0 00.198.186c.029.018.056.036.088.05a.711.711 0 00.177.052c.022.004.041.016.064.018.165.013.407.027.71.042l.931 9.622c0 .004-.003.006-.004.01a.76.76 0 00-.016.261.778.778 0 00-.091.346l-.046 4.441c0 .065.006.131.01.196v.007l.001.012c.003.032 0 .062.006.094.005.037.023.067.034.102.011.043.02.085.04.125.015.03.035.055.053.082a.718.718 0 00.601.348h.002l16.472-.049.005.001a.713.713 0 00.271-.058c.028-.011.052-.032.08-.048a.752.752 0 00.144-.101c.026-.026.046-.056.069-.084a.882.882 0 00.089-.138c.017-.038.028-.076.04-.115.009-.032.026-.058.032-.092.172-1.041-.333-2.192-1.289-2.935-.604-.467-3.361-1.766-4.68-2.372.012-.031.03-.059.038-.092l2.06-9.469a.778.778 0 00.003-.316c.685-.108 1.221-.242 1.534-.409.014-.007.021-.02.034-.028a.724.724 0 00.152-.126c.017-.018.037-.035.053-.055a.784.784 0 00.113-.213c.003-.01.01-.017.013-.028l.002-.003c2.065-6.876 1.566-15.481.955-21.566 1.967-.453 3.602-1.285 4.889-2.492 1.857-1.744 2.542-3.953 2.578-5.377a9.693 9.693 0 001.463-1.303c2.11-2.345 2.814-6.432.529-8.822z" /><path fill-rule="evenodd" clip-rule="evenodd" d="M83.102 89.34c-.246 1.555-1.602 2.704-2.79 3.26a7.282 7.282 0 01-5.768.175c-.906-.36-1.583-.85-2.01-1.456-.464-.657-.609-1.488-.37-2.12.28-.74 1.107-1.161 1.98-1.607.235-.119.467-.237.69-.362 1.326-.74 2.576-.742 4.468-.748.57-.002 1.19-.004 1.88-.025.486.014.956.277 1.326.738.48.6.708 1.422.594 2.145zm-1.91-4.414h-.036c-.682.022-1.295.023-1.859.025-2.036.006-3.508.01-5.159.93-.207.116-.424.226-.641.337-1.037.528-2.214 1.128-2.703 2.42-.427 1.127-.214 2.5.553 3.587.598.846 1.497 1.513 2.67 1.98a8.717 8.717 0 006.9-.208c1.989-.933 3.349-2.58 3.638-4.408.184-1.168-.158-2.429-.916-3.374-.651-.813-1.52-1.272-2.447-1.289zM78.2 102.8a1.959 1.959 0 01-.847-.932.726.726 0 00-.973-.382.778.778 0 00-.368 1.013 3.46 3.46 0 001.504 1.658c.11.059.226.087.34.087a.733.733 0 00.654-.41.781.781 0 00-.31-1.034zM71.81 64.811c-.521.124-.847.664-.728 1.207.12.541.64.881 1.16.757.522-.125.848-.664.73-1.206-.12-.543-.64-.882-1.161-.758zM70.383 63.355a10.919 10.919 0 012.736.123.745.745 0 00.848-.629.763.763 0 00-.606-.881 12.268 12.268 0 00-3.094-.14c-.405.034-.708.403-.676.825.032.42.389.737.792.702z" /><path opacity=".7" d="M1.321 173v-10.909h3.686c.856 0 1.556.154 2.099.463.547.306.952.719 1.214 1.241.263.522.394 1.105.394 1.748 0 .642-.13 1.227-.394 1.752-.259.526-.66.945-1.204 1.257-.543.309-1.239.464-2.088.464H2.642V173H1.321zm1.321-5.156h2.344c.877 0 1.5-.22 1.87-.661.372-.44.559-.987.559-1.64 0-.657-.187-1.201-.56-1.63-.372-.434-1.003-.65-1.89-.65H2.641v4.581zm11.373 5.326c-.789 0-1.469-.174-2.04-.522a3.498 3.498 0 01-1.316-1.47c-.306-.632-.458-1.367-.458-2.205 0-.838.152-1.577.458-2.216.309-.643.738-1.143 1.289-1.502.554-.362 1.2-.543 1.939-.543.426 0 .847.071 1.262.213.416.142.794.373 1.135.692.34.316.612.735.815 1.257.202.522.303 1.165.303 1.929v.532h-5.939c.029.874.275 1.543.74 2.008.47.466 1.073.698 1.812.698.493 0 .917-.106 1.273-.319.355-.213.612-.533.772-.959l1.215.341c-.192.618-.576 1.117-1.151 1.496-.575.38-1.278.57-2.11.57zm-2.552-4.921h4.66c0-.693-.202-1.266-.606-1.721-.405-.458-.948-.687-1.63-.687-.48 0-.895.112-1.247.335a2.415 2.415 0 00-.83.89c-.203.366-.319.76-.347 1.183zm13.924-6.499l.64.767c-.25.242-.537.41-.864.506a4.804 4.804 0 01-1.108.176c-.412.021-.87.042-1.374.064-.852.032-1.488.326-1.907.884-.419.558-.671 1.364-.756 2.418h.106c.277-.511.66-.887 1.15-1.129a3.525 3.525 0 011.578-.362c.639 0 1.214.149 1.725.447.512.299.917.741 1.215 1.327.298.586.447 1.308.447 2.168 0 .855-.152 1.594-.458 2.216a3.382 3.382 0 01-1.273 1.438c-.543.334-1.18.5-1.912.5-1.097 0-1.983-.388-2.658-1.166-.671-.778-1.007-1.923-1.007-3.436v-.873c0-3.672 1.243-5.54 3.729-5.604.163-.004.318-.005.463-.005.15-.004.293-.006.432-.006.415.004.774-.007 1.076-.032.302-.028.554-.128.756-.298zm-2.791 10.291c.742 0 1.325-.273 1.747-.82.426-.551.64-1.286.64-2.205 0-.895-.216-1.588-.645-2.078-.426-.49-1.014-.735-1.763-.735-.728 0-1.305.245-1.732.735-.422.49-.64 1.183-.655 2.078 0 .916.215 1.649.645 2.2.43.55 1.017.825 1.763.825zm8.997 1.129c-.789 0-1.469-.174-2.04-.522a3.497 3.497 0 01-1.316-1.47c-.305-.632-.458-1.367-.458-2.205 0-.838.152-1.577.458-2.216.309-.643.739-1.143 1.289-1.502.554-.362 1.2-.543 1.939-.543.426 0 .847.071 1.262.213.416.142.794.373 1.135.692.34.316.612.735.815 1.257.202.522.303 1.165.303 1.929v.532h-5.939c.029.874.275 1.543.74 2.008.47.466 1.073.698 1.812.698.493 0 .918-.106 1.273-.319.355-.213.612-.533.772-.959l1.215.341c-.192.618-.576 1.117-1.15 1.496-.576.38-1.28.57-2.11.57zm-2.552-4.921h4.661c0-.693-.202-1.266-.607-1.721-.405-.458-.948-.687-1.63-.687-.48 0-.895.112-1.247.335a2.415 2.415 0 00-.83.89c-.203.366-.318.76-.347 1.183zm9.109-3.431v3.516h3.92v-3.516h1.257V173H42.07v-3.494h-3.92V173h-1.257v-8.182h1.257zm10.797 8.352c-.739 0-1.387-.175-1.944-.527-.554-.351-.987-.843-1.3-1.475-.309-.632-.463-1.371-.463-2.216 0-.853.154-1.597.463-2.232.313-.636.746-1.129 1.3-1.481.557-.352 1.206-.527 1.944-.527.739 0 1.385.175 1.939.527.557.352.99.845 1.3 1.481.312.635.468 1.379.468 2.232 0 .845-.156 1.584-.468 2.216a3.53 3.53 0 01-1.3 1.475c-.554.352-1.2.527-1.939.527zm0-1.129c.561 0 1.023-.144 1.385-.431.362-.288.63-.666.804-1.135.174-.469.261-.976.261-1.523 0-.547-.087-1.057-.26-1.529a2.577 2.577 0 00-.805-1.145c-.362-.291-.824-.437-1.385-.437s-1.023.146-1.385.437c-.362.291-.63.673-.804 1.145a4.388 4.388 0 00-.261 1.529c0 .547.087 1.054.26 1.523.175.469.443.847.805 1.135.362.287.824.431 1.385.431zm5.626.959v-8.182h1.258v3.558h.83l2.94-3.558h1.62l-3.302 3.942 3.345 4.24h-1.62l-2.684-3.452h-1.13V173h-1.257zm13.533-8.182v3.516h3.92v-3.516h1.258V173h-1.258v-3.494h-3.92V173h-1.257v-8.182h1.257zm9.88 8.374a3.33 3.33 0 01-1.41-.293 2.424 2.424 0 01-1.007-.858c-.249-.376-.373-.831-.373-1.363 0-.469.092-.849.277-1.14.184-.295.431-.526.74-.693.31-.167.65-.291 1.023-.373.376-.085.754-.152 1.135-.202.497-.064.9-.112 1.209-.144.312-.035.54-.094.681-.176.146-.081.219-.223.219-.426v-.042c0-.526-.144-.934-.432-1.226-.284-.291-.715-.436-1.294-.436-.6 0-1.07.131-1.412.394-.34.263-.58.543-.719.841l-1.193-.426c.213-.497.497-.884.852-1.161.36-.281.75-.476 1.172-.586.426-.114.845-.17 1.257-.17.263 0 .565.032.906.096.344.06.676.186.996.378.323.191.591.481.804.868.213.387.32.906.32 1.555V173H80.48v-1.108h-.064a2.197 2.197 0 01-.426.57 2.465 2.465 0 01-.794.517c-.33.142-.733.213-1.21.213zm.193-1.13c.497 0 .916-.097 1.257-.292a2 2 0 001.044-1.732v-1.15c-.053.064-.17.122-.352.176a6.108 6.108 0 01-.618.133c-.23.035-.456.067-.676.096a23.87 23.87 0 00-.527.064 4.744 4.744 0 00-.917.207c-.28.093-.508.233-.681.421-.17.185-.256.437-.256.756 0 .437.161.768.485.991.326.22.74.33 1.24.33zm10.071 4.006v-11.25h1.215v1.3h.149c.092-.142.22-.323.383-.543.167-.224.405-.423.714-.597.313-.178.735-.266 1.268-.266.689 0 1.296.172 1.822.516.525.345.935.833 1.23 1.465.295.632.442 1.378.442 2.237 0 .867-.147 1.618-.442 2.254-.295.632-.703 1.122-1.225 1.47-.522.344-1.124.516-1.806.516-.525 0-.946-.087-1.262-.261a2.34 2.34 0 01-.73-.601 8.242 8.242 0 01-.394-.565h-.107v4.325H88.25zm1.236-7.159c0 .927.2 1.682.602 2.264.405.579.985.868 1.742.868.525 0 .964-.138 1.315-.415.356-.281.622-.657.8-1.13a4.428 4.428 0 00.271-1.587c0-.575-.089-1.094-.266-1.555a2.402 2.402 0 00-.794-1.103c-.352-.273-.794-.41-1.326-.41-.767 0-1.35.282-1.747.847-.398.564-.597 1.305-.597 2.221zm8.379 7.266c-.213 0-.403-.018-.57-.054a1.514 1.514 0 01-.346-.095l.32-1.108c.457.117.84.113 1.144-.011.31-.121.574-.487.794-1.097l.277-.767-3.025-8.225h1.363l2.259 6.52h.085l2.259-6.52h1.363l-3.515 9.503c-.462 1.236-1.265 1.854-2.408 1.854zm7.582-3.175v-8.182h1.258v3.558h.831l2.94-3.558h1.619l-3.302 3.942 3.345 4.24h-1.62l-2.684-3.452h-1.129V173h-1.258zm10.465.192c-.519 0-.989-.098-1.412-.293a2.43 2.43 0 01-1.007-.858c-.248-.376-.372-.831-.372-1.363 0-.469.092-.849.277-1.14.184-.295.431-.526.74-.693a3.9 3.9 0 011.023-.373c.376-.085.754-.152 1.134-.202.497-.064.9-.112 1.209-.144.313-.035.54-.094.682-.176.146-.081.219-.223.219-.426v-.042c0-.526-.144-.934-.432-1.226-.284-.291-.715-.436-1.294-.436-.6 0-1.071.131-1.412.394-.341.263-.58.543-.719.841l-1.193-.426c.213-.497.497-.884.852-1.161a3.186 3.186 0 011.172-.586c.426-.114.845-.17 1.257-.17.263 0 .565.032.906.096.344.06.676.186.996.378.323.191.591.481.804.868.213.387.32.906.32 1.555V173h-1.257v-1.108h-.064a2.213 2.213 0 01-.426.57 2.471 2.471 0 01-.794.517c-.33.142-.733.213-1.209.213zm.192-1.13c.497 0 .916-.097 1.257-.292a2.001 2.001 0 001.044-1.732v-1.15c-.054.064-.171.122-.352.176a6.04 6.04 0 01-.618.133c-.231.035-.456.067-.676.096-.217.024-.393.046-.528.064a4.756 4.756 0 00-.916.207c-.28.093-.508.233-.682.421-.17.185-.255.437-.255.756 0 .437.161.768.484.991.327.22.741.33 1.242.33zm6.79-7.244l1.96 3.345 1.96-3.345h1.449l-2.642 4.091 2.642 4.091h-1.449l-1.96-3.175-1.96 3.175h-1.449l2.599-4.091-2.599-4.091h1.449z" /><path d="M26.414 6.772h-1.992c-.114-.654-.409-1.16-.885-1.518-.476-.36-1.046-.538-1.71-.538-.89 0-1.62.33-2.189.99-.568.66-.852 1.607-.852 2.84 0 1.25.284 2.201.852 2.855.572.65 1.3.974 2.184.974.654 0 1.218-.172 1.694-.516.48-.348.781-.842.906-1.481l1.992.01c-.1.697-.35 1.329-.751 1.897a4.32 4.32 0 01-1.588 1.358c-.653.337-1.413.506-2.28.506-.958 0-1.814-.222-2.567-.666-.753-.447-1.346-1.088-1.78-1.923-.432-.838-.649-1.843-.649-3.015 0-1.175.218-2.18.655-3.014.437-.839 1.032-1.48 1.785-1.923.756-.444 1.608-.666 2.556-.666.807 0 1.536.15 2.19.453a4.158 4.158 0 011.624 1.31c.426.568.695 1.257.805 2.067zm3.583 4.618l3.276-5.572h1.982V14H33.39V8.423L30.125 14h-1.987V5.818h1.86v5.572zM36.32 7.4V5.818h7.159V7.4H40.83V14h-1.864V7.4H36.32zm9.823 9.785a3.21 3.21 0 01-1.214-.218l.447-1.545c.423.121.776.142 1.06.064.288-.078.523-.343.704-.793l.191-.522-2.967-8.353h2.046l1.886 6.18h.085l1.89-6.18h2.051l-3.302 9.247c-.227.643-.577 1.156-1.05 1.54-.472.387-1.08.58-1.827.58zm9.78-3.02c-.78 0-1.433-.21-1.955-.628-.522-.42-.783-1.03-.783-1.833 0-.614.148-1.09.443-1.427.298-.341.683-.588 1.155-.74a7.326 7.326 0 011.508-.32c.72-.079 1.237-.151 1.55-.219.316-.067.474-.24.474-.516V8.45c0-.402-.119-.712-.357-.933-.238-.22-.58-.33-1.028-.33-.472 0-.847.103-1.124.31-.273.205-.458.448-.554.729l-1.8-.256c.213-.746.628-1.308 1.246-1.688.622-.38 1.362-.57 2.221-.57.391 0 .782.046 1.172.138.39.092.748.245 1.071.458.327.213.588.501.783.863.199.362.298.813.298 1.353V14H58.39v-1.124h-.064c-.174.345-.458.646-.853.906-.39.255-.907.383-1.55.383zm.501-1.417c.582 0 1.044-.167 1.385-.5a1.6 1.6 0 00.511-1.183v-.964c-.081.067-.232.128-.452.181-.217.05-.448.092-.693.128l-.623.09c-.43.06-.788.18-1.076.357-.288.174-.432.446-.432.815 0 .355.13.623.39.805.258.18.589.271.99.271zM61.265 7.4V5.818h7.16V7.4h-2.648V14h-1.865V7.4h-2.647zm10.553 3.99l3.276-5.572h1.982V14h-1.864V8.423L71.946 14H69.96V5.818h1.859v5.572zM79.056 14V5.818h3.436c.966 0 1.731.195 2.296.586.564.387.847.925.847 1.614 0 .462-.16.836-.48 1.124-.316.284-.747.478-1.294.58.643.057 1.165.272 1.566.645.405.37.607.84.607 1.412 0 .675-.263 1.214-.788 1.62-.526.4-1.268.601-2.227.601h-3.963zm1.806-1.518h2.157c.355 0 .634-.084.837-.25.202-.17.303-.402.303-.693 0-.337-.101-.602-.303-.794-.203-.195-.482-.293-.837-.293h-2.157v2.03zm0-3.276h1.667c.39 0 .698-.083.922-.25a.825.825 0 00.335-.693.76.76 0 00-.346-.66c-.23-.16-.547-.24-.948-.24h-1.63v1.843zm8.623-3.388V9.11h3.169V5.818h1.854V14h-1.854v-3.308h-3.17V14h-1.858V5.818h1.859zm8.833 2.664h1.859c1.04 0 1.846.253 2.418.761.575.505.865 1.17.868 1.998-.003.802-.293 1.463-.868 1.981-.572.519-1.378.778-2.418.778h-3.719V5.818h1.86v2.664zm0 1.582v2.354h1.859c.419 0 .763-.107 1.033-.32a1.02 1.02 0 00.405-.83c0-.356-.135-.645-.405-.869-.27-.224-.614-.335-1.033-.335h-1.86zM104.48 14V5.818h1.928V14h-1.928zm7.538.16c-.82 0-1.529-.172-2.125-.517a3.46 3.46 0 01-1.369-1.46c-.32-.628-.48-1.37-.48-2.226 0-.842.16-1.58.48-2.216a3.585 3.585 0 011.348-1.491c.582-.359 1.264-.538 2.045-.538.671 0 1.291.145 1.859.436.568.288 1.023.737 1.364 1.348.344.607.516 1.39.516 2.35v.59h-5.699c.01.7.204 1.245.58 1.636.38.39.883.586 1.508.586.415 0 .774-.09 1.076-.267.305-.18.524-.444.655-.788l1.8.202c-.17.71-.568 1.28-1.193 1.71-.621.43-1.41.645-2.365.645zm-2.056-5.023h3.846c-.004-.558-.178-1.018-.522-1.38-.341-.362-.788-.543-1.342-.543-.576 0-1.043.19-1.401.57-.359.38-.553.83-.581 1.353z" /><path fill-rule="evenodd" clip-rule="evenodd" d="M455.512 142.006h-11.31c-.108-1.658.366-2.738 1.524-3.514h9.786v3.514zm-21.435-3.514h9.541c-.649.935-.943 2.097-.873 3.514h-10.416c-.063-1.557.501-2.688 1.748-3.514zm22.435-28.405c-.399-.046-.76.261-.802.685-.665 6.606-.902 18.897-.273 26.18h-10.385c-.701-4.714-1.315-11.18-.36-20.002.046-.423-.242-.804-.644-.853-.402-.05-.762.255-.808.677-.958 8.859-.367 15.388.334 20.178h-9.048c-1.173-11.066-1.55-18.955-1.154-24.099.033-.424-.267-.796-.669-.831-.402-.039-.754.282-.787.706-.406 5.278-.018 13.338 1.183 24.617-1.735 1.26-2.487 3.159-2.155 5.543.053.378.36.659.723.659h24.576c.403 0 .73-.345.73-.771v-5.054c0-.016-.007-.028-.008-.042 0-.014.006-.026.004-.041-.718-7.045-.49-19.91.193-26.705.042-.423-.248-.803-.65-.847zM437.681 60.318a3.567 3.567 0 011.852.483.7.7 0 00.351.095.725.725 0 00.641-.4.793.793 0 00-.29-1.046 5.005 5.005 0 00-2.579-.672c-.403.008-.725.358-.718.784a.76.76 0 00.743.756zM438.165 61.985c-.531 0-.961.454-.961 1.014s.43 1.013.961 1.013c.53 0 .961-.453.961-1.013 0-.56-.431-1.014-.961-1.014z" /><path fill-rule="evenodd" clip-rule="evenodd" d="M460.38 103.723c-1.09.284-2.234.377-3.356.294-.423-1.77-.257-3.622-.077-5.581.086-.945.176-1.922.193-2.893.008-.45.002-.935-.096-1.431-.091-.463-.251-.877-.405-1.277l-.068-.179c-1.088-2.856-1.536-5.988-1.97-9.017-.06-.42-.434-.714-.832-.646-.399.064-.673.455-.612.876.446 3.116.907 6.338 2.058 9.36l.071.186c.135.352.264.684.329 1.01.067.347.071.728.064 1.09-.016.91-.103 1.857-.187 2.772-.187 2.048-.381 4.165.162 6.306.161.632.36 1.416.292 1.989l-.012.099c-.154 1.307-.239 2.027-3.267 2.785-6.826 1.602-13.788 1.212-20.179-1.099-.021-2.218.162-3.972.356-5.814.192-1.811.389-3.682.43-6.195.108-6.75.242-9.24.336-10.14.051-.49.116-1.024.192-1.57.058-.42-.217-.812-.616-.873-.403-.066-.771.229-.829.65a44.836 44.836 0 00-.198 1.626c-.142 1.355-.258 4.814-.346 10.28-.039 2.44-.233 4.276-.421 6.051-.084.8-.166 1.582-.231 2.392-.709-.148-1.539-.56-1.984-1.133-.349-.45-.268-.78-.241-.888.451-1.826.696-13.585.723-14.938-.009-5.2 3.194-11.337 6.607-13.224.031.44.16.869.363 1.223.426.744 3.251 4.144 4.816 5.168a.702.702 0 00.687.047c2.828-1.353 4.716-3.26 6.541-5.105a62.904 62.904 0 011.646-1.616.71.71 0 00.337.09c2.483-.074 5.892 1.004 7.509 3.527 1.606 2.507 2.374 5.526 3.11 8.45.642 6.022.341 11.856-.895 17.348zm-30.159 5.664c-.968-.447-1.33-1.04-1.251-2.05.043-.554.171-1.101.327-1.662.568.33 1.191.541 1.765.638a37.307 37.307 0 00-.027 2.645.779.779 0 00.18.473c-.33.097-.688.097-.994-.044zm5.63-42.46c-.252-.61-.875-.546-1.424-.488-.173.019-.482.05-.695.047.078-.523.293-1.013.536-1.568.518-1.185 1.163-2.66.834-5.138-.007-.264.196-3.196 1.045-5.603.329-.057.645-.145.938-.23l.3-.086a9.798 9.798 0 016.216.356c-.105 1.002.331 2.122 1.261 3.18.145.165.296.328.448.491.583.627 1.134 1.22 1.293 1.923.069.307.067.66.066 1.033-.001.172-.002.343.003.514.02.666.525 1.502 1.245 1.683.073.018.172.035.289.035.388 0 .973-.186 1.456-1.12.007-.013.006-.028.011-.04.012-.022.03-.035.04-.058.121-.29.285-.557.488-.79l.011.03c.196.574.362 1.123.227 1.52a.75.75 0 01-.476.466c-.388.115-.615.54-.506.95.09.34.384.562.703.562a.676.676 0 00.198-.029c.664-.196 1.222-.744 1.456-1.429.324-.952-.009-1.921-.229-2.563-.09-.265-.367-1.071-1.136-1.189-.43-.064-.845.117-1.233.539-.342.371-.615.8-.819 1.27-.005.008-.013.014-.017.023-.068.13-.125.211-.166.261a.542.542 0 01-.082-.169c-.004-.152-.003-.304-.003-.456.003-.45.005-.914-.105-1.4-.252-1.12-1.007-1.93-1.671-2.645a20.058 20.058 0 01-.42-.46c-.28-.318-1.164-1.422-.8-2.27a.807.807 0 00.018-.59.756.756 0 00-.384-.43 11.19 11.19 0 00-7.749-.688l-.32.09c-.231.067-.455.132-.672.177-.016-.01-.027-.025-.045-.034a.686.686 0 00-.676.068.91.91 0 01-.528-.283c.296-.36.571-.722.829-1.075.666-.91 1.24-1.697 2.161-2.217 2.443-1.38 5.69-1.792 8.905-1.129 2.82.582 6.105 1.603 6.484 4.37a.763.763 0 00.44.6c.452.2.99 1.131 1.172 2.758.324 2.9-.539 6.741-3.091 9.389a.732.732 0 00-.289-.29c-.363-.187-.8-.026-.976.357a17.404 17.404 0 00-1.349 4.387.797.797 0 00.049.404.758.758 0 00-.079.239 7.385 7.385 0 00.244 3.034 62.74 62.74 0 00-1.615 1.596c-1.654 1.67-3.36 3.396-5.763 4.63-1.384-1.09-3.693-3.855-4.019-4.423-.222-.388-.217-.904.011-1.104.025-.023.039-.055.061-.08.026-.031.059-.055.081-.091.235.21.478.4.737.553.419.247 1.075.353 1.818.353 1.721 0 3.899-.571 4.616-1.284a.8.8 0 00.029-1.088.703.703 0 00-1.031-.032c-.58.578-3.927 1.174-4.72.707-.757-.446-1.41-1.335-1.994-2.404.589-.001 1.243-.185 1.756-.923a.799.799 0 00-.157-1.076.706.706 0 00-1.021.166c-.222.317-.468.358-1.252.207-.04-.008-.078.002-.118.001a72.376 72.376 0 01-.798-1.883l-.047-.113zm26.872 19.225c-.002-.02-.013-.035-.017-.054-.003-.02.002-.039-.003-.058-.736-2.924-1.572-6.238-3.328-8.978-1.915-2.987-5.71-4.256-8.66-4.2a5.731 5.731 0 01-.234-2.473.796.796 0 00-.051-.375.793.793 0 00.072-.208c.137-.816.345-1.615.605-2.395a.701.701 0 00.394-.145c3.836-2.97 5.133-8.042 4.717-11.75-.203-1.816-.808-3.161-1.683-3.783-.715-3.429-4.405-4.622-7.582-5.276-3.541-.731-7.14-.263-9.875 1.282-1.198.676-1.926 1.672-2.629 2.635-.324.443-.658.9-1.038 1.326l-.007.011c-.04.048-.066.104-.094.16-.017.034-.042.063-.054.097-.012.037-.011.077-.017.116-.011.06-.026.12-.023.181 0 .005-.003.01-.002.014.056.893.698 1.518 1.418 1.793-.811 2.552-1.034 5.478-.982 5.87.275 2.081-.225 3.225-.709 4.33-.317.725-.646 1.475-.696 2.394-.021.372.1.711.34.954.504.51 1.327.422 1.989.352l.11-.011c.674 1.633 1.418 3.36 2.374 4.675-4.436 1.155-8.87 8.692-8.86 15.165-.103 5.17-.367 13.315-.676 14.564-.193.783-.012 1.561.525 2.252.006.008.015.015.02.023-.243.82-.482 1.666-.553 2.57-.132 1.671.582 2.879 2.122 3.588.368.17.763.251 1.158.251.775 0 1.543-.321 2.1-.908a36.17 36.17 0 0011.423 1.842c2.882 0 5.789-.338 8.672-1.015h.003l.007-.001c3.741-.936 4.165-2.23 4.385-4.095l.011-.098c.047-.391.017-.798-.04-1.203.14.005.278.025.418.025a11.7 11.7 0 003.418-.509.75.75 0 00.505-.554c1.367-5.814 1.713-11.998 1.027-18.381z" /><path opacity=".7" d="M413.526 167.545c0 1.151-.208 2.145-.624 2.983-.415.838-.985 1.485-1.71 1.939-.724.455-1.551.682-2.482.682-.93 0-1.758-.227-2.482-.682-.724-.454-1.294-1.101-1.71-1.939-.415-.838-.623-1.832-.623-2.983 0-1.15.208-2.144.623-2.983.416-.838.986-1.484 1.71-1.938.724-.455 1.552-.682 2.482-.682.931 0 1.758.227 2.482.682.725.454 1.295 1.1 1.71 1.938.416.839.624 1.833.624 2.983zm-1.279 0c0-.944-.158-1.741-.474-2.391-.312-.65-.737-1.142-1.273-1.476a3.3 3.3 0 00-1.79-.5c-.66 0-1.259.166-1.795.5-.533.334-.957.826-1.273 1.476-.312.65-.469 1.447-.469 2.391 0 .945.157 1.742.469 2.392.316.65.74 1.142 1.273 1.476.536.333 1.135.5 1.795.5.661 0 1.257-.167 1.79-.5.536-.334.961-.826 1.273-1.476.316-.65.474-1.447.474-2.392zm2.456 7.799v-3.516h.682c.22-.231.403-.492.548-.783.146-.291.267-.671.362-1.14.096-.469.176-1.085.24-1.848l.277-3.239h5.199v7.01h1.257v3.516h-1.257V173h-6.051v2.344h-1.257zm2.109-3.516h3.942v-5.838h-2.77l-.213 2.067a23.303 23.303 0 01-.33 2.242c-.132.64-.341 1.149-.629 1.529zm9.382-7.01v3.516h3.92v-3.516h1.257V173h-1.257v-3.494h-3.92V173h-1.257v-8.182h1.257zm9.881 8.374c-.519 0-.989-.098-1.412-.293a2.421 2.421 0 01-1.006-.858c-.249-.376-.373-.831-.373-1.363 0-.469.092-.849.277-1.14.184-.295.431-.526.74-.693a3.9 3.9 0 011.023-.373c.376-.085.754-.152 1.134-.202a51.7 51.7 0 011.21-.144c.312-.035.539-.094.681-.176.146-.081.219-.223.219-.426v-.042c0-.526-.144-.934-.432-1.226-.284-.291-.715-.436-1.294-.436-.6 0-1.071.131-1.412.394-.341.263-.58.543-.719.841l-1.193-.426c.213-.497.497-.884.852-1.161.359-.281.75-.476 1.172-.586.426-.114.845-.17 1.257-.17.263 0 .565.032.906.096.344.06.676.186.996.378.323.191.591.481.804.868.213.387.32.906.32 1.555V173h-1.257v-1.108h-.064a2.19 2.19 0 01-.426.57 2.471 2.471 0 01-.794.517c-.33.142-.733.213-1.209.213zm.192-1.13c.497 0 .916-.097 1.257-.292a2.001 2.001 0 001.044-1.732v-1.15c-.054.064-.171.122-.352.176a6.04 6.04 0 01-.618.133c-.231.035-.456.067-.676.096-.217.024-.393.046-.528.064a4.756 4.756 0 00-.916.207c-.28.093-.508.233-.682.421-.17.185-.255.437-.255.756 0 .437.161.768.484.991.327.22.741.33 1.242.33zm10.071 4.006v-11.25h1.215v1.3h.149c.092-.142.22-.323.383-.543.167-.224.405-.423.714-.597.313-.178.735-.266 1.268-.266.689 0 1.296.172 1.821.516.526.345.936.833 1.231 1.465.295.632.442 1.378.442 2.237 0 .867-.147 1.618-.442 2.254-.295.632-.703 1.122-1.225 1.47-.522.344-1.124.516-1.806.516-.525 0-.946-.087-1.262-.261a2.337 2.337 0 01-.73-.601 7.952 7.952 0 01-.394-.565h-.107v4.325h-1.257zm1.236-7.159c0 .927.201 1.682.602 2.264.405.579.985.868 1.742.868.525 0 .964-.138 1.315-.415.355-.281.622-.657.799-1.13a4.43 4.43 0 00.272-1.587c0-.575-.089-1.094-.266-1.555a2.402 2.402 0 00-.794-1.103c-.352-.273-.794-.41-1.326-.41-.767 0-1.35.282-1.748.847-.397.564-.596 1.305-.596 2.221zm8.379 7.266c-.213 0-.403-.018-.57-.054a1.496 1.496 0 01-.346-.095l.319-1.108c.458.117.84.113 1.145-.011.309-.121.574-.487.794-1.097l.277-.767-3.025-8.225h1.363l2.259 6.52h.085l2.258-6.52h1.364l-3.516 9.503c-.461 1.236-1.264 1.854-2.407 1.854zm7.582-3.175v-8.182h1.257v3.558h.831l2.941-3.558h1.619l-3.302 3.942 3.345 4.24h-1.62l-2.684-3.452h-1.13V173h-1.257zm10.465.192c-.519 0-.989-.098-1.412-.293a2.424 2.424 0 01-1.007-.858c-.248-.376-.373-.831-.373-1.363 0-.469.093-.849.277-1.14.185-.295.432-.526.741-.693a3.9 3.9 0 011.023-.373c.376-.085.754-.152 1.134-.202.497-.064.9-.112 1.209-.144.313-.035.54-.094.682-.176.146-.081.219-.223.219-.426v-.042c0-.526-.144-.934-.432-1.226-.284-.291-.715-.436-1.294-.436-.6 0-1.071.131-1.412.394-.341.263-.58.543-.719.841l-1.193-.426c.213-.497.497-.884.852-1.161a3.186 3.186 0 011.172-.586c.426-.114.845-.17 1.257-.17.263 0 .565.032.906.096.344.06.676.186.996.378.323.191.591.481.804.868.213.387.32.906.32 1.555V173h-1.257v-1.108h-.064a2.22 2.22 0 01-.427.57 2.455 2.455 0 01-.793.517c-.33.142-.734.213-1.209.213zm.191-1.13c.498 0 .917-.097 1.258-.292a2.001 2.001 0 001.044-1.732v-1.15c-.054.064-.171.122-.352.176a6.159 6.159 0 01-.618.133c-.231.035-.456.067-.676.096-.217.024-.393.046-.528.064a4.756 4.756 0 00-.916.207c-.28.093-.508.233-.682.421-.17.185-.255.437-.255.756 0 .437.161.768.484.991.327.22.741.33 1.241.33z" /><path d="M402.977 3.09V14h-1.96V4.732h-4.773V14h-1.96V3.09h8.693zm5.847 11.07c-.799 0-1.491-.176-2.077-.527a3.58 3.58 0 01-1.364-1.476c-.319-.636-.479-1.374-.479-2.216 0-.845.16-1.584.479-2.216a3.573 3.573 0 011.364-1.48c.586-.356 1.278-.533 2.077-.533.799 0 1.492.177 2.078.532a3.526 3.526 0 011.363 1.481c.32.632.48 1.37.48 2.216 0 .842-.16 1.58-.48 2.216a3.533 3.533 0 01-1.363 1.476c-.586.351-1.279.527-2.078.527zm.011-1.545c.437 0 .799-.119 1.087-.357.291-.238.507-.56.649-.964.146-.408.219-.861.219-1.358 0-.501-.073-.954-.219-1.359-.142-.408-.358-.733-.649-.974-.288-.242-.65-.363-1.087-.363-.44 0-.808.121-1.103.363-.291.241-.509.566-.655.974a4.007 4.007 0 00-.218 1.359c0 .497.073.95.218 1.358.146.405.364.726.655.964.295.238.663.357 1.103.357zm9.115 1.545c-.813 0-1.512-.18-2.098-.538a3.573 3.573 0 01-1.353-1.492c-.313-.635-.469-1.365-.469-2.189 0-.834.16-1.568.479-2.2a3.627 3.627 0 011.353-1.491c.586-.359 1.279-.538 2.078-.538.667 0 1.257.122 1.768.367.511.242.92.583 1.225 1.023.306.44.48.957.522 1.55h-1.843a1.76 1.76 0 00-.532-.985c-.277-.267-.649-.4-1.114-.4-.593 0-1.072.234-1.438.703-.362.465-.543 1.112-.543 1.94 0 .834.179 1.489.538 1.965.362.476.843.713 1.443.713.423 0 .782-.12 1.076-.362.299-.241.489-.582.57-1.023h1.843a3.176 3.176 0 01-.511 1.535 3.029 3.029 0 01-1.204 1.044c-.508.252-1.104.378-1.79.378zm4.509-6.76V5.818h7.159V7.4h-2.647V14h-1.864V7.4h-2.648zm11.927 6.76c-.799 0-1.492-.176-2.078-.527a3.578 3.578 0 01-1.363-1.476c-.32-.636-.48-1.374-.48-2.216 0-.845.16-1.584.48-2.216a3.57 3.57 0 011.363-1.48c.586-.356 1.279-.533 2.078-.533.799 0 1.491.177 2.077.532.59.352 1.044.845 1.364 1.481.319.632.479 1.37.479 2.216 0 .842-.16 1.58-.479 2.216a3.535 3.535 0 01-1.364 1.476c-.586.351-1.278.527-2.077.527zm.01-1.545c.437 0 .799-.119 1.087-.357.291-.238.508-.56.65-.964.146-.408.218-.861.218-1.358 0-.501-.072-.954-.218-1.359a2.15 2.15 0 00-.65-.974c-.288-.242-.65-.363-1.087-.363-.44 0-.807.121-1.102.363-.291.241-.51.566-.655.974a3.982 3.982 0 00-.219 1.359c0 .497.073.95.219 1.358.145.405.364.726.655.964.295.238.662.357 1.102.357zM444.78 14v-3.079h-1.71L441.392 14h-1.897l1.833-3.367c-.49-.198-.87-.488-1.14-.868-.266-.383-.398-.832-.394-1.347-.004-.785.284-1.414.863-1.886.582-.476 1.374-.714 2.375-.714h3.553V14h-1.805zm0-4.485v-2.13h-1.748c-.44 0-.781.102-1.022.308a.96.96 0 00-.352.767.945.945 0 00.336.757c.227.198.552.298.974.298h1.812zm5.606-3.697V9.11h3.169V5.818h1.854V14h-1.854v-3.308h-3.169V14h-1.859V5.818h1.859zm8.833 0V9.11h3.169V5.818h1.854V14h-1.854v-3.308h-3.169V14h-1.859V5.818h1.859zm8.833 2.664h1.859c1.04 0 1.847.253 2.418.761.576.505.865 1.17.869 1.998-.004.802-.293 1.463-.869 1.981-.571.519-1.378.778-2.418.778h-3.718V5.818h1.859v2.664zm0 1.582v2.354h1.859c.419 0 .763-.107 1.033-.32a1.02 1.02 0 00.405-.83c0-.356-.135-.645-.405-.869-.27-.224-.614-.335-1.033-.335h-1.859zM474.215 14V5.818h1.928V14h-1.928zm7.539.16c-.821 0-1.529-.172-2.126-.517a3.466 3.466 0 01-1.369-1.46c-.319-.628-.479-1.37-.479-2.226 0-.842.16-1.58.479-2.216.32-.64.769-1.136 1.348-1.491.582-.359 1.264-.538 2.045-.538.672 0 1.291.145 1.859.436.569.288 1.023.737 1.364 1.348.344.607.517 1.39.517 2.35v.59h-5.7c.011.7.204 1.245.581 1.636.38.39.882.586 1.507.586.416 0 .774-.09 1.076-.267a1.51 1.51 0 00.655-.788l1.801.202c-.171.71-.568 1.28-1.193 1.71-.622.43-1.41.645-2.365.645zm-2.057-5.023h3.846c-.003-.558-.177-1.018-.522-1.38-.341-.362-.788-.543-1.342-.543-.575 0-1.042.19-1.401.57-.359.38-.552.83-.581 1.353z" /><path opacity=".7" d="M29.321 347v-10.909h3.814c.76 0 1.387.131 1.88.394.494.259.861.609 1.103 1.049.241.437.362.922.362 1.455 0 .468-.083.855-.25 1.161-.164.305-.38.547-.65.724a2.94 2.94 0 01-.868.394v.107c.333.021.669.138 1.006.352.338.213.62.518.847.916.228.397.341.884.341 1.459 0 .547-.124 1.039-.373 1.476-.248.437-.64.783-1.177 1.038-.536.256-1.234.384-2.093.384H29.32zm1.321-1.172h2.62c.864 0 1.476-.167 1.838-.501.366-.337.55-.745.55-1.225 0-.369-.095-.71-.283-1.022a2.036 2.036 0 00-.804-.757c-.349-.192-.76-.287-1.236-.287h-2.685v3.792zm0-4.943h2.45c.597 0 1.101-.172 1.513-.517.412-.344.618-.804.618-1.379 0-.48-.167-.886-.5-1.22-.334-.338-.864-.506-1.588-.506h-2.493v3.622zm11.588 6.285c-.738 0-1.386-.175-1.944-.527-.554-.351-.987-.843-1.3-1.475-.309-.632-.463-1.371-.463-2.216 0-.853.154-1.597.463-2.232.313-.636.746-1.129 1.3-1.481.558-.352 1.206-.527 1.944-.527.739 0 1.385.175 1.94.527.557.352.99.845 1.299 1.481.312.635.469 1.379.469 2.232 0 .845-.157 1.584-.47 2.216a3.53 3.53 0 01-1.299 1.475c-.554.352-1.2.527-1.939.527zm0-1.129c.561 0 1.023-.144 1.385-.431.362-.288.63-.666.805-1.135.174-.469.26-.976.26-1.523 0-.547-.086-1.057-.26-1.529a2.576 2.576 0 00-.805-1.145c-.362-.291-.824-.437-1.385-.437-.56 0-1.022.146-1.385.437-.362.291-.63.673-.804 1.145a4.388 4.388 0 00-.261 1.529c0 .547.087 1.054.261 1.523.174.469.442.847.804 1.135.363.287.824.431 1.385.431zm4.778.959l3.324-4.155-3.281-4.027h1.491l2.728 3.494h.681v-3.494h1.258v3.494h.66l2.727-3.494h1.492l-3.26 4.027L58.13 347h-1.512l-2.77-3.516h-.64V347h-1.256v-3.516h-.64L48.522 347h-1.514zm12.045 2.344v-3.516h.682a3.21 3.21 0 00.549-.783c.145-.291.266-.671.362-1.14.096-.469.176-1.085.24-1.848l.277-3.239h5.199v7.01h1.257v3.516h-1.257V347H60.31v2.344h-1.258zm2.11-3.516h3.942v-5.838h-2.77l-.214 2.067a23.08 23.08 0 01-.33 2.242c-.131.64-.34 1.149-.628 1.529zm11.555 1.342c-.789 0-1.469-.174-2.04-.522a3.497 3.497 0 01-1.316-1.47c-.305-.632-.458-1.367-.458-2.205 0-.838.153-1.577.458-2.216.309-.643.739-1.143 1.289-1.502.554-.362 1.2-.543 1.939-.543.426 0 .847.071 1.262.213.416.142.794.373 1.135.692.34.316.612.735.815 1.257.202.522.303 1.165.303 1.929v.532h-5.939c.029.874.275 1.543.74 2.008.47.466 1.073.698 1.812.698.493 0 .918-.106 1.273-.319.355-.213.612-.533.772-.959l1.215.341c-.192.618-.576 1.117-1.15 1.496-.576.38-1.28.57-2.11.57zm-2.552-4.921h4.661c0-.693-.202-1.266-.607-1.721-.405-.458-.948-.687-1.63-.687-.48 0-.895.112-1.247.335a2.415 2.415 0 00-.83.89c-.203.366-.318.76-.347 1.183zm9.109-3.431v3.516h3.92v-3.516h1.257V347h-1.257v-3.494h-3.92V347h-1.257v-8.182h1.257zm8.73 6.328l3.942-6.328h1.449V347h-1.257v-6.328L88.219 347h-1.47v-8.182h1.256v6.328zm11.124 2.024c-.788 0-1.469-.174-2.04-.522a3.497 3.497 0 01-1.316-1.47c-.305-.632-.458-1.367-.458-2.205 0-.838.153-1.577.458-2.216.309-.643.739-1.143 1.29-1.502.553-.362 1.2-.543 1.938-.543.426 0 .847.071 1.262.213.416.142.794.373 1.135.692.341.316.613.735.815 1.257.202.522.304 1.165.304 1.929v.532h-5.94c.029.874.276 1.543.74 2.008.47.466 1.073.698 1.812.698.493 0 .918-.106 1.273-.319.355-.213.612-.533.772-.959l1.215.341c-.192.618-.576 1.117-1.151 1.496-.575.38-1.278.57-2.11.57zm-2.552-4.921h4.661c0-.693-.202-1.266-.607-1.721-.405-.458-.948-.687-1.63-.687-.48 0-.895.112-1.247.335a2.415 2.415 0 00-.83.89 2.8 2.8 0 00-.347 1.183zM223.734 348l-3.75-5.007h-1.342V348h-1.321v-10.909h1.321v4.73h.575l4.368-4.73h1.577l-4.411 4.794 4.56 6.115h-1.577zm5.522.192c-.519 0-.989-.098-1.412-.293a2.424 2.424 0 01-1.007-.858c-.248-.376-.373-.831-.373-1.363 0-.469.093-.849.277-1.14.185-.295.432-.526.741-.693.309-.167.65-.291 1.022-.373a12.67 12.67 0 011.135-.202c.497-.064.9-.112 1.209-.144.313-.035.54-.094.682-.176.146-.081.218-.223.218-.426v-.042c0-.526-.143-.934-.431-1.226-.284-.291-.716-.436-1.294-.436-.601 0-1.071.131-1.412.394-.341.263-.581.543-.719.841l-1.193-.426c.213-.497.497-.884.852-1.161a3.186 3.186 0 011.172-.586c.426-.114.845-.17 1.257-.17.263 0 .565.032.905.096.345.06.677.186.997.378.323.191.591.481.804.868.213.387.32.906.32 1.555V348h-1.258v-1.108h-.064a2.19 2.19 0 01-.426.57 2.466 2.466 0 01-.793.517c-.331.142-.734.213-1.209.213zm.191-1.13c.497 0 .916-.097 1.257-.292a1.997 1.997 0 001.044-1.732v-1.15c-.053.064-.17.122-.351.176a6.159 6.159 0 01-.618.133 34.35 34.35 0 01-.677.096 24.34 24.34 0 00-.527.064 4.739 4.739 0 00-.916.207 1.586 1.586 0 00-.682.421c-.17.185-.256.437-.256.756 0 .437.162.768.485.991.327.22.741.33 1.241.33zm4.74-6.072v-1.172h6.647v1.172h-2.684V348h-1.257v-7.01h-2.706zm10.464 7.202c-.518 0-.989-.098-1.412-.293a2.421 2.421 0 01-1.006-.858c-.249-.376-.373-.831-.373-1.363 0-.469.092-.849.277-1.14.184-.295.431-.526.74-.693a3.9 3.9 0 011.023-.373c.376-.085.755-.152 1.135-.202.497-.064.9-.112 1.209-.144.312-.035.539-.094.682-.176.145-.081.218-.223.218-.426v-.042c0-.526-.144-.934-.432-1.226-.284-.291-.715-.436-1.294-.436-.6 0-1.071.131-1.412.394-.34.263-.58.543-.719.841l-1.193-.426c.213-.497.497-.884.852-1.161.359-.281.75-.476 1.172-.586.426-.114.846-.17 1.257-.17.263 0 .565.032.906.096.344.06.676.186.996.378.323.191.591.481.804.868.213.387.32.906.32 1.555V348h-1.257v-1.108h-.064a2.19 2.19 0 01-.426.57 2.471 2.471 0 01-.794.517c-.33.142-.733.213-1.209.213zm.192-1.13c.497 0 .916-.097 1.257-.292.344-.196.604-.448.778-.757.177-.309.266-.634.266-.975v-1.15c-.053.064-.171.122-.352.176a6.04 6.04 0 01-.618.133c-.23.035-.456.067-.676.096-.217.024-.392.046-.527.064a4.766 4.766 0 00-.917.207c-.28.093-.507.233-.681.421-.171.185-.256.437-.256.756 0 .437.161.768.485.991.326.22.74.33 1.241.33zm5.852 4.006v-11.25h1.215v1.3h.149c.092-.142.22-.323.384-.543.167-.224.404-.423.713-.597.313-.178.736-.266 1.268-.266.689 0 1.296.172 1.822.516.525.345.936.833 1.23 1.465.295.632.443 1.378.443 2.237 0 .867-.148 1.618-.443 2.254-.294.632-.703 1.122-1.225 1.47-.522.344-1.124.516-1.806.516-.525 0-.946-.087-1.262-.261a2.348 2.348 0 01-.73-.601 8.3 8.3 0 01-.394-.565h-.106v4.325h-1.258zm1.236-7.159c0 .927.201 1.682.602 2.264.405.579.986.868 1.742.868.526 0 .964-.138 1.316-.415.355-.281.621-.657.799-1.13a4.43 4.43 0 00.271-1.587c0-.575-.088-1.094-.266-1.555a2.402 2.402 0 00-.794-1.103c-.351-.273-.793-.41-1.326-.41-.767 0-1.349.282-1.747.847-.398.564-.597 1.305-.597 2.221zm10.313 4.283c-.519 0-.989-.098-1.412-.293a2.43 2.43 0 01-1.007-.858c-.248-.376-.372-.831-.372-1.363 0-.469.092-.849.277-1.14.184-.295.431-.526.74-.693a3.9 3.9 0 011.023-.373c.376-.085.754-.152 1.134-.202.497-.064.901-.112 1.209-.144.313-.035.54-.094.682-.176.146-.081.219-.223.219-.426v-.042c0-.526-.144-.934-.432-1.226-.284-.291-.715-.436-1.294-.436-.6 0-1.071.131-1.412.394-.341.263-.58.543-.719.841l-1.193-.426c.213-.497.497-.884.852-1.161.359-.281.75-.476 1.172-.586.426-.114.845-.17 1.257-.17.263 0 .565.032.906.096.344.06.676.186.996.378.323.191.591.481.804.868.213.387.32.906.32 1.555V348h-1.257v-1.108h-.064a2.213 2.213 0 01-.426.57 2.471 2.471 0 01-.794.517c-.33.142-.733.213-1.209.213zm.192-1.13c.497 0 .916-.097 1.257-.292a2.001 2.001 0 001.044-1.732v-1.15c-.054.064-.171.122-.352.176a6.04 6.04 0 01-.618.133c-.231.035-.456.067-.676.096-.217.024-.393.046-.528.064a4.756 4.756 0 00-.916.207c-.28.093-.508.233-.682.421-.17.185-.255.437-.255.756 0 .437.161.768.484.991.327.22.741.33 1.242.33zm5.852.938v-8.182h1.257v3.558h.831l2.941-3.558h1.619l-3.303 3.942 3.346 4.24h-1.62l-2.684-3.452h-1.13V348h-1.257zm7.588-7.01v-1.172h6.648v1.172h-2.685V348h-1.257v-7.01h-2.706zm10.464 7.202c-.518 0-.989-.098-1.411-.293a2.424 2.424 0 01-1.007-.858c-.248-.376-.373-.831-.373-1.363 0-.469.093-.849.277-1.14.185-.295.432-.526.741-.693.309-.167.65-.291 1.022-.373a12.67 12.67 0 011.135-.202c.497-.064.9-.112 1.209-.144.313-.035.54-.094.682-.176.146-.081.218-.223.218-.426v-.042c0-.526-.143-.934-.431-1.226-.284-.291-.716-.436-1.294-.436-.601 0-1.071.131-1.412.394-.341.263-.581.543-.719.841l-1.193-.426c.213-.497.497-.884.852-1.161a3.186 3.186 0 011.172-.586c.426-.114.845-.17 1.257-.17.263 0 .565.032.905.096.345.06.677.186.997.378.323.191.591.481.804.868.213.387.319.906.319 1.555V348h-1.257v-1.108h-.064a2.19 2.19 0 01-.426.57 2.466 2.466 0 01-.793.517c-.331.142-.734.213-1.21.213zm.192-1.13c.497 0 .916-.097 1.257-.292a1.997 1.997 0 001.044-1.732v-1.15c-.053.064-.17.122-.351.176a6.159 6.159 0 01-.618.133 34.35 34.35 0 01-.677.096 24.34 24.34 0 00-.527.064 4.739 4.739 0 00-.916.207 1.586 1.586 0 00-.682.421c-.17.185-.256.437-.256.756 0 .437.162.768.485.991.327.22.741.33 1.241.33z" /><path fill-rule="evenodd" clip-rule="evenodd" d="M273.824 316.641a2.263 2.263 0 01-1.307 1.021h-.28l-.229-4.438a2.254 2.254 0 012.06 1.694c.153.589.066 1.2-.244 1.723zm-4.044 4.395l-.128-1.729a.753.753 0 00-.014-.343c-.003-.01-.011-.017-.014-.026l-2.002-27.017c.12-.086.245-.17.342-.29.516-.628.437-1.479.331-2.066a.758.758 0 00-.043-.153c-.055-.135-.112-.464-.036-.572.036-.051.214-.14.65-.122.042.002.08-.014.121-.019.153.318.309.913.309 2.044 0 .007.004.012.004.02 0 .007-.003.013-.003.019l1.566 30.187-1.083.067zm-4.284-30.14c-1.729.044-2.983-.312-3.747-1.05-.709-.686-1.058-1.734-1.068-3.204-.001-.051-.02-.095-.031-.143.013-.036.015-.074.023-.112a.683.683 0 00.022-.156c0-.017.009-.033.008-.051-.045-.746.251-1.5.791-2.017a2.621 2.621 0 012.053-.707c.042.005.079-.009.119-.011.008.002.014.008.021.01.853.227 1.735.461 2.533.811.844.37 1.504.837 1.962 1.386.276.332.5.714.764 1.18.024.043.074.13.115.215a.754.754 0 00-.271.133c-1.051-.01-1.58.411-1.836.773-.517.731-.271 1.646-.168 1.946.096.583.003.733-.018.758-.052.064-.28.215-1.272.239zm-13.789 25.052c.124.162.307.27.51.298l2.115.297a2.278 2.278 0 011.939 2.569 2.257 2.257 0 01-.886 1.499 2.252 2.252 0 01-1.686.435l-10.157-1.456a.253.253 0 01-.214-.283l1.188-8.409c1.291.347 2.709.536 4.396.681 1.049.089 2.102.147 3.155.201l-.507 3.597a.769.769 0 00.147.571zm4.793-70.081c-.195.196-.595.598-.871.794a21.08 21.08 0 01-.626-1.11c-.621-1.157-.889-1.633-1.323-1.814-.751-.312-1.633-.271-2.422.116-.787.388-1.359 1.061-1.567 1.846-.209.784-.046 1.651.447 2.377.24.355.543.647.883.866-.015.048-.04.093-.045.146-.043.405-.448.815-.878 1.248-.332.336-.705.72-.965 1.178-.681-.531-1.288-1.308-1.697-2.822-.004-.013-.014-.024-.019-.038-.005-.013-.002-.027-.007-.041-.676-1.732-.907-3.756-.705-6.185.202-2.44.933-5.843 3.267-8.194 1.531-1.542 3.645-2.522 5.955-2.761 2.179-.226 4.459.205 6.594 1.246 1.565.764 3.093 1.878 4.541 3.314.348.344 1.087 1.23 1.351 2.641l-.085-.002c-1.037-.03-1.934-.058-3.246.365l-.12.038c-2.268.729-3.906 1.255-5.644 3.163-.196.214-.507.657-.998 1.362-.424.608-1.134 1.628-1.342 1.809a8.554 8.554 0 00-.478.458zm-10.441-9.367c-.009-1.47.784-2.967 2.033-3.745a.77.77 0 00.246-1.061.775.775 0 00-1.065-.246c-1.661 1.034-2.709 2.925-2.761 4.868-1.711-.314-2.958-.966-3.698-1.965-1.199-1.616-.948-4.218.572-5.925 1.367-1.535 3.603-2.413 6.143-2.413h.05c.93.003 1.56.134 2.043.423.573.342 1.028.988 1.282 1.821.25.821.297 1.737.341 2.625a.75.75 0 00.154.4 10.71 10.71 0 00-2.525 1.868c-1 1.007-1.74 2.169-2.286 3.371-.18-.005-.357-.011-.529-.021zm13.063 8.644l.466-.665c.345-.494.735-1.053.873-1.205 1.461-1.604 2.783-2.029 4.974-2.733l.121-.038c1.059-.341 1.722-.321 2.727-.292.145.005.296.009.453.012a9.05 9.05 0 01.207 5.236.77.77 0 00-.211.057l-9.61-.372zm16.442 69.39a3.793 3.793 0 00-3.636-2.853l-1.088-20.979-.001-.001c-.003-1.122-.15-1.998-.445-2.637.145-.194.24-.425.266-.664.062-.567-.209-1.043-.37-1.327-.206-.363-.469-.8-.783-1.214-.405-2.287-.595-7.551.192-9.502.145-.359.317-.712.489-1.065.411-.844.837-1.717.956-2.721.279-2.358-.568-4.187-1.637-6.003.013-.043.035-.083.041-.13a13.504 13.504 0 00-2.734-9.881c-.01-.011-.024-.017-.035-.029a.774.774 0 00.103-.141c.41-.766.626-1.616.656-2.479l.907-.025c.969-.026 1.749-.774 1.817-1.795l-.026-4.58c.785-2.304.715-4.917-.197-7.22-.136-2.355-1.358-3.821-1.888-4.348-1.568-1.555-3.235-2.768-4.952-3.604-2.395-1.168-4.964-1.65-7.43-1.395-1.04.107-2.043.35-2.989.707-.049-.932-.108-1.891-.398-2.84-.366-1.199-1.065-2.156-1.966-2.694-.953-.569-2.072-.638-2.83-.642h-.056c-2.982 0-5.639 1.067-7.299 2.931-2.019 2.268-2.302 5.648-.659 7.864 1.238 1.668 3.408 2.592 6.438 2.769a18.873 18.873 0 00-.845 4.265c-.218 2.631.04 4.85.78 6.788v.004c.652 2.414 1.776 3.468 3.26 4.308.013.007.026.004.039.009a.747.747 0 00.335.09l.007.001h.002l.042-.001a.755.755 0 00.32-.095c.022-.012.038-.031.059-.045a.77.77 0 00.209-.209c.011-.016.03-.023.04-.04.011-.019.011-.041.02-.061a.744.744 0 00.048-.147.664.664 0 00.022-.152c0-.022.01-.041.009-.064-.02-.37.303-.726.841-1.269.549-.554 1.159-1.187 1.29-2.078a.765.765 0 00.557-.638.77.77 0 00-.674-.858c-.359-.044-.716-.28-.954-.632-.239-.351-.327-.77-.234-1.119.093-.35.377-.67.758-.857.342-.169.722-.209 1.036-.116.158.214.459.773.665 1.157.695 1.293 1.025 1.87 1.571 1.995.875.205 1.677-.608 2.384-1.321.122-.123.228-.229.319-.312l9.011.348c-.159.189-.312.377-.459.56l-.154.193c-.541.668-1.139 1.312-1.852 1.493a1.29 1.29 0 01-.998-.185c-.116-.081-.259-.218-.278-.41a.77.77 0 00-.845-.69.77.77 0 00-.692.843c.061.604.391 1.143.929 1.519a2.846 2.846 0 002.265.416c1.15-.293 1.965-1.143 2.673-2.02l.158-.196c.337-.419.665-.813 1.023-1.133l.022 3.663a.322.322 0 01-.316.303l-1.486.041a.766.766 0 00-.705.526.763.763 0 00-.209.567 4.172 4.172 0 01-.203 1.496 7.753 7.753 0 00-2.243-.261.771.771 0 00-.743.798c.015.425.376.773.8.741.483-.019.962.039 1.434.132-.171.882-.686 1.704-1.436 2.199-.794.527-2.712-.118-3.434-.361a.774.774 0 00-.978.484.768.768 0 00.486.975c.704.237 1.901.639 3.043.639.625 0 1.234-.121 1.736-.453a4.936 4.936 0 001.582-1.717 11.948 11.948 0 012.027 6.038 28.702 28.702 0 01-.612-1.096.772.772 0 00-1.369.71c.477.914.975 1.725 1.456 2.509 1.302 2.12 2.331 3.794 2.061 6.081-.086.722-.419 1.422-.778 2.159-.019.017-.044.026-.062.046a7.4 7.4 0 01-2.839 1.962.77.77 0 10.559 1.437c.48-.186.937-.428 1.378-.693-.355 2.062-.305 4.907-.11 7.031a8.296 8.296 0 00-.916-.477c-.907-.398-1.849-.648-2.758-.89a.802.802 0 00-.307-.02c-.027-.005-.049-.02-.077-.023-.013-.002-.028.002-.042 0-.883-1.885-3.127-3.201-5.001-3.65-1.936-.464-5.631-3.211-7.637-5.016-1.44-1.294-2.312-3.643-1.278-5.332a.77.77 0 00-1.317-.803c-1.508 2.462-.321 5.589 1.561 7.28 1.424 1.282 5.694 4.743 8.311 5.369 1.139.273 2.863 1.094 3.71 2.348a4.152 4.152 0 00-1.584.933c-.703.674-1.127 1.601-1.228 2.565-1.861.41-4.719-.017-8.16-1.249l-1.111-.394c-2.774-.975-7.416-2.609-9.272-3.965-1.578-1.152-1.855-9.247-1.407-11.991.375-2.295.764-4.669 1.917-6.671 1.53-2.653 4.28-4.424 6.832-5.961 1.926 2.355 7.3 6.508 13.025 6.508.393 0 .787-.019 1.182-.061a.77.77 0 10-.16-1.532c-5.651.597-11.811-4.183-13.198-6.349-.025-.038-.062-.062-.093-.095-.037-.04-.07-.087-.113-.117-.035-.024-.075-.035-.114-.053-.052-.025-.101-.055-.156-.068-.039-.008-.078-.003-.116-.005-.06-.005-.119-.015-.18-.005-.045.006-.087.031-.13.046-.049.017-.099.024-.146.052-2.727 1.633-6.122 3.665-7.971 6.873-1.294 2.245-1.724 4.872-2.104 7.19-.346 2.123-.54 11.613 2.02 13.482 2.04 1.49 6.632 3.106 9.67 4.175l1.103.39c2.094.75 4.783 1.501 7.158 1.501.523 0 1.026-.041 1.508-.122.103 1.606.59 2.881 1.495 3.756 1.034 1 2.522 1.488 4.541 1.488.106 0 .212-.002.319-.004.193-.005.385-.018.574-.034l1.944 26.219-4.768 1.381a.252.252 0 01-.306-.18l-2.061-7.982a94.189 94.189 0 005.371-.362.77.77 0 10-.15-1.533 94.304 94.304 0 01-17.094.099c-4.086-.349-6.346-.958-9.26-3.595.538-2.403.758-4.951.959-7.427.375-4.593.762-9.342 3.27-13.189a.773.773 0 00-1.295-.841c-2.721 4.175-3.124 9.122-3.514 13.906-.219 2.693-.426 5.236-1.016 7.652-.007.033 0 .064-.003.097-.006.053-.012.105-.007.158.005.05.018.096.033.143a.72.72 0 00.05.136c.025.048.058.088.092.13.021.025.031.055.056.078 1.622 1.526 3.062 2.48 4.618 3.108l-1.228 8.691a1.794 1.794 0 001.525 2.023l10.156 1.457a3.797 3.797 0 002.834-.73 3.781 3.781 0 001.486-2.513 3.82 3.82 0 00-3.252-4.31l-1.351-.189.42-2.977c1.143.04 2.287.073 3.432.073.762 0 1.526-.009 2.288-.028l2.145 8.309a1.796 1.796 0 001.745 1.341c.153 0 .309-.019.464-.06l4.477-1.296.127 1.717c.03.404.369.713.77.713.016 0 .033 0 .048-.002l2.608-.16a.769.769 0 00.723-.808l-.126-2.448h.305a.834.834 0 00.192-.024 3.802 3.802 0 002.339-1.755c.52-.877.665-1.904.41-2.89zM63.297 259.265a1.01 1.01 0 001.012 1.008 1.01 1.01 0 001.012-1.008 1.01 1.01 0 00-1.012-1.007 1.01 1.01 0 00-1.012 1.007z" /><path fill-rule="evenodd" clip-rule="evenodd" d="M66.708 293.544c-2.031-.32-4.07-.884-6.042-1.43-2.372-.656-4.824-1.335-7.335-1.617-.023-.002-.042.006-.064.006-.507-.054-1.071.186-1.72.477-.382.171-.777.349-1.127.447-1.56.437-2.965.419-3.853-.048-1.158-.607-2.428-1.768-2.519-3.207-.041-.656.31-1.4.873-1.85.247-.197.744-.498 1.32-.334a.695.695 0 00.394-.009.713.713 0 00.745.526.719.719 0 00.657-.775 26.873 26.873 0 00-.334-2.456c.74-.255 1.068.105 1.738 1.14.338.52.688 1.057 1.193 1.408l.007.005.007.005c.07.048.146.079.224.099.022.006.044.006.066.01.04.006.077.017.116.017.018 0 .034-.012.051-.013.024-.001.046.007.07.002 2.347-.395 5.16.243 7.88.861 2.227.507 4.508 1.025 6.66 1.025.866 0 1.712-.085 2.524-.288 1.345-.334 2.555-.969 3.727-1.582.835-.438 1.623-.851 2.456-1.164.24-.091.392-.3.44-.533 1.493.304 2.873 1.122 3.826 2.32a6.547 6.547 0 011.403 4.022c-2.579 2.903-8.632 3.684-13.383 2.936zm-27.323-3.728a3.139 3.139 0 011.227-1.68 3.162 3.162 0 012.027-.509 3.21 3.21 0 00-.03.636c.034.546.193 1.081.439 1.593l-3.663-.04zm-11.85-.262a10.58 10.58 0 01-.336-2.911c.733.018 1.387.249 1.81.673.484.486.67 1.42.195 1.941a.712.712 0 00-.175.446l-1.487-.017c-.003-.044.005-.088-.008-.132zm.694-10.652c0 .001 0 .003.003.004.112.112.292.354.466.587.473.635 1.008 1.355 1.654 1.634 1.349.58 3.022.8 4.693.8 2.928 0 5.84-.676 6.97-1.27.383.903.684 1.809.901 2.653a63.296 63.296 0 00-15.495-.832c.148-1.209.385-2.425.808-3.576zm5.66-4.982a.72.72 0 00.287.061c1.852 0 3.545.764 5.029 2.271.864.878 1.598 1.966 2.198 3.113-.015.008-.031.007-.047.015-1.225.659-7.037 1.891-10.43.428-.29-.125-.777-.779-1.069-1.17-.224-.301-.418-.563-.608-.75a.71.71 0 00-.474-.202c1.154-2.183 3.11-3.642 5.114-3.766zm4.006 15.84c-.003.014.002.026 0 .039l-7.281-.079c.547-1.051.34-2.492-.582-3.416-.693-.695-1.72-1.079-2.84-1.098.024-.419.052-.845.085-1.278a61.703 61.703 0 0115.868.878c.027.005.053.005.079.007.062.414.094.792.1 1.128a4.37 4.37 0 00-.193.288 4.644 4.644 0 00-3.328.718 4.6 4.6 0 00-1.908 2.813zm-13.469-6.36c.481-.285.905-.714 1.205-1.265.373-.684.523-1.423.634-2.06.183-1.054.296-2.264-.154-3.356 1.833-4.446 6.159-6.032 9.33-6.032h.006c6.112 0 10.049 6.795 11.01 13.894a2.777 2.777 0 00-1.779.212c-.356-2.728-1.771-6.832-4.443-9.546-1.764-1.792-3.8-2.7-6.052-2.702a.757.757 0 00-.312-.067c-2.678.133-5.28 2.102-6.626 5.019-.813 1.761-1.152 3.698-1.332 5.514a.706.706 0 00-.044.302c0 .014.009.024.01.037-.067.751-.112 1.48-.152 2.159a.708.708 0 00.073.336c-.003.022-.002.044-.004.067-.003.02-.015.036-.017.056-.093 1.246.015 2.49.306 3.702l-1.962-.021a.71.71 0 00.41-.736 23.962 23.962 0 01-.107-5.513zm-1.909-1.386c-.153-.284-.04-.717.043-.948.064-.187.145-.369.225-.55.132-.302.27-.614.362-.965.078-.298.117-.602.153-.909.022-.187.043-.375.08-.56.075-.371.213-.64.391-.754a.352.352 0 01.18-.042.23.23 0 01.059.005.72.72 0 00.892.34c.16.676.071 1.449-.058 2.199-.092.525-.212 1.127-.481 1.621-.246.451-.603.764-.982.859-.337.086-.732-.051-.864-.296zm27.274-4.283c1.34-.79 2.718-1.603 3.768-1.842 1.062 2.165 1.94 6.128 1.256 7.702a.717.717 0 00.661 1.003.722.722 0 00.663-.434c.753-1.734.021-6.622-1.505-9.311a.74.74 0 00-.101-.171 6.488 6.488 0 00-.357-.529c1.95-.601 5.62-1.673 10.533-2.071.176.08.366.15.575.211a.695.695 0 00-.093.484c.337 1.849 2.206 3.349 4.346 3.489.132.007.264.012.397.012 1.49 0 3.057-.541 4.776-1.645a17.838 17.838 0 004.47-4.094.7.7 0 00.135-.404c.119.125.24.25.368.367a.724.724 0 00.487.189c.039 0 .075-.017.113-.023a.7.7 0 00.276.343c3.247 2.001 5.43 5.601 5.697 9.396.216 3.075-2.108 7.187-4.736 9.922a7.98 7.98 0 00-1.702-4.631c-1.153-1.449-2.817-2.444-4.624-2.824 1.445-1.506 2.938-2.647 4.139-3.13a.719.719 0 10-.54-1.332c-2.397.965-4.725 3.495-5.613 4.537-.024.027-.031.061-.05.089-.025.041-.05.078-.068.123a.668.668 0 00-.032.147c-.006.031-.02.059-.022.091 0 .013.006.023.007.036.001.051.014.098.027.148.01.042.017.085.035.124.014.032.036.061.056.091-.63.282-1.246.587-1.84.898-1.146.6-2.228 1.168-3.404 1.46-2.495.623-5.555-.073-8.513-.744-2.732-.621-5.552-1.252-8.092-.917-.213-.217-.424-.538-.63-.856-.596-.918-1.489-2.253-3.242-1.76a25.66 25.66 0 00-.721-2.501c.992-.409 2.06-1.03 3.1-1.643zm30.314 14.847c.017.021.042.029.06.047a.696.696 0 00.266.162c.027.009.049.028.078.034.05.011.1.016.15.016.021 0 .038-.009.058-.01a.726.726 0 00.196-.038.698.698 0 00.2-.115l.008-.003c3.457-2.866 6.862-8.276 6.574-12.368-.298-4.247-2.742-8.277-6.377-10.517a.703.703 0 00-.485-.091.722.722 0 00-.174-.256c-2.146-1.96-2.711-5.38-2.736-6.121a.714.714 0 00-.745-.694c-.026.001-.049.014-.075.018.185-.222.334-.466.467-.707.345-.623.712-1.359.713-2.188.001-1.123-.729-2.198-1.775-2.616-1.047-.419-2.322-.142-3.099.671a.715.715 0 00.024 1.015.725.725 0 001.02-.024 1.44 1.44 0 011.518-.329c.504.201.87.74.87 1.281-.001.491-.265 1.01-.535 1.498-.15.272-.3.526-.48.645-.075.05-.166.059-.17.066a.722.722 0 00-1.02.014.715.715 0 00.014 1.015c.27.262.636.395 1.017.395.288 0 .582-.09.854-.245a.692.692 0 00-.04.232c.027.783.497 3.739 2.215 6.03a.717.717 0 00-.66.264 16.378 16.378 0 01-4.11 3.764c-1.6 1.03-3.005 1.494-4.294 1.405-1.273-.082-2.76-.917-3.02-2.303.192.016.385.031.578.031.883 0 1.748-.163 2.331-.528.798-.503 1.48-.997 2.083-1.512a.716.716 0 00.077-1.013.722.722 0 00-1.016-.078c-.55.469-1.175.923-1.914 1.388-.705.444-2.71.39-3.576-.093-.33-.193-1.022-1.274-1.679-2.388 1.335-.233 2.606-.552 3.036-1.331a.725.725 0 00-.28-.983.716.716 0 00-.976.278c-.123.153-.634.395-2.366.68l-.178.029-.364-.651c-.454-.812-.813-1.453-1.036-1.774-.012-.017-.032-.026-.045-.042a.66.66 0 00-.107-.102.737.737 0 00-.11-.074.682.682 0 00-.127-.049.665.665 0 00-.14-.028c-.022-.003-.041-.013-.063-.013-.178 0-.386.01-.604.021-.169.008-.407.021-.627.023.87-1.642 1.386-4.079 1.288-6.263-.002-.028-.016-.053-.02-.081-.005-.027.001-.054-.005-.079-.276-.986-.56-2.004-.63-3.007-.05-.736.002-1.798.54-2.689a.712.712 0 00-.032-.782c2.559 1.052 5.544 1.082 8.1.021.342.305.87 1.595 1.13 2.235.223.546.434 1.063.641 1.433.615 1.099.82 2.422 1.02 3.701a.722.722 0 001.426-.22c-.209-1.339-.445-2.856-1.186-4.179-.164-.294-.359-.771-.564-1.275-.669-1.639-1.167-2.737-1.98-3.068a1.2 1.2 0 00-.947.006c-2.54 1.091-5.59.923-8.003-.422-.101-.186-.304-.764-.189-1.434.088-.506.345-.904.766-1.182a.703.703 0 00.26-.343c3.26-1.704 7.037-2.515 10.7-2.271 2.07.138 6.037 1.555 6.055 2.332a.704.704 0 00.28.536.71.71 0 00.433.503c.095.035.617.288 1.554 1.792.355.569.671 1.59.815 2.297.498 2.455-.767 8.199-2.52 9.912a.716.716 0 00.506 1.23.716.716 0 00.505-.206c2.153-2.102 3.515-8.301 2.924-11.22-.162-.795-.522-1.998-1.005-2.771-.76-1.219-1.441-1.951-2.079-2.272-.332-2.438-6.52-3.509-7.371-3.566a21.847 21.847 0 00-11.9 2.653.705.705 0 00-.353.527 3.149 3.149 0 00-1.028 2.079c-.094.983.207 1.941.572 2.381.004.008.011.013.017.021.02.023.038.05.059.07.022.022.052.03.077.05.023.018.039.043.065.058.194.112.399.202.6.301a.706.706 0 00-.586.334c-.578.957-.834 2.176-.74 3.526.076 1.116.365 2.175.652 3.201.084 2.189-.526 4.709-1.462 6.014a.717.717 0 00-.134.379.996.996 0 00.292.767c.333.332.842.408 1.422.408.236 0 .483-.013.735-.026l.141-.005c.2.334.471.819.757 1.33.866 1.55 1.6 2.832 2.23 3.717-4.71.507-8.186 1.573-9.932 2.115-.339.104-.612.189-.818.246-.01.003-.016.009-.026.012-.048.015-.09.043-.134.068-.038.022-.078.039-.11.066-.034.027-.056.063-.084.096-.032.04-.067.078-.091.123-.004.009-.013.015-.016.023-.016.032-.014.065-.024.097-.015.049-.031.096-.036.148-.004.05.004.098.01.149.004.034-.002.066.007.101.003.01.01.019.014.028.01.031.026.056.04.085.024.05.05.099.086.142.019.025.041.045.064.067a.74.74 0 00.142.105c.016.009.027.024.045.033.078.036.157.096.236.166-1.13.37-2.366 1.096-3.654 1.856-.984.581-1.989 1.165-2.877 1.535-2.082-4.986-5.764-8.779-10.732-8.779h-.006c-3.606 0-8.52 1.807-10.637 6.861a1.531 1.531 0 00-.442-.203 1.754 1.754 0 00-1.372.212c-.516.331-.87.913-1.025 1.68a8.84 8.84 0 00-.098.675c-.029.239-.054.478-.115.71-.065.243-.173.491-.289.755a8.887 8.887 0 00-.266.653c-.28.795-.262 1.521.048 2.099.332.615.991.992 1.712 1.055a25.385 25.385 0 00.147 5.358c.033.243.19.433.394.535l-2.75-.029c-.426-.024-.725.314-.728.71a.718.718 0 00.712.726l23.053.253h.008a.7.7 0 00.224-.045 7.244 7.244 0 001.877 1.394c.671.352 1.496.528 2.422.528a9.34 9.34 0 002.493-.368c.455-.127.92-.336 1.332-.521.329-.148.826-.371.945-.379.015.004.028-.001.043.001.014.003.025.011.04.013 2.398.269 4.793.933 7.11 1.574 2.011.557 4.091 1.132 6.204 1.464 1.174.185 2.442.286 3.733.286 3.614 0 7.396-.799 9.87-2.702.008.009.01.023.019.032z" /><path fill-rule="evenodd" clip-rule="evenodd" d="M65.766 257.133a.717.717 0 00.25-1.392 5.812 5.812 0 00-3.096-.252.718.718 0 10.274 1.41 4.404 4.404 0 012.322.19c.083.03.168.044.25.044zM111.397 289.832H96.549c-.212-1.433-.183-2.554-.132-3.801.033-.811.066-1.65.041-2.682-.063-2.597-.362-5.931-2.127-8.695-1.141-1.788-2.933-3.133-4.83-3.681 1.19-2.349 1.62-5.046 1.893-7.64.255-2.415.436-5.199-.643-7.68-1.049-2.409-3.75-4.628-6.691-3.986a.717.717 0 00-.55.855.72.72 0 00.858.549c2.106-.463 4.228 1.242 5.058 3.153.94 2.162.769 4.725.534 6.959-.274 2.604-.713 5.3-1.958 7.525a6.176 6.176 0 00-1.823.16.718.718 0 10.344 1.395 4.819 4.819 0 011.808-.084c1.835.256 3.668 1.5 4.784 3.246 1.573 2.465 1.842 5.548 1.902 7.959.024.985-.01 1.8-.041 2.589-.05 1.213-.081 2.389.116 3.859h-8.488a.768.768 0 00-.77.766c0 .423.345.766.77.766h11.152a.754.754 0 00.048.549 19.863 19.863 0 012.13 8.98c-.002.423.341.767.767.768h.001a.767.767 0 00.77-.764 21.408 21.408 0 00-2.228-9.533h12.153a.767.767 0 00.769-.766.767.767 0 00-.769-.766zM80.567 300.938c.381-.338.944-.491 1.672-.617 3.03-.52 6.187-.393 9.168.371l.008 1.066H80.251c-.054-.247.066-.598.316-.82zm12.725.586c-.113.015-.226.035-.339.052l-.013-1.477a.768.768 0 00-.558-.731 23.565 23.565 0 00-10.406-.556c-.855.148-1.742.369-2.434.984-.803.713-1.202 2.038-.48 3.018.13.176.323.265.524.291.134.11.3.185.486.185h11.393c.494 0 .96-.078 1.41-.152.203-.034.405-.067.608-.093a.768.768 0 00.669-.855.772.772 0 00-.86-.666zM449.421 316.552c.038-.697.488-1.993 2.963-3.19 1.307-.632 2.93-.523 4.346-.372 1.046.112 2.231.316 3.099.973.33.249.62 1.445.747 2.619l-11.155-.03zm-17.835.588l-10.425-6.055c1.36-2.241 3.619-2.374 4.236-2.366l8.051 4.751a23.344 23.344 0 01-1.862 3.67zm-9.973-41.686c-.016.004-.026.015-.041.02-.014.004-.029.002-.043.007-1.597.615-2.618-.56-3.193-1.653-.29-.552-.502-1.405-.65-2.607a.853.853 0 01.185-.647.844.844 0 01.583-.314c.63-.06 1.256-.119 1.568-.151l.004-.001c2.897-.281 5.202-2.43 6.886-3.999 3.534-3.295 7.316-6.666 11.569-9.127-1.45 3.337-1.639 6.932-1.823 10.43-.002.045-.005.089-.006.134-4.155 3.585-9.748 6.535-15.039 7.908zm-5.632 1.43l.588-1.17a.77.77 0 00-.344-1.034.775.775 0 00-1.037.344l-.665 1.321a2.656 2.656 0 01-.68-.769c-.37-.642-.629-1.722-.138-2.655.401-.767 1.244-1.289 2.447-1.544l.001.031c.173 1.41.433 2.406.815 3.135a6.006 6.006 0 001.165 1.576c-.708.526-1.447.788-2.152.765zm44.158 9.967a.771.771 0 00-.755-.788c-.43.012-.78.328-.79.752-.173 7.475-.106 20.359 2.131 25.501l-.353.157c-1.09-.673-2.356-.894-3.477-1.014-1.751-.189-3.59-.255-5.186.517-.321.155-.612.314-.883.474-2.665-5.844-3.986-11.864-4.328-16.751l-.002-.025c-.178-2.581-.091-4.85.219-6.596a.771.771 0 00-1.52-.269c-.313 1.755-.414 4.008-.26 6.567-4.602 4.499-8.843 11.545-10.914 16.642l-7.508-4.43c2.015-7.856 7.761-20.591 8.623-22.483 1.693.881 3.726 1.12 5.593 1.215 1.913.097 3.714.145 5.398.145 6.063 0 10.633-.626 13.621-1.871a.77.77 0 10-.596-1.422c-3.553 1.481-9.897 2.038-18.345 1.609-2.338-.118-4.709-.436-6.213-1.948-.032-.032-.072-.047-.108-.073-.224-1.37.503-2.72 1.273-4.149.223-.413.444-.824.642-1.235 1.373-2.846 1.595-6.033 1.774-9.402l.001-.005.025-.477c.215-4.116.438-8.372 2.818-11.969l.004-.01c.017-.027.024-.058.038-.087a.807.807 0 00.051-.131c.005-.021.018-.04.022-.062.005-.028-.003-.057-.001-.086a.74.74 0 00-.002-.141c-.003-.024 0-.049-.005-.073l-.001-.012-.804-3.369a.772.772 0 00-1.503.356l.666 2.787c-5.136 2.582-9.548 6.485-13.627 10.288-1.975 1.842-3.789 3.383-5.988 3.593l-.003.001-.003-.001c-.31.033-.929.092-1.555.15a2.38 2.38 0 00-1.641.883c-.037.045-.062.097-.095.145-2.577.326-3.733 1.494-4.236 2.452-.652 1.243-.588 2.827.168 4.138a4.215 4.215 0 001.314 1.409l-18.889 37.614a.772.772 0 00-.912.442c-.081.19-.202.377-.319.558-.254.393-.571.882-.277 1.418.303.554 1.002.554 1.265.554a.77.77 0 00.691-.424l19.871-39.572c.1.02.198.043.3.057.174.022.347.033.522.033 1.178 0 2.372-.504 3.444-1.448.372.134.76.208 1.159.208.427 0 .867-.087 1.311-.246.006-.001.012 0 .018-.002 5.042-1.309 10.344-3.993 14.525-7.299-.179 2.557-.504 4.961-1.518 7.061-.189.392-.399.782-.611 1.175-.857 1.592-1.744 3.24-1.436 5.126a.76.76 0 00.339.509.748.748 0 00.196.401c.11.11.232.198.348.298l-.001.001c-.274.596-6.616 14.377-8.822 22.965-1.643.088-4.257.951-5.591 3.879a.769.769 0 00.315.984l11.686 6.789a.772.772 0 001.006-.202c.059-.079 1.468-1.962 2.71-5.266 1.705-4.536 5.663-11.379 9.961-15.962.517 4.829 1.901 10.489 4.438 15.963-2.312 2.038-1.567 4.119-1.525 4.225a.77.77 0 00.719.498l12.666.035h.002a.77.77 0 00.772-.8c-.026-.644-.15-2.43-.722-3.649l.63-.279a.77.77 0 00.355-1.09c-1.743-3.002-2.605-12.518-2.305-25.456zM443.475 229.705c.246-.106.49-.222.735-.339.748-.355 1.452-.689 2.155-.689h.002c.971.001 1.995.71 2.606 1.806.612 1.098.819 2.423 1.019 3.704a.747.747 0 00.193.385c-.101.015-.199.052-.299.077a.752.752 0 00-.222-.35.766.766 0 00-.609-.172c-2.777.41-5.604.851-8.406 1.309l-.002.001h-.004c-.045.007-.082.033-.123.047a3.021 3.021 0 00-.934-.173 10.113 10.113 0 00-2.839.343h-.011c-.161.007-.562-.008-.963-.021-.217-.007-.397-.011-.55-.015-.219-.809-.416-1.632-.472-2.445-.05-.732.002-1.791.534-2.674a.757.757 0 00.02-.728c2.592 1.034 5.603 1.036 8.17-.066zm-4.911 10.982c-.073-.027-.129-.088-.192-.135a5.526 5.526 0 001.198-.151c-.288.277-.702.4-1.006.286zm-4.971-11.847c.095.074.173.134.218.177.024.023.054.032.08.051.026.02.043.048.072.065.148.085.305.151.457.229a.766.766 0 00-.459.343c-.585.971-.845 2.206-.751 3.573.079 1.16.386 2.259.683 3.321.001.004.004.006.004.009-.11.1-.201.22-.239.375l-1.234 4.932a.875.875 0 00-.022.145c-.067 1.24 1.703 1.84 2.443 1.999.266.423.519.859.775 1.32.233.422.468.843.72 1.254.832 1.353 1.685 2.244 2.682 2.802a4.544 4.544 0 002.209.587c.704 0 1.382-.177 1.946-.533a.771.771 0 10-.824-1.302c-.677.427-1.711.388-2.575-.095a4.585 4.585 0 01-1.109-.898 6.8 6.8 0 011.233.077.771.771 0 10.244-1.521 8.455 8.455 0 00-2.541-.013 36.24 36.24 0 01-.634-1.103c-.345-.624-.703-1.27-1.129-1.88a.761.761 0 00-.919-.261c-.36-.111-.761-.299-.94-.446l1.173-4.692c.017-.067.01-.132.009-.199l.562.018h.006l.021.146c.014.079.031.169.031.285.004.637.165 1.237.307 1.766.196.734.606 2.261 1.927 2.757.254.095.523.141.795.141.687 0 1.392-.294 1.907-.832.707-.738.906-1.686.947-2.351.033-.516.017-1.411-.038-2.16.007-.031.016-.059.019-.09 2.28-.37 4.57-.728 6.833-1.065a.731.731 0 00.102.364.773.773 0 001.062.252c.475-.292 1.007-.385 1.424-.254.384.121.683.49.665.82-.016.313-.269.654-.488.916a8.305 8.305 0 01-1.779 1.59.771.771 0 00.126 1.53l.044-.001c.356-.02.625-.201.753-.289a9.82 9.82 0 002.043-1.844c.372-.445.803-1.055.844-1.821.055-1.036-.678-2.033-1.741-2.37-.083-.026-.173-.03-.258-.048a.76.76 0 00.239-.665c-.211-1.349-.448-2.878-1.195-4.218-.892-1.599-2.407-2.594-3.955-2.596h-.003c-1.051 0-1.95.426-2.818.839-.228.107-.455.215-.683.313-2.567 1.104-5.653.923-8.075-.463a6.994 6.994 0 00-.237-.194c-.731-.576-1.096-.98-1.086-1.201.002-.05.087-.158.269-.278l.004-.004.006-.003a20.13 20.13 0 0112.682-3.446c1.582.105 5.355 1.19 5.991 2.199.047.074.043.097.036.115a.754.754 0 00-.065.331c.018.398.33.699.72.721.027.003.053.014.08.013.143.029.691.401 1.555 1.788.352.567.668 1.587.81 2.295.499 2.458-.764 8.207-2.515 9.921a.768.768 0 00.541 1.319c.195 0 .39-.073.541-.22 2.17-2.123 3.545-8.379 2.948-11.325-.163-.804-.526-2.019-1.013-2.803-.757-1.216-1.434-1.959-2.078-2.297a1.77 1.77 0 00-.252-.678c-1.121-1.778-5.848-2.826-7.196-2.917-4.836-.32-9.68.993-13.647 3.707l-.002.001-.002.001a.036.036 0 01-.009.004l-.007.009c-.744.502-.924 1.082-.941 1.483-.046 1.118 1.071 1.999 1.671 2.473z" /><path fill-rule="evenodd" clip-rule="evenodd" d="M467.947 284.945c-.129.317-.4.632-.825.962-.9.698-2.015 1.137-3.104 1.499l-.042-.57c-.023-.336-.22-.608-.662-1.188-.107-.142-.275-.362-.357-.488.006-.401.176-.874.34-1.331.124-.344.236-.675.296-.999 1.121-.331 2.407-.966 3.413-1.63.139.485.331.943.514 1.369.444 1.03.703 1.696.427 2.376zm.993-2.986c-.281-.65-.535-1.267-.568-1.877a1.88 1.88 0 00.267-.367c.962-1.883-.421-7.611-2.327-14.905-.399-1.528-.745-2.848-.951-3.772-.462-2.06-.985-4.393-2.195-6.378-1.215-1.994-3.974-4.166-6.336-4.495a16.76 16.76 0 01-2.971-6.318l-.004-.008a.765.765 0 00-.088-.193c-.014-.025-.02-.056-.037-.079-.022-.032-.059-.053-.086-.081-.044-.041-.082-.089-.133-.12l-.01-.008c-.044-.026-.093-.032-.14-.049-.044-.016-.085-.039-.132-.045-.066-.012-.131-.003-.196.003-.034.003-.066-.005-.1.002l-.008.004a.778.778 0 00-.193.087c-.026.014-.056.021-.081.038-.024.018-.04.047-.061.067-.053.048-.105.095-.141.155l-.007.007c-1.49 2.501-4.721 4.702-7.684 5.234a.77.77 0 10.273 1.515c2.874-.516 5.857-2.336 7.764-4.622.251.764.548 1.514.897 2.24a19.302 19.302 0 01-10.509 5.52.77.77 0 10.26 1.518c4.139-.705 8.013-2.702 11.009-5.63.402.676.84 1.329 1.324 1.945.005.007.014.008.02.015.134.16.327.269.552.279 1.837.085 4.464 2.123 5.498 3.82 1.078 1.767 1.55 3.875 2.007 5.913.213.951.561 2.282.964 3.824 1.125 4.301 3.218 12.307 2.446 13.818-.426.835-4.264 2.746-5.058 2.524-.511-.23-.705-1.86-.81-2.735-.055-.452-.106-.872-.176-1.205-.239-1.128-.44-2.305-.635-3.445-.676-3.94-1.374-8.017-3.762-11.343a.773.773 0 00-1.256.896c2.181 3.039 2.849 6.937 3.495 10.707.197 1.154.402 2.346.646 3.503.063.295.106.669.154 1.07.179 1.501.403 3.37 1.711 3.957.106.048.232.076.366.095-.032.094-.065.185-.095.27-.224.622-.476 1.328-.424 2.076.023.338.221.609.665 1.193.11.144.282.37.361.493l.048.655c.035.427.259.806.616 1.041a1.39 1.39 0 001.209.162c1.277-.417 2.616-.926 3.752-1.806.646-.501 1.074-1.025 1.309-1.601.532-1.31.016-2.507-.439-3.564zM442.299 258.671a.774.774 0 00-.885.64 62.76 62.76 0 00.647 23.431.773.773 0 001.509-.327 62.112 62.112 0 01-.631-22.861.77.77 0 00-.64-.883zM453.044 278.895a6.57 6.57 0 002.098-.338.77.77 0 10-.495-1.459c-2.075.701-4.554-.044-5.896-1.771a.773.773 0 00-1.083-.137.769.769 0 00-.138 1.081c1.294 1.666 3.41 2.624 5.514 2.624z" /><path opacity=".7" d="M425.099 337.5h-1.321a2.747 2.747 0 00-.612-1.273 2.922 2.922 0 00-1.092-.783 3.502 3.502 0 00-1.364-.266c-.66 0-1.259.166-1.795.5-.533.334-.957.826-1.273 1.476-.312.65-.469 1.447-.469 2.391 0 .945.157 1.742.469 2.392.316.65.74 1.142 1.273 1.476.536.333 1.135.5 1.795.5.483 0 .938-.088 1.364-.266.426-.178.79-.439 1.092-.783.302-.344.506-.769.612-1.273h1.321c-.135.746-.41 1.385-.825 1.918a4.158 4.158 0 01-1.545 1.219 4.793 4.793 0 01-2.019.421c-.93 0-1.758-.227-2.482-.682-.724-.454-1.294-1.101-1.71-1.939-.415-.838-.623-1.832-.623-2.983 0-1.15.208-2.144.623-2.983.416-.838.986-1.484 1.71-1.938.724-.455 1.552-.682 2.482-.682a4.75 4.75 0 012.019.426c.614.28 1.129.687 1.545 1.22.415.529.69 1.166.825 1.912zm1.24 7.5v-1.172h.299c.326 0 .582-.09.767-.272.184-.184.321-.52.41-1.006.088-.49.151-1.193.186-2.11l.149-3.622h5.455V345h-1.257v-7.01h-3.005l-.127 2.919c-.039.895-.135 1.646-.288 2.253-.153.608-.401 1.066-.746 1.375-.341.309-.813.463-1.417.463h-.426zm13.003.17c-.789 0-1.469-.174-2.04-.522a3.493 3.493 0 01-1.316-1.47c-.306-.632-.458-1.367-.458-2.205 0-.838.152-1.577.458-2.216.309-.643.739-1.143 1.289-1.502.554-.362 1.2-.543 1.939-.543.426 0 .847.071 1.262.213.416.142.794.373 1.135.692.341.316.612.735.815 1.257.202.522.303 1.165.303 1.929v.532h-5.939c.029.874.275 1.543.741 2.008.468.466 1.072.698 1.811.698.493 0 .918-.106 1.273-.319.355-.213.612-.533.772-.959l1.215.341c-.192.618-.576 1.117-1.151 1.496-.575.38-1.278.57-2.109.57zm-2.552-4.921h4.661c0-.693-.202-1.266-.607-1.721-.405-.458-.948-.687-1.63-.687-.48 0-.895.112-1.247.335a2.425 2.425 0 00-.831.89c-.202.366-.317.76-.346 1.183zm7.852 4.751v-8.182h6.434V345h-1.257v-7.01h-3.92V345h-1.257zm12.054.17c-.739 0-1.387-.175-1.944-.527-.554-.351-.987-.843-1.3-1.475-.309-.632-.463-1.371-.463-2.216 0-.853.154-1.597.463-2.232.313-.636.746-1.129 1.3-1.481.557-.352 1.205-.527 1.944-.527.739 0 1.385.175 1.939.527.558.352.991.845 1.3 1.481.312.635.468 1.379.468 2.232 0 .845-.156 1.584-.468 2.216a3.527 3.527 0 01-1.3 1.475c-.554.352-1.2.527-1.939.527zm0-1.129c.561 0 1.023-.144 1.385-.431.362-.288.63-.666.804-1.135.174-.469.261-.976.261-1.523 0-.547-.087-1.057-.261-1.529a2.577 2.577 0 00-.804-1.145c-.362-.291-.824-.437-1.385-.437s-1.023.146-1.385.437c-.362.291-.63.673-.804 1.145a4.388 4.388 0 00-.261 1.529c0 .547.087 1.054.261 1.523.174.469.442.847.804 1.135.362.287.824.431 1.385.431zm4.557-6.051v-1.172h6.648v1.172h-2.685V345h-1.257v-7.01h-2.706zm10.464 7.202c-.518 0-.989-.098-1.411-.293a2.424 2.424 0 01-1.007-.858c-.248-.376-.373-.831-.373-1.363 0-.469.093-.849.277-1.14.185-.295.432-.526.741-.693a3.893 3.893 0 011.022-.373 12.67 12.67 0 011.135-.202c.497-.064.9-.112 1.209-.144.313-.035.54-.094.682-.176.146-.081.218-.223.218-.426v-.042c0-.526-.144-.934-.431-1.226-.284-.291-.716-.436-1.295-.436-.6 0-1.07.131-1.411.394-.341.263-.581.543-.719.841l-1.193-.426c.213-.497.497-.884.852-1.161a3.186 3.186 0 011.172-.586c.426-.114.845-.17 1.257-.17.263 0 .564.032.905.096.345.06.677.186.996.378.324.191.592.481.805.868.213.387.319.906.319 1.555V345h-1.257v-1.108h-.064a2.19 2.19 0 01-.426.57 2.466 2.466 0 01-.793.517c-.331.142-.734.213-1.21.213zm.192-1.13c.497 0 .916-.097 1.257-.292a1.997 1.997 0 001.044-1.732v-1.15c-.053.064-.17.122-.351.176a6.159 6.159 0 01-.618.133 34.35 34.35 0 01-.677.096 24.34 24.34 0 00-.527.064 4.739 4.739 0 00-.916.207 1.586 1.586 0 00-.682.421c-.17.185-.256.437-.256.756 0 .437.162.768.485.991.327.22.74.33 1.241.33z" /></svg>
