<svg width="396" height="136" fill="none" xmlns="http://www.w3.org/2000/svg"><path fill-rule="evenodd" clip-rule="evenodd" d="M8.278 0 0 135.643l136.208-8.184V8.184L8.278 0Z" fill="#FE0"/><path d="M165.76 61.336h-6.186V26.41h26.936v5.285h-20.75V42.73h17.267v5.188H165.76v13.419Zm37.508-24.94 2.728.293v6.186c-.991-.406-2.314-.6-3.97-.584-2.517 0-4.465.755-5.845 2.265-1.396 1.526-2.095 3.425-2.095 5.699v11.08h-5.577V36.885h5.577v4.7h.341c.228-.52.625-1.12 1.194-1.802a8.35 8.35 0 0 1 1.607-1.607c.65-.504 1.518-.926 2.606-1.267a11.417 11.417 0 0 1 3.434-.511ZM221 61.824c-4.043 0-7.347-1.136-9.912-3.41-2.565-2.273-3.848-5.374-3.848-9.303 0-3.913 1.283-7.014 3.848-9.304 2.565-2.273 5.869-3.41 9.912-3.41 4.059 0 7.372 1.137 9.937 3.41 2.549 2.29 3.824 5.39 3.824 9.304 0 3.945-1.275 7.047-3.824 9.303-2.565 2.274-5.878 3.41-9.937 3.41Zm5.797-7.185c1.461-1.412 2.192-3.255 2.192-5.528 0-2.257-.731-4.092-2.192-5.504-1.494-1.413-3.426-2.12-5.797-2.12-2.403 0-4.335.707-5.796 2.12-1.461 1.412-2.192 3.247-2.192 5.504 0 2.273.731 4.116 2.192 5.528 1.461 1.413 3.393 2.12 5.796 2.12 2.371 0 4.303-.707 5.797-2.12Zm38.141 6.698h-5.577V48.964c0-2.517-.666-4.392-1.997-5.626s-3.093-1.851-5.285-1.851c-2.338 0-4.124.69-5.358 2.07-1.25 1.396-1.875 3.199-1.875 5.407v12.372h-5.578V36.884h5.578v3.945h.341c.178-.39.576-.9 1.193-1.534.406-.439.95-.893 1.632-1.364.682-.422 1.575-.78 2.679-1.072a12.882 12.882 0 0 1 3.482-.462c3.15 0 5.732.925 7.745 2.776 2.014 1.867 3.02 4.652 3.02 8.354v13.809Zm6.797-9.133V41.682h-4.043V38.15l5.992-6.746h3.628v5.48h8.549v4.798h-8.549v9.766c0 3.507 1.77 5.277 5.31 5.31.73 0 1.429-.082 2.094-.244.682-.163 1.177-.35 1.486-.56l.39-.244v5.188c-1.251.633-2.826.941-4.725.925-6.755 0-10.132-3.207-10.132-9.62Zm43.402-3.093-.146 1.997h-21.408c.163.73.414 1.413.755 2.046a7.277 7.277 0 0 0 1.291 1.778c.568.568 1.364 1.055 2.387 1.46 1.023.407 2.143.61 3.361.61 1.348 0 2.533-.227 3.556-.682 1.006-.439 1.696-.877 2.07-1.315l.56-.658h6.576c-.195.52-.422 1.007-.682 1.461a11.074 11.074 0 0 1-2.679 3.045c-1.51 1.234-3.312 2.086-5.407 2.557a18.94 18.94 0 0 1-3.994.414c-4.043 0-7.347-1.136-9.912-3.41-2.566-2.273-3.849-5.374-3.849-9.303 0-3.913 1.283-7.014 3.849-9.304 2.565-2.273 5.869-3.41 9.912-3.41 4.059 0 7.371 1.137 9.937 3.41 2.549 2.29 3.823 5.39 3.823 9.304Zm-10.35-7.307c-1.023-.373-2.16-.56-3.41-.56s-2.379.187-3.385.56c-.991.358-1.762.812-2.314 1.364-1.055 1.104-1.697 2.103-1.924 2.996l-.122.56H309c0-.39-.219-1.023-.658-1.9-.292-.6-.69-1.16-1.193-1.68-.536-.52-1.323-.966-2.362-1.34Zm40.528 19.533h-5.577V48.964c0-2.517-.666-4.392-1.998-5.626-1.331-1.234-3.093-1.851-5.284-1.851-2.339 0-4.125.69-5.359 2.07-1.25 1.396-1.875 3.199-1.875 5.407v12.372h-5.577V36.884h5.577v3.945h.341c.179-.39.577-.9 1.193-1.534.406-.439.95-.893 1.632-1.364.682-.422 1.575-.78 2.679-1.072a12.884 12.884 0 0 1 3.483-.462c3.15 0 5.732.925 7.745 2.776 2.013 1.867 3.02 4.652 3.02 8.354v13.809Zm17.269.487c-3.637 0-6.713-1.145-9.23-3.434-2.517-2.29-3.775-5.382-3.775-9.28 0-3.863 1.258-6.956 3.775-9.278 2.517-2.29 5.593-3.434 9.23-3.434 1.754 0 3.345.308 4.774.925 1.396.6 2.37 1.226 2.922 1.875l.78.902h.268V26.41h5.577v34.925h-5.577v-3.19h-.268c-.211.324-.625.755-1.242 1.29-.504.422-1.048.796-1.632 1.12-1.591.845-3.458 1.267-5.602 1.267Zm.755-20.336c-2.403 0-4.335.706-5.796 2.119-1.461 1.412-2.192 3.247-2.192 5.504 0 2.273.731 4.116 2.192 5.528 1.461 1.413 3.393 2.12 5.796 2.12 2.371 0 4.303-.707 5.797-2.12 1.461-1.412 2.192-3.255 2.192-5.528 0-2.257-.731-4.092-2.192-5.504-1.494-1.413-3.426-2.12-5.797-2.12Zm-199.942 62.392c-3.214-3.296-4.822-7.631-4.822-13.005 0-5.407 1.608-9.75 4.822-13.03 3.183-3.28 7.494-4.92 12.933-4.92 2.338 0 4.522.341 6.551 1.023 1.981.666 3.629 1.534 4.944 2.606a18.697 18.697 0 0 1 3.313 3.58c1.672 2.403 2.508 4.774 2.508 7.112h-6.478c.048-.487-.236-1.356-.853-2.606a11.916 11.916 0 0 0-2.484-3.41c-.828-.796-1.908-1.445-3.239-1.948-1.315-.52-2.736-.78-4.262-.78-3.459 0-6.203 1.161-8.232 3.483-2.03 2.354-3.044 5.318-3.044 8.89 0 3.588 1.014 6.543 3.044 8.865 2.013 2.338 4.757 3.507 8.232 3.507 1.526 0 2.947-.252 4.262-.755 1.331-.52 2.411-1.177 3.239-1.973a13.782 13.782 0 0 0 1.948-2.411c.926-1.526 1.389-2.72 1.389-3.58h6.478c0 2.338-.836 4.7-2.508 7.087a18.697 18.697 0 0 1-3.313 3.58c-1.315 1.088-2.955 1.957-4.919 2.606-2.014.682-4.206 1.023-6.576 1.023-5.423 0-9.734-1.648-12.933-4.944Zm47.762 4.944c-4.043 0-7.347-1.137-9.912-3.41-2.566-2.273-3.848-5.374-3.848-9.303 0-3.913 1.282-7.014 3.848-9.304 2.565-2.273 5.869-3.41 9.912-3.41 4.059 0 7.371 1.137 9.937 3.41 2.549 2.29 3.824 5.39 3.824 9.304 0 3.945-1.275 7.046-3.824 9.303-2.566 2.273-5.878 3.41-9.937 3.41Zm5.797-7.185c1.461-1.412 2.191-3.255 2.191-5.528 0-2.257-.73-4.092-2.191-5.504-1.494-1.413-3.426-2.12-5.797-2.12-2.403 0-4.335.707-5.796 2.12-1.462 1.412-2.192 3.247-2.192 5.504 0 2.273.73 4.116 2.192 5.528 1.461 1.413 3.393 2.119 5.796 2.119 2.371 0 4.303-.706 5.797-2.119Zm38.141 6.698h-5.577V95.964c0-2.517-.666-4.392-1.997-5.626-1.332-1.234-3.093-1.851-5.285-1.851-2.338 0-4.124.69-5.358 2.07-1.251 1.396-1.876 3.199-1.876 5.407v12.372h-5.577V83.884h5.577v3.945h.341c.179-.39.577-.9 1.194-1.534.406-.439.95-.893 1.631-1.364.682-.422 1.575-.78 2.679-1.072a12.89 12.89 0 0 1 3.483-.462c3.15 0 5.732.925 7.745 2.776 2.013 1.867 3.02 4.652 3.02 8.354v13.809Zm19.218-24.452v4.798h-7.185v19.654h-5.577V88.682h-4.189V85.54l4.189-1.656V82.69c0-3.23.909-5.666 2.728-7.306 1.818-1.64 4.432-2.46 7.842-2.46.893 0 1.81.114 2.752.341.909.244 1.567.463 1.973.658l.609.34v5.09c-.991-.892-2.452-1.339-4.384-1.339-3.962 0-5.943 1.746-5.943 5.237v.633h7.185Z" fill="#fff"/><path d="M306.885 108.336h-20.806v-3.271c0-1.38.406-2.597 1.217-3.653a8.38 8.38 0 0 1 3.027-2.505 66.562 66.562 0 0 1 3.914-1.809 130.539 130.539 0 0 1 3.932-1.618c1.195-.464 2.204-1.102 3.027-1.913.8-.8 1.2-1.711 1.2-2.732 0-2.632-1.861-3.949-5.584-3.949-3.734 0-5.601 1.508-5.601 4.523v.853h-4.419v-.853c0-2.69.881-4.76 2.644-6.21 1.751-1.438 4.204-2.157 7.359-2.157 3.131 0 5.584.678 7.358 2.035 1.775 1.38 2.662 3.3 2.662 5.758 0 1.438-.389 2.72-1.166 3.845a8.957 8.957 0 0 1-2.94 2.731 41.22 41.22 0 0 1-3.844 1.948 70.627 70.627 0 0 1-3.827 1.566c-1.183.441-2.163.963-2.94 1.566-.789.614-1.183 1.281-1.183 2h15.97v3.845Zm6.124-3.218c-2.064-2.355-3.096-5.44-3.096-9.255 0-3.793 1.032-6.877 3.096-9.255 2.065-2.377 4.906-3.566 8.525-3.566 3.606 0 6.442 1.189 8.506 3.566 2.065 2.377 3.097 5.462 3.097 9.255 0 3.815-1.032 6.9-3.097 9.255-2.064 2.377-4.9 3.566-8.506 3.566-3.619 0-6.46-1.189-8.525-3.566Zm13.674-2.906c1.218-1.646 1.826-3.763 1.826-6.35 0-2.585-.608-4.708-1.826-6.366-1.229-1.647-2.946-2.47-5.149-2.47-2.216 0-3.932.823-5.15 2.47-1.229 1.647-1.844 3.769-1.844 6.367 0 2.586.615 4.703 1.844 6.349 1.218 1.659 2.934 2.488 5.15 2.488 2.192 0 3.908-.829 5.149-2.488Zm30.306 6.124h-20.806v-3.271c0-1.38.406-2.597 1.217-3.653a8.38 8.38 0 0 1 3.027-2.505 66.562 66.562 0 0 1 3.914-1.809 130.539 130.539 0 0 1 3.932-1.618c1.195-.464 2.204-1.102 3.027-1.913.8-.8 1.2-1.711 1.2-2.732 0-2.632-1.861-3.949-5.584-3.949-3.734 0-5.601 1.508-5.601 4.523v.853h-4.419v-.853c0-2.69.881-4.76 2.644-6.21 1.751-1.438 4.204-2.157 7.359-2.157 3.131 0 5.584.678 7.358 2.035 1.775 1.38 2.662 3.3 2.662 5.758 0 1.438-.389 2.72-1.166 3.845a8.957 8.957 0 0 1-2.94 2.731 41.22 41.22 0 0 1-3.844 1.948 70.627 70.627 0 0 1-3.827 1.566c-1.183.441-2.163.963-2.94 1.566-.789.614-1.183 1.281-1.183 2h15.97v3.845Zm7.168-19.588-5.201 4.088v-4.697l5.723-4.75h3.897v24.947h-4.419V88.748Z" fill="#FF4141"/><path d="M66.881 62.178v9.5H44.117v18.72H33.111V43.175h35.087v9.501h-24.08v9.5H66.88ZM94.442 41.86c9.125 0 14.487 2.069 19.19 6.02l-5.456 7.43c-2.916-1.974-6.773-3.95-13.734-3.95-9.876 0-14.298 6.679-14.298 15.427 0 8.654 4.421 15.427 14.298 15.427 6.961 0 10.818-1.976 13.734-3.951l5.456 7.431c-4.609 3.951-9.971 6.02-19.19 6.02-17.872 0-25.585-11.758-25.585-24.927 0-13.263 7.713-24.928 25.585-24.928Z" fill="#231F20"/></svg>
