<svg xmlns="http://www.w3.org/2000/svg" viewBox="0 0 500 500"><path fill="#4b86c2" d="M327.5 273.5l17.7-17.7L500 410.7v-35.4L362.8 238.1l17.7-17.7L500 339.9v-35.4L398.2 202.8l17.7-17.7 84.1 84.1V50c0-27.6-22.4-50-50-50H50C22.4 0 0 22.4 0 50v400c0 27.6 22.4 50 50 50h214.3c4.9-20.5-.7-42.9-16.7-58.9L186 379.5 124.5 318c-53.9-53.9-54.1-141.1-.4-194.8 53.7-53.7 140.9-53.6 194.8.3l8.5 8.5h106.1L274 291.1v-106l-8.3-8.5c-24.5-24.5-64-24.6-88.4-.2s-24.3 64.1.2 88.5l61.5 61.5 61.5 61.5c30.6 30.6 43.9 72.1 39.8 112H450c27.6 0 50-22.4 50-50v-4L327.5 273.5z"/></svg>