<svg width="67" height="57" fill="none" xmlns="http://www.w3.org/2000/svg"><path d="M65.966 1.552C65.147.55 63.92 0 62.514 0c-.766 0-1.576.161-2.41.48L3.39 22.128C.38 23.278-.025 25.001.001 25.926c.026.926.529 2.624 3.599 3.6l.055.017 11.764 3.367 6.362 18.192c.867 2.48 2.815 4.021 5.082 4.021 1.43 0 2.836-.6 4.067-1.732l7.276-6.7 10.555 8.498c0 .002.002.002.003.003l.1.08.028.023c1.174.91 2.454 1.39 3.705 1.39 2.444 0 4.39-1.808 4.957-4.608l9.293-45.884c.373-1.842.06-3.49-.881-4.641ZM19.355 32.27 42.05 20.675 27.919 35.692a1.96 1.96 0 0 0-.477.874l-2.725 11.039-5.362-15.335Zm8.915 18.233a3.708 3.708 0 0 1-.283.235l2.528-10.24 4.6 3.703-6.845 6.302ZM63 5.413l-9.293 45.885c-.09.44-.376 1.461-1.11 1.461-.363 0-.819-.197-1.286-.557l-11.959-9.63a.023.023 0 0 0-.006-.003l-7.116-5.73 20.437-21.717a1.963 1.963 0 0 0-2.322-3.093L16.732 29.202 4.808 25.79 61.505 4.147c.478-.183.813-.221 1.009-.221.12 0 .333.014.413.112.104.127.237.561.072 1.375Z" fill="#FF4141"/></svg>
