<svg width="67" height="55" fill="none" xmlns="http://www.w3.org/2000/svg"><path d="M67 7.323c-4.215.195-4.123.179-4.599.219L64.897.413s-7.791 2.867-9.766 3.38C49.943-.87 42.233-1.078 36.72 2.311c-4.515 2.775-6.938 7.54-6.13 13.111-8.785-1.22-16.187-5.384-22.031-12.404L6.71.799 5.33 3.335c-1.746 3.205-2.325 6.87-1.633 10.319a14.825 14.825 0 0 0 1.437 4.028l-1.586-.615-.188 2.65c-.19 2.691.705 5.833 2.397 8.403.477.724 1.09 1.519 1.868 2.303l-.82-.126 1 3.036c1.314 3.989 4.044 7.074 7.586 8.79-3.537 1.501-6.395 2.46-11.093 4.004L0 47.54l3.97 2.17c1.513.828 6.862 3.592 12.146 4.421 11.747 1.843 24.972.342 33.876-7.676 7.5-6.755 9.96-16.362 9.449-26.36-.077-1.514.337-2.958 1.167-4.067 1.663-2.22 6.382-8.69 6.392-8.705Zm-9.53 6.354c-1.38 1.84-2.07 4.191-1.946 6.618.515 10.085-2.229 17.906-8.157 23.245-6.924 6.237-18.094 8.685-30.643 6.716-2.273-.356-4.622-1.154-6.566-1.951 3.939-1.355 6.98-2.563 11.892-4.888l6.857-3.245-7.57-.485c-3.627-.232-6.646-1.99-8.502-4.843a13.572 13.572 0 0 0 2.882-.48l7.22-2.011-7.28-1.783c-3.538-.867-5.555-2.983-6.624-4.607a11.105 11.105 0 0 1-1.435-3.167c.73.196 1.581.335 2.954.471l6.738.667-5.339-4.165c-3.847-3-5.389-7.509-4.258-11.842C19.699 20.38 33.796 19.444 35.215 19.773c-.312-3.034-.32-3.04-.402-3.33-1.818-6.424 2.165-9.685 3.961-10.79C42.526 3.348 48.482 3 52.607 6.8c.891.82 2.096 1.142 3.223.862a27.138 27.138 0 0 0 2.657-.807l-1.694 4.834 2.162.002c-.408.547-.897 1.202-1.486 1.987Z" fill="#FF4141"/></svg>
