<svg xmlns="http://www.w3.org/2000/svg" viewBox="0 0 512 512">
	<path fill="#0174A7" d="m315 259l18-18 179 179v-36l-161-161 18-18 143 143v-36l-125-125 18-18 107 107v-224.8c0-28.277-22.92-51.2-51.2-51.2h-409.6c-28.277 0-51.2 22.923-51.2 51.2v409.6c0 28.28 22.923 51.2 51.2 51.2h190.5c16.542-24.877 13.794-58.989-8.217-81l-62.994-62.994-62.994-62.994c-55.187-55.186-55.349-144.5-0.362-199.48 54.985-54.986 144.3-54.824 199.48 0.362l8.689 7.111h108.61l-162.92 162.91v-107.04l-8.689-8.688c-25.084-25.084-65.682-25.158-90.674-0.165-24.993 24.993-24.92 65.589 0.165 90.675l62.993 62.994 62.996 62.993c36.674 36.676 49.037 88.58 37.073 135.31h135.94c28.277 0 51.2-22.923 51.2-51.2v-4.79l-197-197z"/>
</svg>