<svg xmlns="http://www.w3.org/2000/svg" viewBox="0 0 500 500"><path d="M50 500a50 50 0 0 1-50-50V50A50 50 0 0 1 50 0h400a50 50 0 0 1 50 50v400a50 50 0 0 1-50 50H50" fill="#FFF"/><path d="M500 304.58v35.35l-119.5-119.5-17.67 17.69L500 375.29v35.4L345.15 255.83l-17.68 17.68L500 446.04V450a50 50 0 0 1-50 50H340.38a137.93 137.93 0 0 0-39.79-111.98l-61.52-61.52-61.51-61.5c-24.5-24.5-24.57-64.15-.16-88.55 24.4-24.41 64.05-24.34 88.55.16l8.48 8.48v106.07l159.1-159.1H327.46l-8.48-8.49c-53.9-53.89-141.11-54.05-194.81-.35-53.7 53.7-53.54 140.92.35 194.8l61.52 61.53 61.52 61.52c16 16 21.59 38.48 16.72 58.94H50a50 50 0 0 1-50-50V50A50 50 0 0 1 50 0h400a50 50 0 0 1 50 50v219.22l-84.14-84.14-17.68 17.68L500 304.58z" fill="#4B86C2"/></svg>