<svg xmlns="http://www.w3.org/2000/svg" viewBox="0 0 160 160"><mask id="a" maskUnits="userSpaceOnUse" x="0" y="0" width="160" height="160"><rect width="160" height="160" rx="16" fill="#fff"/></mask><g mask="url(#a)"><path fill="#fff" d="M0 0h160v160H0z"/><path d="M0 0h160v86.15l-26.93-26.92-5.65 5.65L160 97.47v11.3l-38.24-38.23-5.66 5.66 43.9 43.9v11.32l-49.55-49.55-5.66 5.65L160 142.73V160h-51.08a44.14 44.14 0 00-12.73-35.83L56.82 84.8a20.04 20.04 0 01-.05-28.34 20.04 20.04 0 0128.33.05l2.72 2.72v33.94l50.9-50.91H104.8l-2.72-2.72a44.08 44.08 0 00-62.34-.11 44.08 44.08 0 00.12 62.34l39.37 39.37A20.08 20.08 0 0184.57 160H0V0z" fill="#4B86C2"/></g></svg>
