<svg version="1.1" xmlns="http://www.w3.org/2000/svg" xmlns:xlink="http://www.w3.org/1999/xlink" width="256px" height="256px" viewBox="0 0 512 512">
	<path fill="#0174A7" d="M315,259l18-18l179,179v-36L351,223l18-18l143,143v-36L387,187l18-18l107,107V51.2 C512,22.923,489.077,0,460.8,0H51.2C22.923,0,0,22.923,0,51.2v409.6C0,489.077,22.923,512,51.2,512h190.501 c16.542-24.877,13.794-58.989-8.217-81l-62.994-62.994l-62.994-62.994c-55.187-55.186-55.349-144.499-0.362-199.484 c54.985-54.986,144.297-54.824,199.482,0.362l8.689,7.111h108.612L261,275.918V168.884l-8.689-8.688 c-25.084-25.084-65.682-25.158-90.674-0.165c-24.993,24.993-24.92,65.589,0.165,90.675l62.993,62.994l62.996,62.993 c36.674,36.676,49.037,88.58,37.073,135.307H460.8c28.277,0,51.2-22.923,51.2-51.2V456L315,259z"/>
</svg>