<?xml version="1.0" standalone="no"?>
<svg xmlns="http://www.w3.org/2000/svg">
<metadata>
	Designer: AKorolkova OUmpeleva VYefimov
	Foundry: ParaType Ltd
	Foundry URL: http://www.paratype.com
</metadata>
<defs>
	<font id="PTSans" horiz-adv-x="545" >
		<font-face units-per-em="1000" ascent="750" descent="-250"/>
		<missing-glyph horiz-adv-x="267"/>
		<glyph unicode=" "  horiz-adv-x="267"/>
		<glyph unicode="&#x09;" horiz-adv-x="267"/>
		<glyph unicode="&#xa0;" horiz-adv-x="267"/>
		<glyph unicode="!" horiz-adv-x="305" d="M127 700h83v-347l-17 -176h-49l-17 176v347zM110 46q0 27 15.5 42.5t41.5 15.5q27 0 43 -15.5t16 -42.5q0 -26 -16 -42t-43 -16q-26 0 -41.5 16t-15.5 42z"/>
		<glyph unicode="&#x22;" horiz-adv-x="335" d="M207 700h78l-31 -193h-47v193zM90 700h78l-31 -193h-47v193z"/>
		<glyph unicode="#" d="M280 225h-105l-39 -167h-69l39 167h-78l14 64h79l31 131h-74l14 64h75l38 158h69l-38 -158h105l38 158h69l-38 -158h77l-16 -64h-76l-31 -131h73l-16 -64h-72l-39 -167h-69zM190 289h105l31 131h-105z"/>
		<glyph unicode="$" d="M242 -12q-55 1 -97.5 9.5t-68.5 22.5l27 73q20 -12 54.5 -22t84.5 -11v270q-30 15 -59.5 32t-52.5 40.5t-37 55.5t-14 76q0 72 40.5 118t122.5 57v91h68v-88q51 -2 83.5 -9.5t58.5 -19.5l-24 -70q-20 10 -48 17.5t-70 9.5v-247q31 -16 62 -34.5t55.5 -42.5t39.5 -56 t15 -75q0 -78 -43.5 -128.5t-128.5 -64.5v-92h-68v88zM399 178q0 24 -8.5 43t-22.5 34t-33 27t-41 23v-243q46 7 75.5 35.5t29.5 80.5zM162 539q0 -43 27.5 -70t68.5 -49v219q-53 -6 -74.5 -35t-21.5 -65z"/>
		<glyph unicode="%" horiz-adv-x="773" d="M70 542q0 45 12 77t32.5 53t49 30.5t61.5 9.5t61.5 -9t49 -29t32.5 -52.5t12 -79.5t-12 -79.5t-32.5 -52.5t-49 -29t-61.5 -9t-61.5 9t-49 29t-32.5 52.5t-12 79.5zM144 542q0 -60 21.5 -86t59.5 -26q19 0 34 5.5t25.5 18t16 34t5.5 54.5t-5.5 54.5t-16 34t-25.5 18 t-34 5.5q-38 0 -59.5 -23.5t-21.5 -88.5zM427 171q0 45 12 77t32.5 53t49 30.5t61.5 9.5t61.5 -9t49 -29t32.5 -52.5t12 -79.5t-12 -79.5t-32.5 -52.5t-49 -29t-61.5 -9t-61.5 9t-49 29t-32.5 52.5t-12 79.5zM501 171q0 -60 21.5 -86t59.5 -26q19 0 34 5.5t25.5 18t16 34 t5.5 54.5t-5.5 54.5t-16 34t-25.5 18t-34 5.5q-38 0 -59.5 -23.5t-21.5 -88.5zM637 713l49 -38l-513 -687l-50 39z"/>
		<glyph unicode="&#x26;" horiz-adv-x="814" d="M118 187q0 40 14 76.5t38 67.5t54.5 57t63.5 46q-24 36 -41.5 72t-17.5 78q0 24 8 47t25.5 41t45 29t66.5 11q41 0 69 -10.5t45 -27.5t24.5 -38t7.5 -43q0 -42 -32.5 -86.5t-102.5 -85.5q16 -29 37.5 -59.5t45.5 -60.5l49 -59q25 -30 50 -55q11 12 22 30.5t21.5 39 t19 42.5t15.5 42l62 -29q-6 -17 -17 -40.5t-24.5 -48t-27.5 -47t-26 -37.5q21 -20 38 -34.5t31.5 -25t28.5 -19.5l27 -16l-50 -56q-53 26 -121 93q-18 -18 -39.5 -34.5t-48.5 -29.5t-59.5 -21t-71.5 -8q-47 0 -88.5 13t-72.5 38.5t-49.5 62.5t-18.5 85zM519 131 q-29 29 -57 63l-54 68l-46.5 65.5t-36.5 55.5q-27 -20 -50 -41t-40.5 -44.5t-27 -50.5t-9.5 -58t13 -55.5t35.5 -41t51.5 -25.5t61 -9q25 0 48.5 6.5t44.5 16.5t38.5 23t28.5 27zM307 584q0 -30 12.5 -59.5t32.5 -58.5q53 34 73.5 62t20.5 49q0 32 -15.5 52t-53.5 20 q-36 0 -53 -18t-17 -47z"/>
		<glyph unicode="'" horiz-adv-x="218" d="M90 700h78l-31 -193h-47v193z"/>
		<glyph unicode="(" horiz-adv-x="280" d="M227 -220q-46 48 -78 105.5t-51.5 118t-28.5 122t-9 117.5q0 55 9 116t29 122.5t52.5 120.5t79.5 110l48 -35q-40 -51 -66.5 -105.5t-42.5 -110.5t-22.5 -111.5t-6.5 -106.5q0 -48 7.5 -104.5t24 -113t43 -110.5t63.5 -98z"/>
		<glyph unicode=")" horiz-adv-x="280" d="M53 712q46 -48 78 -105.5t51.5 -118t28.5 -122t9 -117.5q0 -55 -9 -116t-29 -122.5t-52.5 -120.5t-79.5 -110l-48 35q40 51 67 106t42.5 111t22 111t6.5 106q0 48 -8 104t-24.5 113t-42.5 111t-63 98z"/>
		<glyph unicode="*" horiz-adv-x="351" d="M130 715l25 -42l18 -56l21 57l24 40l48 -26l-26 -43l-46 -48l68 12h48v-56h-46l-64 12l46 -48l23 -39l-47 -28l-26 42l-23 61l-19 -58l-25 -42l-50 28l27 42l42 42l-58 -12h-50v56h50l62 -12l-45 44l-26 46z"/>
		<glyph unicode="+" horiz-adv-x="505" d="M40 374h176v180h72v-180h176v-72h-176v-180h-72v180h-176v72z"/>
		<glyph unicode="," horiz-adv-x="195" d="M49 43q0 24 16 39t41 15q31 0 50.5 -22t19.5 -64q0 -36 -10 -63t-26 -46.5t-35 -32t-38 -18.5l-25 39q36 14 53.5 43.5t17.5 59.5q-9 -3 -17 -3q-20 0 -33.5 13.5t-13.5 39.5z"/>
		<glyph unicode="-" horiz-adv-x="360" d="M59 325h242v-74h-242v74z"/>
		<glyph unicode="." horiz-adv-x="214" d="M49 46q0 27 15.5 42.5t41.5 15.5q27 0 43 -15.5t16 -42.5q0 -26 -16 -42t-43 -16q-26 0 -41.5 16t-15.5 42z"/>
		<glyph unicode="/" horiz-adv-x="354" d="M328 712l63 -28l-365 -824l-63 28z"/>
		<glyph unicode="0" d="M43 350q0 180 58.5 271t170.5 91q121 0 175.5 -89.5t54.5 -272.5q0 -180 -58.5 -271t-171.5 -91q-119 0 -174 95t-55 267zM126 350q0 -65 8.5 -118.5t26.5 -92t45.5 -60t65.5 -21.5q76 0 111.5 70.5t35.5 221.5q0 64 -7.5 118t-25 93t-45.5 60t-69 21q-75 0 -110.5 -71 t-35.5 -221z"/>
		<glyph unicode="1" d="M108 74h140v484l10 59l-40 -47l-110 -79l-38 51l220 170h36v-638h137v-74h-355v74z"/>
		<glyph unicode="2" d="M446 541q0 -53 -19.5 -108.5t-51 -111.5t-70.5 -109.5t-78 -101.5l-49 -43v-4l64 11h218v-74h-398v29l53 57q31 34 64.5 75.5t66 88t59 94.5t42.5 95t16 89q0 49 -28 81.5t-85 32.5q-38 0 -74 -15.5t-62 -35.5l-33 57q35 30 83 47t103 17q43 0 76 -12.5t56 -35.5 t35 -54.5t12 -68.5z"/>
		<glyph unicode="3" d="M234 58q34 0 63 10t50 29.5t33 46.5t12 59q0 70 -41.5 104t-114.5 34h-74v29l144 222l46 44l-65 -10h-198v74h357v-29l-159 -239l-35 -29v-2l34 7q40 -1 74 -14.5t59 -39t39 -61t14 -80.5q0 -54 -19 -96t-51.5 -70.5t-76.5 -43.5t-93 -15q-45 0 -81 7t-63 18l21 71 q23 -11 54.5 -18.5t70.5 -7.5z"/>
		<glyph unicode="4" d="M524 215h-118v-215h-78v215h-308v33l332 463h54v-426h118v-70zM328 503l10 82h-3l-35 -68l-141 -191l-48 -49l70 8h147v218z"/>
		<glyph unicode="5" d="M213 58q69 0 114 40t45 116q0 73 -44.5 109t-122.5 36l-84 -5v346h312v-74h-237v-199l43 2q99 -1 156 -55t57 -155q0 -56 -19 -99.5t-51.5 -72.5t-76.5 -44t-94 -15q-45 0 -76 5t-58 15l21 68q23 -9 49.5 -13.5t65.5 -4.5z"/>
		<glyph unicode="6" d="M492 211q0 -46 -14 -86.5t-41 -71t-67 -48t-91 -17.5q-50 0 -90 16t-69 47.5t-44.5 77.5t-15.5 106q0 99 25.5 182.5t70.5 145.5t106.5 100.5t133.5 48.5l17 -64q-56 -10 -102 -38t-80.5 -69t-56.5 -92t-30 -105q16 27 54 49.5t93 22.5q94 0 147.5 -54t53.5 -151z M409 203q0 71 -33 107t-102 36q-49 0 -84.5 -24t-49.5 -54q-2 -14 -2 -23v-20q0 -31 8.5 -61t26.5 -53.5t44.5 -38t62.5 -14.5q29 0 52.5 11t40.5 30t26.5 46t9.5 58z"/>
		<glyph unicode="7" d="M110 0l251 586l44 49l-59 -9h-285v74h418v-27l-288 -673h-81z"/>
		<glyph unicode="8" d="M68 167q0 63 33 109.5t103 84.5q-25 15 -46.5 31.5t-38 37.5t-26 47t-9.5 60q0 39 13.5 71t39 55t61 36t80.5 13q42 0 76 -12t57.5 -33t36.5 -50t13 -64q0 -57 -26 -100.5t-86 -85.5q26 -15 49.5 -33t41 -40t27.5 -49.5t10 -62.5q0 -43 -14 -78.5t-41 -61t-66 -40 t-89 -14.5q-48 0 -85 14t-62.5 38t-38.5 56.5t-13 70.5zM399 177q0 30 -12 52.5t-31.5 41t-44.5 33.5t-52 29q-61 -34 -87 -76t-26 -80q0 -24 8 -46t24 -38t39.5 -25.5t54.5 -9.5q25 0 48 7.5t40.5 22t28 37t10.5 52.5zM162 539q0 -28 11 -49.5t29.5 -38.5t42.5 -31.5 t50 -27.5q45 35 66.5 69t21.5 75q0 51 -31.5 78.5t-75.5 27.5q-27 0 -48 -9t-36 -23t-22.5 -32.5t-7.5 -38.5z"/>
		<glyph unicode="9" d="M52 488q0 48 14 89t41 71t67.5 47t94.5 17q102 0 159 -66t57 -186q0 -113 -25.5 -197.5t-70.5 -142.5t-106.5 -90.5t-133.5 -41.5l-18 64q58 9 104.5 34t80 63t54.5 86.5t29 105.5q-27 -32 -59.5 -44.5t-85.5 -12.5q-41 0 -77.5 13.5t-64.5 39.5t-44 64t-16 87zM135 496 q0 -71 37.5 -106.5t98.5 -35.5q49 0 84 16t50 42q2 13 2 23v21q0 36 -8.5 69.5t-25.5 60t-44.5 41.5t-64.5 15q-61 0 -95 -38.5t-34 -107.5z"/>
		<glyph unicode=":" horiz-adv-x="219" d="M91 449q0 27 15.5 42.5t41.5 15.5q27 0 43 -15.5t16 -42.5q0 -26 -16 -42t-43 -16q-26 0 -41.5 16t-15.5 42zM91 46q0 27 15.5 42.5t41.5 15.5q27 0 43 -15.5t16 -42.5q0 -26 -16 -42t-43 -16q-26 0 -41.5 16t-15.5 42z"/>
		<glyph unicode=";" horiz-adv-x="256" d="M89 43q0 24 16 39t41 15q31 0 50.5 -22t19.5 -64q0 -36 -10 -63t-26 -46.5t-35 -32t-38 -18.5l-25 39q36 14 53.5 43.5t17.5 59.5q-9 -3 -17 -3q-20 0 -33.5 13.5t-13.5 39.5zM96 449q0 27 15.5 42.5t41.5 15.5q27 0 43 -15.5t16 -42.5q0 -26 -16 -42t-43 -16 q-26 0 -41.5 16t-15.5 42z"/>
		<glyph unicode="&#x3c;" horiz-adv-x="505" d="M42 305v29l378 231l38 -62l-237 -145l-91 -38l90 -32l243 -144l-38 -60z"/>
		<glyph unicode="=" horiz-adv-x="505" d="M40 457h424v-72h-424v72zM40 291h424v-72h-424v72z"/>
		<glyph unicode="&#x3e;" horiz-adv-x="505" d="M463 344v-29l-378 -231l-38 61l237 145l91 38l-90 32l-243 144l38 61z"/>
		<glyph unicode="?" horiz-adv-x="436" d="M150 177q-1 5 -1 11v11q0 42 12.5 74t31 58.5t40 49.5t40 46.5t31 50t12.5 60.5q0 46 -26.5 75t-88.5 29q-36 0 -73 -12.5t-64 -29.5l-27 62q38 23 80 36.5t104 13.5q44 0 77.5 -12.5t56 -34.5t33.5 -52t11 -64q0 -45 -13.5 -78.5t-34 -61t-44 -51.5t-44 -50.5t-34 -57.5 t-13.5 -73h-66zM130 46q0 27 15.5 42.5t41.5 15.5q27 0 43 -15.5t16 -42.5q0 -26 -16 -42t-43 -16q-26 0 -41.5 16t-15.5 42z"/>
		<glyph unicode="@" horiz-adv-x="1064" d="M707 491h34l-51 -287q-5 -26 -7.5 -46.5t-2.5 -36.5q0 -25 8.5 -36.5t29.5 -11.5q34 0 67.5 18t59.5 51t42.5 79.5t16.5 104.5q0 77 -26 136t-73 99.5t-112 61.5t-143 21q-81 0 -152.5 -30t-124 -83t-83 -127t-30.5 -161q0 -89 27.5 -159t78.5 -118t122 -73t158 -25 q29 0 66 6.5t67 21.5l20 -64q-45 -19 -83 -25.5t-82 -6.5q-93 0 -174.5 28t-142 83t-95.5 136.5t-35 188.5q0 109 37.5 197t101.5 150t149 95.5t180 33.5q90 0 167 -26.5t133.5 -76t89 -121t32.5 -162.5q0 -64 -22 -122.5t-59.5 -102.5t-87.5 -70.5t-106 -26.5q-42 0 -67 18 t-25 67q0 9 1 19.5t3 22.5h-4q-14 -23 -33 -45.5t-42.5 -40.5t-50 -29.5t-55.5 -11.5q-24 0 -46 10.5t-38 30.5t-25.5 47.5t-9.5 62.5q0 64 21 126t56.5 110t83 77.5t100.5 29.5q37 0 59 -11t43 -27zM650 393q-17 20 -34 27.5t-43 7.5q-39 0 -73 -23.5t-58.5 -61t-39 -84 t-14.5 -91.5q0 -39 16 -66.5t58 -27.5q20 0 41.5 13t42.5 35.5t40 50.5t34 57z"/>
		<glyph unicode="A" horiz-adv-x="585" d="M418 194h-258l-70 -194h-82l265 711h38l266 -711h-87zM187 266h206l-78 213l-25 106h-1l-25 -108z"/>
		<glyph unicode="B" horiz-adv-x="584" d="M507 540q0 -25 -8 -51t-24 -48.5t-41 -39.5t-59 -26v-4q30 -5 57.5 -17t48.5 -33t34 -51t13 -71q0 -54 -22.5 -93.5t-59 -64.5t-83.5 -37t-96 -12h-40q-23 0 -48 1.5t-50 4t-44 7.5v689q37 6 86 10t107 4q39 0 79.5 -6.5t73.5 -25t54.5 -51.5t21.5 -85zM275 64 q32 0 62 7.5t53 24t36.5 40.5t13.5 57q0 41 -16.5 66t-43 39t-59.5 19t-66 5h-87v-251q7 -2 20 -3t28 -2t31 -1.5t28 -0.5zM220 392q17 0 41 1t40 3q24 8 45 19.5t37.5 27t26 36t9.5 44.5q0 33 -12.5 54.5t-33.5 34.5t-48 18.5t-55 5.5q-33 0 -60.5 -1.5t-41.5 -4.5v-238h52 z"/>
		<glyph unicode="C" horiz-adv-x="571" d="M533 29q-30 -23 -76 -32t-98 -9q-63 0 -118 21.5t-96 65.5t-65 112.5t-24 162.5q0 98 26.5 166.5t70 112t97.5 63.5t110 20q60 0 98 -6.5t65 -17.5l-20 -73q-48 23 -137 23q-41 0 -81 -15t-71.5 -49t-50.5 -89t-19 -135q0 -72 18 -126t49.5 -90t74 -54t92.5 -18 q45 0 78.5 9t56.5 23z"/>
		<glyph unicode="D" horiz-adv-x="654" d="M85 700q19 3 42.5 4.5t48.5 1.5l50 2h46q84 0 145.5 -26t101.5 -72.5t59.5 -111.5t19.5 -143q0 -71 -18.5 -136.5t-58.5 -116t-104 -81t-155 -30.5q-16 0 -41.5 0.5t-52.5 2t-50 2.5t-33 3v701zM274 634h-28q-16 0 -31 -1t-27.5 -2t-19.5 -2v-560q5 -1 19 -1l29 -2h29 q14 -1 19 -1q70 0 117.5 24t76 64.5t40.5 93t12 108.5q0 49 -11 98.5t-38 89.5t-72.5 65.5t-114.5 25.5z"/>
		<glyph unicode="E" horiz-adv-x="536" d="M85 700h381v-74h-298v-229h273v-74h-273v-249h303v-74h-386v700z"/>
		<glyph unicode="F" horiz-adv-x="517" d="M85 700h381v-74h-298v-239h278v-74h-278v-313h-83v700z"/>
		<glyph unicode="G" horiz-adv-x="612" d="M321 349h235v-308q-16 -12 -38.5 -22t-48 -17t-53 -10.5t-53.5 -3.5q-67 0 -123 21.5t-97 66t-64 113t-23 161.5q0 97 28 166t73 112.5t101 63.5t112 20q60 0 99 -6.5t66 -17.5l-21 -73q-48 23 -137 23q-42 0 -83.5 -14.5t-74.5 -48.5t-54 -89t-21 -136q0 -74 17 -128 t47.5 -89.5t73.5 -53t94 -17.5q64 0 109 25v195l-164 20v47z"/>
		<glyph unicode="H" horiz-adv-x="672" d="M504 321h-336v-321h-83v700h83v-305h336v305h83v-700h-83v321z"/>
		<glyph unicode="I" horiz-adv-x="291" d="M104 700h83v-700h-83v700z"/>
		<glyph unicode="J" horiz-adv-x="291" d="M112 700h83v-546q0 -80 -35.5 -122t-107.5 -42q-8 0 -20 1t-24 3t-23.5 5t-18.5 7l16 71q28 -13 61 -13q42 0 55.5 29.5t13.5 80.5v526z"/>
		<glyph unicode="K" horiz-adv-x="610" d="M215 324h-47v-324h-83v700h83v-326l45 14l235 312h96l-234 -301l-42 -33l51 -40l256 -326h-105z"/>
		<glyph unicode="L" horiz-adv-x="517" d="M499 0h-414v700h83v-626h331v-74z"/>
		<glyph unicode="M" horiz-adv-x="791" d="M623 470l10 105h-5l-38 -96l-182 -316h-25l-193 317l-36 95h-5l14 -104v-471h-78v700h62l219 -358l33 -78h2l31 80l209 356h65v-700h-83v470z"/>
		<glyph unicode="N" horiz-adv-x="673" d="M211 458l-54 101h-4l10 -101v-458h-78v711h44l335 -467l52 -96h5l-11 96v456h78v-711h-44z"/>
		<glyph unicode="O" horiz-adv-x="684" d="M56 350q0 175 74 268.5t211 93.5q74 0 128 -26t89.5 -73.5t52.5 -114t17 -148.5q0 -175 -74.5 -268.5t-212.5 -93.5q-73 0 -126.5 26t-89 73.5t-52.5 114t-17 148.5zM144 350q0 -58 11.5 -110t35.5 -91.5t61.5 -63t88.5 -23.5q93 0 146 70.5t53 217.5q0 57 -11.5 109.5 t-36 92t-62 63t-89.5 23.5q-92 0 -144.5 -70.5t-52.5 -217.5z"/>
		<glyph unicode="P" horiz-adv-x="559" d="M85 693q38 9 82 12t87 3q46 0 93.5 -9t86.5 -33t63.5 -66t24.5 -107q0 -64 -23 -108t-61 -71.5t-87 -39.5t-101 -12h-16q-12 0 -24.5 0.5t-24.5 1.5t-17 2v-266h-83v693zM256 636q-26 0 -50 -1t-38 -5v-290q5 -2 16 -2l23 -2h23h16q34 0 67.5 6.5t60.5 23.5t43.5 48 t16.5 79q0 41 -15.5 68.5t-41 44t-57.5 23.5t-64 7z"/>
		<glyph unicode="Q" horiz-adv-x="684" d="M704 -171q-24 -7 -47 -9.5t-46 -2.5q-50 0 -97.5 10.5t-91.5 22.5l-86 24q-41 10 -78 10q-24 0 -46 -6v73q14 3 27 5t27 2q42 0 83.5 -10.5t84.5 -23t88 -23t95 -10.5q44 0 87 10v-72zM56 350q0 175 74 268.5t211 93.5q74 0 128 -26t89.5 -73.5t52.5 -114t17 -148.5 q0 -175 -74.5 -268.5t-212.5 -93.5q-73 0 -126.5 26t-89 73.5t-52.5 114t-17 148.5zM144 350q0 -58 11.5 -110t35.5 -91.5t61.5 -63t88.5 -23.5q93 0 146 70.5t53 217.5q0 57 -11.5 109.5t-36 92t-62 63t-89.5 23.5q-92 0 -144.5 -70.5t-52.5 -217.5z"/>
		<glyph unicode="R" horiz-adv-x="595" d="M85 693q38 7 87.5 11t90.5 4q46 0 87.5 -10t73 -33t50.5 -60t19 -90q0 -82 -45 -133t-114 -68l48 -37l174 -277h-97l-193 302l-98 15v-317h-83v693zM265 636h-27q-14 0 -27 -1t-24.5 -2t-18.5 -3v-258h78q69 0 114 34t45 106q0 54 -37 89t-103 35z"/>
		<glyph unicode="S" horiz-adv-x="531" d="M401 178q0 42 -25 68.5t-62.5 47t-81.5 38.5t-81.5 43.5t-62.5 63t-25 95.5q0 82 57 130t162 48q61 0 111 -9t78 -23l-25 -73q-23 11 -67.5 21t-100.5 10q-66 0 -99 -29.5t-33 -69.5q0 -39 25 -65t62.5 -46.5t81.5 -40.5t81.5 -46.5t62.5 -63.5t25 -92q0 -45 -16 -81 t-47 -62t-75 -40t-100 -14q-75 0 -124 11.5t-76 25.5l28 75q23 -13 68 -25.5t101 -12.5q33 0 62 6.5t50 21t33.5 36.5t12.5 52z"/>
		<glyph unicode="T" horiz-adv-x="555" d="M537 626h-218v-626h-83v626h-218v74h519v-74z"/>
		<glyph unicode="U" horiz-adv-x="652" d="M487 700h80v-467q0 -63 -16.5 -109t-47 -75.5t-73.5 -43.5t-95 -14q-124 0 -187 56t-63 170v483h83v-444q0 -53 10.5 -89.5t31.5 -59t52.5 -32.5t73.5 -10q81 0 116 44.5t35 146.5v444z"/>
		<glyph unicode="V" horiz-adv-x="568" d="M267 219l24 -106h1l26 108l169 479h83l-265 -711h-37l-270 711h91z"/>
		<glyph unicode="W" horiz-adv-x="828" d="M222 231l16 -116h1l17 118l144 467h40l145 -469l17 -116h1l18 118l118 467h81l-195 -711h-46l-142 469l-18 106h-5l-18 -107l-142 -468h-46l-200 711h88z"/>
		<glyph unicode="X" horiz-adv-x="618" d="M259 356l-213 344h100l142 -237l25 -57l24 57l150 237h92l-220 -337l230 -363h-97l-158 251l-27 60l-26 -60l-162 -251h-93z"/>
		<glyph unicode="Y" horiz-adv-x="558" d="M239 278l-231 422h97l164 -306l17 -61h1l18 63l157 304h89l-229 -421v-279h-83v278z"/>
		<glyph unicode="Z" d="M38 75l353 511l42 40h-395v74h470v-75l-355 -514l-42 -37h397v-74h-470v75z"/>
		<glyph unicode="[" horiz-adv-x="304" d="M85 700h181v-70h-103v-790h103v-70h-181v930z"/>
		<glyph unicode="\" horiz-adv-x="380" d="M399 -111l-66 -29l-370 824l67 28z"/>
		<glyph unicode="]" horiz-adv-x="304" d="M220 -230h-182v70h104v790h-104v70h182v-930z"/>
		<glyph unicode="^" horiz-adv-x="500" d="M234 711h29l169 -276h-82l-80 135l-23 69l-31 -70l-92 -134h-76z"/>
		<glyph unicode="_" horiz-adv-x="408" d="M0 -135h408v-70h-408v70z"/>
		<glyph unicode="`" horiz-adv-x="280" d="M220 571h-45l-115 128v21h95z"/>
		<glyph unicode="a" horiz-adv-x="496" d="M69 463q38 23 88.5 34t105.5 11q52 0 83.5 -14t48 -36.5t22 -49.5t5.5 -54q0 -60 -3 -117t-3 -108q0 -37 3 -70t11 -61h-59l-21 70h-5q-9 -14 -22.5 -27.5t-32.5 -24t-44 -17.5t-57 -7t-59.5 10t-47.5 28.5t-31.5 44.5t-11.5 59q0 44 18 73.5t50.5 47t78 25t100.5 7.5h28 q13 0 27 -2q3 30 3 54q0 55 -22 77t-80 22q-17 0 -36.5 -2.5t-40 -7t-39 -11t-32.5 -14.5zM211 62q28 0 50 7.5t38 19t26.5 25.5t15.5 27v83q-14 1 -28.5 1.5t-28.5 0.5q-31 0 -60.5 -3.5t-52 -13t-36 -26t-13.5 -41.5q0 -35 25 -57.5t64 -22.5z"/>
		<glyph unicode="b" horiz-adv-x="540" d="M77 700h80v-249h4q23 29 58.5 45t77.5 16q97 0 145.5 -62t48.5 -192q0 -131 -64 -199t-180 -68q-56 0 -101.5 12t-68.5 26v671zM283 442q-50 0 -81 -28t-45 -79v-252q19 -11 46 -16.5t56 -5.5q68 0 108.5 48t40.5 150q0 39 -7 73t-22 58t-38.5 38t-57.5 14z"/>
		<glyph unicode="c" horiz-adv-x="451" d="M418 33q-30 -22 -71 -33.5t-86 -11.5q-58 0 -98 18.5t-65.5 53t-37 83t-11.5 107.5q0 127 56 194.5t161 67.5q48 0 81.5 -7.5t60.5 -21.5l-23 -69q-23 13 -51 20.5t-60 7.5q-142 0 -142 -192q0 -38 7.5 -72.5t25 -61t46 -42.5t70.5 -16q36 0 64.5 11t46.5 25z"/>
		<glyph unicode="d" horiz-adv-x="538" d="M461 172q0 -51 1 -92.5t9 -81.5h-54l-20 71h-4q-20 -35 -58 -58t-89 -23q-100 0 -148.5 63t-48.5 197q0 128 60.5 194.5t166.5 66.5q37 0 58.5 -4t46.5 -13v208h80v-528zM259 58q51 0 81 26.5t41 80.5v248q-18 14 -41 20t-61 6q-69 0 -108 -45.5t-39 -145.5 q0 -41 6.5 -76t21.5 -60t39.5 -39.5t59.5 -14.5z"/>
		<glyph unicode="e" horiz-adv-x="508" d="M442 40q-30 -24 -75.5 -38t-96.5 -14q-57 0 -99 18.5t-69 53t-40 82.5t-13 108q0 128 57 195t163 67q34 0 68 -7.5t61 -28.5t44 -59.5t17 -101.5q0 -33 -6 -73h-321q0 -44 9 -78t28 -57.5t49.5 -36t74.5 -12.5q34 0 68 12t51 28zM270 442q-59 0 -94.5 -31t-42.5 -106h248 q0 76 -29 106.5t-82 30.5z"/>
		<glyph unicode="f" horiz-adv-x="319" d="M22 500h78v28q0 46 7.5 80t24.5 55.5t44 32t67 10.5q32 0 56.5 -4t51.5 -15l-18 -67q-23 10 -43.5 13t-38.5 3q-26 0 -40.5 -8t-21 -23.5t-8 -38t-1.5 -52.5v-14h133v-70h-133v-430h-80v430h-78v70z"/>
		<glyph unicode="g" horiz-adv-x="537" d="M460 -23q0 -97 -51.5 -143t-152.5 -46q-60 0 -96.5 7.5t-62.5 19.5l21 68q23 -9 51 -17t73 -8q42 0 68.5 7.5t42.5 25t22 45t6 65.5v48h-4q-20 -29 -51 -44.5t-81 -15.5q-101 0 -148.5 63t-47.5 196q0 128 61 194.5t180 66.5q57 0 97.5 -9t72.5 -21v-502zM259 59 q51 0 80 25.5t41 79.5v256q-40 19 -102 19q-68 0 -107 -46t-39 -144q0 -42 7 -77t22 -60t39 -39t59 -14z"/>
		<glyph unicode="h" horiz-adv-x="547" d="M398 0v285q0 39 -4.5 68.5t-16.5 49t-32.5 29.5t-53.5 10q-47 0 -85 -30.5t-49 -78.5v-333h-80v700h80v-256h4q26 31 62.5 49.5t90.5 18.5q42 0 73 -9.5t51.5 -33.5t30 -64.5t9.5 -102.5v-302h-80z"/>
		<glyph unicode="i" horiz-adv-x="268" d="M94 500h80v-500h-80v500zM77 652q0 23 15.5 39.5t39.5 16.5t41 -16.5t17 -39.5t-17 -38t-41 -15t-39.5 15t-15.5 38z"/>
		<glyph unicode="j" horiz-adv-x="267" d="M93 500h80v-527q0 -93 -32 -139t-102 -46q-8 0 -15 0.5t-15 1.5v68q28 0 44.5 8.5t25.5 26.5t11.5 45.5t2.5 64.5v497zM76 652q0 23 15.5 39.5t39.5 16.5t41 -16.5t17 -39.5t-17 -38t-41 -15t-39.5 15t-15.5 38z"/>
		<glyph unicode="k" horiz-adv-x="479" d="M203 225h-46v-225h-80v700h80v-426l41 14l155 212h93l-153 -201l-41 -33l50 -40l167 -226h-99z"/>
		<glyph unicode="l" horiz-adv-x="292" d="M166 123q0 -35 12 -50t34 -15q13 0 28 2t34 9l9 -63q-16 -8 -44.5 -13t-49.5 -5q-45 0 -74 25.5t-29 86.5v600h80v-577z"/>
		<glyph unicode="m" horiz-adv-x="812" d="M370 0v283q0 40 -3.5 69.5t-13.5 49.5t-28.5 30t-48.5 10q-46 0 -76.5 -28t-42.5 -70v-344h-80v500h56l15 -61h4q27 32 62.5 52.5t92.5 20.5q48 0 78.5 -18.5t47.5 -64.5q23 39 63.5 61t91.5 22q42 0 71 -9.5t48 -33.5t27.5 -65t8.5 -104v-300h-80v301q0 36 -3.5 62.5 t-14 44t-29 26t-48.5 8.5q-50 0 -78 -28t-40 -80v-334h-80z"/>
		<glyph unicode="n" horiz-adv-x="547" d="M398 0v285q0 78 -22.5 117.5t-82.5 39.5q-53 0 -87.5 -28.5t-48.5 -71.5v-342h-80v500h56l15 -61h4q24 32 64.5 52.5t96.5 20.5q41 0 72 -9.5t51.5 -33.5t31 -64.5t10.5 -102.5v-302h-80z"/>
		<glyph unicode="o" horiz-adv-x="536" d="M49 250q0 127 56.5 194.5t162.5 67.5q56 0 97.5 -18.5t68.5 -53t40 -83t13 -107.5q0 -127 -56.5 -194.5t-162.5 -67.5q-56 0 -97.5 18.5t-68.5 53t-40 83t-13 107.5zM132 250q0 -38 7.5 -73t23.5 -61t42 -42t63 -16h1q135 0 135 192q0 39 -7.5 74t-23.5 61t-42 41.5 t-63 15.5h-1q-135 0 -135 -192z"/>
		<glyph unicode="p" horiz-adv-x="541" d="M77 500h55l15 -60h4q23 35 59.5 53.5t83.5 18.5q100 0 149 -59t49 -193q0 -63 -16.5 -113.5t-46.5 -85.5t-72.5 -54t-94.5 -19q-37 0 -58.5 4.5t-46.5 15.5v-208h-80v700zM279 442q-51 0 -80.5 -26.5t-41.5 -80.5v-248q18 -14 41 -21.5t61 -7.5q69 0 109.5 51.5 t40.5 151.5q0 41 -7 74.5t-22.5 57t-40 36.5t-60.5 13z"/>
		<glyph unicode="q" horiz-adv-x="537" d="M460 -200h-80v250h-4q-20 -30 -50.5 -46t-80.5 -16q-100 0 -148 63.5t-48 196.5q0 129 62 195t181 66q53 0 99.5 -10t68.5 -21v-678zM259 58q51 0 80 26t41 80v256q-37 19 -102 19q-69 0 -107.5 -46.5t-38.5 -143.5q0 -42 7 -77.5t22 -60.5t39 -39t59 -14z"/>
		<glyph unicode="r" horiz-adv-x="340" d="M313 423q-30 10 -57 10q-43 0 -68 -23.5t-31 -59.5v-350h-80v500h56l15 -61h4q19 34 45.5 52.5t67.5 18.5q29 0 65 -10z"/>
		<glyph unicode="s" horiz-adv-x="421" d="M297 136q0 30 -18 47t-44.5 28.5t-58 22t-58 27t-44.5 42.5t-18 70q0 72 41 105.5t114 33.5q54 0 90.5 -9.5t63.5 -22.5l-19 -66q-23 11 -55.5 19.5t-69.5 8.5q-44 0 -64.5 -15t-20.5 -52q0 -26 18 -40.5t44.5 -26t58 -22.5t58 -29t44.5 -45.5t18 -72.5q0 -32 -10.5 -60 t-32.5 -48t-54.5 -31.5t-76.5 -11.5q-57 0 -97 11t-67 26l24 68q23 -13 60 -24t75 -11q43 0 71 17t28 61z"/>
		<glyph unicode="t" horiz-adv-x="339" d="M11 500h78v99l80 23v-122h136v-70h-136v-277q0 -52 13 -73.5t44 -21.5q26 0 44 5.5t40 14.5l18 -61q-27 -13 -59 -21t-69 -8q-61 0 -86 34.5t-25 115.5v292h-78v70z"/>
		<glyph unicode="u" horiz-adv-x="539" d="M149 500v-285q0 -39 4.5 -68.5t15.5 -49t30 -29.5t48 -10q27 0 48 8.5t37.5 23.5t29 34.5t20.5 41.5v334h80v-358q0 -36 2.5 -74.5t8.5 -67.5h-55l-20 79h-5q-23 -39 -62 -65t-99 -26q-40 0 -70.5 9.5t-51 33.5t-31 64.5t-10.5 102.5v302h80z"/>
		<glyph unicode="v" horiz-adv-x="482" d="M221 207l28 -95h1l25 97l112 291h86l-213 -511h-34l-217 511h92z"/>
		<glyph unicode="w" horiz-adv-x="735" d="M401 500l115 -292l25 -96h2l19 98l89 290h76l-168 -511h-39l-131 330l-19 82h-3l-20 -83l-126 -329h-39l-174 511h87l99 -291l17 -97h1l24 99l107 289h58z"/>
		<glyph unicode="x" horiz-adv-x="515" d="M208 256l-168 244h98l95 -138l28 -57l29 57l97 138h90l-169 -240l179 -260h-95l-106 152l-30 60l-31 -60l-108 -152h-89z"/>
		<glyph unicode="y" horiz-adv-x="466" d="M224 176l28 -96h5l22 97l97 323h81l-148 -449l-33 -95q-17 -46 -37 -82t-45 -57.5t-58 -21.5q-36 0 -59 10l14 69q13 -5 25 -5q28 0 54 29.5t43 101.5l-201 500h92z"/>
		<glyph unicode="z" horiz-adv-x="447" d="M42 70l231 318l42 42h-273v70h356v-70l-233 -321l-41 -39h274v-70h-356v70z"/>
		<glyph unicode="{" horiz-adv-x="346" d="M137 112q0 51 -21 69.5t-59 18.5v70q38 0 59 20t21 64v242q0 47 23.5 76t71.5 29h85v-70h-50q-27 0 -39.5 -13.5t-12.5 -45.5v-237q0 -44 -21 -67t-49 -28v-6q27 -4 48.5 -30.5t21.5 -68.5v-236q0 -31 12 -45t41 -14h49v-70h-85q-45 0 -70 26.5t-25 77.5v238z"/>
		<glyph unicode="|" horiz-adv-x="238" d="M85 700h68v-830h-68v830z"/>
		<glyph unicode="}" horiz-adv-x="346" d="M235 359q0 -51 21 -69.5t59 -18.5v-70q-38 0 -59 -20t-21 -64v-242q0 -47 -23.5 -76t-71.5 -29h-85v70h50q27 0 39.5 13.5t12.5 45.5v237q0 44 20.5 67t48.5 28v6q-27 4 -48 30.5t-21 68.5v236q0 31 -12 45t-40 14h-50v70h86q44 0 69 -26.5t25 -77.5v-238z"/>
		<glyph unicode="~" horiz-adv-x="505" d="M31 361q43 33 78 46t64 13q28 0 52 -8.5t46 -19t43 -19t44 -8.5q19 0 39 8t43 28l34 -61q-38 -26 -68.5 -36.5t-55.5 -10.5q-27 0 -49.5 8.5t-43 19t-41 19t-44.5 8.5q-23 0 -49 -10.5t-58 -36.5z"/>
		<glyph unicode="&#xa1;" horiz-adv-x="304" d="M176 -200h-83v347l17 176h49l17 -176v-347zM74 453q0 27 15.5 42.5t41.5 15.5q27 0 43 -15.5t16 -42.5q0 -26 -16 -42t-43 -16q-26 0 -41.5 16t-15.5 42z"/>
		<glyph unicode="&#xa2;" d="M461 33q-24 -17 -54.5 -27.5t-65.5 -14.5v-91h-71v90q-50 5 -84.5 25.5t-56.5 54t-32 79.5t-10 101q0 115 47.5 181.5t135.5 77.5v91h71v-89q35 -2 62 -9.5t49 -18.5l-23 -68q-20 10 -44.5 17t-50.5 9v-383q32 2 58 12.5t43 23.5zM170 250q0 -33 5.5 -63.5t18.5 -56 t34 -43.5t52 -25v377q-110 -21 -110 -189z"/>
		<glyph unicode="&#xa3;" d="M42 383h66q-12 26 -20 57t-8 73q0 98 56 148.5t153 50.5q61 0 106 -9t74 -23l-26 -71q-23 11 -61.5 20t-93.5 9q-60 0 -92.5 -32.5t-32.5 -87.5q0 -42 10 -74t24 -61h161v-70h-131q8 -23 13 -48t5 -55t-9 -61.5t-27 -51.5l-39 -33v-4l62 14h256v-74h-446v72 q32 0 54.5 11.5t37 30t21.5 42t7 47.5q0 33 -6.5 59.5t-16.5 50.5h-97v70z"/>
		<glyph unicode="&#xa4;" d="M70 596l78 -77l21 -35q42 33 103 33q59 0 103 -33l22 35l78 77l49 -49l-77 -78l-35 -22q32 -43 32 -102q0 -60 -32 -103l35 -21l77 -78l-49 -48l-78 77l-21 33q-43 -31 -104 -31q-62 0 -103 31l-21 -33l-78 -77l-49 48l77 78l34 22q-31 42 -31 102q0 29 8.5 55t22.5 48 l-34 21l-77 78zM170 345q0 -45 28.5 -75t73.5 -30t74 30t29 75t-29 75.5t-74 30.5t-73.5 -30.5t-28.5 -75.5z"/>
		<glyph unicode="&#xa5;" d="M111 328h94l-203 372h97l164 -306l17 -61h1l18 63l157 304h89l-203 -372h94v-60h-121v-63h121v-60h-121v-145h-83v145h-121v60h121v63h-121v60z"/>
		<glyph unicode="&#xa6;" horiz-adv-x="238" d="M85 206h68v-336h-68v336zM153 364h-68v336h68v-336z"/>
		<glyph unicode="&#xa7;" horiz-adv-x="497" d="M57 353q0 31 15.5 60.5t41.5 52.5l41 14q-26 16 -43.5 40.5t-17.5 65.5q0 56 41.5 91t115.5 35q54 0 91.5 -9t64.5 -22l-19 -67q-24 11 -57 19.5t-69 8.5q-45 0 -66.5 -16t-21.5 -43q0 -26 19.5 -40.5t49.5 -25.5t64 -22t64 -28.5t49.5 -46t19.5 -73.5q0 -31 -15 -60 t-41 -52l-45 -14q27 -16 45.5 -41t18.5 -66q0 -31 -12 -54.5t-33.5 -39.5t-50.5 -24t-62 -8q-56 0 -92 9.5t-64 23.5l20 65q23 -11 55.5 -19.5t70.5 -8.5q42 0 65 13.5t23 45.5q0 26 -19.5 41t-49.5 26t-64 22t-64 28.5t-49.5 45.5t-19.5 73zM360 345q0 25 -13 41 t-34.5 27.5t-48.5 20t-54 18.5q-29 -13 -51 -37t-22 -60q0 -25 13 -41t33.5 -27.5t47 -19.5t53.5 -18q14 6 27.5 16t24.5 22.5t17.5 27t6.5 30.5z"/>
		<glyph unicode="&#xa8;" horiz-adv-x="411" d="M60 653q0 23 13.5 37t35.5 14t35.5 -14t13.5 -37q0 -21 -13.5 -35t-35.5 -14t-35.5 14t-13.5 35zM252 653q0 23 13.5 37t35.5 14q23 0 36.5 -14t13.5 -37q0 -21 -13.5 -35t-36.5 -14q-22 0 -35.5 14t-13.5 35z"/>
		<glyph unicode="&#xa9;" horiz-adv-x="806" d="M51 290q0 83 28 148.5t76 110.5t112 69t136 24t136 -24t112 -69t76 -110.5t28 -148.5t-28 -148.5t-76 -110.5t-112 -69t-136 -24q-80 0 -145 24t-111 69t-71 110.5t-25 148.5zM121 290q0 -69 22 -122.5t60 -89.5t89.5 -55t110.5 -19t110.5 19t89.5 55t60 89.5t22 122.5 t-22 122.5t-60 89.5t-89.5 55t-110.5 19t-110.5 -19t-89.5 -55t-60 -89.5t-22 -122.5zM519 127q-23 -13 -51.5 -20t-66.5 -7q-81 0 -123.5 51t-42.5 139q0 91 45.5 140.5t120.5 49.5q18 0 32.5 -2t27 -5.5t24.5 -8.5l27 -11l-26 -61q-22 11 -42 15t-34 4q-42 0 -68.5 -26 t-26.5 -95q0 -58 26 -89.5t77 -32.5q47 0 80 18z"/>
		<glyph unicode="&#xaa;" horiz-adv-x="386" d="M68 677q25 13 66 22t91 9q62 0 85 -26t23 -75q0 -38 -1.5 -73t-1.5 -67q0 -24 1.5 -46t6.5 -41h-55l-13 46h-4q-13 -17 -37 -33.5t-67 -16.5q-52 0 -83 25.5t-31 69.5q0 31 15 52t40.5 34t60 19t74.5 6q7 0 13.5 -0.5t13.5 -0.5q1 6 1 11v11q0 27 -12 38t-46 11 q-40 0 -73 -7.5t-52 -17.5zM173 432q21 0 36.5 5t26.5 13.5t18 18t11 18.5v42q-11 1 -21 1h-21q-21 0 -40 -2t-33.5 -8t-23 -16.5t-8.5 -27.5q0 -20 14.5 -32t40.5 -12z"/>
		<glyph unicode="&#xab;" horiz-adv-x="478" d="M222 259l158 228l53 -42l-97 -144l-48 -41l48 -36l103 -141l-52 -43zM39 259l160 230l54 -43l-98 -145l-48 -41l48 -36l104 -142l-54 -44z"/>
		<glyph unicode="&#xac;" horiz-adv-x="505" d="M41 392h424v-192h-72v120h-352v72z"/>
		<glyph unicode="&#xad;" horiz-adv-x="360" d="M59 325h242v-74h-242v74z"/>
		<glyph unicode="&#xae;" horiz-adv-x="700" d="M85 451q0 64 21 113.5t57.5 83t84.5 51t102 17.5q55 0 103.5 -17.5t84.5 -51t56.5 -83t20.5 -113.5t-21 -113.5t-57.5 -83t-84.5 -51t-102 -17.5q-56 0 -104 17.5t-84 51t-56.5 83t-20.5 113.5zM148 451q0 -52 16 -90.5t43.5 -64t64.5 -38.5t78 -13q43 0 80 12.5t64 38 t42.5 64t15.5 91.5q0 52 -16 90.5t-43.5 64t-64 38.5t-78.5 13q-44 0 -81 -13t-64 -38.5t-42 -64t-15 -90.5zM247 581q16 5 45 7.5t55 2.5q42 0 72 -17.5t30 -60.5q0 -32 -20.5 -49t-50.5 -19l28 -14l74 -109h-61l-72 104l-48 15v-119h-52v259zM336 546q-11 0 -21 -0.5 t-16 -3.5v-71h34q29 0 45 9t16 31q0 35 -58 35z"/>
		<glyph unicode="&#xaf;" horiz-adv-x="416" d="M60 643h296v-62h-296v62z"/>
		<glyph unicode="&#xb0;" horiz-adv-x="425" d="M85 571q0 31 11 57t30 44.5t45 29t55 10.5t55 -9.5t45 -28t30 -44.5t11 -59t-11 -59t-30 -44.5t-45 -28t-55 -9.5t-55 9.5t-45 28t-30 44.5t-11 59zM148 571q0 -38 23.5 -59.5t54.5 -21.5t54.5 21.5t23.5 59.5t-23.5 59.5t-54.5 21.5t-54.5 -21.5t-23.5 -59.5z"/>
		<glyph unicode="&#xb1;" horiz-adv-x="505" d="M40 494h176v180h72v-180h176v-72h-176v-121h-72v121h-176v72zM40 250h424v-72h-424v72z"/>
		<glyph unicode="&#xb2;" horiz-adv-x="394" d="M319 690q0 -31 -10.5 -60t-28 -57t-41.5 -55.5t-51 -55.5l-46 -32v-2l57 15h140v-63h-291v33q23 19 57.5 51t66.5 69t54.5 76t22.5 72q0 31 -20 46.5t-49 15.5q-27 0 -52.5 -9.5t-44.5 -21.5l-22 57q26 18 60.5 28t70.5 10q63 0 95 -31t32 -86z"/>
		<glyph unicode="&#xb3;" horiz-adv-x="395" d="M169 433q48 0 73.5 19t25.5 56q0 32 -23 52t-74 20h-55v23l97 116l34 27l-49 -6h-130v60h256v-33l-103 -123l-25 -18v-2l23 3q55 -1 87 -33t32 -86q0 -61 -44.5 -98t-118.5 -37q-36 0 -62 6t-46 13l15 60q17 -8 39 -13.5t48 -5.5z"/>
		<glyph unicode="&#xb4;" horiz-adv-x="268" d="M119 720h89v-21l-101 -128h-47z"/>
		<glyph unicode="&#xb5;" horiz-adv-x="552" d="M148 500v-283q0 -79 24.5 -119t85.5 -40q55 0 93 32.5t53 85.5v324h80v-337q0 -41 2.5 -82.5t12.5 -80.5h-55l-28 74h-4q-20 -35 -61.5 -60.5t-101.5 -25.5q-48 0 -73.5 14t-43.5 36h-5l21 -105v-133h-80v700h80z"/>
		<glyph unicode="&#x3bc;" horiz-adv-x="552" d="M148 500v-283q0 -79 24.5 -119t85.5 -40q55 0 93 32.5t53 85.5v324h80v-337q0 -41 2.5 -82.5t12.5 -80.5h-55l-28 74h-4q-20 -35 -61.5 -60.5t-101.5 -25.5q-48 0 -73.5 14t-43.5 36h-5l21 -105v-133h-80v700h80z"/>
		<glyph unicode="&#xb6;" horiz-adv-x="494" d="M341 700h68v-830h-68v830zM185 310q-32 0 -59 16.5t-46.5 44t-31 63t-11.5 72.5t11.5 72t33.5 62t54 43.5t72 16.5h45v-830h-68v440z"/>
		<glyph unicode="&#xb7;" horiz-adv-x="267" d="M76 296q0 27 15.5 42.5t41.5 15.5q27 0 43 -15.5t16 -42.5q0 -26 -16 -42t-43 -16q-26 0 -41.5 16t-15.5 42z"/>
		<glyph unicode="&#xb8;" horiz-adv-x="287" d="M148 -43q42 -8 60.5 -26t18.5 -49q0 -41 -33 -65.5t-89 -24.5q-11 0 -22 1t-23 3l7 49q6 -1 11 -1.5t23 -1.5q12 0 23.5 1.5t18 6.5t8.5 11t2 13q0 28 -86 36l48 90h57z"/>
		<glyph unicode="&#xb9;" horiz-adv-x="394" d="M72 441h106v254l7 36l-27 -28l-78 -47l-27 49l154 102h41v-366h95v-61h-271v61z"/>
		<glyph unicode="&#xba;" horiz-adv-x="398" d="M44 542q0 45 12 77t32.5 53t49 30.5t61.5 9.5t61.5 -9t49 -29t32.5 -52.5t12 -79.5t-12 -79.5t-32.5 -52.5t-49 -29t-61.5 -9t-61.5 9t-49 29t-32.5 52.5t-12 79.5zM118 542q0 -60 21.5 -86t59.5 -26q19 0 34 5.5t25.5 18t16 34t5.5 54.5t-5.5 54.5t-16 34t-25.5 18 t-34 5.5q-38 0 -59.5 -23.5t-21.5 -88.5z"/>
		<glyph unicode="&#xbb;" horiz-adv-x="478" d="M257 268l-160 -228l-52 42l96 144l49 41l-49 36l-102 141l52 43zM439 268l-160 -230l-54 43l98 145l48 41l-48 36l-104 142l53 44z"/>
		<glyph unicode="&#xbc;" horiz-adv-x="837" d="M648 713l52 -35l-487 -690l-52 36zM797 96h-83v-96h-67v96h-204v37l226 302h45v-280h83v-59zM647 283l6 49h-2l-22 -46l-78 -105l-33 -31l50 5h79v128zM179 595l7 36l-28 -28l-78 -47l-27 49l154 102h42v-427h-70v315z"/>
		<glyph unicode="&#xbd;" horiz-adv-x="850" d="M648 713l52 -35l-487 -690l-52 36zM790 310q0 -31 -10.5 -60t-28 -57t-41.5 -55.5t-51 -55.5l-46 -32v-2l57 15h140v-63h-291v33q23 19 57.5 51t66.5 69t54.5 76t22.5 72q0 31 -20 46.5t-49 15.5q-27 0 -52.5 -9.5t-44.5 -21.5l-22 57q26 18 60.5 28t70.5 10q63 0 95 -31 t32 -86zM179 595l7 36l-28 -28l-78 -47l-27 49l154 102h42v-427h-70v315z"/>
		<glyph unicode="&#xbe;" horiz-adv-x="876" d="M687 713l52 -35l-487 -690l-52 36zM836 96h-83v-96h-67v96h-204v37l226 302h45v-280h83v-59zM686 283l6 49h-2l-22 -46l-78 -105l-33 -31l50 5h79v128zM178 333q48 0 73.5 19t25.5 56q0 32 -23 52t-74 20h-55v23l97 116l34 27l-49 -6h-130v60h256v-33l-103 -123l-25 -18 v-2l23 3q55 -1 87 -33t32 -86q0 -61 -44.5 -98t-118.5 -37q-36 0 -62 6t-46 13l15 60q17 -8 39 -13.5t48 -5.5z"/>
		<glyph unicode="&#xbf;" horiz-adv-x="436" d="M286 323q1 -5 1 -11v-11q0 -42 -12.5 -74t-31 -58.5t-40 -49.5t-40 -46.5t-31 -50t-12.5 -60.5q0 -46 26.5 -75t88.5 -29q36 0 73 12.5t64 29.5l27 -62q-38 -23 -80 -36.5t-104 -13.5q-44 0 -77.5 12.5t-56 34.5t-33.5 51.5t-11 64.5q0 45 13.5 78.5t34 61t44 51.5 t44 50.5t34 57.5t13.5 73h66zM191 454q0 27 15.5 42.5t41.5 15.5q27 0 43 -15.5t16 -42.5q0 -26 -16 -42t-43 -16q-26 0 -41.5 16t-15.5 42z"/>
		<glyph unicode="&#xc0;" horiz-adv-x="585" d="M418 194h-258l-70 -194h-82l265 711h38l266 -711h-87zM187 266h206l-78 213l-25 106h-1l-25 -108zM367 752h-74l-158 97v21h114z"/>
		<glyph unicode="&#xc1;" horiz-adv-x="585" d="M418 194h-258l-70 -194h-82l265 711h38l266 -711h-87zM187 266h206l-78 213l-25 106h-1l-25 -108zM331 870h114v-21l-163 -97h-69z"/>
		<glyph unicode="&#xc2;" horiz-adv-x="585" d="M418 194h-258l-70 -194h-82l265 711h38l266 -711h-87zM187 266h206l-78 213l-25 106h-1l-25 -108zM265 870h60l127 -102v-21h-81l-60 49l-17 35l-19 -34l-64 -50h-79v22z"/>
		<glyph unicode="&#xc3;" horiz-adv-x="585" d="M418 194h-258l-70 -194h-82l265 711h38l266 -711h-87zM187 266h206l-78 213l-25 106h-1l-25 -108zM135 785q31 32 57.5 43.5t50.5 11.5q19 0 37 -5t34.5 -11.5t32.5 -11.5t31 -5q26 0 50 21l25 -43q-27 -25 -51 -34.5t-45 -9.5q-19 0 -36 5t-33.5 11.5t-32.5 11.5t-32 5 t-31.5 -6.5t-32.5 -23.5z"/>
		<glyph unicode="&#xc4;" horiz-adv-x="585" d="M418 194h-258l-70 -194h-82l265 711h38l266 -711h-87zM187 266h206l-78 213l-25 106h-1l-25 -108zM144 794q0 21 15 34t39 13q23 0 37.5 -13t14.5 -34q0 -20 -14.5 -33t-37.5 -13q-24 0 -39 13t-15 33zM336 794q0 21 14.5 34t37.5 13q24 0 39 -13t15 -34q0 -20 -15 -33 t-39 -13q-23 0 -37.5 13t-14.5 33z"/>
		<glyph unicode="&#xc5;" horiz-adv-x="585" d="M188 768q0 37 25 61t80 24q50 0 78 -21.5t28 -63.5q0 -32 -20 -53.5t-59 -27.5l257 -687h-87l-72 194h-258l-70 -194h-82l256 687q-38 6 -57 27.5t-19 53.5zM187 266h206l-78 213l-25 106h-1l-25 -108zM249 768q0 -17 10.5 -28.5t33.5 -11.5q22 0 33.5 11t11.5 29 q0 19 -11 30.5t-34 11.5q-22 0 -33 -11.5t-11 -30.5z"/>
		<glyph unicode="&#xc6;" horiz-adv-x="846" d="M391 600l-34 -103l-133 -229h171v332h-4zM395 198h-214l-112 -198h-91l415 700h383v-74h-298v-229h273v-74h-273v-249h303v-74h-386v198z"/>
		<glyph unicode="&#xc7;" horiz-adv-x="571" d="M533 29q-26 -20 -64 -29t-83 -11l-17 -32q42 -8 60.5 -26t18.5 -49q0 -39 -32 -64.5t-90 -25.5q-11 0 -22 1t-23 3l9 39q6 -1 11 -1h10q22 0 34.5 4t19 9.5t8 12.5t1.5 13q0 28 -86 37l42 80q-58 4 -108 27.5t-87 67.5t-58 110t-21 155q0 98 26.5 166.5t70 112t97.5 63.5 t110 20q60 0 98 -6.5t65 -17.5l-20 -73q-48 23 -137 23q-41 0 -81 -15t-71.5 -49t-50.5 -89t-19 -135q0 -72 18 -126t49.5 -90t74 -54t92.5 -18q45 0 78.5 9t56.5 23z"/>
		<glyph unicode="&#xc8;" horiz-adv-x="536" d="M85 700h381v-74h-298v-229h273v-74h-273v-249h303v-74h-386v700zM326 752h-74l-158 97v21h114z"/>
		<glyph unicode="&#xc9;" horiz-adv-x="536" d="M85 700h381v-74h-298v-229h273v-74h-273v-249h303v-74h-386v700zM330 870h114v-21l-163 -97h-69z"/>
		<glyph unicode="&#xca;" horiz-adv-x="536" d="M85 700h381v-74h-298v-229h273v-74h-273v-249h303v-74h-386v700zM242 870h60l127 -102v-21h-81l-60 49l-17 35l-19 -34l-64 -50h-79v22z"/>
		<glyph unicode="&#xcb;" horiz-adv-x="536" d="M85 700h381v-74h-298v-229h273v-74h-273v-249h303v-74h-386v700zM120 794q0 21 15 34t39 13q23 0 37.5 -13t14.5 -34q0 -20 -14.5 -33t-37.5 -13q-24 0 -39 13t-15 33zM312 794q0 21 14.5 34t37.5 13q24 0 39 -13t15 -34q0 -20 -15 -33t-39 -13q-23 0 -37.5 13t-14.5 33z "/>
		<glyph unicode="&#xcc;" horiz-adv-x="291" d="M104 700h83v-700h-83v700zM195 752h-74l-158 97v21h114z"/>
		<glyph unicode="&#xcd;" horiz-adv-x="291" d="M104 700h83v-700h-83v700zM180 870h114v-21l-163 -97h-69z"/>
		<glyph unicode="&#xce;" horiz-adv-x="291" d="M104 700h83v-700h-83v700zM118 870h60l127 -102v-21h-81l-60 49l-17 35l-19 -34l-64 -50h-79v22z"/>
		<glyph unicode="&#xcf;" horiz-adv-x="291" d="M104 700h83v-700h-83v700zM-2 794q0 21 15 34t39 13q23 0 37.5 -13t14.5 -34q0 -20 -14.5 -33t-37.5 -13q-24 0 -39 13t-15 33zM190 794q0 21 14.5 34t37.5 13q24 0 39 -13t15 -34q0 -20 -15 -33t-39 -13q-23 0 -37.5 13t-14.5 33z"/>
		<glyph unicode="&#xd0;" horiz-adv-x="658" d="M-1 392h90v308q19 3 42.5 4.5t48.5 1.5l50 2h46q84 0 145.5 -26t101.5 -72.5t59.5 -111.5t19.5 -143q0 -71 -18.5 -136.5t-58.5 -116t-104 -81t-155 -30.5q-16 0 -41.5 0.5t-52.5 2t-50 2.5t-33 3v333h-90v60zM278 634h-28q-16 0 -31 -1t-27.5 -2t-19.5 -2v-237h147v-60 h-147v-263q5 -1 19 -1l29 -2h29q14 -1 19 -1q70 0 117.5 24t76 64.5t40.5 93t12 108.5q0 49 -11 98.5t-38 89.5t-72.5 65.5t-114.5 25.5z"/>
		<glyph unicode="&#xd1;" horiz-adv-x="673" d="M211 458l-54 101h-4l10 -101v-458h-78v711h44l335 -467l52 -96h5l-11 96v456h78v-711h-44zM179 785q31 32 57.5 43.5t50.5 11.5q19 0 37 -5t34.5 -11.5t32.5 -11.5t31 -5q26 0 50 21l25 -43q-27 -25 -51 -34.5t-45 -9.5q-19 0 -36 5t-33.5 11.5t-32.5 11.5t-32 5 t-31.5 -6.5t-32.5 -23.5z"/>
		<glyph unicode="&#xd2;" horiz-adv-x="684" d="M56 350q0 175 74 268.5t211 93.5q74 0 128 -26t89.5 -73.5t52.5 -114t17 -148.5q0 -175 -74.5 -268.5t-212.5 -93.5q-73 0 -126.5 26t-89 73.5t-52.5 114t-17 148.5zM144 350q0 -58 11.5 -110t35.5 -91.5t61.5 -63t88.5 -23.5q93 0 146 70.5t53 217.5q0 57 -11.5 109.5 t-36 92t-62 63t-89.5 23.5q-92 0 -144.5 -70.5t-52.5 -217.5zM410 752h-74l-158 97v21h114z"/>
		<glyph unicode="&#xd3;" horiz-adv-x="684" d="M56 350q0 175 74 268.5t211 93.5q74 0 128 -26t89.5 -73.5t52.5 -114t17 -148.5q0 -175 -74.5 -268.5t-212.5 -93.5q-73 0 -126.5 26t-89 73.5t-52.5 114t-17 148.5zM144 350q0 -58 11.5 -110t35.5 -91.5t61.5 -63t88.5 -23.5q93 0 146 70.5t53 217.5q0 57 -11.5 109.5 t-36 92t-62 63t-89.5 23.5q-92 0 -144.5 -70.5t-52.5 -217.5zM415 870h114v-21l-163 -97h-69z"/>
		<glyph unicode="&#xd4;" horiz-adv-x="684" d="M56 350q0 175 74 268.5t211 93.5q74 0 128 -26t89.5 -73.5t52.5 -114t17 -148.5q0 -175 -74.5 -268.5t-212.5 -93.5q-73 0 -126.5 26t-89 73.5t-52.5 114t-17 148.5zM144 350q0 -58 11.5 -110t35.5 -91.5t61.5 -63t88.5 -23.5q93 0 146 70.5t53 217.5q0 57 -11.5 109.5 t-36 92t-62 63t-89.5 23.5q-92 0 -144.5 -70.5t-52.5 -217.5zM312 870h60l127 -102v-21h-81l-60 49l-17 35l-19 -34l-64 -50h-79v22z"/>
		<glyph unicode="&#xd5;" horiz-adv-x="684" d="M56 350q0 175 74 268.5t211 93.5q74 0 128 -26t89.5 -73.5t52.5 -114t17 -148.5q0 -175 -74.5 -268.5t-212.5 -93.5q-73 0 -126.5 26t-89 73.5t-52.5 114t-17 148.5zM144 350q0 -58 11.5 -110t35.5 -91.5t61.5 -63t88.5 -23.5q93 0 146 70.5t53 217.5q0 57 -11.5 109.5 t-36 92t-62 63t-89.5 23.5q-92 0 -144.5 -70.5t-52.5 -217.5zM182 785q31 32 57.5 43.5t50.5 11.5q19 0 37 -5t34.5 -11.5t32.5 -11.5t31 -5q26 0 50 21l25 -43q-27 -25 -51 -34.5t-45 -9.5q-19 0 -36 5t-33.5 11.5t-32.5 11.5t-32 5t-31.5 -6.5t-32.5 -23.5z"/>
		<glyph unicode="&#xd6;" horiz-adv-x="684" d="M56 350q0 175 74 268.5t211 93.5q74 0 128 -26t89.5 -73.5t52.5 -114t17 -148.5q0 -175 -74.5 -268.5t-212.5 -93.5q-73 0 -126.5 26t-89 73.5t-52.5 114t-17 148.5zM144 350q0 -58 11.5 -110t35.5 -91.5t61.5 -63t88.5 -23.5q93 0 146 70.5t53 217.5q0 57 -11.5 109.5 t-36 92t-62 63t-89.5 23.5q-92 0 -144.5 -70.5t-52.5 -217.5zM190 794q0 21 15 34t39 13q23 0 37.5 -13t14.5 -34q0 -20 -14.5 -33t-37.5 -13q-24 0 -39 13t-15 33zM382 794q0 21 14.5 34t37.5 13q24 0 39 -13t15 -34q0 -20 -15 -33t-39 -13q-23 0 -37.5 13t-14.5 33z"/>
		<glyph unicode="&#xd7;" horiz-adv-x="505" d="M127 517l126 -127l127 127l51 -53l-126 -126l126 -127l-51 -52l-127 128l-127 -128l-52 51l128 129l-126 125z"/>
		<glyph unicode="&#xd8;" horiz-adv-x="684" d="M122 91q-34 48 -50 113t-16 146q0 175 74 268.5t211 93.5q57 0 101 -15t78 -44l42 60l52 -35l-51 -72q33 -48 49 -112.5t16 -143.5q0 -175 -74.5 -268.5t-212.5 -93.5q-107 0 -175 56l-39 -56l-52 36zM144 350q0 -51 8.5 -96t26.5 -83l290 411q-23 26 -54.5 41t-73.5 15 q-92 0 -144.5 -70.5t-52.5 -217.5zM540 350q0 48 -8.5 93t-25.5 82l-290 -411q23 -25 54 -38.5t71 -13.5q93 0 146 70.5t53 217.5z"/>
		<glyph unicode="&#xd9;" horiz-adv-x="652" d="M487 700h80v-467q0 -63 -16.5 -109t-47 -75.5t-73.5 -43.5t-95 -14q-124 0 -187 56t-63 170v483h83v-444q0 -53 10.5 -89.5t31.5 -59t52.5 -32.5t73.5 -10q81 0 116 44.5t35 146.5v444zM407 752h-74l-158 97v21h114z"/>
		<glyph unicode="&#xda;" horiz-adv-x="652" d="M487 700h80v-467q0 -63 -16.5 -109t-47 -75.5t-73.5 -43.5t-95 -14q-124 0 -187 56t-63 170v483h83v-444q0 -53 10.5 -89.5t31.5 -59t52.5 -32.5t73.5 -10q81 0 116 44.5t35 146.5v444zM390 870h114v-21l-163 -97h-69z"/>
		<glyph unicode="&#xdb;" horiz-adv-x="652" d="M487 700h80v-467q0 -63 -16.5 -109t-47 -75.5t-73.5 -43.5t-95 -14q-124 0 -187 56t-63 170v483h83v-444q0 -53 10.5 -89.5t31.5 -59t52.5 -32.5t73.5 -10q81 0 116 44.5t35 146.5v444zM301 870h60l127 -102v-21h-81l-60 49l-17 35l-19 -34l-64 -50h-79v22z"/>
		<glyph unicode="&#xdc;" horiz-adv-x="652" d="M487 700h80v-467q0 -63 -16.5 -109t-47 -75.5t-73.5 -43.5t-95 -14q-124 0 -187 56t-63 170v483h83v-444q0 -53 10.5 -89.5t31.5 -59t52.5 -32.5t73.5 -10q81 0 116 44.5t35 146.5v444zM178 794q0 21 15 34t39 13q23 0 37.5 -13t14.5 -34q0 -20 -14.5 -33t-37.5 -13 q-24 0 -39 13t-15 33zM370 794q0 21 14.5 34t37.5 13q24 0 39 -13t15 -34q0 -20 -15 -33t-39 -13q-23 0 -37.5 13t-14.5 33z"/>
		<glyph unicode="&#xdd;" horiz-adv-x="558" d="M239 278l-231 422h97l164 -306l17 -61h1l18 63l157 304h89l-229 -421v-279h-83v278zM355 870h114v-21l-163 -97h-69z"/>
		<glyph unicode="&#xde;" horiz-adv-x="559" d="M85 800h83v-175q42 3 86 3q46 0 93.5 -9t86.5 -33t63.5 -66t24.5 -107q0 -64 -23 -108t-61 -71.5t-87 -39.5t-101 -12h-16q-12 0 -24.5 0.5t-24.5 1.5t-17 2v-186h-83v800zM256 556q-26 0 -50 -1t-38 -5v-290q5 -2 16 -2l23 -2h23h16q34 0 67.5 6.5t60.5 23.5t43.5 48 t16.5 79q0 41 -15.5 68.5t-41 44t-57.5 23.5t-64 7z"/>
		<glyph unicode="&#xdf;" horiz-adv-x="592" d="M384 559q0 17 -9.5 31t-24.5 24.5t-33 16t-35 5.5q-28 0 -47.5 -7t-32 -23t-17.5 -42.5t-5 -65.5v-498h-80v430h-78v70h78v23q0 97 47.5 140t131.5 43q41 0 75 -10.5t58.5 -30t38 -46t13.5 -59.5q0 -38 -19 -61t-41.5 -41t-41.5 -35t-19 -42q0 -22 15 -35t38 -23l49 -21 q26 -10 49 -27t38 -44.5t15 -71.5q0 -32 -12 -62.5t-34.5 -54.5t-56.5 -39t-77 -15q-23 0 -40.5 1.5t-32 5t-27.5 8.5t-26 13l23 67q12 -6 21 -11t19.5 -8t23.5 -4.5t32 -1.5q21 0 40.5 7.5t34.5 20.5t23.5 30.5t8.5 39.5q0 30 -15 47.5t-37.5 29.5t-49 21.5t-49 24 t-37.5 37t-15 60.5q0 39 18.5 62.5t42 42t41.5 35.5t18 43z"/>
		<glyph unicode="&#xe0;" horiz-adv-x="496" d="M69 463q38 23 88.5 34t105.5 11q52 0 83.5 -14t48 -36.5t22 -49.5t5.5 -54q0 -60 -3 -117t-3 -108q0 -37 3 -70t11 -61h-59l-21 70h-5q-9 -14 -22.5 -27.5t-32.5 -24t-44 -17.5t-57 -7t-59.5 10t-47.5 28.5t-31.5 44.5t-11.5 59q0 44 18 73.5t50.5 47t78 25t100.5 7.5h28 q13 0 27 -2q3 30 3 54q0 55 -22 77t-80 22q-17 0 -36.5 -2.5t-40 -7t-39 -11t-32.5 -14.5zM211 62q28 0 50 7.5t38 19t26.5 25.5t15.5 27v83q-14 1 -28.5 1.5t-28.5 0.5q-31 0 -60.5 -3.5t-52 -13t-36 -26t-13.5 -41.5q0 -35 25 -57.5t64 -22.5zM305 571h-45l-115 128v21h95 z"/>
		<glyph unicode="&#xe1;" horiz-adv-x="496" d="M69 463q38 23 88.5 34t105.5 11q52 0 83.5 -14t48 -36.5t22 -49.5t5.5 -54q0 -60 -3 -117t-3 -108q0 -37 3 -70t11 -61h-59l-21 70h-5q-9 -14 -22.5 -27.5t-32.5 -24t-44 -17.5t-57 -7t-59.5 10t-47.5 28.5t-31.5 44.5t-11.5 59q0 44 18 73.5t50.5 47t78 25t100.5 7.5h28 q13 0 27 -2q3 30 3 54q0 55 -22 77t-80 22q-17 0 -36.5 -2.5t-40 -7t-39 -11t-32.5 -14.5zM211 62q28 0 50 7.5t38 19t26.5 25.5t15.5 27v83q-14 1 -28.5 1.5t-28.5 0.5q-31 0 -60.5 -3.5t-52 -13t-36 -26t-13.5 -41.5q0 -35 25 -57.5t64 -22.5zM238 720h89v-21l-101 -128 h-47z"/>
		<glyph unicode="&#xe2;" horiz-adv-x="496" d="M69 463q38 23 88.5 34t105.5 11q52 0 83.5 -14t48 -36.5t22 -49.5t5.5 -54q0 -60 -3 -117t-3 -108q0 -37 3 -70t11 -61h-59l-21 70h-5q-9 -14 -22.5 -27.5t-32.5 -24t-44 -17.5t-57 -7t-59.5 10t-47.5 28.5t-31.5 44.5t-11.5 59q0 44 18 73.5t50.5 47t78 25t100.5 7.5h28 q13 0 27 -2q3 30 3 54q0 55 -22 77t-80 22q-17 0 -36.5 -2.5t-40 -7t-39 -11t-32.5 -14.5zM211 62q28 0 50 7.5t38 19t26.5 25.5t15.5 27v83q-14 1 -28.5 1.5t-28.5 0.5q-31 0 -60.5 -3.5t-52 -13t-36 -26t-13.5 -41.5q0 -35 25 -57.5t64 -22.5zM239 732h32l111 -182h-72 l-39 66l-21 58l-22 -58l-45 -66h-67z"/>
		<glyph unicode="&#xe3;" horiz-adv-x="496" d="M69 463q38 23 88.5 34t105.5 11q52 0 83.5 -14t48 -36.5t22 -49.5t5.5 -54q0 -60 -3 -117t-3 -108q0 -37 3 -70t11 -61h-59l-21 70h-5q-9 -14 -22.5 -27.5t-32.5 -24t-44 -17.5t-57 -7t-59.5 10t-47.5 28.5t-31.5 44.5t-11.5 59q0 44 18 73.5t50.5 47t78 25t100.5 7.5h28 q13 0 27 -2q3 30 3 54q0 55 -22 77t-80 22q-17 0 -36.5 -2.5t-40 -7t-39 -11t-32.5 -14.5zM211 62q28 0 50 7.5t38 19t26.5 25.5t15.5 27v83q-14 1 -28.5 1.5t-28.5 0.5q-31 0 -60.5 -3.5t-52 -13t-36 -26t-13.5 -41.5q0 -35 25 -57.5t64 -22.5zM109 656q29 33 53 45.5 t44 12.5q17 0 31.5 -6.5t28 -14t26 -13.5t26.5 -6q22 0 46 24l24 -43q-26 -29 -47.5 -39.5t-39.5 -10.5q-16 0 -30 6t-27.5 13.5t-27 14t-27.5 6.5q-13 0 -26.5 -7t-30.5 -24z"/>
		<glyph unicode="&#xe4;" horiz-adv-x="496" d="M69 463q38 23 88.5 34t105.5 11q52 0 83.5 -14t48 -36.5t22 -49.5t5.5 -54q0 -60 -3 -117t-3 -108q0 -37 3 -70t11 -61h-59l-21 70h-5q-9 -14 -22.5 -27.5t-32.5 -24t-44 -17.5t-57 -7t-59.5 10t-47.5 28.5t-31.5 44.5t-11.5 59q0 44 18 73.5t50.5 47t78 25t100.5 7.5h28 q13 0 27 -2q3 30 3 54q0 55 -22 77t-80 22q-17 0 -36.5 -2.5t-40 -7t-39 -11t-32.5 -14.5zM211 62q28 0 50 7.5t38 19t26.5 25.5t15.5 27v83q-14 1 -28.5 1.5t-28.5 0.5q-31 0 -60.5 -3.5t-52 -13t-36 -26t-13.5 -41.5q0 -35 25 -57.5t64 -22.5zM105 653q0 23 13.5 37 t35.5 14t35.5 -14t13.5 -37q0 -21 -13.5 -35t-35.5 -14t-35.5 14t-13.5 35zM297 653q0 23 13.5 37t35.5 14q23 0 36.5 -14t13.5 -37q0 -21 -13.5 -35t-36.5 -14q-22 0 -35.5 14t-13.5 35z"/>
		<glyph unicode="&#xe5;" horiz-adv-x="496" d="M69 463q38 23 88.5 34t105.5 11q52 0 83.5 -14t48 -36.5t22 -49.5t5.5 -54q0 -60 -3 -117t-3 -108q0 -37 3 -70t11 -61h-59l-21 70h-5q-9 -14 -22.5 -27.5t-32.5 -24t-44 -17.5t-57 -7t-59.5 10t-47.5 28.5t-31.5 44.5t-11.5 59q0 44 18 73.5t50.5 47t78 25t100.5 7.5h28 q13 0 27 -2q3 30 3 54q0 55 -22 77t-80 22q-17 0 -36.5 -2.5t-40 -7t-39 -11t-32.5 -14.5zM211 62q28 0 50 7.5t38 19t26.5 25.5t15.5 27v83q-14 1 -28.5 1.5t-28.5 0.5q-31 0 -60.5 -3.5t-52 -13t-36 -26t-13.5 -41.5q0 -35 25 -57.5t64 -22.5zM152 643q0 42 26.5 66.5 t70.5 24.5q42 0 70 -22t28 -69q0 -39 -28 -64.5t-70 -25.5t-69.5 23.5t-27.5 66.5zM206 643q0 -20 13 -31t30 -11q19 0 31.5 10t12.5 32t-13.5 32.5t-30.5 10.5t-30 -10t-13 -33z"/>
		<glyph unicode="&#xe6;" horiz-adv-x="796" d="M211 62q28 0 50 7.5t38 19t26.5 25.5t15.5 27v83q-14 1 -28.5 1.5t-28.5 0.5q-31 0 -60.5 -3.5t-52 -13t-36 -26t-13.5 -41.5q0 -35 25 -57.5t64 -22.5zM367 84q-13 -18 -30 -34.5t-38.5 -29t-49 -20.5t-60.5 -8q-32 0 -59.5 10t-47.5 28.5t-31.5 44.5t-11.5 59 q0 44 18 73.5t50.5 47t78 25t100.5 7.5h28q13 0 27 -2q1 15 2 28.5t1 25.5q0 55 -22 77q-21 22 -75 22h-5q-17 0 -36.5 -2.5t-40 -7t-39 -11t-32.5 -14.5l-25 60q38 23 88.5 34t105.5 11q105 0 136 -65q26 36 70 52.5t88 16.5q34 0 68 -7.5t61 -29t44 -60.5t17 -102 q0 -16 -1.5 -33.5t-3.5 -37.5h-323q0 -87 36.5 -135.5t124.5 -48.5q35 0 68.5 12.5t51.5 27.5l30 -58q-30 -24 -75.5 -38t-96.5 -14q-61 0 -110.5 25t-73.5 71h-7zM558 442q-59 0 -95 -31t-42 -106h248v12q0 68 -30.5 96.5t-80.5 28.5z"/>
		<glyph unicode="&#xe7;" horiz-adv-x="451" d="M418 33q-49 -35 -121 -43l-18 -33q42 -8 60.5 -26t18.5 -49q0 -39 -32 -64.5t-90 -25.5q-11 0 -22 1t-23 3l9 39q6 -1 11 -1h10q22 0 34.5 4t19 9.5t8 12.5t1.5 13q0 28 -86 37l42 79q-52 3 -88 23t-59 54t-33.5 80.5t-10.5 103.5q0 127 56 194.5t161 67.5 q48 0 81.5 -7.5t60.5 -21.5l-23 -69q-23 13 -51 20.5t-60 7.5q-142 0 -142 -192q0 -38 7.5 -72.5t25 -61t46 -42t70.5 -15.5q36 0 64.5 10.5t46.5 24.5z"/>
		<glyph unicode="&#xe8;" horiz-adv-x="508" d="M442 40q-30 -24 -75.5 -38t-96.5 -14q-57 0 -99 18.5t-69 53t-40 82.5t-13 108q0 128 57 195t163 67q34 0 68 -7.5t61 -28.5t44 -59.5t17 -101.5q0 -33 -6 -73h-321q0 -44 9 -78t28 -57.5t49.5 -36t74.5 -12.5q34 0 68 12t51 28zM270 442q-59 0 -94.5 -31t-42.5 -106h248 q0 76 -29 106.5t-82 30.5zM330 571h-45l-115 128v21h95z"/>
		<glyph unicode="&#xe9;" horiz-adv-x="508" d="M442 40q-30 -24 -75.5 -38t-96.5 -14q-57 0 -99 18.5t-69 53t-40 82.5t-13 108q0 128 57 195t163 67q34 0 68 -7.5t61 -28.5t44 -59.5t17 -101.5q0 -33 -6 -73h-321q0 -44 9 -78t28 -57.5t49.5 -36t74.5 -12.5q34 0 68 12t51 28zM270 442q-59 0 -94.5 -31t-42.5 -106h248 q0 76 -29 106.5t-82 30.5zM291 720h89v-21l-101 -128h-47z"/>
		<glyph unicode="&#xea;" horiz-adv-x="508" d="M442 40q-30 -24 -75.5 -38t-96.5 -14q-57 0 -99 18.5t-69 53t-40 82.5t-13 108q0 128 57 195t163 67q34 0 68 -7.5t61 -28.5t44 -59.5t17 -101.5q0 -33 -6 -73h-321q0 -44 9 -78t28 -57.5t49.5 -36t74.5 -12.5q34 0 68 12t51 28zM270 442q-59 0 -94.5 -31t-42.5 -106h248 q0 76 -29 106.5t-82 30.5zM245 732h32l111 -182h-72l-39 66l-21 58l-22 -58l-45 -66h-67z"/>
		<glyph unicode="&#xeb;" horiz-adv-x="508" d="M442 40q-30 -24 -75.5 -38t-96.5 -14q-57 0 -99 18.5t-69 53t-40 82.5t-13 108q0 128 57 195t163 67q34 0 68 -7.5t61 -28.5t44 -59.5t17 -101.5q0 -33 -6 -73h-321q0 -44 9 -78t28 -57.5t49.5 -36t74.5 -12.5q34 0 68 12t51 28zM270 442q-59 0 -94.5 -31t-42.5 -106h248 q0 76 -29 106.5t-82 30.5zM119 653q0 23 13.5 37t35.5 14t35.5 -14t13.5 -37q0 -21 -13.5 -35t-35.5 -14t-35.5 14t-13.5 35zM311 653q0 23 13.5 37t35.5 14q23 0 36.5 -14t13.5 -37q0 -21 -13.5 -35t-36.5 -14q-22 0 -35.5 14t-13.5 35z"/>
		<glyph unicode="&#xec;" horiz-adv-x="268" d="M94 500h80v-500h-80v500zM172 571h-45l-115 128v21h95z"/>
		<glyph unicode="&#xed;" horiz-adv-x="268" d="M94 500h80v-500h-80v500zM154 720h89v-21l-101 -128h-47z"/>
		<glyph unicode="&#xee;" horiz-adv-x="268" d="M94 500h80v-500h-80v500zM121 732h32l111 -182h-72l-39 66l-21 58l-22 -58l-45 -66h-67z"/>
		<glyph unicode="&#xef;" horiz-adv-x="268" d="M94 500h80v-500h-80v500zM-12 653q0 23 13.5 37t35.5 14t35.5 -14t13.5 -37q0 -21 -13.5 -35t-35.5 -14t-35.5 14t-13.5 35zM180 653q0 23 13.5 37t35.5 14q23 0 36.5 -14t13.5 -37q0 -21 -13.5 -35t-36.5 -14q-22 0 -35.5 14t-13.5 35z"/>
		<glyph unicode="&#xf0;" horiz-adv-x="561" d="M220 596l57 31q-38 23 -76 32l35 54q18 -7 46 -19t58 -33l68 37l26 -45l-50 -27q24 -23 46 -53.5t39 -71t27 -91.5t10 -115q0 -81 -18 -139t-48.5 -95.5t-71 -55t-86.5 -17.5q-61 0 -104 21t-70 57t-39.5 83.5t-12.5 101.5q0 52 14.5 99t43 82.5t70 56.5t96.5 21 q45 0 79.5 -14t48.5 -32q-11 37 -33.5 70t-51.5 59l-76 -41zM138 250q0 -49 11 -85t30.5 -60t47 -35.5t59.5 -11.5q30 0 55.5 13t44.5 41t30 72t11 106q0 10 -1 22v26q-1 12 -2.5 23.5t-3.5 19.5q-8 14 -22.5 25t-32.5 18.5t-38 11t-39 3.5q-39 0 -67.5 -14.5t-47 -40 t-27 -60t-8.5 -74.5z"/>
		<glyph unicode="&#xf1;" horiz-adv-x="547" d="M398 0v285q0 78 -22.5 117.5t-82.5 39.5q-53 0 -87.5 -28.5t-48.5 -71.5v-342h-80v500h56l15 -61h4q24 32 64.5 52.5t96.5 20.5q41 0 72 -9.5t51.5 -33.5t31 -64.5t10.5 -102.5v-302h-80zM134 656q29 33 53 45.5t44 12.5q17 0 31.5 -6.5t28 -14t26 -13.5t26.5 -6 q22 0 46 24l24 -43q-26 -29 -47.5 -39.5t-39.5 -10.5q-16 0 -30 6t-27.5 13.5t-27 14t-27.5 6.5q-13 0 -26.5 -7t-30.5 -24z"/>
		<glyph unicode="&#xf2;" horiz-adv-x="536" d="M49 250q0 127 56.5 194.5t162.5 67.5q56 0 97.5 -18.5t68.5 -53t40 -83t13 -107.5q0 -127 -56.5 -194.5t-162.5 -67.5q-56 0 -97.5 18.5t-68.5 53t-40 83t-13 107.5zM132 250q0 -38 7.5 -73t23.5 -61t42 -42t63 -16h1q135 0 135 192q0 39 -7.5 74t-23.5 61t-42 41.5 t-63 15.5h-1q-135 0 -135 -192zM317 571h-45l-115 128v21h95z"/>
		<glyph unicode="&#xf3;" horiz-adv-x="536" d="M49 250q0 127 56.5 194.5t162.5 67.5q56 0 97.5 -18.5t68.5 -53t40 -83t13 -107.5q0 -127 -56.5 -194.5t-162.5 -67.5q-56 0 -97.5 18.5t-68.5 53t-40 83t-13 107.5zM132 250q0 -38 7.5 -73t23.5 -61t42 -42t63 -16h1q135 0 135 192q0 39 -7.5 74t-23.5 61t-42 41.5 t-63 15.5h-1q-135 0 -135 -192zM286 720h89v-21l-101 -128h-47z"/>
		<glyph unicode="&#xf4;" horiz-adv-x="536" d="M49 250q0 127 56.5 194.5t162.5 67.5q56 0 97.5 -18.5t68.5 -53t40 -83t13 -107.5q0 -127 -56.5 -194.5t-162.5 -67.5q-56 0 -97.5 18.5t-68.5 53t-40 83t-13 107.5zM132 250q0 -38 7.5 -73t23.5 -61t42 -42t63 -16h1q135 0 135 192q0 39 -7.5 74t-23.5 61t-42 41.5 t-63 15.5h-1q-135 0 -135 -192zM258 732h32l111 -182h-72l-39 66l-21 58l-22 -58l-45 -66h-67z"/>
		<glyph unicode="&#xf5;" horiz-adv-x="536" d="M49 250q0 127 56.5 194.5t162.5 67.5q56 0 97.5 -18.5t68.5 -53t40 -83t13 -107.5q0 -127 -56.5 -194.5t-162.5 -67.5q-56 0 -97.5 18.5t-68.5 53t-40 83t-13 107.5zM132 250q0 -38 7.5 -73t23.5 -61t42 -42t63 -16h1q135 0 135 192q0 39 -7.5 74t-23.5 61t-42 41.5 t-63 15.5h-1q-135 0 -135 -192zM129 656q29 33 53 45.5t44 12.5q17 0 31.5 -6.5t28 -14t26 -13.5t26.5 -6q22 0 46 24l24 -43q-26 -29 -47.5 -39.5t-39.5 -10.5q-16 0 -30 6t-27.5 13.5t-27 14t-27.5 6.5q-13 0 -26.5 -7t-30.5 -24z"/>
		<glyph unicode="&#xf6;" horiz-adv-x="536" d="M49 250q0 127 56.5 194.5t162.5 67.5q56 0 97.5 -18.5t68.5 -53t40 -83t13 -107.5q0 -127 -56.5 -194.5t-162.5 -67.5q-56 0 -97.5 18.5t-68.5 53t-40 83t-13 107.5zM132 250q0 -38 7.5 -73t23.5 -61t42 -42t63 -16h1q135 0 135 192q0 39 -7.5 74t-23.5 61t-42 41.5 t-63 15.5h-1q-135 0 -135 -192zM124 653q0 23 13.5 37t35.5 14t35.5 -14t13.5 -37q0 -21 -13.5 -35t-35.5 -14t-35.5 14t-13.5 35zM316 653q0 23 13.5 37t35.5 14q23 0 36.5 -14t13.5 -37q0 -21 -13.5 -35t-36.5 -14q-22 0 -35.5 14t-13.5 35z"/>
		<glyph unicode="&#xf7;" horiz-adv-x="505" d="M40 374h424v-72h-424v72zM194 525q0 27 15.5 42.5t41.5 15.5q27 0 43 -15.5t16 -42.5q0 -26 -16 -42t-43 -16q-26 0 -41.5 16t-15.5 42zM194 150q0 27 15.5 42.5t41.5 15.5q27 0 43 -15.5t16 -42.5q0 -26 -16 -42t-43 -16q-26 0 -41.5 16t-15.5 42z"/>
		<glyph unicode="&#xf8;" horiz-adv-x="536" d="M49 250q0 127 56.5 194.5t162.5 67.5q73 0 122 -32l26 35l50 -37l-29 -42q26 -34 38 -81t12 -105q0 -127 -56.5 -194.5t-162.5 -67.5q-78 0 -128 35l-27 -37l-52 38l33 46q-23 34 -34 79.5t-11 100.5zM404 250q0 32 -5 61.5t-16 53.5l-199 -277q16 -13 36.5 -21.5 t47.5 -8.5h1q135 0 135 192zM132 250q0 -30 4.5 -58t13.5 -51l197 274q-15 12 -34.5 19.5t-44.5 7.5h-1q-135 0 -135 -192z"/>
		<glyph unicode="&#xf9;" horiz-adv-x="539" d="M149 500v-285q0 -39 4.5 -68.5t15.5 -49t30 -29.5t48 -10q27 0 48 8.5t37.5 23.5t29 34.5t20.5 41.5v334h80v-358q0 -36 2.5 -74.5t8.5 -67.5h-55l-20 79h-5q-23 -39 -62 -65t-99 -26q-40 0 -70.5 9.5t-51 33.5t-31 64.5t-10.5 102.5v302h80zM308 571h-45l-115 128v21h95 z"/>
		<glyph unicode="&#xfa;" horiz-adv-x="539" d="M149 500v-285q0 -39 4.5 -68.5t15.5 -49t30 -29.5t48 -10q27 0 48 8.5t37.5 23.5t29 34.5t20.5 41.5v334h80v-358q0 -36 2.5 -74.5t8.5 -67.5h-55l-20 79h-5q-23 -39 -62 -65t-99 -26q-40 0 -70.5 9.5t-51 33.5t-31 64.5t-10.5 102.5v302h80zM285 720h89v-21l-101 -128 h-47z"/>
		<glyph unicode="&#xfb;" horiz-adv-x="539" d="M149 500v-285q0 -39 4.5 -68.5t15.5 -49t30 -29.5t48 -10q27 0 48 8.5t37.5 23.5t29 34.5t20.5 41.5v334h80v-358q0 -36 2.5 -74.5t8.5 -67.5h-55l-20 79h-5q-23 -39 -62 -65t-99 -26q-40 0 -70.5 9.5t-51 33.5t-31 64.5t-10.5 102.5v302h80zM260 732h32l111 -182h-72 l-39 66l-21 58l-22 -58l-45 -66h-67z"/>
		<glyph unicode="&#xfc;" horiz-adv-x="539" d="M149 500v-285q0 -39 4.5 -68.5t15.5 -49t30 -29.5t48 -10q27 0 48 8.5t37.5 23.5t29 34.5t20.5 41.5v334h80v-358q0 -36 2.5 -74.5t8.5 -67.5h-55l-20 79h-5q-23 -39 -62 -65t-99 -26q-40 0 -70.5 9.5t-51 33.5t-31 64.5t-10.5 102.5v302h80zM125 653q0 23 13.5 37 t35.5 14t35.5 -14t13.5 -37q0 -21 -13.5 -35t-35.5 -14t-35.5 14t-13.5 35zM317 653q0 23 13.5 37t35.5 14q23 0 36.5 -14t13.5 -37q0 -21 -13.5 -35t-36.5 -14q-22 0 -35.5 14t-13.5 35z"/>
		<glyph unicode="&#xfd;" horiz-adv-x="466" d="M224 176l28 -96h5l22 97l97 323h81l-148 -449l-33 -95q-17 -46 -37 -82t-45 -57.5t-58 -21.5q-36 0 -59 10l14 69q13 -5 25 -5q28 0 54 29.5t43 101.5l-201 500h92zM277 720h89v-21l-101 -128h-47z"/>
		<glyph unicode="&#xfe;" horiz-adv-x="541" d="M77 700h80v-250h4q20 29 53 45.5t80 16.5q100 0 149 -59t49 -193q0 -63 -16.5 -113.5t-46.5 -85.5t-72.5 -54t-94.5 -19q-37 0 -58.5 4.5t-46.5 15.5v-208h-80v900zM279 442h-2q-96 0 -120 -107v-249q18 -14 41 -21t61 -7q69 0 109.5 51.5t40.5 151.5q0 41 -7 74.5 t-22.5 57t-40 36.5t-60.5 13z"/>
		<glyph unicode="&#xff;" horiz-adv-x="466" d="M224 176l28 -96h5l22 97l97 323h81l-148 -449l-33 -95q-17 -46 -37 -82t-45 -57.5t-58 -21.5q-36 0 -59 10l14 69q13 -5 25 -5q28 0 54 29.5t43 101.5l-201 500h92zM89 653q0 23 13.5 37t35.5 14t35.5 -14t13.5 -37q0 -21 -13.5 -35t-35.5 -14t-35.5 14t-13.5 35z M281 653q0 23 13.5 37t35.5 14q23 0 36.5 -14t13.5 -37q0 -21 -13.5 -35t-36.5 -14q-22 0 -35.5 14t-13.5 35z"/>
		<glyph unicode="&#x131;" horiz-adv-x="268" d="M94 500h80v-500h-80v500z"/>
		<glyph unicode="&#x152;" horiz-adv-x="932" d="M481 618q-28 11 -65 15.5t-75 4.5q-92 0 -144.5 -70.5t-52.5 -217.5q0 -58 11.5 -110t36.5 -91.5t64 -63t93 -23.5q29 0 59.5 2t72.5 15v539zM481 0q-25 -5 -60 -8.5t-80 -3.5q-73 0 -126.5 26t-89 73.5t-52.5 114t-17 148.5q0 175 74 268.5t211 93.5q47 0 77.5 -3.5 t62.5 -8.5h381v-74h-298v-229h273v-74h-273v-249h303v-74h-386z"/>
		<glyph unicode="&#x153;" horiz-adv-x="858" d="M132 250q0 -38 7.5 -73t23.5 -61.5t42 -42t63 -15.5h1q134 0 134 192q0 39 -7 74t-23 61t-42 41.5t-63 15.5h-1q-135 0 -135 -192zM442 81q-27 -45 -70.5 -69t-103.5 -24q-56 0 -97.5 18.5t-68.5 53t-40 83t-13 107.5q0 127 56.5 194.5t162.5 67.5q63 0 106.5 -26 t69.5 -66q26 42 70.5 67t104.5 25q34 0 68 -7.5t61 -28.5t44 -59.5t17 -101.5q0 -17 -1 -35t-4 -38h-323q0 -44 9 -78.5t28 -58.5t50 -36t75 -12q35 0 68.5 12.5t50.5 28.5l30 -58q-30 -24 -75.5 -38t-96.5 -14q-62 0 -107 25t-71 68zM620 443q-58 0 -94 -31.5t-43 -106.5 h248v9q0 69 -30 99t-81 30z"/>
		<glyph unicode="&#x178;" horiz-adv-x="558" d="M239 278l-231 422h97l164 -306l17 -61h1l18 63l157 304h89l-229 -421v-279h-83v278zM133 794q0 21 15 34t39 13q23 0 37.5 -13t14.5 -34q0 -20 -14.5 -33t-37.5 -13q-24 0 -39 13t-15 33zM325 794q0 21 14.5 34t37.5 13q24 0 39 -13t15 -34q0 -20 -15 -33t-39 -13 q-23 0 -37.5 13t-14.5 33z"/>
		<glyph unicode="&#x2c6;" horiz-adv-x="386" d="M183 732h32l111 -182h-72l-39 66l-21 58l-22 -58l-45 -66h-67z"/>
		<glyph unicode="&#x2da;" horiz-adv-x="315" d="M60 643q0 42 26.5 66.5t70.5 24.5q42 0 70 -22t28 -69q0 -39 -28 -64.5t-70 -25.5t-69.5 23.5t-27.5 66.5zM114 643q0 -20 13 -31t30 -11q19 0 31.5 10t12.5 32t-13.5 32.5t-30.5 10.5t-30 -10t-13 -33z"/>
		<glyph unicode="&#x2dc;" horiz-adv-x="399" d="M60 656q29 33 53 45.5t44 12.5q17 0 31.5 -6.5t28 -14t26 -13.5t26.5 -6q22 0 46 24l24 -43q-26 -29 -47.5 -39.5t-39.5 -10.5q-16 0 -30 6t-27.5 13.5t-27 14t-27.5 6.5q-13 0 -26.5 -7t-30.5 -24z"/>
		<glyph unicode="&#x2000;" horiz-adv-x="435"/>
		<glyph unicode="&#x2001;" horiz-adv-x="870"/>
		<glyph unicode="&#x2002;" horiz-adv-x="435"/>
		<glyph unicode="&#x2003;" horiz-adv-x="870"/>
		<glyph unicode="&#x2004;" horiz-adv-x="290"/>
		<glyph unicode="&#x2005;" horiz-adv-x="217"/>
		<glyph unicode="&#x2006;" horiz-adv-x="145"/>
		<glyph unicode="&#x2007;" horiz-adv-x="145"/>
		<glyph unicode="&#x2008;" horiz-adv-x="108"/>
		<glyph unicode="&#x2009;" horiz-adv-x="174"/>
		<glyph unicode="&#x200a;" horiz-adv-x="48"/>
		<glyph unicode="&#x2010;" horiz-adv-x="360" d="M59 325h242v-74h-242v74z"/>
		<glyph unicode="&#x2011;" horiz-adv-x="360" d="M59 325h242v-74h-242v74z"/>
		<glyph unicode="&#x2013;" horiz-adv-x="660" d="M118 325h424v-74h-424v74z"/>
		<glyph unicode="&#x2014;" horiz-adv-x="820" d="M118 325h584v-74h-584v74z"/>
		<glyph unicode="&#x2018;" horiz-adv-x="194" d="M155 620q0 -23 -15 -36.5t-38 -13.5q-27 0 -44.5 18t-17.5 53q0 33 9.5 56.5t23 40t28 26.5t25.5 14l25 -35q-22 -11 -35.5 -29.5t-13.5 -46.5q4 1 11 1q20 0 31 -14t11 -34z"/>
		<glyph unicode="&#x2019;" horiz-adv-x="194" d="M40 659q0 23 14.5 36t37.5 13q28 0 45.5 -17.5t17.5 -52.5q0 -33 -9.5 -57t-23 -40.5t-28.5 -26.5t-26 -14l-25 34q23 12 36 30t13 47q-4 -1 -11 -1q-19 0 -30 13.5t-11 35.5z"/>
		<glyph unicode="&#x201a;" horiz-adv-x="194" d="M40 50q0 23 14.5 36t37.5 13q28 0 45.5 -17.5t17.5 -52.5q0 -33 -9.5 -57t-23 -40.5t-28.5 -26.5t-26 -14l-25 34q23 12 36 30t13 47q-4 -1 -11 -1q-19 0 -30 13.5t-11 35.5z"/>
		<glyph unicode="&#x201c;" horiz-adv-x="340" d="M301 620q0 -23 -15 -36.5t-38 -13.5q-27 0 -44.5 18t-17.5 53q0 33 9.5 56.5t23 40t28 26.5t25.5 14l25 -35q-22 -11 -35.5 -29.5t-13.5 -46.5q4 1 11 1q20 0 31 -14t11 -34zM155 620q0 -23 -15 -36.5t-38 -13.5q-27 0 -44.5 18t-17.5 53q0 33 9.5 56.5t23 40t28 26.5 t25.5 14l25 -35q-22 -11 -35.5 -29.5t-13.5 -46.5q4 1 11 1q20 0 31 -14t11 -34z"/>
		<glyph unicode="&#x201d;" horiz-adv-x="340" d="M186 659q0 23 14.5 36t37.5 13q28 0 45.5 -17.5t17.5 -52.5q0 -33 -9.5 -57t-23 -40.5t-28.5 -26.5t-26 -14l-25 34q23 12 36 30t13 47q-4 -1 -11 -1q-19 0 -30 13.5t-11 35.5zM40 659q0 23 14.5 36t37.5 13q28 0 45.5 -17.5t17.5 -52.5q0 -33 -9.5 -57t-23 -40.5 t-28.5 -26.5t-26 -14l-25 34q23 12 36 30t13 47q-4 -1 -11 -1q-19 0 -30 13.5t-11 35.5z"/>
		<glyph unicode="&#x201e;" horiz-adv-x="340" d="M186 50q0 23 14.5 36t37.5 13q28 0 45.5 -17.5t17.5 -52.5q0 -33 -9.5 -57t-23 -40.5t-28.5 -26.5t-26 -14l-25 34q23 12 36 30t13 47q-4 -1 -11 -1q-19 0 -30 13.5t-11 35.5zM40 50q0 23 14.5 36t37.5 13q28 0 45.5 -17.5t17.5 -52.5q0 -33 -9.5 -57t-23 -40.5 t-28.5 -26.5t-26 -14l-25 34q23 12 36 30t13 47q-4 -1 -11 -1q-19 0 -30 13.5t-11 35.5z"/>
		<glyph unicode="&#x2022;" horiz-adv-x="452" d="M87 311q0 31 11 56.5t29.5 44t44 28.5t54.5 10t54.5 -9.5t44 -27.5t29.5 -43.5t11 -58.5t-11 -58.5t-29.5 -43.5t-44 -27.5t-54.5 -9.5t-54.5 9.5t-44 27.5t-29.5 43.5t-11 58.5z"/>
		<glyph unicode="&#x2026;" horiz-adv-x="759" d="M579 46q0 27 15.5 42.5t41.5 15.5q27 0 43 -15.5t16 -42.5q0 -26 -16 -42t-43 -16q-26 0 -41.5 16t-15.5 42zM325 46q0 27 15.5 42.5t41.5 15.5q27 0 43 -15.5t16 -42.5q0 -26 -16 -42t-43 -16q-26 0 -41.5 16t-15.5 42zM71 46q0 27 15.5 42.5t41.5 15.5q27 0 43 -15.5 t16 -42.5q0 -26 -16 -42t-43 -16q-26 0 -41.5 16t-15.5 42z"/>
		<glyph unicode="&#x202f;" horiz-adv-x="174"/>
		<glyph unicode="&#x2039;" horiz-adv-x="297" d="M39 259l160 230l53 -43l-97 -145l-48 -41l48 -36l103 -142l-53 -44z"/>
		<glyph unicode="&#x203a;" horiz-adv-x="297" d="M258 268l-160 -230l-53 43l97 145l48 41l-48 36l-103 142l53 44z"/>
		<glyph unicode="&#x2044;" horiz-adv-x="184" d="M310 713l52 -35l-487 -690l-52 36z"/>
		<glyph unicode="&#x205f;" horiz-adv-x="217"/>
		<glyph unicode="&#x2081;" horiz-adv-x="394" d="M72 -39h106v254l7 36l-27 -28l-78 -47l-27 49l154 102h41v-366h95v-61h-271v61z"/>
		<glyph unicode="&#x2082;" horiz-adv-x="394" d="M319 210q0 -31 -10.5 -60t-28 -57t-41.5 -55.5t-51 -55.5l-46 -32v-2l57 15h140v-63h-291v33q23 19 57.5 51t66.5 69t54.5 76t22.5 72q0 31 -20 46.5t-49 15.5q-27 0 -52.5 -9.5t-44.5 -21.5l-22 57q26 18 60.5 28t70.5 10q63 0 95 -31t32 -86z"/>
		<glyph unicode="&#x2083;" horiz-adv-x="394" d="M169 -47q48 0 73.5 19t25.5 56q0 32 -23 52t-74 20h-55v23l97 116l34 27l-49 -6h-130v60h256v-33l-103 -123l-25 -18v-2l23 3q55 -1 87 -33t32 -86q0 -61 -44.5 -98t-118.5 -37q-36 0 -62 6t-46 13l15 60q17 -8 39 -13.5t48 -5.5z"/>
		<glyph unicode="&#x2084;" horiz-adv-x="394" d="M379 -4h-83v-96h-67v96h-204v37l226 302h45v-280h83v-59zM229 183l6 49h-2l-22 -46l-78 -105l-33 -31l50 5h79v128z"/>
		<glyph unicode="&#x20ac;" d="M28 454h62q11 69 37 117.5t62.5 80t82 46t96.5 14.5t88 -6.5t64 -17.5l-22 -71q-23 11 -54 17t-75 6q-34 0 -65 -10t-56.5 -32t-44 -57.5t-28.5 -86.5h282l-17 -66h-272q-1 -9 -1 -18v-20v-17q0 -8 1 -16h252l-17 -66h-228q17 -97 69.5 -144t138.5 -47q39 0 71.5 9 t55.5 23l20 -63q-30 -23 -74.5 -32t-89.5 -9q-115 0 -186.5 63.5t-91.5 199.5h-78l18 66h54v33v19q0 9 1 19h-73z"/>
		<glyph unicode="&#x2122;" horiz-adv-x="885" d="M388 632h-136v-292h-78v292h-136v68h350v-68zM770 507l10 103h-4l-39 -85l-87 -140h-33l-89 139l-36 86h-4l13 -102v-168h-73v360h78l105 -168l28 -58h1l30 60l97 166h79v-360h-76v167z"/>
		<glyph unicode="&#xf408;" horiz-adv-x="440" d="M193 870h60l127 -102v-21h-81l-60 49l-17 35l-19 -34l-64 -50h-79v22z"/>
		<glyph unicode="&#xf40d;" horiz-adv-x="438" d="M60 785q31 32 57.5 43.5t50.5 11.5q19 0 37 -5t34.5 -11.5t32.5 -11.5t31 -5q26 0 50 21l25 -43q-27 -25 -51 -34.5t-45 -9.5q-19 0 -36 5t-33.5 11.5t-32.5 11.5t-32 5t-31.5 -6.5t-32.5 -23.5z"/>
		<glyph unicode="&#xf662;" horiz-adv-x="394" d="M179 595l7 36l-28 -28l-78 -47l-27 49l154 102h42v-427h-70v315z"/>
		<glyph unicode="&#xf6c9;" horiz-adv-x="352" d="M178 870h114v-21l-163 -97h-69z"/>
		<glyph unicode="&#xf6cb;" horiz-adv-x="418" d="M60 794q0 21 15 34t39 13q23 0 37.5 -13t14.5 -34q0 -20 -14.5 -33t-37.5 -13q-24 0 -39 13t-15 33zM252 794q0 21 14.5 34t37.5 13q24 0 39 -13t15 -34q0 -20 -15 -33t-39 -13q-23 0 -37.5 13t-14.5 33z"/>
		<glyph unicode="&#xf6ce;" horiz-adv-x="352" d="M292 752h-74l-158 97v21h114z"/>
		<glyph horiz-adv-x="184" d="M324 713l49 -38l-513 -687l-50 39z"/>
	</font>
	<font id="PTSansBold" horiz-adv-x="567" >
		<font-face units-per-em="1000" ascent="750" descent="-250"/>
		<missing-glyph horiz-adv-x="253"/>
		<glyph unicode=" "  horiz-adv-x="253"/>
		<glyph unicode="&#x09;" horiz-adv-x="253"/>
		<glyph unicode="&#xa0;" horiz-adv-x="253"/>
		<glyph unicode="!" horiz-adv-x="294" d="M100 700h134v-329l-26 -163h-82l-26 163v329zM86 66q0 35 22 55.5t58 20.5q38 0 60 -20.5t22 -55.5t-22 -56t-60 -21q-36 0 -58 21t-22 56z"/>
		<glyph unicode="&#x22;" horiz-adv-x="402" d="M90 700h114l-36 -216h-78v216zM238 700h114l-36 -216h-78v216z"/>
		<glyph unicode="#" d="M289 205h-89l-36 -154h-107l36 154h-74l22 97h75l25 106h-72l22 97h73l35 144h106l-34 -144h89l35 144h106l-34 -144h72l-25 -97h-70l-25 -106h69l-24 -97h-68l-36 -154h-107zM223 302h89l25 106h-89z"/>
		<glyph unicode="$" d="M238 -13q-57 2 -100 12t-67 23l39 113q18 -11 50.5 -21t77.5 -14v205q-31 14 -61.5 31t-54.5 41t-38.5 57.5t-14.5 79.5q0 86 45.5 133.5t123.5 61.5v91h104v-87q44 -3 77 -12t61 -21l-36 -111q-17 8 -43 16t-59 12v-187q31 -14 62.5 -31.5t56 -41.5t40 -56.5t15.5 -77.5 q0 -92 -46.5 -143.5t-127.5 -66.5v-93h-104v87zM386 188q0 32 -25.5 52.5t-61.5 37.5v-178q44 5 65.5 28t21.5 60zM199 525q0 -30 23.5 -50t58.5 -37v162q-47 -2 -64.5 -23t-17.5 -52z"/>
		<glyph unicode="%" horiz-adv-x="840" d="M51 542q0 45 13 77t36 53t55.5 30.5t70.5 9.5t70 -9t55.5 -29t36.5 -52.5t14 -79.5q-1 -47 -14 -79.5t-36.5 -52.5t-55.5 -29t-70 -9t-70.5 9t-55.5 29t-36 52.5t-13 79.5zM167 542q0 -86 59 -86q31 0 44.5 18.5t14.5 67.5q-1 48 -14.5 67t-44.5 19t-45 -19t-14 -67z M457 171q0 45 13 77t36 53t55.5 30.5t70.5 9.5t70 -9t55.5 -29t36.5 -52.5t14 -79.5q-1 -47 -14 -79.5t-36.5 -52.5t-55.5 -29t-70 -9t-70.5 9t-55.5 29t-36 52.5t-13 79.5zM573 171q0 -86 59 -86q31 0 44.5 18.5t14.5 67.5q-1 48 -14.5 67t-44.5 19t-45 -19t-14 -67z M677 714l73 -66l-576 -662l-73 69z"/>
		<glyph unicode="&#x26;" horiz-adv-x="814" d="M92 194q0 38 12.5 72.5t35 64.5t53.5 56t67 46q-25 33 -41 67t-16 72q0 25 9.5 50.5t30 46t53.5 33t80 12.5q46 0 78.5 -11t52.5 -29t29 -41t9 -47q0 -41 -29 -85.5t-99 -85.5q35 -54 70 -99t78 -89q23 25 41.5 62.5t32.5 76.5l94 -50q-6 -18 -16.5 -39.5t-23 -43.5 t-25.5 -41.5t-24 -33.5q32 -29 56 -45.5t49 -30.5l-69 -96q-28 13 -57.5 34.5t-58.5 49.5q-36 -33 -90 -58.5t-133 -25.5q-52 0 -97.5 14t-79 41t-53 65.5t-19.5 87.5zM486 149q-51 53 -93 105.5t-73 99.5q-48 -37 -73 -71.5t-25 -77.5q0 -51 37.5 -80t98.5 -29 q40 0 75 16.5t53 36.5zM333 566q0 -42 36 -90q39 25 56.5 47t17.5 42q0 24 -13.5 38t-43.5 14q-27 0 -40 -14t-13 -37z"/>
		<glyph unicode="'" horiz-adv-x="254" d="M90 700h114l-36 -216h-78v216z"/>
		<glyph unicode="(" horiz-adv-x="327" d="M227 -220q-46 48 -78 105.5t-51.5 118t-28.5 122t-9 117.5q0 55 9 116t29 122.5t52.5 120.5t79.5 110l84 -54q-35 -47 -58.5 -98t-38 -104.5t-21 -107.5t-6.5 -105q0 -48 7 -102t22 -107.5t39 -104.5t58 -93z"/>
		<glyph unicode=")" horiz-adv-x="326" d="M99 712q46 -48 78 -105.5t51.5 -118t28.5 -122t9 -117.5q0 -55 -9 -116t-29 -122.5t-52.5 -120.5t-79.5 -110l-84 55q37 50 61 101.5t38 104t19.5 105t5.5 103.5q0 48 -7.5 101.5t-22.5 107t-38.5 104t-56.5 93.5z"/>
		<glyph unicode="*" horiz-adv-x="378" d="M144 731l28 -46l15 -59l15 55l28 49l64 -35l-30 -52l-48 -43l65 16h57v-73h-55l-61 16l50 -47l25 -42l-64 -37l-27 46l-20 64l-13 -58l-29 -49l-64 37l29 49l45 37l-55 -16h-59v74h60l59 -17l-51 44l-28 50z"/>
		<glyph unicode="+" horiz-adv-x="527" d="M43 394h162v169h117v-169h163v-112h-163v-171h-117v171h-162v112z"/>
		<glyph unicode="," horiz-adv-x="228" d="M42 64q0 34 22.5 54t55.5 20q42 0 66 -28t24 -74q0 -45 -14 -77.5t-34.5 -54t-44 -34t-42.5 -18.5l-38 54q27 11 47 36t22 53h-7q-19 0 -37 14q-20 17 -20 55z"/>
		<glyph unicode="-" horiz-adv-x="360" d="M54 345h251v-115h-251v115z"/>
		<glyph unicode="." horiz-adv-x="246" d="M42 66q0 35 22 55.5t58 20.5q38 0 60 -20.5t22 -55.5t-22 -56t-60 -21q-36 0 -58 21t-22 56z"/>
		<glyph unicode="/" horiz-adv-x="408" d="M333 712l98 -44l-357 -808l-98 46z"/>
		<glyph unicode="0" d="M40 351q0 184 63 273.5t181 89.5q126 0 185 -88.5t59 -274.5q0 -185 -63.5 -275t-181.5 -90q-125 0 -184 94.5t-59 270.5zM170 351q0 -122 26.5 -188.5t87.5 -66.5q59 0 86.5 61t27.5 194q0 121 -26 187t-89 66q-60 0 -86.5 -62t-26.5 -191z"/>
		<glyph unicode="1" d="M101 110h139v395l15 68l-48 -59l-89 -61l-55 75l228 184h73v-602h136v-110h-399v110z"/>
		<glyph unicode="2" d="M475 529q0 -51 -18.5 -103t-47 -102t-63 -96.5t-67.5 -85.5l-53 -41v-5l72 14h192v-110h-421v67l54 59l61 70l59 78t52 80.5t36.5 78.5t13.5 72q0 41 -23.5 67.5t-74.5 26.5q-32 0 -65.5 -13.5t-56.5 -34.5l-52 92q39 32 88.5 51.5t116.5 19.5q43 0 79 -12t62 -35 t41 -57.5t15 -80.5z"/>
		<glyph unicode="3" d="M241 96q62 0 94.5 33t32.5 80q0 57 -34 84t-107 27h-72v69l121 165l57 45l-79 -9h-168v110h382v-71l-141 -189l-44 -27v-5l42 6q35 -3 66.5 -16t55 -37.5t37.5 -60.5t14 -83q0 -59 -19.5 -102t-54 -72t-80.5 -43t-99 -14q-44 0 -91 8t-76 23l35 108q26 -13 57.5 -21 t70.5 -8z"/>
		<glyph unicode="4" d="M553 195h-110v-195h-121v195h-303v74l317 436h107v-406h110v-104zM322 452l9 84h-4l-34 -72l-104 -135l-50 -38l64 8h119v153z"/>
		<glyph unicode="5" d="M220 101q66 0 101 32t35 88q0 60 -41 88t-117 28l-79 -3v366h344v-122h-232v-135l41 4q49 -2 88.5 -18t67.5 -44.5t43 -69t15 -90.5q0 -59 -20 -104t-55.5 -75t-83.5 -45t-105 -15q-45 0 -85.5 7.5t-68.5 20.5l35 108q23 -10 50.5 -15.5t66.5 -5.5z"/>
		<glyph unicode="6" d="M520 217q0 -49 -16.5 -91t-46.5 -73t-72.5 -49t-93.5 -18q-52 0 -95.5 16.5t-75.5 49.5t-50 83t-18 116q0 99 28.5 179t77 139.5t113 96t136.5 48.5l29 -103q-50 -8 -92 -31t-74.5 -55t-55 -71.5t-31.5 -81.5q20 25 52 42.5t80 17.5q45 0 83 -14t65 -41.5t42 -67.5 t15 -92zM394 210q0 112 -110 112q-40 0 -67.5 -18t-38.5 -42q-2 -11 -2 -19v-16q0 -24 7 -47.5t20.5 -42t34.5 -30t50 -11.5q47 0 76.5 32t29.5 82z"/>
		<glyph unicode="7" d="M104 0l229 539l44 49l-60 -10h-257v122h451v-38l-280 -662h-127z"/>
		<glyph unicode="8" d="M61 171q0 35 9 62.5t25.5 50t39 40.5t48.5 33q-49 31 -77 71.5t-28 100.5q0 39 14.5 73t42 59t66.5 39t88 14q45 0 82 -12t63.5 -34t41 -53.5t14.5 -69.5q0 -59 -26.5 -100t-77.5 -75q60 -35 90.5 -77t30.5 -108q0 -45 -16.5 -81.5t-46.5 -62.5t-72 -40.5t-92 -14.5 t-90.5 13.5t-69 37.5t-44 58t-15.5 76zM383 184q0 23 -11 42t-28.5 34.5t-39 28.5t-43.5 25q-47 -27 -64.5 -58.5t-17.5 -62.5q0 -40 27.5 -68.5t76.5 -28.5q45 0 72.5 22t27.5 66zM202 527q0 -24 9 -42t24.5 -31.5t35 -25t40.5 -21.5q60 51 60 112q0 42 -24.5 63.5 t-59.5 21.5q-44 0 -64.5 -23t-20.5 -54z"/>
		<glyph unicode="9" d="M45 481q0 51 15.5 94t45 73.5t72 48t97.5 17.5q113 0 177.5 -67.5t64.5 -196.5q0 -116 -29.5 -200.5t-79 -141t-114.5 -86.5t-137 -36l-28 102q55 7 98 27t74 49.5t50.5 67t27.5 80.5q-24 -26 -51.5 -36t-73.5 -10q-38 0 -75.5 13t-67 39.5t-48 67t-18.5 95.5zM171 488 q0 -57 32 -86t80 -29q41 0 67 13t40 32q3 21 3 40q0 28 -7 55t-21.5 48t-37 33.5t-53.5 12.5q-49 0 -76 -31.5t-27 -87.5z"/>
		<glyph unicode=":" horiz-adv-x="269" d="M93 428q0 35 22 55.5t58 20.5q38 0 60 -20.5t22 -55.5t-22 -56t-60 -21q-36 0 -58 21t-22 56zM93 66q0 35 22 55.5t58 20.5q38 0 60 -20.5t22 -55.5t-22 -56t-60 -21q-36 0 -58 21t-22 56z"/>
		<glyph unicode=";" horiz-adv-x="290" d="M82 64q0 34 22.5 54t55.5 20q42 0 66 -28t24 -74q0 -45 -14 -77.5t-34.5 -54t-44 -34t-42.5 -18.5l-38 54q27 11 47 36t22 53h-7q-19 0 -37 14q-20 17 -20 55zM82 428q0 35 22 55.5t58 20.5q38 0 60 -20.5t22 -55.5t-22 -56t-60 -21q-36 0 -58 21t-22 56z"/>
		<glyph unicode="&#x3c;" horiz-adv-x="527" d="M40 285v70l386 231l57 -90l-224 -139l-91 -35l90 -31l230 -137l-57 -90z"/>
		<glyph unicode="=" horiz-adv-x="527" d="M43 490h442v-112h-442v112zM43 299h442v-112h-442v112z"/>
		<glyph unicode="&#x3e;" horiz-adv-x="527" d="M487 365v-70l-386 -231l-57 91l224 138l91 36l-90 30l-230 138l57 89z"/>
		<glyph unicode="?" horiz-adv-x="454" d="M136 208q-2 17 -2 33q0 31 7 55q10 37 27.5 63.5t39.5 46.5l42 37q20 18 33 37.5t13 46.5q0 35 -19.5 56t-69.5 21q-16 0 -34 -3.5t-36 -10t-34.5 -15t-29.5 -17.5l-50 96q38 26 87.5 43t119.5 17q94 0 147 -45.5t53 -122.5q0 -51 -13.5 -84.5t-33.5 -57t-44 -41.5 t-44 -38.5t-34 -47.5t-14 -69h-111zM116 66q0 35 22 55.5t58 20.5q38 0 60 -20.5t22 -55.5t-22 -56t-60 -21q-36 0 -58 21t-22 56z"/>
		<glyph unicode="@" horiz-adv-x="1059" d="M679 484h70l-48 -271q-4 -24 -4 -42q0 -16 3 -26q8 -21 34 -21t51 12t45 37t32.5 63t12.5 90q0 75 -25 128t-68.5 87.5t-102.5 50.5t-127 16q-78 0 -145 -28t-116.5 -77t-77.5 -116.5t-28 -146.5q0 -78 23.5 -140t68.5 -105.5t111.5 -67t152.5 -23.5q29 0 66 7t67 21 l31 -96q-41 -20 -83.5 -28t-97.5 -8q-97 0 -179.5 28t-143 83t-94.5 136.5t-34 188.5q0 109 39 197t105 150t153 95.5t184 33.5q92 0 171 -26.5t137 -76t91 -121t33 -162.5q0 -64 -22.5 -120t-62 -97t-92 -65t-112.5 -24q-25 0 -46.5 5.5t-36 18.5t-21.5 34q-5 15 -5 34 q0 9 1 18h-4q-15 -21 -32.5 -41t-38.5 -35.5t-46 -24.5t-55 -9q-24 0 -46 10.5t-38 29.5t-25.5 46t-9.5 60q0 62 20 120.5t54.5 103.5t80 72.5t96.5 27.5q35 0 59 -10.5t44 -27.5zM616 363q-13 11 -27 17t-35 6q-30 0 -55.5 -17t-44 -44t-28.5 -60.5t-10 -65.5 q0 -33 13.5 -54t46.5 -21q14 0 30 8.5t31 22.5t29 32t25 38z"/>
		<glyph unicode="A" horiz-adv-x="605" d="M405 155h-215l-53 -155h-137l252 705h101l252 -705h-144zM225 265h150l-52 156l-21 110h-5l-21 -111z"/>
		<glyph unicode="B" horiz-adv-x="591" d="M531 537q0 -26 -6.5 -52t-21.5 -47.5t-39 -38t-58 -24.5v-6q30 -5 57 -17t47 -33t31.5 -51t11.5 -71q0 -54 -23 -93.5t-61.5 -64.5t-87.5 -37t-101 -12h-44q-26 0 -56.5 1.5t-62 4.5t-57.5 9v690q19 3 43.5 6t52.5 5t57.5 3t58.5 1q49 0 95.5 -7.5t83 -26.5t58.5 -53 t22 -86zM281 103q25 0 48.5 6t41.5 18.5t29 31.5t11 45q0 33 -13 52t-34 29.5t-47 13.5t-52 3h-73v-193q5 -2 16 -3t24 -2h26q13 -1 23 -1zM236 406q14 0 32.5 1t30.5 3q38 12 65.5 36t27.5 63q0 26 -10 43t-26.5 27t-37.5 14t-44 4q-26 0 -48 -1t-34 -3v-187h44z"/>
		<glyph unicode="C" horiz-adv-x="559" d="M534 29q-32 -23 -81.5 -33t-101.5 -10q-63 0 -119.5 19.5t-99.5 63t-68.5 113t-25.5 168.5q0 103 28.5 172.5t74 112t101.5 61t112 18.5q60 0 101.5 -8t68.5 -19l-27 -116q-23 11 -54.5 16t-76.5 5q-83 0 -133.5 -59t-50.5 -183q0 -54 12 -98.5t36.5 -76t61 -49 t84.5 -17.5q45 0 76 9t54 23z"/>
		<glyph unicode="D" horiz-adv-x="647" d="M60 700q21 3 47.5 5t54.5 3t54.5 1.5t47.5 0.5q93 0 159 -26t107 -73t60 -112t19 -143q0 -71 -18 -137t-60 -117t-110.5 -82t-169.5 -31q-16 0 -42.5 1l-54.5 2l-55 4q-26 1 -39 3v701zM275 588q-22 0 -44.5 -1t-33.5 -3v-469q4 -1 13.5 -1.5t20.5 -1.5h21q10 -1 15 -1 q58 0 96.5 20.5t61 54.5t31.5 78.5t9 91.5q0 41 -8 82.5t-29.5 74.5t-58.5 54t-94 21z"/>
		<glyph unicode="E" horiz-adv-x="522" d="M60 700h415v-122h-278v-163h253v-122h-253v-171h283v-122h-420v700z"/>
		<glyph unicode="F" horiz-adv-x="508" d="M60 700h415v-122h-278v-173h256v-122h-256v-283h-137v700z"/>
		<glyph unicode="G" horiz-adv-x="609" d="M307 365h261v-312q-42 -35 -100.5 -51t-115.5 -16q-67 0 -124.5 21t-99.5 65.5t-66 113.5t-24 164q0 99 28.5 168.5t75 113t104.5 63t118 19.5t105.5 -9t72.5 -19l-28 -115q-25 10 -56 15.5t-79 5.5q-43 0 -79 -13t-62.5 -42.5t-41 -75.5t-14.5 -112q0 -63 14 -108.5 t39 -75t58.5 -43.5t71.5 -14q26 0 51 6.5t42 19.5v132l-151 16v83z"/>
		<glyph unicode="H" horiz-adv-x="651" d="M453 293h-256v-293h-137v700h137v-285h256v285h137v-700h-137v293z"/>
		<glyph unicode="I" horiz-adv-x="285" d="M74 700h137v-700h-137v700z"/>
		<glyph unicode="J" horiz-adv-x="334" d="M131 700h137v-512q0 -40 -9 -76t-29.5 -63.5t-52.5 -44t-78 -16.5q-29 0 -63 6t-59 17l30 112q26 -13 59 -13q42 0 53.5 31t11.5 82v477z"/>
		<glyph unicode="K" horiz-adv-x="620" d="M233 299h-36v-299h-137v700h137v-310l32 14l193 296h156l-204 -294l-54 -38l56 -39l233 -329h-169z"/>
		<glyph unicode="L" horiz-adv-x="514" d="M503 0h-443v700h137v-578h306v-122z"/>
		<glyph unicode="M" horiz-adv-x="800" d="M603 363l15 139h-6l-43 -112l-149 -261h-44l-157 262l-44 111h-5l20 -138v-364h-130v700h125l187 -320l33 -80h4l30 82l177 318h124v-700h-137v363z"/>
		<glyph unicode="N" horiz-adv-x="657" d="M234 365l-55 110h-5l16 -110v-365h-130v705h100l265 -373l53 -107h5l-16 107v368h130v-705h-100z"/>
		<glyph unicode="O" horiz-adv-x="670" d="M38 350q0 175 77 269.5t220 94.5q75 0 131 -26t93 -74t55 -115t18 -149q0 -175 -77.5 -269.5t-219.5 -94.5q-76 0 -132 26t-92.5 74t-54.5 115t-18 149zM182 350q0 -53 9 -97.5t27.5 -76.5t47.5 -50t69 -18q73 0 113 57t40 185q0 51 -8.5 95t-26.5 77t-47 51.5t-71 18.5 q-73 0 -113 -58.5t-40 -183.5z"/>
		<glyph unicode="P" horiz-adv-x="572" d="M60 693q42 8 92.5 12.5t100.5 4.5q52 0 104.5 -8.5t94.5 -34t68.5 -71t26.5 -118.5q0 -66 -23 -111.5t-61 -74.5t-86.5 -42t-100.5 -13h-16q-11 0 -23 0.5t-23.5 1.5t-16.5 2v-241h-137v693zM264 592q-20 0 -38 -1.5t-29 -3.5v-227q4 -1 12 -2t17 -1.5t18 -0.5h12 q27 0 53.5 5t47.5 18.5t33.5 37.5t12.5 63q0 33 -12 54.5t-31.5 34.5t-44.5 18t-51 5z"/>
		<glyph unicode="Q" horiz-adv-x="670" d="M702 -202q-48 -13 -97 -13q-51 0 -99 10.5t-93 22.5l-87 22q-42 11 -79 11q-24 0 -46 -6v118q28 6 58 6q42 0 83.5 -10t84.5 -21.5t88 -21.5t95 -10q22 0 45 2.5t47 8.5v-119zM38 350q0 175 77 269.5t220 94.5q75 0 131 -26t93 -74t55 -115t18 -149q0 -175 -77.5 -269.5 t-219.5 -94.5q-76 0 -132 26t-92.5 74t-54.5 115t-18 149zM182 350q0 -53 9 -97.5t27.5 -76.5t47.5 -50t69 -18q73 0 113 57t40 185q0 51 -8.5 95t-26.5 77t-47 51.5t-71 18.5q-73 0 -113 -58.5t-40 -183.5z"/>
		<glyph unicode="R" horiz-adv-x="602" d="M60 693q23 4 49.5 7.5t53 5.5t51.5 3t46 1q49 0 96.5 -9t85 -31t60 -60.5t22.5 -96.5q0 -86 -40 -140t-107 -75l49 -31l160 -267h-158l-159 274l-72 13v-287h-137v693zM270 588q-21 0 -41.5 -1t-31.5 -4v-203h58q57 0 91 26t34 86q0 45 -28 70.5t-82 25.5z"/>
		<glyph unicode="S" horiz-adv-x="530" d="M362 188q0 32 -23.5 52t-59 36.5t-77 34t-77 43t-59 63.5t-23.5 97q0 51 17 88.5t48.5 62.5t74.5 37t96 12q61 0 115 -10.5t89 -30.5l-43 -115q-22 14 -66 25.5t-95 11.5q-48 0 -73.5 -19t-25.5 -51q0 -30 23.5 -50t59 -37t77 -35t77 -43.5t59 -63t23.5 -93.5 t-18.5 -96.5t-52 -67.5t-81 -40t-104.5 -13q-75 0 -132 14t-84 28l44 117q11 -6 28.5 -13t39.5 -13t46.5 -10t50.5 -4q61 0 93.5 20.5t32.5 62.5z"/>
		<glyph unicode="T" horiz-adv-x="568" d="M557 578h-204v-578h-137v578h-205v122h546v-122z"/>
		<glyph unicode="U" horiz-adv-x="627" d="M440 700h130v-452q0 -68 -18 -117t-50 -81t-78 -47t-101 -15q-266 0 -266 243v469h137v-442q0 -41 7.5 -69.5t23.5 -46t40 -25t56 -7.5q63 0 91 35t28 113v442z"/>
		<glyph unicode="V" horiz-adv-x="602" d="M290 289l18 -119h5l20 120l134 410h144l-260 -705h-98l-262 705h159z"/>
		<glyph unicode="W" horiz-adv-x="862" d="M242 309l13 -124h4l14 126l122 389h90l120 -391l14 -124h4l15 126l85 389h139l-193 -705h-92l-125 389l-17 107h-5l-17 -108l-124 -388h-97l-192 705h149z"/>
		<glyph unicode="X" horiz-adv-x="633" d="M225 356l-195 344h165l108 -202l24 -71l23 71l113 202h149l-202 -337l212 -363h-163l-123 216l-27 74l-26 -74l-124 -216h-149z"/>
		<glyph unicode="Y" horiz-adv-x="592" d="M228 260l-230 440h163l128 -263l14 -74h5l15 76l124 261h147l-229 -439v-261h-137v260z"/>
		<glyph unicode="Z" horiz-adv-x="539" d="M27 122l296 414l52 42h-348v122h485v-122l-298 -418l-51 -38h349v-122h-485v122z"/>
		<glyph unicode="[" horiz-adv-x="324" d="M60 700h235v-110h-111v-710h111v-110h-235v930z"/>
		<glyph unicode="\" horiz-adv-x="424" d="M438 -95l-99 -45l-363 808l102 43z"/>
		<glyph unicode="]" horiz-adv-x="324" d="M264 -230h-235v110h111v710h-111v110h235v-930z"/>
		<glyph unicode="^" horiz-adv-x="500" d="M216 705h69l185 -292h-131l-71 122l-21 70l-25 -71l-78 -121h-124z"/>
		<glyph unicode="_" horiz-adv-x="444" d="M0 -117h444v-107h-444v107z"/>
		<glyph unicode="`" horiz-adv-x="316" d="M256 566h-72l-124 124v30h136z"/>
		<glyph unicode="a" horiz-adv-x="496" d="M54 471q40 18 95 28.5t115 10.5q52 0 87 -12.5t55.5 -35.5t29 -55t8.5 -72q0 -44 -3 -88.5t-3 -87.5q-1 -6 -1 -12q0 -37 3 -71q3 -41 15 -77h-106l-21 69h-5q-20 -31 -55.5 -53.5t-91.5 -22.5q-35 0 -63 10.5t-48 30t-31 46t-11 59.5q0 46 20.5 77.5t59 51t91.5 27.5 q39 5 83 5q18 0 37 -1q2 18 2 32q0 32 -10 48q-15 25 -67 25q-39 0 -82.5 -8t-71.5 -21zM219 99q39 0 62 17.5t34 37.5v65q-19 2 -36 2q-12 0 -23 -1q-29 -2 -51 -9t-35 -20t-13 -33q0 -28 16.5 -43.5t45.5 -15.5z"/>
		<glyph unicode="b" horiz-adv-x="536" d="M57 700h130v-240h4q21 24 54 38t73 14q90 0 137.5 -61.5t47.5 -187.5q0 -135 -66.5 -205t-182.5 -70q-64 0 -117 10.5t-80 23.5v678zM280 402q-36 0 -58.5 -18.5t-34.5 -53.5v-218q16 -8 34.5 -11t39.5 -3q53 0 80.5 38.5t27.5 122.5q0 143 -89 143z"/>
		<glyph unicode="c" horiz-adv-x="433" d="M411 31q-30 -22 -72.5 -33.5t-87.5 -11.5q-60 0 -101.5 19t-67.5 53.5t-37.5 83.5t-11.5 108q0 127 57 195.5t166 68.5q55 0 88.5 -9t60.5 -23l-31 -106q-23 11 -45.5 17t-51.5 6q-54 0 -82 -35.5t-28 -113.5q0 -32 7 -59t21 -47t36.5 -31.5t52.5 -11.5q33 0 56 8.5 t41 20.5z"/>
		<glyph unicode="d" horiz-adv-x="539" d="M482 176q0 -42 1 -84t9 -93h-93l-18 65h-4q-20 -35 -57.5 -56.5t-88.5 -21.5q-94 0 -146 62t-52 194q0 128 58 199t170 71q31 0 51 -3.5t40 -11.5v203h130v-524zM261 96q38 0 60 18.5t31 53.5v212q-14 11 -31 16.5t-44 5.5q-55 0 -82.5 -37t-27.5 -127q0 -64 22.5 -103 t71.5 -39z"/>
		<glyph unicode="e" horiz-adv-x="508" d="M457 43q-30 -24 -81.5 -40.5t-109.5 -16.5q-121 0 -177 70.5t-56 193.5q0 132 63 198t177 66q38 0 74 -10t64 -33t45 -62t17 -97q0 -21 -2.5 -45t-7.5 -50h-300q3 -63 32.5 -95t95.5 -32q41 0 73.5 12.5t49.5 25.5zM271 410q-51 0 -75.5 -30.5t-29.5 -81.5h186q1 9 1 17 q0 42 -17 66q-21 29 -65 29z"/>
		<glyph unicode="f" horiz-adv-x="321" d="M11 500h69v28q0 95 40 137.5t116 42.5q80 0 133 -19l-25 -104q-23 8 -40.5 10.5t-36.5 2.5q-20 0 -31.5 -6t-17 -18.5t-7 -31t-1.5 -42.5h110v-110h-110v-390h-130v390h-69v110z"/>
		<glyph unicode="g" horiz-adv-x="536" d="M480 0q0 -109 -59 -160.5t-165 -51.5q-72 0 -113.5 10t-62.5 21l27 103q23 -9 53.5 -18t75.5 -9q68 0 92.5 29.5t24.5 82.5v32h-4q-35 -47 -124 -47q-97 0 -144.5 60t-47.5 188q0 134 64 203t186 69q64 0 114.5 -9t82.5 -21v-482zM260 96q38 0 58.5 17t31.5 51v225 q-31 13 -77 13q-50 0 -78 -37.5t-28 -119.5q0 -73 24 -111t69 -38z"/>
		<glyph unicode="h" horiz-adv-x="545" d="M363 0v284q0 61 -17 88t-62 27q-33 0 -60.5 -22.5t-36.5 -57.5v-319h-130v700h130v-256h4q24 32 59 51t89 19q38 0 67 -10t48.5 -33t29 -62.5t9.5 -97.5v-311h-130z"/>
		<glyph unicode="i" horiz-adv-x="269" d="M68 500h130v-500h-130v500zM49 641q0 29 21.5 49.5t59.5 20.5t61.5 -20.5t23.5 -49.5t-23.5 -48.5t-61.5 -19.5t-59.5 19.5t-21.5 48.5z"/>
		<glyph unicode="j" horiz-adv-x="268" d="M69 500h130v-521q0 -91 -36 -139t-115 -48q-30 0 -64 7v109q4 0 7 -0.5t6 -0.5q45 0 58.5 29t13.5 80v484zM51 641q0 29 21.5 49.5t59.5 20.5t61.5 -20.5t23.5 -49.5t-23.5 -48.5t-61.5 -19.5t-59.5 19.5t-21.5 48.5z"/>
		<glyph unicode="k" horiz-adv-x="491" d="M222 207h-35v-207h-130v700h130v-413l30 14l114 199h143l-120 -190l-51 -38l55 -39l135 -233h-149z"/>
		<glyph unicode="l" horiz-adv-x="294" d="M191 168q0 -35 9 -51t29 -16q12 0 23.5 2t28.5 9l14 -102q-16 -8 -49 -16t-68 -8q-57 0 -87 26.5t-30 87.5v600h130v-532z"/>
		<glyph unicode="m" horiz-adv-x="805" d="M341 0v272q0 69 -13 98t-54 29q-34 0 -55 -18.5t-32 -47.5v-333h-130v500h101l15 -66h4q23 32 58.5 56t91.5 24q48 0 78.5 -19.5t47.5 -65.5q23 39 59 62t87 23q42 0 71.5 -10t48 -34.5t27.5 -65.5t9 -104v-300h-130v281q0 59 -12.5 88.5t-55.5 29.5q-35 0 -55.5 -19 t-30.5 -52v-328h-130z"/>
		<glyph unicode="n" horiz-adv-x="545" d="M363 0v284q0 61 -17.5 88t-59.5 27q-37 0 -62.5 -21.5t-36.5 -53.5v-324h-130v500h103l15 -66h4q23 32 61 56t98 24q37 0 66 -10t49 -33t30 -62.5t10 -97.5v-311h-130z"/>
		<glyph unicode="o" horiz-adv-x="537" d="M33 250q0 127 62 195.5t174 68.5q60 0 104 -19t73 -53.5t43.5 -83.5t14.5 -108q0 -127 -61.5 -195.5t-173.5 -68.5q-60 0 -104 19t-73.5 53.5t-44 83.5t-14.5 108zM167 250q0 -33 6 -61t18 -49t31.5 -32.5t46.5 -11.5q51 0 76 37t25 117q0 69 -23 111.5t-78 42.5 q-48 0 -75 -36t-27 -118z"/>
		<glyph unicode="p" horiz-adv-x="540" d="M57 500h95l15 -60h4q26 38 61.5 56t86.5 18q94 0 141 -59.5t47 -191.5q0 -64 -15 -115.5t-44.5 -87.5t-72 -55t-97.5 -19q-31 0 -51 4.5t-40 14.5v-205h-130v700zM280 404q-38 0 -59.5 -19t-33.5 -57v-208q14 -11 30.5 -17.5t43.5 -6.5q56 0 84 39.5t28 130.5 q0 66 -22 102t-71 36z"/>
		<glyph unicode="q" horiz-adv-x="536" d="M480 -200h-130v243h-4q-17 -26 -46 -41.5t-75 -15.5q-93 0 -142.5 63t-49.5 191q0 134 67.5 203t193.5 69q27 0 54 -2.5t51.5 -7t45.5 -10t35 -10.5v-682zM260 96q38 0 58.5 17t31.5 51v225q-15 8 -34 10.5t-43 2.5q-53 0 -79.5 -40t-26.5 -117q0 -73 24 -111t69 -38z "/>
		<glyph unicode="r" horiz-adv-x="351" d="M333 378q-31 11 -56 11q-35 0 -58.5 -18.5t-31.5 -47.5v-323h-130v500h101l15 -66h4q17 37 46 57t68 20q26 0 59 -11z"/>
		<glyph unicode="s" horiz-adv-x="422" d="M264 138q0 20 -17 32t-42 22t-55 20.5t-55 29t-42 47t-17 73.5q0 74 44 113t127 39q57 0 103 -12t72 -27l-29 -94q-23 9 -58 19t-71 10q-58 0 -58 -45q0 -18 17 -29t42 -20l55 -21q30 -11 55 -28.5t42 -45.5t17 -72q0 -76 -48.5 -119.5t-145.5 -43.5q-53 0 -99.5 13.5 t-75.5 31.5l36 97q23 -13 61 -25.5t78 -12.5q29 0 46.5 11t17.5 37z"/>
		<glyph unicode="t" horiz-adv-x="349" d="M5 500h69v94l130 37v-131h122v-110h-122v-192q0 -52 10.5 -74.5t39.5 -22.5q20 0 34.5 4t32.5 12l23 -100q-27 -13 -63 -22t-73 -9q-69 0 -101.5 35.5t-32.5 116.5v252h-69v110z"/>
		<glyph unicode="u" horiz-adv-x="538" d="M182 500v-284q0 -61 14.5 -88t56.5 -27q37 0 61.5 22t36.5 54v323h130v-348q0 -41 4 -80.5t12 -71.5h-98l-23 74h-4q-23 -38 -64 -63t-97 -25q-38 0 -68 10t-50 33t-30.5 62t-10.5 98v311h130z"/>
		<glyph unicode="v" horiz-adv-x="477" d="M230 238l17 -77h5l14 79l85 260h140l-209 -505h-79l-217 505h151z"/>
		<glyph unicode="w" horiz-adv-x="721" d="M419 500l91 -256l18 -83h4l14 84l64 255h119l-154 -505h-96l-101 280l-13 63h-5l-12 -64l-96 -279h-99l-161 505h141l73 -251l12 -89h5l17 90l83 250h96z"/>
		<glyph unicode="x" horiz-adv-x="525" d="M170 256l-150 244h155l65 -107l28 -70l30 70l68 107h141l-151 -240l161 -260h-151l-77 120l-30 74l-32 -74l-77 -120h-142z"/>
		<glyph unicode="y" horiz-adv-x="478" d="M239 219l18 -78h6l13 79l76 280h134l-152 -451q-19 -56 -36.5 -102.5t-38.5 -80.5t-46.5 -52.5t-60.5 -18.5q-52 0 -83 17l24 104q15 -6 30 -6q23 0 44.5 19.5t32.5 70.5l-209 500h156z"/>
		<glyph unicode="z" horiz-adv-x="458" d="M31 110l197 237l51 43h-248v110h392v-110l-195 -241l-50 -39h245v-110h-392v110z"/>
		<glyph unicode="{" horiz-adv-x="371" d="M123 96q0 51 -21 70t-59 19v100q38 0 59 20.5t21 64.5v209q0 54 25.5 88t81.5 34h120v-110h-50q-27 0 -39.5 -14t-12.5 -46v-195q0 -44 -21 -66.5t-49 -27.5v-10q27 -4 48.5 -30t21.5 -68v-194q0 -32 12 -46t41 -14h49v-110h-120q-52 0 -79.5 31.5t-27.5 89.5v205z"/>
		<glyph unicode="|" horiz-adv-x="227" d="M60 700h107v-830h-107v830z"/>
		<glyph unicode="}" horiz-adv-x="371" d="M261 375q0 -51 21 -70t59 -19v-100q-38 0 -59 -20.5t-21 -64.5v-209q0 -54 -26.5 -88t-82.5 -34h-117v110h50q27 0 39.5 13.5t12.5 46.5v195q0 44 21 66.5t49 27.5v10q-27 4 -48.5 30t-21.5 68v194q0 31 -12 45.5t-41 14.5h-49v110h119q53 0 80 -31.5t27 -89.5v-205z"/>
		<glyph unicode="~" horiz-adv-x="527" d="M28 378q47 38 84.5 52.5t69.5 14.5q29 0 54 -8.5t48 -18.5l46 -18q22 -8 45 -8q18 0 37 6t40 23l47 -103q-36 -27 -66 -38t-56 -11q-28 0 -52 9t-46.5 20t-45.5 20t-49 9q-24 0 -51.5 -10.5t-60.5 -38.5z"/>
		<glyph unicode="&#xa1;" horiz-adv-x="293" d="M191 -200h-134v329l26 162h82l26 -162v-329zM44 435q0 35 22 55.5t58 20.5q38 0 60 -20.5t22 -55.5t-22 -56t-60 -21q-36 0 -58 21t-22 56z"/>
		<glyph unicode="&#xa2;" d="M489 31q-17 -13 -42.5 -22.5t-54.5 -14.5v-94h-121v89q-51 7 -86.5 28.5t-58 55t-32.5 78.5t-10 99q0 112 48 178.5t139 81.5v90h121v-90q28 -4 50 -10.5t40 -15.5l-30 -106q-15 7 -32 11t-35 6v-291q23 3 41.5 10t32.5 15zM212 250q0 -51 19 -89.5t64 -52.5v286 q-42 -11 -62.5 -45.5t-20.5 -98.5z"/>
		<glyph unicode="&#xa3;" d="M51 394h68q-13 24 -22.5 54t-9.5 72q0 49 16.5 85.5t46 60.5t70.5 36t90 12q61 0 111 -11.5t86 -28.5l-42 -116q-20 11 -55 22.5t-84 11.5q-48 0 -75 -22.5t-27 -67.5q0 -34 12.5 -58.5t27.5 -49.5h141v-107h-98q3 -17 3 -34q0 -30 -10 -63t-31 -54l-43 -31v-5l67 15h230 v-115h-472v115h2q31 1 54.5 11t39 26.5t23.5 38.5t8 46q0 27 -6 50h-121v107z"/>
		<glyph unicode="&#xa4;" d="M81 622l78 -77l19 -37q20 15 47.5 22.5t57.5 7.5q29 0 57.5 -7.5t47.5 -21.5l20 36l78 77l77 -80l-77 -78l-37 -16q14 -21 20 -47.5t6 -55.5q0 -30 -6.5 -56.5t-19.5 -44.5l37 -16l77 -78l-77 -80l-78 77l-18 37q-19 -14 -48.5 -22t-58.5 -8q-30 0 -57.5 7.5t-47.5 21.5 l-19 -36l-78 -77l-76 80l77 78l36 17q-12 21 -19 45.5t-7 54.5q0 29 7.5 54t20.5 48l-38 17l-77 78zM201 346q0 -38 23 -62t60 -24t59.5 24t22.5 62q0 36 -22.5 61t-59.5 25t-60 -25t-23 -61z"/>
		<glyph unicode="&#xa5;" d="M84 337h91l-189 363h163l128 -263l14 -74h5l15 76l124 261h147l-190 -363h90v-80h-129v-57h129v-80h-129v-120h-137v120h-132v80h132v57h-132v80z"/>
		<glyph unicode="&#xa6;" horiz-adv-x="227" d="M60 213h106v-343h-106v343zM166 357h-106v343h106v-343z"/>
		<glyph unicode="&#xa7;" horiz-adv-x="530" d="M49 353q0 31 15 60.5t41 52.5l41 14q-26 16 -43 40.5t-17 65.5q0 56 43.5 92t131.5 36q59 0 110 -10t78 -23l-32 -105q-23 11 -61 19.5t-73 8.5q-37 0 -52 -11t-15 -28q0 -18 19.5 -28t48.5 -18l64 -18q35 -10 64.5 -28t49 -48t19.5 -78q0 -31 -14.5 -60t-40.5 -52 l-45 -14q27 -16 45 -41t18 -66q0 -63 -49 -95.5t-130 -32.5q-68 0 -113.5 13.5t-74.5 29.5l34 100q23 -11 56 -22t77 -11q37 0 53.5 9.5t16.5 30.5q0 19 -19.5 29.5t-48.5 18.5l-64 19q-35 10 -64.5 27.5t-49 46.5t-19.5 76zM351 345q0 18 -8.5 30t-24.5 21.5t-39 17.5 t-52 17q-20 -12 -34 -31.5t-14 -44.5q0 -35 32 -52t88 -33q22 12 37 32t15 43z"/>
		<glyph unicode="&#xa8;" horiz-adv-x="479" d="M60 651q0 32 19.5 51t51.5 19t50.5 -19t18.5 -51q0 -30 -18.5 -49t-50.5 -19t-51.5 19t-19.5 49zM279 651q0 32 18.5 51t50.5 19t51.5 -19t19.5 -51q0 -30 -19.5 -49t-51.5 -19t-50.5 19t-18.5 49z"/>
		<glyph unicode="&#xa9;" horiz-adv-x="833" d="M55 290q0 83 28 149.5t76.5 113.5t114.5 72.5t142 25.5t141.5 -25.5t114.5 -72.5t77 -113.5t28 -149.5t-28 -149.5t-77 -113.5t-114.5 -72.5t-141.5 -25.5q-83 0 -150 25.5t-114 72.5t-72 113.5t-25 149.5zM153 290q0 -62 19.5 -112t55 -84.5t83.5 -53t105 -18.5 t105.5 18.5t84 53t55 84.5t19.5 112t-19.5 112t-55 84.5t-84 53t-105.5 18.5t-105 -18.5t-83.5 -53t-55 -84.5t-19.5 -112zM541 131q-22 -14 -55.5 -22.5t-71.5 -8.5q-81 0 -123.5 51t-42.5 139q0 91 45.5 140.5t120.5 49.5q37 0 65.5 -8.5t54.5 -23.5l-32 -87 q-18 9 -32.5 12t-28.5 3q-29 0 -46 -19t-17 -67q0 -86 70 -86q19 0 34 3.5t30 11.5z"/>
		<glyph unicode="&#xaa;" horiz-adv-x="420" d="M61 674q26 14 73.5 24t106.5 10q76 0 104 -27.5t28 -84.5q0 -60 -3 -116q-1 -12 -1 -23q0 -42 9 -77h-101l-13 46h-4q-13 -17 -37 -33.5t-67 -16.5q-52 0 -83 27.5t-31 71.5q0 33 17.5 55t47 35t69.5 17q27 4 56 4q13 0 27 -1v9q0 19 -7 28q-9 12 -44 12q-40 0 -72.5 -8 t-52.5 -16zM194 454q32 0 45 11.5t20 23.5v35q-18 2 -33 2q-22 0 -40 -4q-29 -7 -29 -34q0 -16 10.5 -25t26.5 -9z"/>
		<glyph unicode="&#xab;" horiz-adv-x="488" d="M223 261l154 216l71 -56l-81 -122l-46 -39l46 -35l87 -121l-71 -56zM29 259l160 230l79 -62l-87 -126l-48 -41l48 -36l93 -124l-79 -62z"/>
		<glyph unicode="&#xac;" horiz-adv-x="527" d="M45 412h442v-226h-120v114h-322v112z"/>
		<glyph unicode="&#xad;" horiz-adv-x="360" d="M54 345h251v-115h-251v115z"/>
		<glyph unicode="&#xae;" horiz-adv-x="690" d="M62 451q0 67 22.5 119.5t61.5 88.5t90.5 55t108.5 19q59 0 110.5 -19t89.5 -55t60 -88.5t22 -119.5q0 -68 -22.5 -120.5t-61 -88.5t-90 -54.5t-108.5 -18.5q-59 0 -110.5 18.5t-90 54.5t-60.5 88.5t-22 120.5zM156 451q0 -48 15.5 -84.5t41.5 -60.5t60 -36t72 -12 q40 0 74.5 11.5t59.5 35.5t39.5 60.5t14.5 85.5q0 48 -15 84t-40.5 60t-60 36t-72.5 12q-42 0 -77 -13t-60 -38t-38.5 -60.5t-13.5 -80.5zM242 581q16 5 45 7.5t55 2.5q42 0 72 -17.5t30 -60.5q0 -32 -20.5 -49t-50.5 -19l28 -14l65 -109h-61l-63 104l-48 15v-119h-52v259z M331 546q-11 0 -21 -0.5t-16 -3.5v-71h34q29 0 45 9t16 31q0 35 -58 35z"/>
		<glyph unicode="&#xaf;" horiz-adv-x="443" d="M60 658h323v-92h-323v92z"/>
		<glyph unicode="&#xb0;" horiz-adv-x="437" d="M60 548q0 37 13 67.5t35.5 52.5t52 34t63.5 12t64.5 -11t53.5 -32.5t36 -52.5t13 -70t-13 -69.5t-36 -51.5t-53.5 -32t-64.5 -11t-63.5 11t-52 32t-35.5 51.5t-13 69.5zM160 548q0 -32 19 -50.5t46 -18.5t47 18.5t20 50.5t-20 51.5t-47 19.5t-46 -19.5t-19 -51.5z"/>
		<glyph unicode="&#xb1;" horiz-adv-x="527" d="M43 517h162v165h117v-165h163v-111h-163v-107h-117v107h-162v111zM43 253h442v-112h-442v112z"/>
		<glyph unicode="&#xb2;" horiz-adv-x="412" d="M348 680q0 -59 -30 -101t-72 -80l-47 -25v-4l59 11h106v-101h-313v71l58 42q32 24 59.5 51.5t46 56.5t18.5 55q0 49 -56 49q-27 0 -51 -8.5t-42 -19.5l-34 90q35 21 74.5 30.5t75.5 9.5q71 0 109.5 -32.5t38.5 -94.5z"/>
		<glyph unicode="&#xb3;" horiz-adv-x="412" d="M168 468q45 0 63.5 14t19.5 37q-1 23 -20 36t-70 13h-43v38l73 80l43 25l-58 -6h-115v95h284v-62l-88 -92l-34 -18v-5l30 3q53 -2 82.5 -31.5t30.5 -83.5q-1 -36 -15.5 -62t-39 -43t-57.5 -25t-69 -8q-38 0 -71.5 6.5t-57.5 17.5l23 90q41 -19 89 -19z"/>
		<glyph unicode="&#xb4;" horiz-adv-x="305" d="M113 720h132v-30l-111 -124h-74z"/>
		<glyph unicode="&#xb5;" horiz-adv-x="569" d="M182 500v-273q0 -64 20.5 -96.5t71.5 -32.5q46 0 74 23t40 64v315h130v-337q0 -41 2.5 -82.5t12.5 -80.5h-96l-32 74h-4q-17 -35 -50 -60.5t-86 -25.5q-39 0 -60 14t-39 36h-5l21 -105v-133h-130v700h130z"/>
		<glyph unicode="&#x3bc;" horiz-adv-x="569" d="M182 500v-273q0 -64 20.5 -96.5t71.5 -32.5q46 0 74 23t40 64v315h130v-337q0 -41 2.5 -82.5t12.5 -80.5h-96l-32 74h-4q-17 -35 -50 -60.5t-86 -25.5q-39 0 -60 14t-39 36h-5l21 -105v-133h-130v700h130z"/>
		<glyph unicode="&#xb6;" horiz-adv-x="529" d="M362 700h107v-830h-107v830zM178 294q-33 0 -61 16.5t-48.5 45t-31.5 65t-11 77.5q0 40 13 76.5t37 64.5t58 44.5t76 16.5h74v-830h-106v424z"/>
		<glyph unicode="&#xb7;" horiz-adv-x="253" d="M45 316q0 35 22 55.5t58 20.5q38 0 60 -20.5t22 -55.5t-22 -56t-60 -21q-36 0 -58 21t-22 56z"/>
		<glyph unicode="&#xb8;" horiz-adv-x="332" d="M184 -43q41 -4 64.5 -21.5t23.5 -53.5q0 -29 -18 -48.5t-47.5 -30.5t-68.5 -13h-15q-31 0 -63 6l8 57q26 -4 44 -4q13 0 21 2q20 5 20 22q0 28 -86 32l57 95h84z"/>
		<glyph unicode="&#xb9;" horiz-adv-x="412" d="M72 480h98v164l10 46l-31 -32l-59 -39l-49 77l158 111h86v-327h87v-100h-300v100z"/>
		<glyph unicode="&#xba;" horiz-adv-x="419" d="M34 542q0 45 13 77t36 53t55.5 30.5t70.5 9.5t70 -9t55.5 -29t36.5 -52.5t14 -79.5q-1 -47 -14 -79.5t-36.5 -52.5t-55.5 -29t-70 -9t-70.5 9t-55.5 29t-36 52.5t-13 79.5zM150 542q0 -86 59 -86q31 0 44.5 18.5t14.5 67.5q-1 48 -14.5 67t-44.5 19t-45 -19t-14 -67z"/>
		<glyph unicode="&#xbb;" horiz-adv-x="488" d="M264 266l-153 -216l-72 56l82 122l45 39l-45 35l-87 121l70 56zM459 268l-160 -230l-79 62l87 126l48 41l-48 36l-93 124l79 62z"/>
		<glyph unicode="&#xbc;" horiz-adv-x="880" d="M609 715l85 -50l-430 -679l-86 53zM833 78h-75v-78h-102v78h-207v67l218 283h91v-261h75v-89zM656 253l6 53h-5l-22 -49l-48 -66l-36 -32l52 8h53v86zM165 544l11 46l-31 -32l-59 -39l-49 77l158 111h85v-427h-115v264z"/>
		<glyph unicode="&#xbd;" horiz-adv-x="903" d="M609 715l85 -50l-430 -679l-86 53zM841 300q0 -59 -30 -101t-72 -80l-47 -25v-4l59 11h106v-101h-313v71l58 42q32 24 59.5 51.5t46 56.5t18.5 55q0 49 -56 49q-27 0 -51 -8.5t-42 -19.5l-34 90q35 21 74.5 30.5t75.5 9.5q71 0 109.5 -32.5t38.5 -94.5zM165 544l11 46 l-31 -32l-59 -39l-49 77l158 111h85v-427h-115v264z"/>
		<glyph unicode="&#xbe;" horiz-adv-x="905" d="M634 715l85 -50l-430 -679l-86 53zM858 78h-75v-78h-102v78h-207v67l218 283h91v-261h75v-89zM681 253l6 53h-5l-22 -49l-48 -66l-36 -32l52 8h53v86zM160 368q45 0 63.5 14t19.5 37q-1 23 -20 36t-70 13h-43v38l73 80l43 25l-58 -6h-115v95h284v-62l-88 -92l-34 -18v-5 l30 3q53 -2 82.5 -31.5t30.5 -83.5q-1 -36 -15.5 -62t-39 -43t-57.5 -25t-69 -8q-38 0 -71.5 6.5t-57.5 17.5l23 90q41 -19 89 -19z"/>
		<glyph unicode="&#xbf;" horiz-adv-x="454" d="M317 293q2 -18 2 -34q0 -31 -7 -55q-9 -36 -27 -62.5t-40 -45.5l-41 -37q-20 -18 -33.5 -37.5t-13.5 -46.5q0 -35 20 -56.5t70 -21.5q16 0 34 3.5t36 10t34.5 15t29.5 18.5l49 -96q-38 -26 -87 -43t-119 -17q-94 0 -147.5 45t-53.5 123q0 51 13.5 84t34 56.5t44 41.5 t44 38.5t34 47.5t13.5 69h111zM178 435q0 35 22 55.5t58 20.5q38 0 60 -20.5t22 -55.5t-22 -56t-60 -21q-36 0 -58 21t-22 56z"/>
		<glyph unicode="&#xc0;" horiz-adv-x="605" d="M405 155h-215l-53 -155h-137l252 705h101l252 -705h-144zM225 265h150l-52 156l-21 110h-5l-21 -111zM399 752h-105l-158 88v30h159z"/>
		<glyph unicode="&#xc1;" horiz-adv-x="605" d="M405 155h-215l-53 -155h-137l252 705h101l252 -705h-144zM225 265h150l-52 156l-21 110h-5l-21 -111zM309 870h159v-30l-160 -88h-103z"/>
		<glyph unicode="&#xc2;" horiz-adv-x="605" d="M405 155h-215l-53 -155h-137l252 705h101l252 -705h-144zM225 265h150l-52 156l-21 110h-5l-21 -111zM257 870h96l127 -93v-39h-99l-57 41l-20 34l-21 -33l-62 -42h-97v40z"/>
		<glyph unicode="&#xc3;" horiz-adv-x="605" d="M405 155h-215l-53 -155h-137l252 705h101l252 -705h-144zM225 265h150l-52 156l-21 110h-5l-21 -111zM113 800q32 35 61.5 48t58.5 13q22 0 44 -5.5t42.5 -12t40.5 -12t38 -5.5q16 0 31 5t29 19l25 -67q-28 -26 -54.5 -36.5t-51.5 -10.5q-23 0 -44 5.5t-41.5 12.5 t-40.5 12.5t-39 5.5t-37.5 -7.5t-37.5 -27.5z"/>
		<glyph unicode="&#xc4;" horiz-adv-x="605" d="M405 155h-215l-53 -155h-137l252 705h101l252 -705h-144zM225 265h150l-52 156l-21 110h-5l-21 -111zM124 798q0 26 18 42t58 16q39 0 57 -16t18 -42t-18 -41.5t-57 -15.5q-40 0 -58 15.5t-18 41.5zM338 798q0 26 18 42t57 16q40 0 58 -16t18 -42t-18 -41.5t-58 -15.5 q-39 0 -57 15.5t-18 41.5z"/>
		<glyph unicode="&#xc5;" horiz-adv-x="605" d="M175 771q0 18 6 34.5t20.5 29t39 19.5t62.5 7q70 0 99 -24t29 -66q0 -29 -16 -50.5t-57 -31.5l247 -689h-144l-56 155h-215l-53 -155h-137l246 689q-39 9 -55 31t-16 51zM225 265h150l-52 156l-21 110h-5l-21 -111zM259 771q0 -31 44 -31q25 0 35 8t10 23q0 17 -10.5 25 t-34.5 8q-44 0 -44 -33z"/>
		<glyph unicode="&#xc6;" horiz-adv-x="862" d="M394 532l-36 -103l-84 -148h126v251h-6zM400 170h-186l-99 -170h-144l424 700h419v-122h-277v-163h252v-122h-252v-171h282v-122h-419v170z"/>
		<glyph unicode="&#xc7;" horiz-adv-x="559" d="M534 29q-26 -19 -65.5 -29t-83.5 -13l-16 -30q41 -4 64.5 -21.5t23.5 -53.5q0 -23 -11.5 -40t-31.5 -28.5t-47 -17.5t-58 -6t-64 6l9 48q7 -1 13 -1h11q38 0 49 9t11 21q0 28 -86 32l50 84q-55 7 -103 30.5t-84 67.5t-56.5 109t-20.5 154q0 103 28.5 172.5t74 112 t101.5 61t112 18.5q60 0 101.5 -8t68.5 -19l-27 -116q-23 11 -54.5 16t-76.5 5q-83 0 -133.5 -59t-50.5 -183q0 -54 12 -98.5t36.5 -76t61 -49t84.5 -17.5q45 0 76 9t54 23z"/>
		<glyph unicode="&#xc8;" horiz-adv-x="522" d="M60 700h415v-122h-278v-163h253v-122h-253v-171h283v-122h-420v700zM352 752h-105l-158 88v30h159z"/>
		<glyph unicode="&#xc9;" horiz-adv-x="522" d="M60 700h415v-122h-278v-163h253v-122h-253v-171h283v-122h-420v700zM293 870h159v-30l-160 -88h-103z"/>
		<glyph unicode="&#xca;" horiz-adv-x="522" d="M60 700h415v-122h-278v-163h253v-122h-253v-171h283v-122h-420v700zM219 870h96l127 -93v-39h-99l-57 41l-20 34l-21 -33l-62 -42h-97v40z"/>
		<glyph unicode="&#xcb;" horiz-adv-x="522" d="M60 700h415v-122h-278v-163h253v-122h-253v-171h283v-122h-420v700zM84 798q0 26 18 42t58 16q39 0 57 -16t18 -42t-18 -41.5t-57 -15.5q-40 0 -58 15.5t-18 41.5zM298 798q0 26 18 42t57 16q40 0 58 -16t18 -42t-18 -41.5t-58 -15.5q-39 0 -57 15.5t-18 41.5z"/>
		<glyph unicode="&#xcc;" horiz-adv-x="285" d="M74 700h137v-700h-137v700zM241 752h-105l-158 88v30h159z"/>
		<glyph unicode="&#xcd;" horiz-adv-x="285" d="M74 700h137v-700h-137v700zM153 870h159v-30l-160 -88h-103z"/>
		<glyph unicode="&#xce;" horiz-adv-x="285" d="M74 700h137v-700h-137v700zM97 870h96l127 -93v-39h-99l-57 41l-20 34l-21 -33l-62 -42h-97v40z"/>
		<glyph unicode="&#xcf;" horiz-adv-x="285" d="M74 700h137v-700h-137v700zM-38 798q0 26 18 42t58 16q39 0 57 -16t18 -42t-18 -41.5t-57 -15.5q-40 0 -58 15.5t-18 41.5zM176 798q0 26 18 42t57 16q40 0 58 -16t18 -42t-18 -41.5t-58 -15.5q-39 0 -57 15.5t-18 41.5z"/>
		<glyph unicode="&#xd0;" horiz-adv-x="669" d="M-6 401h88v299q21 3 47.5 5t54.5 3t54.5 1.5t47.5 0.5q93 0 159 -26t107 -73t60 -112t19 -143q0 -71 -18 -137t-60 -117t-110.5 -82t-169.5 -31q-16 0 -42.5 1l-54.5 2l-55 4q-26 1 -39 3v322h-88v80zM297 588q-22 0 -44.5 -1t-33.5 -3v-183h140v-80h-140v-207 q4 -1 13.5 -1.5t20.5 -1t21 -0.5h15q58 0 96.5 20.5t61 54.5t31.5 78.5t9 91.5q0 41 -8 82.5t-29.5 74.5t-58.5 54t-94 21z"/>
		<glyph unicode="&#xd1;" horiz-adv-x="657" d="M234 365l-55 110h-5l16 -110v-365h-130v705h100l265 -373l53 -107h5l-16 107v368h130v-705h-100zM138 800q32 35 61.5 48t58.5 13q22 0 44 -5.5t42.5 -12t40.5 -12t38 -5.5q16 0 31 5t29 19l25 -67q-28 -26 -54.5 -36.5t-51.5 -10.5q-23 0 -44 5.5t-41.5 12.5t-40.5 12.5 t-39 5.5t-37.5 -7.5t-37.5 -27.5z"/>
		<glyph unicode="&#xd2;" horiz-adv-x="670" d="M38 350q0 175 77 269.5t220 94.5q75 0 131 -26t93 -74t55 -115t18 -149q0 -175 -77.5 -269.5t-219.5 -94.5q-76 0 -132 26t-92.5 74t-54.5 115t-18 149zM182 350q0 -53 9 -97.5t27.5 -76.5t47.5 -50t69 -18q73 0 113 57t40 185q0 51 -8.5 95t-26.5 77t-47 51.5t-71 18.5 q-73 0 -113 -58.5t-40 -183.5zM412 752h-105l-158 88v30h159z"/>
		<glyph unicode="&#xd3;" horiz-adv-x="670" d="M38 350q0 175 77 269.5t220 94.5q75 0 131 -26t93 -74t55 -115t18 -149q0 -175 -77.5 -269.5t-219.5 -94.5q-76 0 -132 26t-92.5 74t-54.5 115t-18 149zM182 350q0 -53 9 -97.5t27.5 -76.5t47.5 -50t69 -18q73 0 113 57t40 185q0 51 -8.5 95t-26.5 77t-47 51.5t-71 18.5 q-73 0 -113 -58.5t-40 -183.5zM368 870h159v-30l-160 -88h-103z"/>
		<glyph unicode="&#xd4;" horiz-adv-x="670" d="M38 350q0 175 77 269.5t220 94.5q75 0 131 -26t93 -74t55 -115t18 -149q0 -175 -77.5 -269.5t-219.5 -94.5q-76 0 -132 26t-92.5 74t-54.5 115t-18 149zM182 350q0 -53 9 -97.5t27.5 -76.5t47.5 -50t69 -18q73 0 113 57t40 185q0 51 -8.5 95t-26.5 77t-47 51.5t-71 18.5 q-73 0 -113 -58.5t-40 -183.5zM287 870h96l127 -93v-39h-99l-57 41l-20 34l-21 -33l-62 -42h-97v40z"/>
		<glyph unicode="&#xd5;" horiz-adv-x="670" d="M38 350q0 175 77 269.5t220 94.5q75 0 131 -26t93 -74t55 -115t18 -149q0 -175 -77.5 -269.5t-219.5 -94.5q-76 0 -132 26t-92.5 74t-54.5 115t-18 149zM182 350q0 -53 9 -97.5t27.5 -76.5t47.5 -50t69 -18q73 0 113 57t40 185q0 51 -8.5 95t-26.5 77t-47 51.5t-71 18.5 q-73 0 -113 -58.5t-40 -183.5zM144 800q32 35 61.5 48t58.5 13q22 0 44 -5.5t42.5 -12t40.5 -12t38 -5.5q16 0 31 5t29 19l25 -67q-28 -26 -54.5 -36.5t-51.5 -10.5q-23 0 -44 5.5t-41.5 12.5t-40.5 12.5t-39 5.5t-37.5 -7.5t-37.5 -27.5z"/>
		<glyph unicode="&#xd6;" horiz-adv-x="670" d="M38 350q0 175 77 269.5t220 94.5q75 0 131 -26t93 -74t55 -115t18 -149q0 -175 -77.5 -269.5t-219.5 -94.5q-76 0 -132 26t-92.5 74t-54.5 115t-18 149zM182 350q0 -53 9 -97.5t27.5 -76.5t47.5 -50t69 -18q73 0 113 57t40 185q0 51 -8.5 95t-26.5 77t-47 51.5t-71 18.5 q-73 0 -113 -58.5t-40 -183.5zM150 798q0 26 18 42t58 16q39 0 57 -16t18 -42t-18 -41.5t-57 -15.5q-40 0 -58 15.5t-18 41.5zM364 798q0 26 18 42t57 16q40 0 58 -16t18 -42t-18 -41.5t-58 -15.5q-39 0 -57 15.5t-18 41.5z"/>
		<glyph unicode="&#xd7;" horiz-adv-x="527" d="M134 547l131 -130l130 130l79 -81l-130 -127l130 -129l-79 -82l-130 131l-132 -132l-79 81l131 131l-129 127z"/>
		<glyph unicode="&#xd8;" horiz-adv-x="670" d="M111 86q-37 48 -55 114.5t-18 149.5q0 175 77 269.5t220 94.5q45 0 83 -10t69 -28l25 39l85 -50l-35 -56q35 -48 52.5 -113.5t17.5 -145.5q0 -175 -77.5 -269.5t-219.5 -94.5q-44 0 -80 8.5t-67 24.5l-21 -33l-86 53zM182 350q0 -36 4 -68t12 -59l219 342q-35 27 -82 27 q-73 0 -113 -58.5t-40 -183.5zM488 350q0 33 -3 63.5t-11 56.5l-215 -340q33 -22 76 -22q73 0 113 57t40 185z"/>
		<glyph unicode="&#xd9;" horiz-adv-x="627" d="M440 700h130v-452q0 -68 -18 -117t-50 -81t-78 -47t-101 -15q-266 0 -266 243v469h137v-442q0 -41 7.5 -69.5t23.5 -46t40 -25t56 -7.5q63 0 91 35t28 113v442zM395 752h-105l-158 88v30h159z"/>
		<glyph unicode="&#xda;" horiz-adv-x="627" d="M440 700h130v-452q0 -68 -18 -117t-50 -81t-78 -47t-101 -15q-266 0 -266 243v469h137v-442q0 -41 7.5 -69.5t23.5 -46t40 -25t56 -7.5q63 0 91 35t28 113v442zM365 870h159v-30l-160 -88h-103z"/>
		<glyph unicode="&#xdb;" horiz-adv-x="627" d="M440 700h130v-452q0 -68 -18 -117t-50 -81t-78 -47t-101 -15q-266 0 -266 243v469h137v-442q0 -41 7.5 -69.5t23.5 -46t40 -25t56 -7.5q63 0 91 35t28 113v442zM273 870h96l127 -93v-39h-99l-57 41l-20 34l-21 -33l-62 -42h-97v40z"/>
		<glyph unicode="&#xdc;" horiz-adv-x="627" d="M440 700h130v-452q0 -68 -18 -117t-50 -81t-78 -47t-101 -15q-266 0 -266 243v469h137v-442q0 -41 7.5 -69.5t23.5 -46t40 -25t56 -7.5q63 0 91 35t28 113v442zM133 798q0 26 18 42t58 16q39 0 57 -16t18 -42t-18 -41.5t-57 -15.5q-40 0 -58 15.5t-18 41.5zM347 798 q0 26 18 42t57 16q40 0 58 -16t18 -42t-18 -41.5t-58 -15.5q-39 0 -57 15.5t-18 41.5z"/>
		<glyph unicode="&#xdd;" horiz-adv-x="592" d="M228 260l-230 440h163l128 -263l14 -74h5l15 76l124 261h147l-229 -439v-261h-137v260zM326 870h159v-30l-160 -88h-103z"/>
		<glyph unicode="&#xde;" horiz-adv-x="572" d="M60 700h137v-72q14 1 28 1.5t28 0.5q52 0 104.5 -8.5t94.5 -34t68.5 -71t26.5 -118.5q0 -66 -23 -111.5t-61 -74.5t-86.5 -42t-100.5 -13h-16q-11 0 -23 0.5t-23.5 1.5t-16.5 2v-161h-137v700zM264 512q-20 0 -38 -1.5t-29 -3.5v-227q4 -1 12 -2t17 -1.5t18 -0.5h12 q27 0 53.5 5t47.5 18.5t33.5 37.5t12.5 63q0 33 -12 54.5t-31.5 34.5t-44.5 18t-51 5z"/>
		<glyph unicode="&#xdf;" horiz-adv-x="630" d="M81 390h-69v110h69q0 58 16 97.5t44.5 64t68 35.5t86.5 11q51 0 91.5 -11.5t69 -32.5t44 -50.5t15.5 -65.5q0 -39 -17.5 -63t-38.5 -41l-40 -32q-17 -15 -17 -37q0 -18 14.5 -29t36.5 -20l48 -20q26 -11 48.5 -28t37 -43.5t14.5 -67.5q0 -35 -11 -67.5t-34.5 -58 t-59 -40.5t-83.5 -15q-47 0 -86.5 11.5t-67.5 28.5l35 97q23 -13 46 -23t62 -10q30 0 49.5 20.5t19.5 49.5q0 21 -14.5 34t-37 23.5t-48 20.5t-48 25.5t-37 38.5t-14.5 59q0 43 17.5 67t39.5 40l38 31q18 14 18 38q0 13 -7 24.5t-19 19.5t-27 13t-30 5q-48 0 -70.5 -23.5 t-22.5 -87.5v-488h-129v390z"/>
		<glyph unicode="&#xe0;" horiz-adv-x="496" d="M54 471q40 18 95 28.5t115 10.5q52 0 87 -12.5t55.5 -35.5t29 -55t8.5 -72q0 -44 -3 -88.5t-3 -87.5q-1 -6 -1 -12q0 -37 3 -71q3 -41 15 -77h-106l-21 69h-5q-20 -31 -55.5 -53.5t-91.5 -22.5q-35 0 -63 10.5t-48 30t-31 46t-11 59.5q0 46 20.5 77.5t59 51t91.5 27.5 q39 5 83 5q18 0 37 -1q2 18 2 32q0 32 -10 48q-15 25 -67 25q-39 0 -82.5 -8t-71.5 -21zM219 99q39 0 62 17.5t34 37.5v65q-19 2 -36 2q-12 0 -23 -1q-29 -2 -51 -9t-35 -20t-13 -33q0 -28 16.5 -43.5t45.5 -15.5zM311 566h-72l-124 124v30h136z"/>
		<glyph unicode="&#xe1;" horiz-adv-x="496" d="M54 471q40 18 95 28.5t115 10.5q52 0 87 -12.5t55.5 -35.5t29 -55t8.5 -72q0 -44 -3 -88.5t-3 -87.5q-1 -6 -1 -12q0 -37 3 -71q3 -41 15 -77h-106l-21 69h-5q-20 -31 -55.5 -53.5t-91.5 -22.5q-35 0 -63 10.5t-48 30t-31 46t-11 59.5q0 46 20.5 77.5t59 51t91.5 27.5 q39 5 83 5q18 0 37 -1q2 18 2 32q0 32 -10 48q-15 25 -67 25q-39 0 -82.5 -8t-71.5 -21zM219 99q39 0 62 17.5t34 37.5v65q-19 2 -36 2q-12 0 -23 -1q-29 -2 -51 -9t-35 -20t-13 -33q0 -28 16.5 -43.5t45.5 -15.5zM237 720h132v-30l-111 -124h-74z"/>
		<glyph unicode="&#xe2;" horiz-adv-x="496" d="M54 471q40 18 95 28.5t115 10.5q52 0 87 -12.5t55.5 -35.5t29 -55t8.5 -72q0 -44 -3 -88.5t-3 -87.5q-1 -6 -1 -12q0 -37 3 -71q3 -41 15 -77h-106l-21 69h-5q-20 -31 -55.5 -53.5t-91.5 -22.5q-35 0 -63 10.5t-48 30t-31 46t-11 59.5q0 46 20.5 77.5t59 51t91.5 27.5 q39 5 83 5q18 0 37 -1q2 18 2 32q0 32 -10 48q-15 25 -67 25q-39 0 -82.5 -8t-71.5 -21zM219 99q39 0 62 17.5t34 37.5v65q-19 2 -36 2q-12 0 -23 -1q-29 -2 -51 -9t-35 -20t-13 -33q0 -28 16.5 -43.5t45.5 -15.5zM216 732h86l111 -182h-103l-39 66l-17 49l-17 -49l-45 -66 h-99z"/>
		<glyph unicode="&#xe3;" horiz-adv-x="496" d="M54 471q40 18 95 28.5t115 10.5q52 0 87 -12.5t55.5 -35.5t29 -55t8.5 -72q0 -44 -3 -88.5t-3 -87.5q-1 -6 -1 -12q0 -37 3 -71q3 -41 15 -77h-106l-21 69h-5q-20 -31 -55.5 -53.5t-91.5 -22.5q-35 0 -63 10.5t-48 30t-31 46t-11 59.5q0 46 20.5 77.5t59 51t91.5 27.5 q39 5 83 5q18 0 37 -1q2 18 2 32q0 32 -10 48q-15 25 -67 25q-39 0 -82.5 -8t-71.5 -21zM219 99q39 0 62 17.5t34 37.5v65q-19 2 -36 2q-12 0 -23 -1q-29 -2 -51 -9t-35 -20t-13 -33q0 -28 16.5 -43.5t45.5 -15.5zM86 658q31 37 57.5 51t50.5 14q20 0 38.5 -7t36.5 -15 l35 -15q17 -7 35 -7q14 0 28.5 6t30.5 21l20 -70q-29 -32 -53.5 -44t-47.5 -12q-20 0 -39 6.5t-37 14.5t-36 14.5t-36 6.5q-15 0 -31 -6.5t-33 -22.5z"/>
		<glyph unicode="&#xe4;" horiz-adv-x="496" d="M54 471q40 18 95 28.5t115 10.5q52 0 87 -12.5t55.5 -35.5t29 -55t8.5 -72q0 -44 -3 -88.5t-3 -87.5q-1 -6 -1 -12q0 -37 3 -71q3 -41 15 -77h-106l-21 69h-5q-20 -31 -55.5 -53.5t-91.5 -22.5q-35 0 -63 10.5t-48 30t-31 46t-11 59.5q0 46 20.5 77.5t59 51t91.5 27.5 q39 5 83 5q18 0 37 -1q2 18 2 32q0 32 -10 48q-15 25 -67 25q-39 0 -82.5 -8t-71.5 -21zM219 99q39 0 62 17.5t34 37.5v65q-19 2 -36 2q-12 0 -23 -1q-29 -2 -51 -9t-35 -20t-13 -33q0 -28 16.5 -43.5t45.5 -15.5zM75 651q0 32 19.5 51t51.5 19t50.5 -19t18.5 -51 q0 -30 -18.5 -49t-50.5 -19t-51.5 19t-19.5 49zM294 651q0 32 18.5 51t50.5 19t51.5 -19t19.5 -51q0 -30 -19.5 -49t-51.5 -19t-50.5 19t-18.5 49z"/>
		<glyph unicode="&#xe5;" horiz-adv-x="496" d="M54 471q40 18 95 28.5t115 10.5q52 0 87 -12.5t55.5 -35.5t29 -55t8.5 -72q0 -44 -3 -88.5t-3 -87.5q-1 -6 -1 -12q0 -37 3 -71q3 -41 15 -77h-106l-21 69h-5q-20 -31 -55.5 -53.5t-91.5 -22.5q-35 0 -63 10.5t-48 30t-31 46t-11 59.5q0 46 20.5 77.5t59 51t91.5 27.5 q39 5 83 5q18 0 37 -1q2 18 2 32q0 32 -10 48q-15 25 -67 25q-39 0 -82.5 -8t-71.5 -21zM219 99q39 0 62 17.5t34 37.5v65q-19 2 -36 2q-12 0 -23 -1q-29 -2 -51 -9t-35 -20t-13 -33q0 -28 16.5 -43.5t45.5 -15.5zM144 647q0 42 28.5 69t82.5 27q51 0 81 -24.5t30 -71.5 q0 -39 -29.5 -66.5t-81.5 -27.5q-53 0 -82 25.5t-29 68.5zM216 647q0 -16 12 -24.5t27 -8.5q17 0 28 8t11 25t-11.5 25.5t-27.5 8.5q-15 0 -27 -8t-12 -26z"/>
		<glyph unicode="&#xe6;" horiz-adv-x="785" d="M219 99q39 0 62 17.5t34 37.5v65q-19 2 -36 2q-12 0 -23 -1q-29 -2 -51 -9t-35 -20t-13 -33q0 -28 16.5 -43.5t45.5 -15.5zM350 76q-27 -34 -66.5 -59t-107.5 -25q-35 0 -63 10.5t-48 30t-31 46t-11 59.5q0 46 20.5 77.5t58.5 51t92 27.5q38 5 82 5q18 0 37 -1q2 18 2 33 q0 31 -9 47q-15 25 -67 25q-39 0 -79.5 -10.5t-71.5 -25.5l-34 94q38 20 94 34.5t116 14.5q52 0 83 -13.5t51 -40.5q25 28 65 43t87 15q38 0 74 -10t64 -33t45 -62t17 -97q0 -21 -2.5 -44.5t-7.5 -50.5h-301q4 -63 33.5 -95t95.5 -32q41 0 73.5 12.5t49.5 25.5l43 -85 q-30 -24 -81.5 -40.5t-109.5 -16.5q-64 0 -112.5 23.5t-75.5 66.5h-5zM548 410q-51 0 -75.5 -30.5t-29.5 -81.5h187v14q0 44 -17 69q-20 29 -65 29z"/>
		<glyph unicode="&#xe7;" horiz-adv-x="433" d="M411 31q-23 -17 -52.5 -27t-62.5 -15l-18 -32q41 -4 64.5 -21.5t23.5 -53.5q0 -23 -11.5 -40t-31.5 -28.5t-47 -17.5t-58 -6t-64 6l9 48q7 -1 13 -1h11q38 0 49 9t11 21q0 28 -86 32l50 84q-49 6 -83 27.5t-55 55t-30.5 79t-9.5 99.5q0 127 57 195.5t166 68.5 q55 0 88.5 -9t60.5 -23l-31 -106q-23 11 -45.5 17t-51.5 6q-54 0 -82 -35.5t-28 -113.5q0 -32 7 -59t21 -47t36.5 -31.5t52.5 -11.5q33 0 56 8.5t41 20.5z"/>
		<glyph unicode="&#xe8;" horiz-adv-x="508" d="M457 43q-30 -24 -81.5 -40.5t-109.5 -16.5q-121 0 -177 70.5t-56 193.5q0 132 63 198t177 66q38 0 74 -10t64 -33t45 -62t17 -97q0 -21 -2.5 -45t-7.5 -50h-300q3 -63 32.5 -95t95.5 -32q41 0 73.5 12.5t49.5 25.5zM271 410q-51 0 -75.5 -30.5t-29.5 -81.5h186q1 9 1 17 q0 42 -17 66q-21 29 -65 29zM329 566h-72l-124 124v30h136z"/>
		<glyph unicode="&#xe9;" horiz-adv-x="508" d="M457 43q-30 -24 -81.5 -40.5t-109.5 -16.5q-121 0 -177 70.5t-56 193.5q0 132 63 198t177 66q38 0 74 -10t64 -33t45 -62t17 -97q0 -21 -2.5 -45t-7.5 -50h-300q3 -63 32.5 -95t95.5 -32q41 0 73.5 12.5t49.5 25.5zM271 410q-51 0 -75.5 -30.5t-29.5 -81.5h186q1 9 1 17 q0 42 -17 66q-21 29 -65 29zM274 720h132v-30l-111 -124h-74z"/>
		<glyph unicode="&#xea;" horiz-adv-x="508" d="M457 43q-30 -24 -81.5 -40.5t-109.5 -16.5q-121 0 -177 70.5t-56 193.5q0 132 63 198t177 66q38 0 74 -10t64 -33t45 -62t17 -97q0 -21 -2.5 -45t-7.5 -50h-300q3 -63 32.5 -95t95.5 -32q41 0 73.5 12.5t49.5 25.5zM271 410q-51 0 -75.5 -30.5t-29.5 -81.5h186q1 9 1 17 q0 42 -17 66q-21 29 -65 29zM221 732h86l111 -182h-103l-39 66l-17 49l-17 -49l-45 -66h-99z"/>
		<glyph unicode="&#xeb;" horiz-adv-x="508" d="M457 43q-30 -24 -81.5 -40.5t-109.5 -16.5q-121 0 -177 70.5t-56 193.5q0 132 63 198t177 66q38 0 74 -10t64 -33t45 -62t17 -97q0 -21 -2.5 -45t-7.5 -50h-300q3 -63 32.5 -95t95.5 -32q41 0 73.5 12.5t49.5 25.5zM271 410q-51 0 -75.5 -30.5t-29.5 -81.5h186q1 9 1 17 q0 42 -17 66q-21 29 -65 29zM82 651q0 32 19.5 51t51.5 19t50.5 -19t18.5 -51q0 -30 -18.5 -49t-50.5 -19t-51.5 19t-19.5 49zM301 651q0 32 18.5 51t50.5 19t51.5 -19t19.5 -51q0 -30 -19.5 -49t-51.5 -19t-50.5 19t-18.5 49z"/>
		<glyph unicode="&#xec;" horiz-adv-x="269" d="M70 500h130v-500h-130v500zM194 566h-72l-124 124v30h136z"/>
		<glyph unicode="&#xed;" horiz-adv-x="269" d="M70 500h130v-500h-130v500zM124 720h132v-30l-111 -124h-74z"/>
		<glyph unicode="&#xee;" horiz-adv-x="269" d="M70 500h130v-500h-130v500zM93 732h86l111 -182h-103l-39 66l-17 49l-17 -49l-45 -66h-99z"/>
		<glyph unicode="&#xef;" horiz-adv-x="269" d="M70 500h130v-500h-130v500zM-45 651q0 32 19.5 51t51.5 19t50.5 -19t18.5 -51q0 -30 -18.5 -49t-50.5 -19t-51.5 19t-19.5 49zM174 651q0 32 18.5 51t50.5 19t51.5 -19t19.5 -51q0 -30 -19.5 -49t-51.5 -19t-50.5 19t-18.5 49z"/>
		<glyph unicode="&#xf0;" horiz-adv-x="563" d="M163 243q0 -72 33 -109t88 -37q52 0 85 44.5t33 138.5q0 13 -1.5 34t-5.5 33q-16 23 -48 32.5t-62 9.5q-60 0 -91 -41.5t-31 -104.5zM197 584l44 30q-34 15 -69 21l52 80q25 -7 57 -20q23 -9 47 -22l53 36l42 -55l-33 -23q12 -9 23 -20q32 -30 57 -73.5t40.5 -101.5 t15.5 -134q0 -81 -18.5 -140.5t-51.5 -98.5t-79 -58t-101 -19q-59 0 -104 19t-75 53.5t-45 82t-15 104.5q0 54 17 100t47.5 80.5t73.5 54t94 19.5q38 0 70.5 -10.5t52.5 -30.5q-12 36 -34 66q-22 29 -50 51l-68 -46z"/>
		<glyph unicode="&#xf1;" horiz-adv-x="545" d="M363 0v284q0 61 -17.5 88t-59.5 27q-37 0 -62.5 -21.5t-36.5 -53.5v-324h-130v500h103l15 -66h4q23 32 61 56t98 24q37 0 66 -10t49 -33t30 -62.5t10 -97.5v-311h-130zM107 658q31 37 57.5 51t50.5 14q20 0 38.5 -7t36.5 -15l35 -15q17 -7 35 -7q14 0 28.5 6t30.5 21 l20 -70q-29 -32 -53.5 -44t-47.5 -12q-20 0 -39 6.5t-37 14.5t-36 14.5t-36 6.5q-15 0 -31 -6.5t-33 -22.5z"/>
		<glyph unicode="&#xf2;" horiz-adv-x="537" d="M33 250q0 127 62 195.5t174 68.5q60 0 104 -19t73 -53.5t43.5 -83.5t14.5 -108q0 -127 -61.5 -195.5t-173.5 -68.5q-60 0 -104 19t-73.5 53.5t-44 83.5t-14.5 108zM167 250q0 -33 6 -61t18 -49t31.5 -32.5t46.5 -11.5q51 0 76 37t25 117q0 69 -23 111.5t-78 42.5 q-48 0 -75 -36t-27 -118zM331 566h-72l-124 124v30h136z"/>
		<glyph unicode="&#xf3;" horiz-adv-x="537" d="M33 250q0 127 62 195.5t174 68.5q60 0 104 -19t73 -53.5t43.5 -83.5t14.5 -108q0 -127 -61.5 -195.5t-173.5 -68.5q-60 0 -104 19t-73.5 53.5t-44 83.5t-14.5 108zM167 250q0 -33 6 -61t18 -49t31.5 -32.5t46.5 -11.5q51 0 76 37t25 117q0 69 -23 111.5t-78 42.5 q-48 0 -75 -36t-27 -118zM275 720h132v-30l-111 -124h-74z"/>
		<glyph unicode="&#xf4;" horiz-adv-x="537" d="M33 250q0 127 62 195.5t174 68.5q60 0 104 -19t73 -53.5t43.5 -83.5t14.5 -108q0 -127 -61.5 -195.5t-173.5 -68.5q-60 0 -104 19t-73.5 53.5t-44 83.5t-14.5 108zM167 250q0 -33 6 -61t18 -49t31.5 -32.5t46.5 -11.5q51 0 76 37t25 117q0 69 -23 111.5t-78 42.5 q-48 0 -75 -36t-27 -118zM231 732h86l111 -182h-103l-39 66l-17 49l-17 -49l-45 -66h-99z"/>
		<glyph unicode="&#xf5;" horiz-adv-x="537" d="M33 250q0 127 62 195.5t174 68.5q60 0 104 -19t73 -53.5t43.5 -83.5t14.5 -108q0 -127 -61.5 -195.5t-173.5 -68.5q-60 0 -104 19t-73.5 53.5t-44 83.5t-14.5 108zM167 250q0 -33 6 -61t18 -49t31.5 -32.5t46.5 -11.5q51 0 76 37t25 117q0 69 -23 111.5t-78 42.5 q-48 0 -75 -36t-27 -118zM104 658q31 37 57.5 51t50.5 14q20 0 38.5 -7t36.5 -15l35 -15q17 -7 35 -7q14 0 28.5 6t30.5 21l20 -70q-29 -32 -53.5 -44t-47.5 -12q-20 0 -39 6.5t-37 14.5t-36 14.5t-36 6.5q-15 0 -31 -6.5t-33 -22.5z"/>
		<glyph unicode="&#xf6;" horiz-adv-x="537" d="M33 250q0 127 62 195.5t174 68.5q60 0 104 -19t73 -53.5t43.5 -83.5t14.5 -108q0 -127 -61.5 -195.5t-173.5 -68.5q-60 0 -104 19t-73.5 53.5t-44 83.5t-14.5 108zM167 250q0 -33 6 -61t18 -49t31.5 -32.5t46.5 -11.5q51 0 76 37t25 117q0 69 -23 111.5t-78 42.5 q-48 0 -75 -36t-27 -118zM90 651q0 32 19.5 51t51.5 19t50.5 -19t18.5 -51q0 -30 -18.5 -49t-50.5 -19t-51.5 19t-19.5 49zM309 651q0 32 18.5 51t50.5 19t51.5 -19t19.5 -51q0 -30 -19.5 -49t-51.5 -19t-50.5 19t-18.5 49z"/>
		<glyph unicode="&#xf7;" horiz-adv-x="527" d="M43 394h442v-112h-442v112zM184 532q0 35 22 55.5t58 20.5q38 0 60 -20.5t22 -55.5t-22 -56t-60 -21q-36 0 -58 21t-22 56zM184 145q0 35 22 55.5t58 20.5q38 0 60 -20.5t22 -55.5t-22 -56t-60 -21q-36 0 -58 21t-22 56z"/>
		<glyph unicode="&#xf8;" horiz-adv-x="536" d="M33 250q0 127 61.5 195.5t173.5 68.5q32 0 59 -5.5t50 -16.5l24 34l80 -59l-27 -38q25 -34 37 -79.5t12 -99.5q0 -127 -61.5 -195.5t-173.5 -68.5q-34 0 -62.5 6.5t-52.5 17.5l-25 -34l-83 60l31 43q-22 33 -32.5 76.5t-10.5 94.5zM369 250q0 37 -8 71l-149 -207 q22 -18 56 -18q51 0 76 37t25 117zM167 250q0 -35 6 -65l147 204q-21 15 -52 15q-48 0 -74.5 -36t-26.5 -118z"/>
		<glyph unicode="&#xf9;" horiz-adv-x="538" d="M182 500v-284q0 -61 14.5 -88t56.5 -27q37 0 61.5 22t36.5 54v323h130v-348q0 -41 4 -80.5t12 -71.5h-98l-23 74h-4q-23 -38 -64 -63t-97 -25q-38 0 -68 10t-50 33t-30.5 62t-10.5 98v311h130zM318 566h-72l-124 124v30h136z"/>
		<glyph unicode="&#xfa;" horiz-adv-x="538" d="M182 500v-284q0 -61 14.5 -88t56.5 -27q37 0 61.5 22t36.5 54v323h130v-348q0 -41 4 -80.5t12 -71.5h-98l-23 74h-4q-23 -38 -64 -63t-97 -25q-38 0 -68 10t-50 33t-30.5 62t-10.5 98v311h130zM261 720h132v-30l-111 -124h-74z"/>
		<glyph unicode="&#xfb;" horiz-adv-x="538" d="M182 500v-284q0 -61 14.5 -88t56.5 -27q37 0 61.5 22t36.5 54v323h130v-348q0 -41 4 -80.5t12 -71.5h-98l-23 74h-4q-23 -38 -64 -63t-97 -25q-38 0 -68 10t-50 33t-30.5 62t-10.5 98v311h130zM232 732h86l111 -182h-103l-39 66l-17 49l-17 -49l-45 -66h-99z"/>
		<glyph unicode="&#xfc;" horiz-adv-x="538" d="M182 500v-284q0 -61 14.5 -88t56.5 -27q37 0 61.5 22t36.5 54v323h130v-348q0 -41 4 -80.5t12 -71.5h-98l-23 74h-4q-23 -38 -64 -63t-97 -25q-38 0 -68 10t-50 33t-30.5 62t-10.5 98v311h130zM88 651q0 32 19.5 51t51.5 19t50.5 -19t18.5 -51q0 -30 -18.5 -49t-50.5 -19 t-51.5 19t-19.5 49zM307 651q0 32 18.5 51t50.5 19t51.5 -19t19.5 -51q0 -30 -19.5 -49t-51.5 -19t-50.5 19t-18.5 49z"/>
		<glyph unicode="&#xfd;" horiz-adv-x="478" d="M239 219l18 -78h6l13 79l76 280h134l-152 -451q-19 -56 -36.5 -102.5t-38.5 -80.5t-46.5 -52.5t-60.5 -18.5q-52 0 -83 17l24 104q15 -6 30 -6q23 0 44.5 19.5t32.5 70.5l-209 500h156zM254 720h132v-30l-111 -124h-74z"/>
		<glyph unicode="&#xfe;" horiz-adv-x="540" d="M57 700h130v-243h4q21 26 50.5 41.5t77.5 15.5q94 0 141 -59.5t47 -191.5q0 -64 -15 -115.5t-44.5 -87.5t-72 -55t-97.5 -19q-31 0 -51 4.5t-40 14.5v-205h-130v900zM280 404q-36 0 -58.5 -19t-34.5 -57v-208q14 -11 30.5 -17.5t43.5 -6.5q56 0 84 39.5t28 130.5 q0 66 -22 102t-71 36z"/>
		<glyph unicode="&#xff;" horiz-adv-x="478" d="M239 219l18 -78h6l13 79l76 280h134l-152 -451q-19 -56 -36.5 -102.5t-38.5 -80.5t-46.5 -52.5t-60.5 -18.5q-52 0 -83 17l24 104q15 -6 30 -6q23 0 44.5 19.5t32.5 70.5l-209 500h156zM66 651q0 32 19.5 51t51.5 19t50.5 -19t18.5 -51q0 -30 -18.5 -49t-50.5 -19 t-51.5 19t-19.5 49zM285 651q0 32 18.5 51t50.5 19t51.5 -19t19.5 -51q0 -30 -19.5 -49t-51.5 -19t-50.5 19t-18.5 49z"/>
		<glyph unicode="&#x131;" horiz-adv-x="269" d="M70 500h130v-500h-130v500z"/>
		<glyph unicode="&#x152;" horiz-adv-x="915" d="M453 567q-21 11 -51 18t-67 7q-73 0 -113 -58.5t-40 -183.5q0 -53 9 -97.5t28.5 -76.5t49.5 -50t73 -18q29 0 55.5 3.5t55.5 15.5v440zM453 0q-19 -7 -52.5 -10.5t-65.5 -3.5q-76 0 -132 26t-92.5 74t-54.5 115t-18 149q0 175 77 269.5t220 94.5q39 0 67.5 -4.5 t50.5 -9.5h415v-122h-278v-163h253v-122h-253v-171h283v-122h-420z"/>
		<glyph unicode="&#x153;" horiz-adv-x="841" d="M167 250q0 -33 6 -61t18 -49t31.5 -32.5t46.5 -11.5q51 0 76 37t25 117q0 69 -23 111.5t-78 42.5q-48 0 -75 -36t-27 -118zM431 60q-25 -33 -64.5 -53.5t-97.5 -20.5q-60 0 -104 19t-73.5 53.5t-44 83.5t-14.5 108q0 127 62 195.5t174 68.5q66 0 106 -22.5t63 -49.5 q23 29 63.5 50.5t104.5 21.5q38 0 74 -10t64 -33t45 -62t17 -97q0 -21 -2.5 -45t-7.5 -50h-301q3 -63 33 -95t96 -32q41 0 73.5 12.5t49.5 25.5l43 -85q-30 -24 -81.5 -40.5t-109.5 -16.5q-111 0 -168 74zM604 410q-51 0 -75.5 -30.5t-29.5 -81.5h186q0 4 0.5 8t0.5 8 q0 46 -20.5 71t-61.5 25z"/>
		<glyph unicode="&#x178;" horiz-adv-x="592" d="M228 260l-230 440h163l128 -263l14 -74h5l15 76l124 261h147l-229 -439v-261h-137v260zM116 798q0 26 18 42t58 16q39 0 57 -16t18 -42t-18 -41.5t-57 -15.5q-40 0 -58 15.5t-18 41.5zM330 798q0 26 18 42t57 16q40 0 58 -16t18 -42t-18 -41.5t-58 -15.5q-39 0 -57 15.5 t-18 41.5z"/>
		<glyph unicode="&#x237;" horiz-adv-x="268" d="M69 500h130v-521q0 -91 -36 -139t-115 -48q-30 0 -64 7v109q4 0 7 -0.5t6 -0.5q45 0 58.5 29t13.5 80v484z"/>
		<glyph unicode="&#x2c6;" horiz-adv-x="440" d="M183 732h86l111 -182h-103l-39 66l-17 49l-17 -49l-45 -66h-99z"/>
		<glyph unicode="&#x2d9;" horiz-adv-x="286" d="M60 641q0 29 21.5 49.5t59.5 20.5t61.5 -20.5t23.5 -49.5t-23.5 -48.5t-61.5 -19.5t-59.5 19.5t-21.5 48.5z"/>
		<glyph unicode="&#x2da;" horiz-adv-x="342" d="M60 647q0 42 28.5 69t82.5 27q51 0 81 -24.5t30 -71.5q0 -39 -29.5 -66.5t-81.5 -27.5q-53 0 -82 25.5t-29 68.5zM132 647q0 -16 12 -24.5t27 -8.5q17 0 28 8t11 25t-11.5 25.5t-27.5 8.5q-15 0 -27 -8t-12 -26z"/>
		<glyph unicode="&#x2dc;" horiz-adv-x="452" d="M60 658q31 37 57.5 51t50.5 14q20 0 38.5 -7t36.5 -15l35 -15q17 -7 35 -7q14 0 28.5 6t30.5 21l20 -70q-29 -32 -53.5 -44t-47.5 -12q-20 0 -39 6.5t-37 14.5t-36 14.5t-36 6.5q-15 0 -31 -6.5t-33 -22.5z"/>
		<glyph unicode="&#x2000;" horiz-adv-x="435"/>
		<glyph unicode="&#x2001;" horiz-adv-x="870"/>
		<glyph unicode="&#x2002;" horiz-adv-x="435"/>
		<glyph unicode="&#x2003;" horiz-adv-x="870"/>
		<glyph unicode="&#x2004;" horiz-adv-x="290"/>
		<glyph unicode="&#x2005;" horiz-adv-x="217"/>
		<glyph unicode="&#x2006;" horiz-adv-x="145"/>
		<glyph unicode="&#x2007;" horiz-adv-x="145"/>
		<glyph unicode="&#x2008;" horiz-adv-x="108"/>
		<glyph unicode="&#x2009;" horiz-adv-x="174"/>
		<glyph unicode="&#x200a;" horiz-adv-x="48"/>
		<glyph unicode="&#x2010;" horiz-adv-x="360" d="M54 345h251v-115h-251v115z"/>
		<glyph unicode="&#x2011;" horiz-adv-x="360" d="M54 345h251v-115h-251v115z"/>
		<glyph unicode="&#x2013;" horiz-adv-x="660" d="M109 346h442v-116h-442v116z"/>
		<glyph unicode="&#x2014;" horiz-adv-x="820" d="M109 346h602v-116h-602v116z"/>
		<glyph unicode="&#x2018;" horiz-adv-x="223" d="M185 618q0 -29 -19.5 -46.5t-48.5 -17.5q-37 0 -58 23.5t-21 62.5q0 40 12.5 68t30 46.5t36.5 29t33 15.5l32 -54q-20 -8 -34 -25.5t-16 -37.5q20 0 36.5 -17.5t16.5 -46.5z"/>
		<glyph unicode="&#x2019;" horiz-adv-x="223" d="M38 644q0 29 19.5 47t49.5 18q36 0 57 -24t21 -63q0 -40 -12.5 -68t-30 -46.5t-37 -29t-32.5 -15.5l-33 55q20 9 35.5 24t17.5 38h-2q-19 0 -35 16q-18 16 -18 48z"/>
		<glyph unicode="&#x201a;" horiz-adv-x="223" d="M38 62q0 29 19.5 47t49.5 18q36 0 57 -24t21 -63q0 -40 -12.5 -68t-30 -46.5t-37 -29t-32.5 -15.5l-33 55q20 9 35.5 24t17.5 38h-2q-19 0 -35 16q-18 16 -18 48z"/>
		<glyph unicode="&#x201c;" horiz-adv-x="396" d="M358 618q0 -29 -19.5 -46.5t-48.5 -17.5q-37 0 -58 23.5t-21 62.5q0 40 12.5 68t30 46.5t36.5 29t33 15.5l32 -54q-20 -8 -34 -25.5t-16 -37.5q20 0 36.5 -17.5t16.5 -46.5zM185 618q0 -29 -19.5 -46.5t-48.5 -17.5q-37 0 -58 23.5t-21 62.5q0 40 12.5 68t30 46.5 t36.5 29t33 15.5l32 -54q-20 -8 -34 -25.5t-16 -37.5q20 0 36.5 -17.5t16.5 -46.5z"/>
		<glyph unicode="&#x201d;" horiz-adv-x="396" d="M211 644q0 29 19.5 47t49.5 18q36 0 57 -24t21 -63q0 -40 -12.5 -68t-30 -46.5t-37 -29t-32.5 -15.5l-33 55q20 9 35.5 24t17.5 38h-2q-19 0 -35 16q-18 16 -18 48zM38 644q0 29 19.5 47t49.5 18q36 0 57 -24t21 -63q0 -40 -12.5 -68t-30 -46.5t-37 -29t-32.5 -15.5 l-33 55q20 9 35.5 24t17.5 38h-2q-19 0 -35 16q-18 16 -18 48z"/>
		<glyph unicode="&#x201e;" horiz-adv-x="396" d="M211 62q0 29 19.5 47t49.5 18q36 0 57 -24t21 -63q0 -40 -12.5 -68t-30 -46.5t-37 -29t-32.5 -15.5l-33 55q20 9 35.5 24t17.5 38h-2q-19 0 -35 16q-18 16 -18 48zM38 62q0 29 19.5 47t49.5 18q36 0 57 -24t21 -63q0 -40 -12.5 -68t-30 -46.5t-37 -29t-32.5 -15.5l-33 55 q20 9 35.5 24t17.5 38h-2q-19 0 -35 16q-18 16 -18 48z"/>
		<glyph unicode="&#x2022;" horiz-adv-x="452" d="M73 311q0 34 12 62t33 48t48.5 31.5t58.5 11.5q32 0 60 -10.5t48.5 -30t32.5 -48t12 -64.5t-12 -64t-32.5 -47.5t-48.5 -30t-60 -10.5q-31 0 -58.5 10.5t-48.5 30t-33 47.5t-12 64z"/>
		<glyph unicode="&#x2026;" horiz-adv-x="809" d="M53 66q0 35 22 55.5t58 20.5q38 0 60 -20.5t22 -55.5t-22 -56t-60 -21q-36 0 -58 21t-22 56zM325 66q0 35 22 55.5t58 20.5q38 0 60 -20.5t22 -55.5t-22 -56t-60 -21q-36 0 -58 21t-22 56zM597 66q0 35 22 55.5t58 20.5q38 0 60 -20.5t22 -55.5t-22 -56t-60 -21 q-36 0 -58 21t-22 56z"/>
		<glyph unicode="&#x202f;" horiz-adv-x="174"/>
		<glyph unicode="&#x2039;" horiz-adv-x="307" d="M29 259l160 230l75 -62l-83 -126l-48 -41l48 -36l91 -122l-77 -64z"/>
		<glyph unicode="&#x203a;" horiz-adv-x="307" d="M278 268l-160 -230l-76 61l84 127l48 41l-48 36l-92 123l78 63z"/>
		<glyph unicode="&#x2044;" horiz-adv-x="184" d="M266 715l85 -50l-430 -679l-86 53z"/>
		<glyph unicode="&#x205f;" horiz-adv-x="217"/>
		<glyph unicode="&#x2081;" horiz-adv-x="412" d="M72 0h98v164l10 46l-31 -32l-59 -39l-49 77l158 111h86v-327h87v-100h-300v100z"/>
		<glyph unicode="&#x2082;" horiz-adv-x="412" d="M348 200q0 -59 -30 -101t-72 -80l-47 -25v-4l59 11h106v-101h-313v71l58 42q32 24 59.5 51.5t46 56.5t18.5 55q0 49 -56 49q-27 0 -51 -8.5t-42 -19.5l-34 90q35 21 74.5 30.5t75.5 9.5q71 0 109.5 -32.5t38.5 -94.5z"/>
		<glyph unicode="&#x2083;" horiz-adv-x="412" d="M168 -12q45 0 63.5 14t19.5 37q-1 23 -20 36t-70 13h-43v38l73 80l43 25l-58 -6h-115v95h284v-62l-88 -92l-34 -18v-5l30 3q53 -2 82.5 -31.5t30.5 -83.5q-1 -36 -15.5 -62t-39 -43t-57.5 -25t-69 -8q-38 0 -71.5 6.5t-57.5 17.5l23 90q41 -19 89 -19z"/>
		<glyph unicode="&#x2084;" horiz-adv-x="412" d="M402 -22h-75v-78h-102v78h-207v67l218 283h91v-261h75v-89zM225 153l6 53h-5l-22 -49l-48 -66l-36 -32l52 8h53v86z"/>
		<glyph unicode="&#x20ac;" d="M34 475h62q15 66 43.5 111t66.5 73.5t83.5 41.5t94.5 13q52 0 92.5 -8t67.5 -19l-35 -103q-22 9 -51 13.5t-68 4.5q-60 0 -103 -30t-65 -97h259l-26 -93h-249q-1 -8 -1 -16v-16v-26h230l-26 -93h-188q20 -66 63.5 -99.5t115.5 -33.5q42 0 72.5 9t54.5 23l27 -101 q-15 -11 -36 -19.5t-44 -13.5t-47 -7.5t-46 -2.5q-110 0 -185.5 58.5t-101.5 186.5h-92l32 93h49v26v16q0 8 1 16h-82z"/>
		<glyph unicode="&#x2122;" horiz-adv-x="948" d="M395 590h-118v-250h-130v250h-118v110h366v-110zM800 484l17 103h-6l-36 -85l-68 -117h-78l-68 114l-39 88h-5l23 -102v-145h-111v360h130l91 -150l24 -63h1l25 65l84 148h129v-360h-113v144z"/>
		<glyph unicode="&#x2212;" horiz-adv-x="527" d="M43 394h442v-112h-442v112z"/>
		<glyph unicode="&#xf408;" horiz-adv-x="476" d="M193 870h96l127 -93v-39h-99l-57 41l-20 34l-21 -33l-62 -42h-97v40z"/>
		<glyph unicode="&#xf40d;" horiz-adv-x="490" d="M60 800q32 35 61.5 48t58.5 13q22 0 44 -5.5t42.5 -12t40.5 -12t38 -5.5q16 0 31 5t29 19l25 -67q-28 -26 -54.5 -36.5t-51.5 -10.5q-23 0 -44 5.5t-41.5 12.5t-40.5 12.5t-39 5.5t-37.5 -7.5t-37.5 -27.5z"/>
		<glyph unicode="&#xf662;" horiz-adv-x="412" d="M169 544l11 46l-31 -32l-59 -39l-49 77l158 111h85v-427h-115v264z"/>
		<glyph unicode="&#xf6c9;" horiz-adv-x="383" d="M164 870h159v-30l-160 -88h-103z"/>
		<glyph unicode="&#xf6cb;" horiz-adv-x="485" d="M60 798q0 26 18 42t58 16q39 0 57 -16t18 -42t-18 -41.5t-57 -15.5q-40 0 -58 15.5t-18 41.5zM274 798q0 26 18 42t57 16q40 0 58 -16t18 -42t-18 -41.5t-58 -15.5q-39 0 -57 15.5t-18 41.5z"/>
		<glyph unicode="&#xf6ce;" horiz-adv-x="383" d="M323 752h-105l-158 88v30h159z"/>
		<glyph horiz-adv-x="184" d="M342 714l73 -66l-576 -662l-73 69z"/>
	</font>
	<font id="PTSansItalic" horiz-adv-x="520" >
		<font-face units-per-em="1000" ascent="750" descent="-250"/>
		<missing-glyph horiz-adv-x="267"/>
		<glyph unicode=" "  horiz-adv-x="267"/>
		<glyph unicode="&#x09;" horiz-adv-x="267"/>
		<glyph unicode="&#xa0;" horiz-adv-x="267"/>
		<glyph unicode="!" horiz-adv-x="273" d="M237 700h80l-73 -347l-54 -176h-46l20 176zM87 46q0 27 16 42.5t42 15.5t42 -15.5t16 -42.5q0 -26 -16 -42t-42 -16t-42 16t-16 42z"/>
		<glyph unicode="&#x22;" horiz-adv-x="303" d="M231 700h74l-70 -193h-45zM120 700h74l-70 -193h-45z"/>
		<glyph unicode="#" d="M316 225h-106l-39 -167h-68l39 167h-78l14 64h80l31 131h-75l14 64h76l38 158h68l-38 -158h106l38 158h68l-38 -158h77l-16 -64h-76l-31 -131h73l-16 -64h-73l-39 -167h-68zM226 289h106l31 131h-106z"/>
		<glyph unicode="$" d="M198 -9q-48 7 -84 26t-53 34l35 61q16 -11 46.5 -28t70.5 -24l60 281q-22 16 -43.5 34t-38 39t-27 47.5t-10.5 60.5q0 44 14.5 77.5t41 57t62.5 37t79 16.5l20 90h64l-19 -89q43 -4 73.5 -15t51.5 -22l-34 -63q-17 8 -44 16.5t-62 12.5l-54 -251q23 -17 45.5 -36t40 -43 t28.5 -54.5t11 -70.5q0 -41 -14 -75.5t-41 -60t-66.5 -41.5t-89.5 -19q0 -1 -3 -14.5t-6 -30.5l-9 -44h-64zM390 178q0 45 -22 75.5t-53 56.5l-54 -252q60 4 94.5 36t34.5 84zM236 534q0 -38 20 -64.5t49 -49.5l47 221q-57 -4 -86.5 -33.5t-29.5 -73.5z"/>
		<glyph unicode="%" horiz-adv-x="736" d="M60 490q0 58 17.5 100t44.5 69t60 40t65 13q57 0 86.5 -31t29.5 -88q0 -54 -15 -95t-40.5 -69t-60 -42.5t-72.5 -14.5q-51 0 -83 31t-32 87zM129 498q0 -32 14.5 -50t43.5 -18q21 0 40.5 11t34.5 31.5t23.5 50t8.5 66.5q0 35 -15.5 50t-43.5 15q-21 0 -40.5 -12.5 t-34 -33.5t-23 -49.5t-8.5 -60.5zM386 119q0 58 17.5 100t44.5 69t60 40t65 13q57 0 86.5 -31t29.5 -88q0 -54 -15 -95t-40.5 -69t-60 -42.5t-72.5 -14.5q-51 0 -83 31t-32 87zM455 127q0 -32 14.5 -50t43.5 -18q21 0 40.5 11t34.5 31.5t23.5 50t8.5 66.5q0 35 -15.5 50 t-43.5 15q-21 0 -40.5 -12.5t-34 -33.5t-23 -49.5t-8.5 -60.5zM601 713l50 -39l-513 -686l-50 39z"/>
		<glyph unicode="&#x26;" horiz-adv-x="772" d="M87 148q0 47 19.5 90t50.5 80t70 66.5t78 49.5q-7 18 -12 32.5t-8.5 29t-5 30t-1.5 35.5q0 27 10 54t31 48.5t52.5 35t75.5 13.5q35 0 56.5 -9.5t33.5 -23.5t16 -31t4 -32q0 -57 -43.5 -105.5t-118.5 -89.5q10 -29 23.5 -59.5t29.5 -60.5t34 -59.5t36 -54.5 q13 12 27.5 30.5t28.5 39t27 42.5l24 42l53 -29q-9 -17 -25 -40l-34 -48l-36 -48q-18 -22 -32 -37q32 -40 54.5 -61t47.5 -37l-58 -56q-23 13 -49 38t-51 58q-21 -18 -45 -34.5t-52 -29.5t-60.5 -21t-69.5 -8q-42 0 -75.5 12t-57 33.5t-36 50.5t-12.5 64zM460 131 q-21 29 -40.5 63t-36.5 68t-30.5 65.5t-22.5 55.5q-36 -23 -66 -49t-51.5 -53.5t-33.5 -56.5t-12 -59q0 -54 33 -81t93 -27q24 0 48 6.5t46 17t40.5 23.5t32.5 27zM353 563q0 -15 1 -27t3.5 -22.5t6 -21.5t9.5 -26q57 34 85.5 65t28.5 69q0 20 -11.5 34t-39.5 14 q-23 0 -38.5 -7t-25.5 -19.5t-14.5 -28t-4.5 -30.5z"/>
		<glyph unicode="'" horiz-adv-x="202" d="M143 700h74l-70 -193h-45z"/>
		<glyph unicode="(" horiz-adv-x="266" d="M145 -218q-54 79 -72.5 152.5t-18.5 138.5q0 103 23 196t62 174t90 148.5t107 118.5l37 -35q-56 -62 -100.5 -131.5t-76.5 -144.5t-48 -154.5t-16 -159.5q0 -64 13.5 -132t45.5 -136z"/>
		<glyph unicode=")" horiz-adv-x="266" d="M137 710q23 -32 39 -69t26 -75t14.5 -75.5t4.5 -69.5q0 -102 -22.5 -195.5t-61 -175t-89 -149.5t-105.5 -119l-38 35q49 51 91.5 119t75.5 143.5t52 156t19 157.5q0 96 -12.5 163t-43.5 121z"/>
		<glyph unicode="*" horiz-adv-x="333" d="M161 715l25 -42l18 -56l21 57l24 40l48 -26l-25 -43l-47 -48l68 12h48v-56h-45l-65 12l46 -48l24 -39l-48 -28l-25 42l-24 61l-18 -58l-25 -42l-50 28l26 42l43 42l-59 -12h-50v56h50l63 -12l-45 44l-27 46z"/>
		<glyph unicode="+" horiz-adv-x="480" d="M55 374h176v181h72v-181h176v-72h-176v-181h-72v181h-176v72z"/>
		<glyph unicode="," horiz-adv-x="186" d="M17 35q0 26 17 44t49 18q25 0 38.5 -17t13.5 -39q0 -31 -10.5 -60.5t-29.5 -54.5t-44.5 -44.5t-55.5 -30.5l-16 39q38 14 61 44t28 59q-4 -2 -10 -2q-14 0 -27.5 12t-13.5 32z"/>
		<glyph unicode="-" horiz-adv-x="342" d="M79 322h230l-17 -68h-229z"/>
		<glyph unicode="." horiz-adv-x="211" d="M35 46q0 27 16 42.5t42 15.5t42 -15.5t16 -42.5q0 -26 -16 -42t-42 -16t-42 16t-16 42z"/>
		<glyph unicode="/" horiz-adv-x="336" d="M428 712l57 -31l-521 -825l-57 32z"/>
		<glyph unicode="0" d="M57 219q0 105 22.5 195.5t62 156.5t94.5 103.5t121 37.5q85 0 131 -55t46 -175q0 -90 -19.5 -178t-57 -158.5t-92.5 -114t-127 -43.5q-51 0 -85.5 19.5t-56 52t-30.5 74t-9 85.5zM135 223q0 -51 10 -83.5t26.5 -50t37 -24.5t41.5 -7q45 0 83 35.5t65 94.5t42.5 133 t15.5 151q0 86 -24 128t-87 42q-40 0 -77.5 -31t-67 -87t-47.5 -133t-18 -168z"/>
		<glyph unicode="1" d="M78 74h133l104 484l22 59l-49 -47l-120 -79l-28 51l247 170h34l-136 -638h130l-15 -74h-337z"/>
		<glyph unicode="2" d="M515 571q0 -52 -29 -113t-73.5 -122.5t-97.5 -120t-102 -105.5l-55 -43v-4l62 11h205l-14 -74h-379l6 29l64 63l84 82l90 96q45 50 81.5 100.5t58 97.5t21.5 87q0 19 -4 35t-13 27.5t-26 18t-44 6.5q-36 0 -70 -14.5t-72 -39.5l-21 60q48 35 92 49.5t96 14.5 q70 0 105 -39.5t35 -101.5z"/>
		<glyph unicode="3" d="M192 58q47 0 82.5 15t58 39.5t34.5 56t12 64.5q0 52 -26 80t-97 28h-72l6 29l182 222l52 44l-63 -10h-185l14 74h340l-6 -29l-201 -242l-39 -29v-2l33 7q28 0 53 -9.5t44.5 -29t31 -49.5t11.5 -72q0 -54 -17.5 -100.5t-52 -81.5t-86.5 -55t-121 -20q-43 0 -77.5 7 t-59.5 18l36 71q20 -11 48 -18.5t65 -7.5z"/>
		<glyph unicode="4" d="M514 215h-113l-45 -215h-73l45 215h-294l7 33l415 463h51l-91 -428h112zM390 503l27 82h-4l-47 -68l-173 -191l-55 -50l67 7h138z"/>
		<glyph unicode="5" d="M186 58q45 0 80.5 14.5t60.5 40t38 59.5q12 32 12 69v6q1 57 -30.5 85t-103.5 28l-80 -5l73 345h296l-16 -74h-225l-43 -200h7q6 0 14 1q9 0 19 1q47 0 79 -14.5t51.5 -37.5t28 -53.5t8.5 -61.5q0 -77 -25 -129.5t-65.5 -84.5t-91 -45.5t-102.5 -13.5q-40 0 -70.5 6 t-53.5 17l34 69q21 -9 44.5 -15.5t60.5 -6.5z"/>
		<glyph unicode="6" d="M483 244q0 -56 -16.5 -102.5t-48 -81t-76 -53.5t-99.5 -19q-33 0 -65 11.5t-57.5 37t-41.5 66.5t-16 101q0 100 38 189t99 156.5t138 110.5t155 52l4 -64q-55 -9 -109 -36.5t-99.5 -68t-80.5 -91t-53 -105.5q10 13 27 25.5t38.5 22.5t46 15.5t50.5 5.5q72 0 119 -43.5 t47 -128.5zM403 234q0 50 -25 82t-82 32q-23 0 -45.5 -6.5t-43 -17.5t-37 -25.5t-26.5 -30.5q-2 -13 -4 -28.5t-2 -27.5q0 -33 6.5 -61.5t20.5 -49.5t35 -33t51 -12q40 0 69 15.5t47.5 40.5t27 57t8.5 65z"/>
		<glyph unicode="7" d="M69 0l362 586l52 49l-58 -9h-265l15 74h397l-5 -27l-416 -673h-82z"/>
		<glyph unicode="8" d="M61 146q0 69 45.5 127.5t128.5 93.5q-16 13 -30.5 26.5t-26 31t-18.5 40.5t-7 56q0 46 17.5 81.5t47 60t68.5 37t81 12.5q33 0 62 -9.5t50 -28t33 -46t12 -63.5q0 -30 -11.5 -59.5t-32 -55.5t-48 -48.5t-60.5 -40.5q18 -15 34.5 -31.5t28.5 -36t19.5 -43t7.5 -52.5 q0 -42 -13.5 -80t-42 -67t-73 -46t-107.5 -17q-41 0 -71.5 12.5t-51.5 33.5t-31.5 50t-10.5 62zM384 183q0 28 -7.5 49.5t-19.5 39t-31 32.5t-41 29q-66 -31 -106 -76t-40 -102q0 -18 5 -36t16.5 -31.5t32 -21.5t50.5 -8q28 0 53.5 7.5t45.5 23.5t31 39.5t11 54.5zM231 525 q0 -48 24 -77.5t66 -55.5q25 16 48 35.5t39.5 40t27 41.5t10.5 42q0 47 -23 69t-65 22q-26 0 -49 -7.5t-40 -22.5t-27.5 -37t-10.5 -50z"/>
		<glyph unicode="9" d="M106 467q0 58 18 103.5t50.5 77t76 48t94.5 16.5q37 0 70 -13.5t58 -40.5t39 -66.5t14 -91.5q0 -115 -40.5 -206.5t-103.5 -157t-139 -103.5t-146 -45l-4 64q63 14 116.5 41t96.5 64.5t74 84t49 99.5q-32 -28 -70 -42.5t-96 -14.5q-27 0 -54.5 10t-50.5 32t-37.5 57 t-14.5 84zM184 476q0 -36 11 -60t26.5 -38t34 -20t36.5 -6q46 0 87.5 18t63.5 44q1 6 3 17l2 22q2 11 2.5 21.5t0.5 15.5q0 70 -30 112t-89 42q-29 0 -55.5 -10t-46.5 -31t-33 -52.5t-13 -74.5z"/>
		<glyph unicode=":" horiz-adv-x="267" d="M173 449q0 27 16 42.5t42 15.5t42 -15.5t16 -42.5q0 -26 -16 -42t-42 -16t-42 16t-16 42zM89 46q0 27 16 42.5t42 15.5t42 -15.5t16 -42.5q0 -26 -16 -42t-42 -16t-42 16t-16 42z"/>
		<glyph unicode=";" horiz-adv-x="273" d="M92 35q0 26 17 44t49 18q25 0 38.5 -17t13.5 -39q0 -31 -10.5 -60.5t-29.5 -54.5t-44.5 -44.5t-55.5 -30.5l-16 39q38 14 61 44t28 59q-4 -2 -10 -2q-14 0 -27.5 12t-13.5 32zM179 449q0 27 16 42.5t42 15.5t42 -15.5t16 -42.5q0 -26 -16 -42t-42 -16t-42 16t-16 42z"/>
		<glyph unicode="&#x3c;" horiz-adv-x="480" d="M54 305v29l379 231l38 -62l-237 -145l-91 -38l90 -32l243 -144l-38 -60z"/>
		<glyph unicode="=" horiz-adv-x="480" d="M55 457h424v-72h-424v72zM55 291h424v-72h-424v72z"/>
		<glyph unicode="&#x3e;" horiz-adv-x="480" d="M478 344v-29l-379 -231l-38 61l237 145l91 38l-90 32l-243 144l38 61z"/>
		<glyph unicode="?" horiz-adv-x="414" d="M123 177q5 50 25 87.5t46.5 68t56.5 57t54.5 53t41 57t16.5 69.5q0 38 -20.5 58.5t-71.5 20.5q-35 0 -69.5 -13.5t-63.5 -30.5l-19 58q20 12 38.5 21t39.5 15.5t45.5 10t56.5 3.5q74 0 109 -34t35 -88t-17 -93.5t-43 -70.5t-57.5 -57.5t-60 -54.5t-50.5 -60.5t-29 -76.5 h-63zM80 46q0 27 16 42.5t42 15.5t42 -15.5t16 -42.5q0 -26 -16 -42t-42 -16t-42 16t-16 42z"/>
		<glyph unicode="@" horiz-adv-x="1064" d="M736 491h34l-51 -287q-5 -26 -7.5 -46.5t-2.5 -36.5q0 -25 8.5 -37t30.5 -12q34 0 67 18t59.5 51t43 80t16.5 105q0 77 -26 136t-73 99.5t-112 61.5t-143 21q-82 0 -153 -30t-124 -83t-83.5 -127t-30.5 -161q0 -89 27.5 -159t78.5 -118t122 -73t158 -25q29 0 66 7t67 21 l20 -64q-44 -19 -82.5 -25.5t-82.5 -6.5q-93 0 -174 28t-142 83t-96 136.5t-35 188.5q0 109 37.5 197t101.5 150t149 95.5t180 33.5q90 0 167 -26.5t134 -76t89 -121t32 -162.5q0 -64 -22 -122.5t-59.5 -102.5t-87.5 -70.5t-106 -26.5q-42 0 -66.5 18t-24.5 67q0 9 1 19.5 t3 22.5h-4q-15 -23 -34 -45.5t-42.5 -40.5t-50 -29.5t-55.5 -11.5q-24 0 -45.5 10.5t-37.5 30.5t-25.5 47.5t-9.5 62.5q0 64 21 126t56.5 110t83 77.5t100.5 29.5q36 0 58.5 -11t43.5 -27zM680 393q-17 20 -34.5 28.5t-43.5 8.5q-39 0 -73 -24t-58.5 -61.5t-39 -84.5 t-14.5 -92q0 -39 16 -67.5t58 -28.5q20 0 41.5 14t42.5 36.5t40.5 50.5t34.5 57z"/>
		<glyph unicode="A" horiz-adv-x="557" d="M404 194h-244l-108 -194h-85l404 711h37l101 -711h-77zM199 266h197l-29 213l-2 106h-1l-45 -108z"/>
		<glyph unicode="B" horiz-adv-x="556" d="M561 551q0 -39 -12 -71t-34 -56t-51.5 -38.5t-63.5 -19.5v-4q22 -5 42 -16.5t35 -28.5t24 -39.5t9 -49.5q0 -70 -27.5 -115.5t-70 -72.5t-95 -37.5t-103.5 -10.5h-38q-23 0 -58 2q-60 6 -78 11l146 689q38 6 85.5 10t102.5 4q37 0 71 -9.5t59.5 -28.5t41 -49t15.5 -70z M236 64q35 0 69 8.5t61 26.5t43.5 47t16.5 71q0 31 -15 51.5t-39 32.5t-54.5 16.5t-61.5 4.5h-70l-53 -251q6 -2 18.5 -3t27 -2t30 -1.5t27.5 -0.5zM253 390q17 0 40 0.5t39 2.5q23 5 49 14t47.5 25.5t35 42t13.5 63.5q0 28 -8.5 46.5t-25 30t-39.5 16.5t-51 5 q-32 0 -60 -1.5t-42 -4.5l-51 -240h53z"/>
		<glyph unicode="C" horiz-adv-x="544" d="M480 29q-34 -23 -72 -32t-88 -9q-59 0 -105 21.5t-78 60t-49 90.5t-17 114q0 113 33 195.5t87 136.5t121.5 80t136.5 26q57 0 93 -8t59 -19l-36 -73q-20 11 -52.5 18.5t-74.5 7.5q-56 0 -107.5 -24.5t-90.5 -70.5t-62 -112t-23 -148q0 -48 12.5 -88.5t36 -70t58 -46 t78.5 -16.5q47 0 78 10.5t56 24.5z"/>
		<glyph unicode="D" horiz-adv-x="622" d="M189 700q38 5 86 6.5t87 1.5q59 0 107 -15.5t81.5 -47.5t51.5 -81t18 -115q0 -44 -8 -95.5t-26.5 -102t-49.5 -97.5t-77 -83.5t-108 -58t-143 -21.5q-15 0 -39.5 0.5t-48.5 1.5q-70 4 -80 6zM356 634h-27l-29 -2q-14 0 -27 -1t-20 -2l-118 -560q4 -1 16 -1.5t25 -1.5h26 q13 -1 18 -1q87 0 147 36t97.5 91t54.5 121t17 125q0 45 -10 81t-31.5 61.5t-55.5 39.5t-83 14z"/>
		<glyph unicode="E" horiz-adv-x="510" d="M189 700h361l-15 -74h-283l-49 -229h259l-15 -74h-259l-53 -249h288l-16 -74h-288h-79z"/>
		<glyph unicode="F" horiz-adv-x="492" d="M189 700h361l-15 -74h-283l-51 -239h264l-15 -74h-264l-66 -313h-80z"/>
		<glyph unicode="G" horiz-adv-x="583" d="M375 349h116h68l-65 -308q-71 -53 -176 -53q-50 0 -94.5 18t-78.5 53.5t-54 88.5t-20 124q0 123 36 207t92.5 135.5t124.5 74.5t132 23q57 0 94.5 -7.5t60.5 -18.5l-35 -73q-20 11 -53.5 18t-75.5 7q-58 0 -110.5 -22.5t-93 -67.5t-64.5 -111.5t-24 -154.5q0 -45 11 -85 t33.5 -70t56 -47.5t79.5 -17.5q32 0 55 6.5t46 18.5l41 195l-112 20z"/>
		<glyph unicode="H" horiz-adv-x="639" d="M505 321h-318l-67 -321h-80l148 700h80l-64 -305h317l64 305h80l-148 -700h-80z"/>
		<glyph unicode="I" horiz-adv-x="277" d="M210 700h80l-148 -700h-80z"/>
		<glyph unicode="J" horiz-adv-x="278" d="M222 700h80l-116 -546q-9 -40 -21.5 -70.5t-32 -51.5t-48 -31.5t-68.5 -10.5q-8 0 -18.5 1t-21.5 3t-21 5t-16 7l30 71q19 -13 54 -13q21 0 35 7.5t24 22t16.5 34.5t11.5 46z"/>
		<glyph unicode="K" horiz-adv-x="576" d="M239 324h-51l-68 -324h-80l148 700h80l-70 -326l40 14l287 312h99l-286 -304l-46 -31l39 -40l175 -325h-91z"/>
		<glyph unicode="L" horiz-adv-x="492" d="M434 0h-316h-78l148 700h80l-133 -626h314z"/>
		<glyph unicode="M" horiz-adv-x="754" d="M651 470l31 105h-4l-56 -96l-240 -316h-24l-115 316l-15 96h-4l-8 -104l-100 -471h-76l149 700h55l130 -358l15 -78h1l46 80l273 356h71l-149 -700h-80z"/>
		<glyph unicode="N" horiz-adv-x="642" d="M261 458l-34 103h-3l-12 -103l-97 -458h-75l151 711h40l218 -468l33 -98h4l9 98l98 457h75l-151 -711h-37z"/>
		<glyph unicode="O" horiz-adv-x="651" d="M71 256q0 92 25 175t71.5 145.5t112 99t145.5 36.5q48 0 89 -14.5t70.5 -46t46 -81.5t16.5 -122q0 -94 -25 -177.5t-70 -146.5t-107.5 -99.5t-137.5 -36.5q-118 0 -177 68.5t-59 199.5zM155 257q0 -94 39 -145.5t115 -51.5q56 0 102.5 31t80.5 84t52.5 123t18.5 148 q0 58 -13 96t-34.5 59.5t-49 30t-55.5 8.5q-57 0 -104 -31.5t-80.5 -84.5t-52.5 -122.5t-19 -144.5z"/>
		<glyph unicode="P" horiz-adv-x="532" d="M187 693q38 9 80 12t83 3q46 0 85.5 -10t68.5 -32t45.5 -56.5t16.5 -82.5q0 -76 -27.5 -127t-72 -81.5t-100.5 -43.5t-113 -13h-15q-11 0 -23 0.5t-23 1.5t-16 2l-56 -266h-80zM333 636q-23 0 -44.5 -1.5t-35.5 -4.5l-61 -291q4 -2 13.5 -2.5t20 -1.5t20.5 -1h15 q43 0 83 9t70.5 31t49 57t18.5 88q0 36 -12 59t-32.5 35.5t-47.5 17.5t-57 5z"/>
		<glyph unicode="Q" horiz-adv-x="651" d="M633 -171q-24 -7 -46.5 -9.5t-44.5 -2.5q-48 0 -91 10.5t-83 22.5l-76 22q-36 11 -71 11q-11 0 -22.5 -1t-22.5 -4l15 73q27 6 53 6q40 0 77 -11l75 -22q39 -12 80 -22.5t88 -10.5q41 0 85 10zM71 256q0 92 25 175t71.5 145.5t112 99t145.5 36.5q48 0 89 -14.5t70.5 -46 t46 -81.5t16.5 -122q0 -94 -25 -177.5t-70 -146.5t-107.5 -99.5t-137.5 -36.5q-118 0 -177 68.5t-59 199.5zM155 257q0 -94 39 -145.5t115 -51.5q56 0 102.5 31t80.5 84t52.5 123t18.5 148q0 58 -13 96t-34.5 59.5t-49 30t-55.5 8.5q-57 0 -104 -31.5t-80.5 -84.5 t-52.5 -122.5t-19 -144.5z"/>
		<glyph unicode="R" horiz-adv-x="568" d="M187 693q42 8 81 11.5t78 3.5q38 0 74 -9.5t63.5 -30t44 -53.5t16.5 -80q0 -88 -51.5 -146.5t-149.5 -75.5l36 -36l108 -277h-87l-120 302l-94 15l-66 -317h-80zM341 636q-24 0 -48 -1.5t-40 -4.5l-55 -258h69q36 0 70.5 7t62 25t44 49t16.5 78q0 18 -7 36.5t-21 34 t-37 25t-54 9.5z"/>
		<glyph unicode="S" horiz-adv-x="505" d="M388 180q0 36 -18.5 61t-46.5 45.5t-60.5 39.5t-60.5 44t-46.5 59t-18.5 84q0 53 19.5 91t53 62t79 35t96.5 11q58 0 104 -9t72 -23l-40 -71q-20 11 -59.5 21t-91.5 10q-66 0 -107.5 -30t-41.5 -87q0 -37 18.5 -62.5t46.5 -46t60.5 -39.5t60.5 -43.5t46.5 -58.5t18.5 -83 q0 -97 -70 -149.5t-201 -52.5q-67 0 -113.5 11.5t-70.5 25.5l41 73q23 -13 62.5 -25.5t93.5 -12.5q31 0 62 5.5t56 19.5t40.5 37t15.5 58z"/>
		<glyph unicode="T" horiz-adv-x="528" d="M602 626h-207l-132 -626h-80l132 626h-205l15 74h492z"/>
		<glyph unicode="U" horiz-adv-x="618" d="M573 700h76l-98 -467q-14 -64 -35 -110t-52.5 -75t-75.5 -43t-102 -14q-55 0 -93 12.5t-61.5 35t-34 55t-10.5 71.5q0 41 11 93l93 442h80l-93 -443q-11 -44 -11 -80q0 -63 33 -87.5t98 -24.5q39 0 68.5 11t51 34t36 59t25.5 87z"/>
		<glyph unicode="V" horiz-adv-x="541" d="M253 221v-107h2l45 109l265 477h86l-402 -711h-37l-108 711h82z"/>
		<glyph unicode="W" horiz-adv-x="788" d="M214 233l-9 -116h1l39 118l235 465h43l37 -467l-9 -116h1l40 118l213 465h82l-336 -711h-44l-38 469l6 106h-4l-40 -107l-234 -468h-44l-39 711h82z"/>
		<glyph unicode="X" horiz-adv-x="588" d="M289 358l-130 342h87l86 -237l12 -57l34 57l191 237h97l-279 -339l142 -361h-87l-96 251l-14 60l-38 -60l-204 -251h-97z"/>
		<glyph unicode="Y" horiz-adv-x="531" d="M241 278l-133 422h87l89 -306l3 -61h1l30 63l217 304h90l-304 -421l-59 -279h-80z"/>
		<glyph unicode="Z" d="M14 75l435 511l49 40h-366l15 74h447l-15 -75l-438 -514l-47 -37h367l-15 -74h-447z"/>
		<glyph unicode="[" horiz-adv-x="291" d="M213 700h76h97l-15 -70h-97l-168 -790h98l-15 -70h-98h-75z"/>
		<glyph unicode="\" horiz-adv-x="380" d="M449 -111l-66 -29l-342 824l69 28z"/>
		<glyph unicode="]" horiz-adv-x="293" d="M109 -230h-75h-97l15 70h96l167 790h-97l15 70h99h74z"/>
		<glyph unicode="^" horiz-adv-x="500" d="M288 711h29l169 -276h-83l-79 135l-23 69l-31 -70l-93 -134h-75z"/>
		<glyph unicode="_" horiz-adv-x="408" d="M-44 -137h408v-68h-408v68z"/>
		<glyph unicode="`" horiz-adv-x="238" d="M418 571h-43l-81 128l4 21h91z"/>
		<glyph unicode="a" horiz-adv-x="487" d="M414 197q-8 -37 -11 -75t-3 -71v-29q0 -13 2 -24h-56l-14 87h-4q-12 -17 -29.5 -34.5t-38.5 -31.5t-45 -22.5t-51 -8.5q-119 0 -119 155q0 64 16.5 130t51 119t89 87t131.5 34q28 0 68.5 -6.5t75.5 -17.5zM187 52q24 0 46 11.5t41.5 28.5t34.5 36.5t24 36.5l56 270 q-30 14 -76 14t-81 -27t-59 -70.5t-36 -98.5t-12 -110q0 -38 15 -64.5t47 -26.5z"/>
		<glyph unicode="b" horiz-adv-x="521" d="M185 700h75l-61 -286h4q14 18 32 35.5t40 31.5t47 22.5t54 8.5q59 0 86 -41.5t27 -104.5q0 -90 -25 -159.5t-66 -117.5t-93.5 -73t-107.5 -25q-54 0 -94.5 12t-59.5 28zM352 448q-25 0 -51 -12.5t-49.5 -32.5t-43 -44.5t-31.5 -47.5l-50 -235q30 -21 85 -21q32 0 67 19.5 t64 57t47.5 92t18.5 124.5q0 51 -15.5 75.5t-41.5 24.5z"/>
		<glyph unicode="c" horiz-adv-x="420" d="M365 43q-15 -13 -34.5 -23t-40 -17t-40.5 -11t-38 -4q-49 0 -80.5 15.5t-49.5 39.5t-25 52t-7 53q0 85 23 152.5t61.5 114.5t88.5 72t103 25q38 0 62.5 -7t44.5 -16l-28 -62q-17 10 -42 15.5t-54 5.5q-34 0 -66.5 -23t-57.5 -60.5t-40 -86t-15 -99.5q0 -65 27 -96t73 -31 q30 0 63 13.5t53 27.5z"/>
		<glyph unicode="d" horiz-adv-x="509" d="M419 172q-8 -39 -12 -73t-4 -63q0 -11 0.5 -20t1.5 -18h-50l-14 87h-4q-12 -17 -30 -34.5t-40 -31.5t-46.5 -22.5t-50.5 -8.5q-55 0 -87.5 40.5t-32.5 128.5q0 59 17 121.5t50 113.5t82.5 84t114.5 33q18 0 31 -1t24.5 -3t21.5 -5l21 -8l44 208h75zM198 52q21 0 43 11.5 t41.5 28.5t35 36.5t24.5 36.5l56 260q-17 11 -38.5 15.5t-56.5 4.5q-40 0 -72 -24.5t-54.5 -65.5t-34.5 -94t-12 -109q0 -41 16 -70.5t52 -29.5z"/>
		<glyph unicode="e" horiz-adv-x="463" d="M389 49q-35 -30 -82.5 -45.5t-95.5 -15.5q-80 0 -120.5 46t-40.5 128t23 147t60.5 110t85 69t97.5 24q36 0 62.5 -10t43.5 -26.5t25 -38t8 -45.5q0 -71 -69 -111.5t-201 -40.5q-12 0 -25 0.5t-27 1.5q-4 -19 -6 -36t-2 -30q0 -55 25 -89.5t78 -34.5q44 0 80.5 14.5 t56.5 30.5zM304 448q-55 0 -95.5 -37.5t-61.5 -112.5q38 0 79 2t74.5 10.5t55.5 27t22 51.5q0 10 -3.5 20.5t-11.5 19t-22.5 14t-36.5 5.5z"/>
		<glyph unicode="f" horiz-adv-x="278" d="M219 436l-80 -470q-6 -37 -16.5 -68.5t-27.5 -55t-43 -37t-63 -13.5q-30 0 -55.5 4.5t-47.5 15.5l22 56q20 -7 36.5 -9.5t40.5 -2.5q38 0 57 36.5t32 115.5l70 428h-77l13 64h73l13 67q7 37 17 64t26.5 45t41 27t59.5 9q33 0 64 -6.5t56 -17.5l-22 -59q-49 19 -93 19 q-37 0 -54 -25.5t-26 -81.5l-7 -41h101l-12 -64h-98z"/>
		<glyph unicode="g" horiz-adv-x="505" d="M385 -23q-21 -98 -72.5 -143.5t-136.5 -45.5q-65 0 -107 16.5t-64 28.5l33 56q8 -4 19.5 -10.5t28 -12.5t40 -10t55.5 -4q50 0 84 36t51 113l18 84h-4q-14 -19 -30.5 -36t-36.5 -30.5t-43.5 -21.5t-51.5 -8q-54 0 -87 39t-33 111q0 67 18.5 133t55 118.5t90 85.5 t123.5 33q54 0 91 -9t65 -22zM196 53q25 0 49.5 13t45 33.5t37 44.5t27.5 45l51 241q-16 9 -39 12t-47 3q-41 0 -76 -24t-60.5 -64.5t-40.5 -93.5t-15 -111q0 -46 18.5 -72.5t49.5 -26.5z"/>
		<glyph unicode="h" horiz-adv-x="529" d="M341 0l60 285q6 30 10 53.5t4 41.5q0 37 -15 52.5t-47 15.5q-26 0 -53 -13.5t-52 -34.5t-44.5 -47t-29.5 -50l-63 -303h-75l148 700h75l-62 -286h4q13 16 31.5 33t42.5 31.5t52 24t61 9.5q49 0 77 -23.5t28 -85.5q0 -42 -13 -101l-64 -302h-75z"/>
		<glyph unicode="i" horiz-adv-x="259" d="M160 500h75l-106 -500h-75zM176 653q0 23 15.5 39t38.5 16t39 -16t16 -39t-16 -38.5t-39 -15.5t-38.5 15.5t-15.5 38.5z"/>
		<glyph unicode="j" horiz-adv-x="249" d="M148 500h75l-112 -527q-20 -93 -62 -137t-114 -44q-8 0 -15.5 0.5t-15.5 1.5l15 65q30 0 49.5 8.5t33 26.5t23 45t17.5 64zM164 653q0 23 15.5 39t38.5 16t39 -16t16 -39t-16 -38.5t-39 -15.5t-38.5 15.5t-15.5 38.5z"/>
		<glyph unicode="k" horiz-adv-x="449" d="M212 225h-54l-47 -225h-75l148 700h75l-91 -426l43 11l180 215h92l-178 -203l-47 -33l38 -39l112 -225h-83z"/>
		<glyph unicode="l" horiz-adv-x="270" d="M133 119q-3 -17 -3 -28q0 -19 6.5 -27.5t17.5 -8.5q20 0 33.5 2.5t32.5 9.5v-57q-9 -5 -21 -8.5t-24.5 -5.5t-25 -3.5t-22.5 -1.5q-35 0 -56 16t-21 59q0 20 6 49l124 585h75z"/>
		<glyph unicode="m" horiz-adv-x="763" d="M305 0l60 283q8 35 12 62t4 47q0 27 -10 41.5t-34 14.5q-25 0 -49 -13t-45 -32.5t-38.5 -41.5t-27.5 -40l-66 -321h-75l106 500h53l-6 -86h4l35 34q18 17 40.5 31t49 23.5t58.5 9.5q45 0 60.5 -28t15.5 -78q15 19 35 38t43.5 34t49.5 24.5t52 9.5q46 0 70.5 -21.5 t24.5 -79.5q0 -42 -15 -111l-63 -300h-75l63 301q6 29 9.5 52t3.5 40q0 27 -11 41t-37 14q-21 0 -44.5 -13.5t-45.5 -33.5t-39.5 -43t-27.5 -43l-65 -315h-75z"/>
		<glyph unicode="n" horiz-adv-x="522" d="M331 0l67 316q4 18 7 35.5t3 31.5q0 29 -13.5 47t-50.5 18q-26 0 -51 -12t-47 -30.5t-39.5 -41t-29.5 -44.5l-66 -320h-75l106 500h52l-4 -86h4q13 16 31 33.5t40.5 31.5t50.5 23.5t62 9.5q50 0 79 -24t29 -84q0 -30 -9 -72l-71 -332h-75z"/>
		<glyph unicode="o" horiz-adv-x="498" d="M50 156q0 79 20.5 144.5t56.5 112.5t83.5 73t101.5 26q42 0 71.5 -13.5t48 -37t26.5 -54t8 -63.5q0 -75 -19.5 -140t-54 -113t-80.5 -75.5t-100 -27.5q-45 0 -75.5 14.5t-50 38.5t-28 54t-8.5 61zM130 174q0 -59 22 -90.5t70 -31.5q33 0 62.5 23.5t52 63.5t36 91.5 t13.5 107.5q0 51 -18.5 80.5t-70.5 29.5q-33 0 -63 -22.5t-53.5 -60.5t-37 -87.5t-13.5 -103.5z"/>
		<glyph unicode="p" horiz-adv-x="508" d="M144 500h52l-5 -86h4q14 18 31.5 35.5t38.5 31.5t46 22.5t54 8.5q24 0 45 -7.5t37 -25t25.5 -46.5t9.5 -71q0 -88 -24 -157.5t-63 -117.5t-87.5 -73.5t-96.5 -25.5q-35 0 -61.5 6.5t-35.5 13.5l-44 -208h-75zM337 448q-27 0 -51.5 -14t-45 -34.5t-36.5 -44t-26 -43.5 l-49 -237q17 -13 35 -18t39 -5q39 0 74.5 21.5t63.5 61.5t44.5 96t16.5 125q0 40 -16.5 66t-48.5 26z"/>
		<glyph unicode="q" horiz-adv-x="503" d="M340 -200h-75l61 284h-4q-12 -16 -27.5 -33t-35 -31t-43.5 -23t-51 -9q-32 0 -55 11.5t-37 32t-20.5 48.5t-6.5 61q0 67 22 133t61 118t93 84.5t119 32.5q21 0 42.5 -3t40.5 -7.5t35 -10t25 -11.5zM186 52q25 0 50.5 15t47.5 37.5t39 48t27 46.5l50 231q-16 9 -38.5 12 t-39.5 3q-39 0 -74.5 -25t-62.5 -66.5t-43 -95t-16 -110.5q0 -48 15.5 -72t44.5 -24z"/>
		<glyph unicode="r" horiz-adv-x="327" d="M362 434q-9 2 -18.5 3t-17.5 1q-51 0 -88 -32t-58 -78l-69 -328h-75l106 500h52v-86h4q12 19 26 35.5t31 29.5t37 20.5t44 7.5q22 0 46 -7z"/>
		<glyph unicode="s" horiz-adv-x="398" d="M259 141q0 26 -13 44t-33 32.5t-43 28.5t-43 31.5t-33 41t-13 58.5q0 28 13.5 52.5t37 43t56 29t70.5 10.5q53 0 82 -7t52 -20l-25 -60q-40 23 -109 23q-42 0 -69.5 -17.5t-27.5 -53.5q0 -21 13 -36.5t33 -29.5t43 -28.5t43 -33t33 -43.5t13 -59q0 -78 -52.5 -118.5 t-140.5 -40.5q-45 0 -82.5 9t-60.5 23l28 63q20 -13 52.5 -22t67.5 -9q49 0 78.5 21.5t29.5 67.5z"/>
		<glyph unicode="t" horiz-adv-x="313" d="M71 500h74l21 99l80 23l-26 -122h131l-15 -64h-130l-63 -302q-2 -12 -3.5 -22t-1.5 -18q0 -24 11 -33t33 -9q24 0 44 6t40 18v-61q-21 -12 -54 -19.5t-63 -7.5q-91 0 -91 83q0 17 5 42l68 323h-75z"/>
		<glyph unicode="u" horiz-adv-x="511" d="M213 500l-70 -333q-6 -27 -6 -50q0 -28 11 -46.5t40 -18.5q24 0 48.5 12t47 31t41 42t30.5 45l67 318h75l-63 -297q-4 -17 -8 -41.5t-7.5 -51.5t-5.5 -52.5t-2 -44.5v-13h-59v95h-4q-15 -20 -34.5 -39t-43 -34t-50.5 -24.5t-57 -9.5q-22 0 -40.5 5t-32.5 17.5t-22 33 t-8 52.5q0 35 10 79l68 325h75z"/>
		<glyph unicode="v" horiz-adv-x="447" d="M192 207l9 -95h2l43 97l169 291h86l-312 -511h-32l-97 511h80z"/>
		<glyph unicode="w" horiz-adv-x="685" d="M427 500l47 -292l4 -96h1l39 98l147 290h76l-269 -511h-38l-53 330l-1 82h-2l-37 -83l-190 -329h-36l-58 511h76l31 -291l-2 -97h4l40 99l165 289h56z"/>
		<glyph unicode="x" horiz-adv-x="484" d="M203 256l-107 244h85l59 -138l18 -57l41 57l121 138h91l-212 -240l119 -260h-85l-68 152l-20 60l-42 -60l-134 -152h-91z"/>
		<glyph unicode="y" horiz-adv-x="439" d="M194 176l5 -96h5l38 97l166 323h80l-236 -446l-52 -96q-25 -46 -52 -82.5t-56 -58.5t-60 -22q-17 0 -29.5 2t-22.5 7l24 69q11 -4 24 -4q29 0 58 30t65 101l-86 500h80z"/>
		<glyph unicode="z" horiz-adv-x="429" d="M11 69l281 319l55 43h-258l15 69h337l-15 -69l-284 -322l-54 -40h261l-14 -69h-337z"/>
		<glyph unicode="{" horiz-adv-x="326" d="M231 -230h-81q-35 0 -54 20q-18 18 -18 51q0 18 4 33l50 238q4 18 4 32v7q0 26 -14 37q-17 13 -47 13l15 68q74 0 93 85l52 242q10 47 38.5 76t73.5 29h81l-15 -70h-48q-26 0 -40.5 -13.5t-21.5 -45.5l-49 -237q-9 -44 -34 -67t-52 -28l-1 -6q20 -3 35 -23q13 -19 13 -48 q0 -9 -1 -16q-2 -7 -6.5 -31.5t-15.5 -75.5l-31 -141q-1 -6 -2 -11t-1 -12q0 -36 42 -36h47z"/>
		<glyph unicode="|" horiz-adv-x="238" d="M115 700h69v-830h-69v830z"/>
		<glyph unicode="}" horiz-adv-x="331" d="M232 359q-4 -17 -4 -34q0 -30 16 -42q16 -13 46 -13l-16 -68q-36 0 -60 -21t-34 -64q0 -1 -2.5 -12t-5.5 -28l-8 -39q-5 -22 -9 -44l-25 -119q-10 -47 -39 -76t-74 -29h-80l16 70h47q25 0 39.5 13.5t20.5 45.5l50 237q10 44 34.5 67t52.5 28l2 6q-22 3 -37 23 q-13 19 -13 48q0 9 1 16l2 12l51 236q2 6 3 11v12q0 36 -41 36h-46l14 70h81q35 0 54 -19q18 -17 18 -49v-7q0 -14 -4 -29z"/>
		<glyph unicode="~" horiz-adv-x="480" d="M46 361q43 33 78 46t64 13q28 0 52 -8.5t46 -19t43 -19t44 -8.5q19 0 39 8t43 28l34 -61q-38 -26 -68.5 -36.5t-55.5 -10.5q-27 0 -49.5 8.5t-43 19t-41 19t-44.5 8.5q-23 0 -49 -10.5t-58 -36.5z"/>
		<glyph unicode="&#xa1;" horiz-adv-x="290" d="M96 -200h-78l74 347l53 176h47l-22 -176zM131 453q0 27 16 42.5t42 15.5t42 -15.5t16 -42.5q0 -26 -16 -42t-42 -16t-42 16t-16 42z"/>
		<glyph unicode="&#xa2;" d="M419 43q-25 -21 -59 -34t-66 -18l-19 -91h-66l19 90q-38 6 -63 23t-39 39.5t-19.5 47.5t-5.5 48q0 77 19 139.5t51.5 109t75.5 75t91 36.5l20 92h67l-20 -89q26 -3 45.5 -9t36.5 -13l-28 -62q-13 8 -32 13t-42 7l-83 -393q27 4 54 16t44 23zM181 179q0 -55 18.5 -85.5 t51.5 -38.5l82 389q-30 -8 -57.5 -32.5t-48.5 -60.5t-33.5 -80.5t-12.5 -91.5z"/>
		<glyph unicode="&#xa3;" d="M118 397h65q-4 18 -6 38.5t-2 46.5q0 57 20 100.5t53.5 72t78.5 43t96 14.5q40 0 75.5 -8.5t58.5 -21.5l-27 -64q-20 11 -52 18t-72 7q-31 0 -58.5 -10.5t-48 -31t-32.5 -50t-12 -67.5q0 -31 2.5 -51t6.5 -36h155l-15 -64h-125q2 -12 3 -27t1 -35q0 -33 -6.5 -61 t-16 -50.5t-21.5 -39t-23 -26.5l-45 -34l-1 -5l62 14h244l-15 -69h-424l15 71q30 0 57.5 15t48.5 40.5t33.5 60.5t12.5 77q0 20 -2 36.5t-5 32.5h-94z"/>
		<glyph unicode="&#xa4;" d="M91 596l78 -77l21 -35q42 33 103 33q59 0 103 -33l22 35l78 77l48 -49l-76 -78l-35 -22q32 -43 32 -102q0 -60 -32 -103l35 -21l76 -78l-48 -48l-78 77l-21 33q-43 -31 -104 -31q-62 0 -103 31l-21 -33l-78 -77l-49 48l77 78l34 22q-31 42 -31 102q0 29 8.5 55t22.5 48 l-34 21l-77 78zM191 345q0 -45 28.5 -75t73.5 -30t74 30t29 75t-29 75.5t-74 30.5t-73.5 -30.5t-28.5 -75.5z"/>
		<glyph unicode="&#xa5;" d="M129 328h89l-115 372h87l92 -306l3 -61h1l30 63l213 304h90l-269 -372h89l-13 -60h-114l-13 -63h114l-13 -60h-114l-30 -145h-80l30 145h-116l12 60h117l13 63h-116z"/>
		<glyph unicode="&#xa6;" horiz-adv-x="238" d="M115 206h69v-336h-69v336zM184 364h-69v336h69v-336z"/>
		<glyph unicode="&#xa7;" horiz-adv-x="473" d="M88 337q0 44 21.5 75t55.5 54l46 18q-23 19 -32.5 40t-9.5 46q0 30 14 56t38 45t56.5 30t70.5 11q52 0 83.5 -9t54.5 -23l-29 -61q-20 11 -49.5 18t-64.5 7q-43 0 -69.5 -21.5t-26.5 -55.5q0 -21 16 -34t38 -23t48.5 -20t48.5 -25.5t37 -38.5t15 -60q0 -43 -23 -77 t-55 -54l-54 -18q23 -16 35 -37t12 -56q0 -34 -14.5 -59.5t-38.5 -42.5t-56 -25.5t-68 -8.5q-52 0 -84.5 11t-55.5 25l32 61q20 -11 48.5 -20t64.5 -9q40 0 67 15.5t27 52.5q0 22 -14 37t-36 26.5t-48.5 23.5t-48.5 28t-37 39t-15 59zM370 355q0 22 -9 36t-25 24.5t-37 18.5 l-45 18q-15 -6 -30.5 -15.5t-28 -22t-20 -29t-7.5 -37.5t9 -36t24 -26t35 -20l44 -17q15 6 30.5 15.5t29 22.5t22 30t8.5 38z"/>
		<glyph unicode="&#xa8;" horiz-adv-x="245" d="M195 653q0 22 12.5 36.5t33.5 14.5t34 -14.5t13 -36.5q0 -20 -13 -34.5t-34 -14.5t-33.5 14.5t-12.5 34.5zM378 654q0 21 12.5 35.5t33.5 14.5q22 0 34.5 -14.5t12.5 -35.5t-12.5 -35.5t-34.5 -14.5q-21 0 -33.5 14.5t-12.5 35.5z"/>
		<glyph unicode="&#xa9;" horiz-adv-x="806" d="M77 290q0 83 28 148.5t76 110.5t112 69t136 24t136 -24t112 -69t76 -110.5t28 -148.5t-28 -148.5t-76 -110.5t-112 -69t-136 -24q-80 0 -145 24t-111 69t-71 110.5t-25 148.5zM147 290q0 -69 22 -122.5t60 -89.5t89.5 -55t110.5 -19t110.5 19t89.5 55t60 89.5t22 122.5 t-22 122.5t-60 89.5t-89.5 55t-110.5 19t-110.5 -19t-89.5 -55t-60 -89.5t-22 -122.5zM545 127q-23 -13 -51.5 -20t-66.5 -7q-81 0 -123.5 51t-42.5 139q0 91 45.5 140.5t120.5 49.5q18 0 32.5 -2t27 -5.5t24.5 -8.5l27 -11l-26 -61q-22 11 -42 15t-34 4q-42 0 -68.5 -26 t-26.5 -95q0 -58 26 -89.5t77 -32.5q47 0 80 18z"/>
		<glyph unicode="&#xaa;" horiz-adv-x="381" d="M124 677q26 13 61.5 22t83.5 9q47 0 71.5 -21t24.5 -53q0 -25 -7.5 -57.5t-17 -67.5t-17 -68.5t-7.5 -60.5h-50l-3 46h-3q-17 -17 -43 -33.5t-67 -16.5q-45 0 -67.5 25.5t-22.5 60.5q0 31 14.5 53t38.5 36.5t55.5 21t66.5 6.5q14 0 28 -1t28 -3q6 19 6 34q0 43 -57 43 q-38 0 -64.5 -7.5t-46.5 -16.5zM171 432q41 0 64.5 18.5t35.5 36.5l8 42q-10 1 -19 1h-21q-21 0 -40.5 -2.5t-35 -9t-25 -18.5t-9.5 -31q0 -16 10 -26.5t32 -10.5z"/>
		<glyph unicode="&#xab;" horiz-adv-x="454" d="M212 259l198 228l44 -46l-123 -144l-56 -37l34 -37l67 -141l-54 -42zM38 259l200 230l45 -47l-124 -145l-57 -37l35 -37l67 -142l-54 -43z"/>
		<glyph unicode="&#xac;" horiz-adv-x="505" d="M67 392h424v-192h-70v120h-354v72z"/>
		<glyph unicode="&#xad;" horiz-adv-x="342" d="M79 322h230l-17 -68h-229z"/>
		<glyph unicode="&#xae;" horiz-adv-x="700" d="M137 451q0 64 21 113.5t57.5 83t84.5 51t102 17.5q55 0 103.5 -17.5t84.5 -51t56.5 -83t20.5 -113.5t-21 -113.5t-57.5 -83t-84.5 -51t-102 -17.5q-56 0 -104 17.5t-84 51t-56.5 83t-20.5 113.5zM200 451q0 -52 16 -90.5t43.5 -64t64.5 -38.5t78 -13q43 0 80 12.5t64 38 t42.5 64t15.5 91.5q0 52 -16 90.5t-43.5 64t-64 38.5t-78.5 13q-44 0 -81 -13t-64 -38.5t-42 -64t-15 -90.5zM299 581q16 5 45 7.5t55 2.5q42 0 72 -17.5t30 -60.5q0 -32 -20.5 -49t-50.5 -19l28 -14l74 -109h-61l-72 104l-48 15v-119h-52v259zM388 546q-11 0 -21 -0.5 t-16 -3.5v-71h34q29 0 45 9t16 31q0 35 -58 35z"/>
		<glyph unicode="&#xaf;" horiz-adv-x="313" d="M324 643h281l-13 -62h-282z"/>
		<glyph unicode="&#xb0;" horiz-adv-x="425" d="M141 571q0 31 11 57t30 44.5t45 29t55 10.5t55 -9.5t45 -28t30 -44.5t11 -59t-11 -59t-30 -44.5t-45 -28t-55 -9.5t-55 9.5t-45 28t-30 44.5t-11 59zM205 571q0 -38 23 -59.5t54 -21.5t54 21.5t23 59.5t-23 59.5t-54 21.5t-54 -21.5t-23 -59.5z"/>
		<glyph unicode="&#xb1;" horiz-adv-x="480" d="M55 493h176v181h72v-181h176v-72h-176v-120h-72v120h-176v72zM55 250h424v-72h-424v72z"/>
		<glyph unicode="&#xb2;" horiz-adv-x="377" d="M416 713q0 -32 -14.5 -64.5t-39 -65t-56.5 -63t-66 -58.5l-50 -31v-3l57 16h131l-14 -64h-275l7 33l44 33q25 19 53 43t55 51t49 54.5t35.5 53.5t13.5 49q0 46 -55 46q-26 0 -52 -9.5t-46 -21.5l-9 57q28 18 63 28t69 10q18 0 36 -4.5t32 -15.5t23 -29t9 -45z"/>
		<glyph unicode="&#xb3;" horiz-adv-x="377" d="M223 433q56 0 82.5 27.5t26.5 65.5q0 27 -16 40.5t-64 13.5h-52l4 23l116 117l38 26l-48 -6h-121l13 60h243l-7 -33l-124 -124l-26 -18l-1 -2l22 3q38 0 64.5 -24.5t26.5 -66.5q0 -32 -10 -61.5t-32 -52t-57.5 -35.5t-87.5 -13q-34 0 -57.5 6t-40.5 13l26 60 q14 -8 35 -13.5t47 -5.5z"/>
		<glyph unicode="&#xb4;" horiz-adv-x="238" d="M425 720h84l-5 -21l-123 -128h-44z"/>
		<glyph unicode="&#xb5;" horiz-adv-x="525" d="M209 500l-38 -184l-21 -103q-7 -36 -8.5 -49t-1.5 -21q0 -86 80 -86q53 0 96 33t69 86l69 324h75l-72 -337q-8 -41 -14 -82.5t-6 -80.5h-51l-12 74h-4q-27 -35 -71.5 -60.5t-101.5 -25.5q-45 0 -66.5 20.5t-29.5 49.5h-5l-7 -125l-28 -133h-75l148 700h75z"/>
		<glyph unicode="&#x3bc;" horiz-adv-x="525" d="M209 500l-38 -184l-21 -103q-7 -36 -8.5 -49t-1.5 -21q0 -86 80 -86q53 0 96 33t69 86l69 324h75l-72 -337q-8 -41 -14 -82.5t-6 -80.5h-51l-12 74h-4q-27 -35 -71.5 -60.5t-101.5 -25.5q-45 0 -66.5 20.5t-29.5 49.5h-5l-7 -125l-28 -133h-75l148 700h75z"/>
		<glyph unicode="&#xb6;" horiz-adv-x="495" d="M378 700h69v-830h-69v830zM222 310q-32 0 -59 16.5t-46.5 44t-30.5 63t-11 72.5t11.5 72t33.5 62t54 43.5t72 16.5h45v-830h-69v440z"/>
		<glyph unicode="&#xb7;" horiz-adv-x="267" d="M98 296q0 27 16 42.5t42 15.5t42 -15.5t16 -42.5q0 -26 -16 -42t-42 -16t-42 16t-16 42z"/>
		<glyph unicode="&#xb8;" horiz-adv-x="363" d="M354 -43q27 -3 44.5 -20.5t17.5 -49.5q0 -42 -31.5 -69t-94.5 -27q-12 0 -25.5 1.5t-27.5 3.5l17 39q5 -1 10 -1h11q21 0 35 4t22 9.5t11 12.5t3 13q0 19 -21 28t-56 9l65 90h53z"/>
		<glyph unicode="&#xb9;" horiz-adv-x="377" d="M129 441h101l54 254l14 36l-31 -28l-81 -45l-21 46l170 103h39l-78 -366h90l-13 -61h-257z"/>
		<glyph unicode="&#xba;" horiz-adv-x="379" d="M60 490q0 58 17.5 100t44.5 69t60 40t65 13q57 0 86.5 -31t29.5 -88q0 -54 -15 -95t-40.5 -69t-60 -42.5t-72.5 -14.5q-51 0 -83 31t-32 87zM129 498q0 -32 14.5 -50t43.5 -18q21 0 40.5 11t34.5 31.5t23.5 50t8.5 66.5q0 35 -15.5 50t-43.5 15q-21 0 -40.5 -12.5 t-34 -33.5t-23 -49.5t-8.5 -60.5z"/>
		<glyph unicode="&#xbb;" horiz-adv-x="454" d="M280 268l-198 -228l-44 45l123 144l56 38l-35 43l-68 141l57 36zM454 268l-200 -230l-45 46l124 145l56 38l-35 44l-69 142l58 36z"/>
		<glyph unicode="&#xbc;" horiz-adv-x="797" d="M639 713l52 -36l-487 -689l-52 36zM744 96h-78l-21 -96h-64l21 96h-193l7 37l278 302h43l-59 -280h79zM641 283l17 49h-2l-31 -46l-96 -105l-38 -31l49 5h74zM256 595l15 36l-31 -28l-81 -45l-24 49l173 100h39l-91 -427h-66z"/>
		<glyph unicode="&#xbd;" horiz-adv-x="809" d="M639 713l52 -36l-487 -689l-52 36zM784 333q0 -32 -14.5 -64.5t-39 -65t-56.5 -63t-66 -58.5l-50 -31v-3l57 16h131l-14 -64h-275l7 33l44 33q25 19 53 43t55 51t49 54.5t35.5 53.5t13.5 49q0 46 -55 46q-26 0 -52 -9.5t-46 -21.5l-9 57q28 18 63 28t69 10q18 0 36 -4.5 t32 -15.5t23 -29t9 -45zM256 595l15 36l-31 -28l-81 -45l-24 49l173 100h39l-91 -427h-66z"/>
		<glyph unicode="&#xbe;" horiz-adv-x="833" d="M675 713l52 -36l-487 -689l-52 36zM780 96h-78l-21 -96h-64l21 96h-193l7 37l278 302h43l-59 -280h79zM677 283l17 49h-2l-31 -46l-96 -105l-38 -31l49 5h74zM209 333q56 0 82.5 27.5t26.5 65.5q0 27 -16 40.5t-64 13.5h-52l4 23l116 117l38 26l-48 -6h-121l13 60h243 l-7 -33l-124 -124l-26 -18l-1 -2l22 3q38 0 64.5 -24.5t26.5 -66.5q0 -32 -10 -61.5t-32 -52t-57.5 -35.5t-87.5 -13q-34 0 -57.5 6t-40.5 13l26 60q14 -8 35 -13.5t47 -5.5z"/>
		<glyph unicode="&#xbf;" horiz-adv-x="413" d="M306 323q-5 -50 -25 -87.5t-47 -68t-56.5 -56.5t-54 -53t-41 -57t-16.5 -69t20.5 -59.5t71.5 -20.5q35 0 69 13.5t63 30.5l20 -58q-20 -12 -39 -21t-40 -15.5t-45.5 -10t-55.5 -3.5q-74 0 -109 34t-35 88t17 93.5t43 70.5t57.5 57.5t60 54.5t50 60.5t28.5 76.5h64z M234 454q0 27 16 42.5t42 15.5t42 -15.5t16 -42.5q0 -26 -16 -42t-42 -16t-42 16t-16 42z"/>
		<glyph unicode="&#xc0;" horiz-adv-x="557" d="M404 194h-244l-108 -194h-85l404 711h37l101 -711h-77zM199 266h197l-29 213l-2 106h-1l-45 -108zM456 752h-63l-129 97l4 21h101z"/>
		<glyph unicode="&#xc1;" horiz-adv-x="557" d="M404 194h-244l-108 -194h-85l404 711h37l101 -711h-77zM199 266h197l-29 213l-2 106h-1l-45 -108zM467 870h116l-5 -21l-175 -97h-73z"/>
		<glyph unicode="&#xc2;" horiz-adv-x="557" d="M404 194h-244l-108 -194h-85l404 711h37l101 -711h-77zM199 266h197l-29 213l-2 106h-1l-45 -108zM393 870h48l99 -102l-4 -21h-68l-46 49l-10 35l-25 -34l-71 -50h-75l5 22z"/>
		<glyph unicode="&#xc3;" horiz-adv-x="557" d="M404 194h-244l-108 -194h-85l404 711h37l101 -711h-77zM199 266h197l-29 213l-2 106h-1l-45 -108zM257 785q35 32 62.5 43.5t50.5 11.5q18 0 33.5 -5t30 -11.5t28.5 -11.5t29 -5q25 0 53 21l16 -43q-32 -26 -56.5 -35t-44.5 -9q-18 0 -33 5t-29.5 11.5t-28.5 11.5t-29 5 t-31.5 -6.5t-36.5 -23.5z"/>
		<glyph unicode="&#xc4;" horiz-adv-x="557" d="M404 194h-244l-108 -194h-85l404 711h37l101 -711h-77zM199 266h197l-29 213l-2 106h-1l-45 -108zM263 794q0 20 14 33.5t37 13.5t36.5 -13.5t13.5 -33.5t-13.5 -33t-36.5 -13t-37 13t-14 33zM446 794q0 20 13.5 33.5t36.5 13.5t37 -13.5t14 -33.5t-14 -33t-37 -13 t-36.5 13t-13.5 33z"/>
		<glyph unicode="&#xc5;" horiz-adv-x="557" d="M296 768q0 37 25 61t80 24q50 0 78 -21.5t28 -63.5q0 -35 -24 -57.5t-72 -25.5l98 -685h-77l-28 194h-244l-108 -194h-85l392 690q-63 17 -63 78zM199 265h197l-29 214l-2 106h-1l-45 -108zM357 768q0 -17 10.5 -28.5t33.5 -11.5q22 0 33.5 11t11.5 29q0 19 -11 30.5 t-34 11.5q-22 0 -33 -11.5t-11 -30.5z"/>
		<glyph unicode="&#xc6;" horiz-adv-x="805" d="M459 599l-51 -101l-174 -229h157l71 330h-3zM377 197h-199l-148 -197h-92l541 700h366l-15 -73h-283l-49 -230h259l-16 -73h-258l-54 -251h288l-15 -73h-287h-80z"/>
		<glyph unicode="&#xc7;" horiz-adv-x="544" d="M480 29q-32 -22 -68.5 -31t-83.5 -10l-24 -31q27 -3 44.5 -20.5t17.5 -49.5q0 -42 -31.5 -69t-94.5 -27q-12 0 -25.5 1.5t-27.5 3.5l17 39q5 -1 10 -1h11q21 0 35 4t22 9.5t11 12.5t3 13q0 19 -21 28t-56 9l58 81q-49 7 -87 31.5t-64.5 61.5t-40.5 85.5t-14 104.5 q0 113 33 195.5t87 136.5t121.5 80t136.5 26q57 0 93 -8t59 -19l-36 -73q-20 11 -52.5 18.5t-74.5 7.5q-56 0 -107.5 -24.5t-90.5 -70.5t-62 -112t-23 -148q0 -48 12.5 -88.5t36 -70t58 -46t78.5 -16.5q47 0 78 10.5t56 24.5z"/>
		<glyph unicode="&#xc8;" horiz-adv-x="510" d="M189 700h361l-15 -74h-283l-49 -229h259l-15 -74h-259l-53 -249h288l-16 -74h-288h-79zM423 752h-63l-129 97l4 21h101z"/>
		<glyph unicode="&#xc9;" horiz-adv-x="510" d="M189 700h361l-15 -74h-283l-49 -229h259l-15 -74h-259l-53 -249h288l-16 -74h-288h-79zM451 870h116l-5 -21l-175 -97h-73z"/>
		<glyph unicode="&#xca;" horiz-adv-x="510" d="M189 700h361l-15 -74h-283l-49 -229h259l-15 -74h-259l-53 -249h288l-16 -74h-288h-79zM382 870h48l99 -102l-4 -21h-68l-46 49l-10 35l-25 -34l-71 -50h-75l5 22z"/>
		<glyph unicode="&#xcb;" horiz-adv-x="510" d="M189 700h361l-15 -74h-283l-49 -229h259l-15 -74h-259l-53 -249h288l-16 -74h-288h-79zM240 794q0 20 14 33.5t37 13.5t36.5 -13.5t13.5 -33.5t-13.5 -33t-36.5 -13t-37 13t-14 33zM423 794q0 20 13.5 33.5t36.5 13.5t37 -13.5t14 -33.5t-14 -33t-37 -13t-36.5 13 t-13.5 33z"/>
		<glyph unicode="&#xcc;" horiz-adv-x="277" d="M210 700h80l-148 -700h-80zM317 752h-63l-129 97l4 21h101z"/>
		<glyph unicode="&#xcd;" horiz-adv-x="277" d="M210 700h80l-148 -700h-80zM326 870h116l-5 -21l-175 -97h-73z"/>
		<glyph unicode="&#xce;" horiz-adv-x="277" d="M210 700h80l-148 -700h-80zM263 870h48l99 -102l-4 -21h-68l-46 49l-10 35l-25 -34l-71 -50h-75l5 22z"/>
		<glyph unicode="&#xcf;" horiz-adv-x="277" d="M210 700h80l-148 -700h-80zM124 794q0 20 14 33.5t37 13.5t36.5 -13.5t13.5 -33.5t-13.5 -33t-36.5 -13t-37 13t-14 33zM307 794q0 20 13.5 33.5t36.5 13.5t37 -13.5t14 -33.5t-14 -33t-37 -13t-36.5 13t-13.5 33z"/>
		<glyph unicode="&#xd0;" horiz-adv-x="626" d="M41 392h86l66 308q38 5 86 6.5t87 1.5q58 0 106 -15.5t81.5 -47.5t51.5 -81t18 -115q0 -44 -8 -95.5t-26.5 -102t-49.5 -97.5t-77 -83.5t-107.5 -58t-142.5 -21.5q-15 0 -39.5 0.5t-50.5 1.5q-68 4 -78 6l71 333h-87zM360 634h-27l-29 -2q-14 0 -27 -1t-20 -2l-50 -237 h137l-12 -60h-138l-55 -263q4 -1 16 -1.5t25 -1.5h26q13 -1 18 -1q87 0 146.5 36t97 91t54.5 121t17 125q0 45 -10 81t-31.5 61.5t-55.5 39.5t-82 14z"/>
		<glyph unicode="&#xd1;" horiz-adv-x="642" d="M261 458l-34 103h-3l-12 -103l-97 -458h-75l151 711h40l218 -468l33 -98h4l9 98l98 457h75l-151 -711h-37zM289 785q35 32 62.5 43.5t50.5 11.5q18 0 33.5 -5t30 -11.5t28.5 -11.5t29 -5q25 0 53 21l16 -43q-32 -26 -56.5 -35t-44.5 -9q-18 0 -33 5t-29.5 11.5 t-28.5 11.5t-29 5t-31.5 -6.5t-36.5 -23.5z"/>
		<glyph unicode="&#xd2;" horiz-adv-x="651" d="M71 256q0 92 25 175t71.5 145.5t112 99t145.5 36.5q48 0 89 -14.5t70.5 -46t46 -81.5t16.5 -122q0 -94 -25 -177.5t-70 -146.5t-107.5 -99.5t-137.5 -36.5q-118 0 -177 68.5t-59 199.5zM155 257q0 -94 39 -145.5t115 -51.5q56 0 102.5 31t80.5 84t52.5 123t18.5 148 q0 58 -13 96t-34.5 59.5t-49 30t-55.5 8.5q-57 0 -104 -31.5t-80.5 -84.5t-52.5 -122.5t-19 -144.5zM503 752h-63l-129 97l4 21h101z"/>
		<glyph unicode="&#xd3;" horiz-adv-x="651" d="M71 256q0 92 25 175t71.5 145.5t112 99t145.5 36.5q48 0 89 -14.5t70.5 -46t46 -81.5t16.5 -122q0 -94 -25 -177.5t-70 -146.5t-107.5 -99.5t-137.5 -36.5q-118 0 -177 68.5t-59 199.5zM155 257q0 -94 39 -145.5t115 -51.5q56 0 102.5 31t80.5 84t52.5 123t18.5 148 q0 58 -13 96t-34.5 59.5t-49 30t-55.5 8.5q-57 0 -104 -31.5t-80.5 -84.5t-52.5 -122.5t-19 -144.5zM532 870h116l-5 -21l-175 -97h-73z"/>
		<glyph unicode="&#xd4;" horiz-adv-x="651" d="M71 256q0 92 25 175t71.5 145.5t112 99t145.5 36.5q48 0 89 -14.5t70.5 -46t46 -81.5t16.5 -122q0 -94 -25 -177.5t-70 -146.5t-107.5 -99.5t-137.5 -36.5q-118 0 -177 68.5t-59 199.5zM155 257q0 -94 39 -145.5t115 -51.5q56 0 102.5 31t80.5 84t52.5 123t18.5 148 q0 58 -13 96t-34.5 59.5t-49 30t-55.5 8.5q-57 0 -104 -31.5t-80.5 -84.5t-52.5 -122.5t-19 -144.5zM447 870h48l99 -102l-4 -21h-68l-46 49l-10 35l-25 -34l-71 -50h-75l5 22z"/>
		<glyph unicode="&#xd5;" horiz-adv-x="651" d="M71 256q0 92 25 175t71.5 145.5t112 99t145.5 36.5q48 0 89 -14.5t70.5 -46t46 -81.5t16.5 -122q0 -94 -25 -177.5t-70 -146.5t-107.5 -99.5t-137.5 -36.5q-118 0 -177 68.5t-59 199.5zM155 257q0 -94 39 -145.5t115 -51.5q56 0 102.5 31t80.5 84t52.5 123t18.5 148 q0 58 -13 96t-34.5 59.5t-49 30t-55.5 8.5q-57 0 -104 -31.5t-80.5 -84.5t-52.5 -122.5t-19 -144.5zM298 785q35 32 62.5 43.5t50.5 11.5q18 0 33.5 -5t30 -11.5t28.5 -11.5t29 -5q25 0 53 21l16 -43q-32 -26 -56.5 -35t-44.5 -9q-18 0 -33 5t-29.5 11.5t-28.5 11.5t-29 5 t-31.5 -6.5t-36.5 -23.5z"/>
		<glyph unicode="&#xd6;" horiz-adv-x="651" d="M71 256q0 92 25 175t71.5 145.5t112 99t145.5 36.5q48 0 89 -14.5t70.5 -46t46 -81.5t16.5 -122q0 -94 -25 -177.5t-70 -146.5t-107.5 -99.5t-137.5 -36.5q-118 0 -177 68.5t-59 199.5zM155 257q0 -94 39 -145.5t115 -51.5q56 0 102.5 31t80.5 84t52.5 123t18.5 148 q0 58 -13 96t-34.5 59.5t-49 30t-55.5 8.5q-57 0 -104 -31.5t-80.5 -84.5t-52.5 -122.5t-19 -144.5zM307 794q0 20 14 33.5t37 13.5t36.5 -13.5t13.5 -33.5t-13.5 -33t-36.5 -13t-37 13t-14 33zM490 794q0 20 13.5 33.5t36.5 13.5t37 -13.5t14 -33.5t-14 -33t-37 -13 t-36.5 13t-13.5 33z"/>
		<glyph unicode="&#xd7;" horiz-adv-x="480" d="M138 517l127 -127l127 127l51 -53l-126 -125l126 -127l-51 -52l-127 127l-126 -128l-52 51l127 129l-127 125z"/>
		<glyph unicode="&#xd8;" horiz-adv-x="651" d="M71 256q0 92 25 175t71.5 145.5t112 99t145.5 36.5q39 0 73.5 -9.5t61.5 -29.5l29 39l49 -38l-35 -47q21 -31 32.5 -75t11.5 -104q0 -94 -25 -177.5t-70 -146.5t-107.5 -99.5t-137.5 -36.5q-88 0 -145 40l-29 -39l-50 39l34 46q-46 65 -46 182zM155 257q0 -63 18 -108 l337 456q-21 19 -46.5 27t-52.5 8q-57 0 -104 -31.5t-80.5 -84.5t-52.5 -122.5t-19 -144.5zM563 446q0 32 -4 58t-12 46l-337 -456q39 -34 99 -34q56 0 102.5 31t80.5 84t52.5 123t18.5 148z"/>
		<glyph unicode="&#xd9;" horiz-adv-x="618" d="M573 700h76l-98 -467q-14 -64 -35 -110t-52.5 -75t-75.5 -43t-102 -14q-55 0 -93 12.5t-61.5 35t-34 55t-10.5 71.5q0 41 11 93l93 442h80l-93 -443q-11 -44 -11 -80q0 -63 33 -87.5t98 -24.5q39 0 68.5 11t51 34t36 59t25.5 87zM499 752h-63l-129 97l4 21h101z"/>
		<glyph unicode="&#xda;" horiz-adv-x="618" d="M573 700h76l-98 -467q-14 -64 -35 -110t-52.5 -75t-75.5 -43t-102 -14q-55 0 -93 12.5t-61.5 35t-34 55t-10.5 71.5q0 41 11 93l93 442h80l-93 -443q-11 -44 -11 -80q0 -63 33 -87.5t98 -24.5q39 0 68.5 11t51 34t36 59t25.5 87zM508 870h116l-5 -21l-175 -97h-73z"/>
		<glyph unicode="&#xdb;" horiz-adv-x="618" d="M573 700h76l-98 -467q-14 -64 -35 -110t-52.5 -75t-75.5 -43t-102 -14q-55 0 -93 12.5t-61.5 35t-34 55t-10.5 71.5q0 41 11 93l93 442h80l-93 -443q-11 -44 -11 -80q0 -63 33 -87.5t98 -24.5q39 0 68.5 11t51 34t36 59t25.5 87zM435 870h48l99 -102l-4 -21h-68l-46 49 l-10 35l-25 -34l-71 -50h-75l5 22z"/>
		<glyph unicode="&#xdc;" horiz-adv-x="618" d="M573 700h76l-98 -467q-14 -64 -35 -110t-52.5 -75t-75.5 -43t-102 -14q-55 0 -93 12.5t-61.5 35t-34 55t-10.5 71.5q0 41 11 93l93 442h80l-93 -443q-11 -44 -11 -80q0 -63 33 -87.5t98 -24.5q39 0 68.5 11t51 34t36 59t25.5 87zM296 794q0 20 14 33.5t37 13.5 t36.5 -13.5t13.5 -33.5t-13.5 -33t-36.5 -13t-37 13t-14 33zM479 794q0 20 13.5 33.5t36.5 13.5t37 -13.5t14 -33.5t-14 -33t-37 -13t-36.5 13t-13.5 33z"/>
		<glyph unicode="&#xdd;" horiz-adv-x="531" d="M241 278l-133 422h87l89 -306l3 -61h1l30 63l217 304h90l-304 -421l-59 -279h-80zM474 870h116l-5 -21l-175 -97h-73z"/>
		<glyph unicode="&#xde;" horiz-adv-x="532" d="M189 700h79l-16 -75q40 3 81 3q46 0 85 -10t68 -32t46 -56.5t17 -82.5q0 -76 -27 -127t-72 -82t-101 -44t-113 -13h-16q-10 0 -22 0.5t-23 1.5t-16 2l-39 -185h-80zM316 555q-23 0 -44.5 -1.5t-35.5 -4.5l-61 -290q4 -2 13.5 -2.5t20 -1.5t20.5 -1h15q43 0 83 9t71 30.5 t49 57t18 88.5q0 36 -12 58.5t-32.5 35t-47.5 17.5t-57 5z"/>
		<glyph unicode="&#xdf;" horiz-adv-x="559" d="M174 528q20 95 74.5 136.5t137.5 41.5q42 0 71 -10t47 -26.5t26.5 -38t8.5 -43.5q0 -35 -12.5 -59t-31 -42t-40.5 -31.5t-40.5 -27t-31 -28.5t-12.5 -36q0 -19 11.5 -30.5t29 -20.5t38 -18.5t38 -24.5t29 -37.5t11.5 -58.5q0 -39 -17.5 -73t-47 -59t-69 -39.5 t-83.5 -14.5q-35 0 -65 6.5t-54 21.5l36 67q40 -25 91 -25q21 0 44 7.5t41.5 21.5t31 34.5t12.5 47.5q0 23 -11.5 38t-29 26t-37.5 20.5t-38 23t-29.5 33.5t-11.5 51q0 30 12.5 51t31.5 38t41 31t41 28t30.5 30t11.5 37q0 30 -22 45t-62 15h-2q-107 0 -130 -138l-96 -498 q-9 -55 -21 -94t-30 -64.5t-44 -37.5t-63 -12q-30 0 -55.5 4.5t-47.5 15.5l22 56q20 -7 36.5 -9t40.5 -2q38 0 57 39t30 104l82 436h-86l13 64h86z"/>
		<glyph unicode="&#xe0;" horiz-adv-x="487" d="M414 197q-8 -37 -11 -75t-3 -71v-29q0 -13 2 -24h-56l-14 87h-4q-12 -17 -29.5 -34.5t-38.5 -31.5t-45 -22.5t-51 -8.5q-119 0 -119 155q0 64 16.5 130t51 119t89 87t131.5 34q28 0 68.5 -6.5t75.5 -17.5zM187 52q24 0 46 11.5t41.5 28.5t34.5 36.5t24 36.5l56 270 q-30 14 -76 14t-81 -27t-59 -70.5t-36 -98.5t-12 -110q0 -38 15 -64.5t47 -26.5zM360 571h-43l-81 128l4 21h91z"/>
		<glyph unicode="&#xe1;" horiz-adv-x="487" d="M414 197q-8 -37 -11 -75t-3 -71v-29q0 -13 2 -24h-56l-14 87h-4q-12 -17 -29.5 -34.5t-38.5 -31.5t-45 -22.5t-51 -8.5q-119 0 -119 155q0 64 16.5 130t51 119t89 87t131.5 34q28 0 68.5 -6.5t75.5 -17.5zM187 52q24 0 46 11.5t41.5 28.5t34.5 36.5t24 36.5l56 270 q-30 14 -76 14t-81 -27t-59 -70.5t-36 -98.5t-12 -110q0 -38 15 -64.5t47 -26.5zM393 720h84l-5 -21l-123 -128h-44z"/>
		<glyph unicode="&#xe2;" horiz-adv-x="487" d="M414 197q-8 -37 -11 -75t-3 -71v-29q0 -13 2 -24h-56l-14 87h-4q-12 -17 -29.5 -34.5t-38.5 -31.5t-45 -22.5t-51 -8.5q-119 0 -119 155q0 64 16.5 130t51 119t89 87t131.5 34q28 0 68.5 -6.5t75.5 -17.5zM187 52q24 0 46 11.5t41.5 28.5t34.5 36.5t24 36.5l56 270 q-30 14 -76 14t-81 -27t-59 -70.5t-36 -98.5t-12 -110q0 -38 15 -64.5t47 -26.5zM359 732h30l66 -182h-63l-24 66l-6 58l-34 -58l-57 -66h-68z"/>
		<glyph unicode="&#xe3;" horiz-adv-x="487" d="M414 197q-8 -37 -11 -75t-3 -71v-29q0 -13 2 -24h-56l-14 87h-4q-12 -17 -29.5 -34.5t-38.5 -31.5t-45 -22.5t-51 -8.5q-119 0 -119 155q0 64 16.5 130t51 119t89 87t131.5 34q28 0 68.5 -6.5t75.5 -17.5zM187 52q24 0 46 11.5t41.5 28.5t34.5 36.5t24 36.5l56 270 q-30 14 -76 14t-81 -27t-59 -70.5t-36 -98.5t-12 -110q0 -38 15 -64.5t47 -26.5zM218 656q32 33 55.5 45.5t41.5 12.5q15 0 27 -6.5t23.5 -14t23 -13.5t25.5 -6q23 0 54 24l15 -43q-29 -29 -50 -40t-38 -11q-15 0 -27 6t-23.5 13.5t-23.5 13.5t-27 6q-13 0 -28 -6.5 t-35 -22.5z"/>
		<glyph unicode="&#xe4;" horiz-adv-x="487" d="M414 197q-8 -37 -11 -75t-3 -71v-29q0 -13 2 -24h-56l-14 87h-4q-12 -17 -29.5 -34.5t-38.5 -31.5t-45 -22.5t-51 -8.5q-119 0 -119 155q0 64 16.5 130t51 119t89 87t131.5 34q28 0 68.5 -6.5t75.5 -17.5zM187 52q24 0 46 11.5t41.5 28.5t34.5 36.5t24 36.5l56 270 q-30 14 -76 14t-81 -27t-59 -70.5t-36 -98.5t-12 -110q0 -38 15 -64.5t47 -26.5zM186 653q0 22 12.5 36.5t33.5 14.5t34 -14.5t13 -36.5q0 -20 -13 -34.5t-34 -14.5t-33.5 14.5t-12.5 34.5zM369 654q0 21 12.5 35.5t33.5 14.5q22 0 34.5 -14.5t12.5 -35.5t-12.5 -35.5 t-34.5 -14.5q-21 0 -33.5 14.5t-12.5 35.5z"/>
		<glyph unicode="&#xe5;" horiz-adv-x="487" d="M414 197q-8 -37 -11 -75t-3 -71v-29q0 -13 2 -24h-56l-14 87h-4q-12 -17 -29.5 -34.5t-38.5 -31.5t-45 -22.5t-51 -8.5q-119 0 -119 155q0 64 16.5 130t51 119t89 87t131.5 34q28 0 68.5 -6.5t75.5 -17.5zM187 52q24 0 46 11.5t41.5 28.5t34.5 36.5t24 36.5l56 270 q-30 14 -76 14t-81 -27t-59 -70.5t-36 -98.5t-12 -110q0 -38 15 -64.5t47 -26.5zM252 643q0 42 26.5 66.5t70.5 24.5q42 0 70 -22t28 -69q0 -39 -28 -64.5t-70 -25.5t-69.5 23.5t-27.5 66.5zM306 643q0 -20 13.5 -31t29.5 -11q19 0 31.5 10t12.5 32t-13.5 32.5t-30.5 10.5 t-30 -10t-13 -33z"/>
		<glyph unicode="&#xe6;" horiz-adv-x="754" d="M176 56q27 0 51.5 13t44.5 30.5t34.5 35t21.5 28.5l8 68q-11 1 -23 1.5t-23 0.5q-38 0 -71.5 -6t-58 -19t-38.5 -32.5t-14 -47.5q0 -38 17.5 -55t50.5 -17zM332 87q-32 -39 -79.5 -67t-104.5 -28q-31 0 -53.5 10t-37.5 26.5t-22 38t-7 44.5q0 51 22 85.5t59.5 55 t87.5 29.5t105 9h22q12 0 23 -1q20 65 20 97t-19 45t-63 13q-16 0 -35.5 -2.5t-39.5 -7.5t-38.5 -11.5t-33.5 -13.5l-12 60q42 23 91.5 31t100.5 8q48 0 78.5 -17t37.5 -49q32 37 77.5 53.5t87.5 16.5q74 0 110 -32.5t36 -80.5q0 -53 -24.5 -85t-68.5 -50t-106 -24.5 t-136 -7.5q-3 -17 -5 -32t-2 -29q0 -55 28 -87t95 -32q32 0 66.5 12.5t55.5 27.5l17 -54q-34 -24 -80.5 -37t-94.5 -13q-58 0 -97.5 26.5t-53.5 72.5h-7zM587 448q-61 0 -102 -40t-63 -115q49 0 93.5 2.5t78.5 12t54 28.5t20 52q0 25 -16.5 42.5t-64.5 17.5z"/>
		<glyph unicode="&#xe7;" horiz-adv-x="420" d="M365 43q-26 -22 -61.5 -36.5t-67.5 -18.5l-25 -31q27 -3 44.5 -20.5t17.5 -49.5q0 -42 -31.5 -69t-94.5 -27q-12 0 -25.5 1.5t-27.5 3.5l17 39q5 -1 11 -1h10q21 0 35 4t22 9.5t11 12.5t3 13q0 19 -21 28t-56 9l57 78q-40 4 -66 21t-41 40.5t-20.5 49.5t-5.5 49 q0 85 23 152.5t61.5 114.5t88.5 72t103 25q38 0 62.5 -7t44.5 -16l-28 -62q-17 10 -42 15.5t-54 5.5q-34 0 -66.5 -23t-57.5 -60.5t-40 -86t-15 -99.5q0 -65 27 -96t73 -31q30 0 63 13.5t53 27.5z"/>
		<glyph unicode="&#xe8;" horiz-adv-x="463" d="M389 49q-35 -30 -82.5 -45.5t-95.5 -15.5q-80 0 -120.5 46t-40.5 128t23 147t60.5 110t85 69t97.5 24q36 0 62.5 -10t43.5 -26.5t25 -38t8 -45.5q0 -71 -69 -111.5t-201 -40.5q-12 0 -25 0.5t-27 1.5q-4 -19 -6 -36t-2 -30q0 -55 25 -89.5t78 -34.5q44 0 80.5 14.5 t56.5 30.5zM304 448q-55 0 -95.5 -37.5t-61.5 -112.5q38 0 79 2t74.5 10.5t55.5 27t22 51.5q0 10 -3.5 20.5t-11.5 19t-22.5 14t-36.5 5.5zM344 571h-43l-81 128l4 21h91z"/>
		<glyph unicode="&#xe9;" horiz-adv-x="463" d="M389 49q-35 -30 -82.5 -45.5t-95.5 -15.5q-80 0 -120.5 46t-40.5 128t23 147t60.5 110t85 69t97.5 24q36 0 62.5 -10t43.5 -26.5t25 -38t8 -45.5q0 -71 -69 -111.5t-201 -40.5q-12 0 -25 0.5t-27 1.5q-4 -19 -6 -36t-2 -30q0 -55 25 -89.5t78 -34.5q44 0 80.5 14.5 t56.5 30.5zM304 448q-55 0 -95.5 -37.5t-61.5 -112.5q38 0 79 2t74.5 10.5t55.5 27t22 51.5q0 10 -3.5 20.5t-11.5 19t-22.5 14t-36.5 5.5zM375 720h84l-5 -21l-123 -128h-44z"/>
		<glyph unicode="&#xea;" horiz-adv-x="463" d="M389 49q-35 -30 -82.5 -45.5t-95.5 -15.5q-80 0 -120.5 46t-40.5 128t23 147t60.5 110t85 69t97.5 24q36 0 62.5 -10t43.5 -26.5t25 -38t8 -45.5q0 -71 -69 -111.5t-201 -40.5q-12 0 -25 0.5t-27 1.5q-4 -19 -6 -36t-2 -30q0 -55 25 -89.5t78 -34.5q44 0 80.5 14.5 t56.5 30.5zM304 448q-55 0 -95.5 -37.5t-61.5 -112.5q38 0 79 2t74.5 10.5t55.5 27t22 51.5q0 10 -3.5 20.5t-11.5 19t-22.5 14t-36.5 5.5zM343 732h30l66 -182h-63l-24 66l-6 58l-34 -58l-57 -66h-68z"/>
		<glyph unicode="&#xeb;" horiz-adv-x="463" d="M389 49q-35 -30 -82.5 -45.5t-95.5 -15.5q-80 0 -120.5 46t-40.5 128t23 147t60.5 110t85 69t97.5 24q36 0 62.5 -10t43.5 -26.5t25 -38t8 -45.5q0 -71 -69 -111.5t-201 -40.5q-12 0 -25 0.5t-27 1.5q-4 -19 -6 -36t-2 -30q0 -55 25 -89.5t78 -34.5q44 0 80.5 14.5 t56.5 30.5zM304 448q-55 0 -95.5 -37.5t-61.5 -112.5q38 0 79 2t74.5 10.5t55.5 27t22 51.5q0 10 -3.5 20.5t-11.5 19t-22.5 14t-36.5 5.5zM195 653q0 22 12.5 36.5t33.5 14.5t34 -14.5t13 -36.5q0 -20 -13 -34.5t-34 -14.5t-33.5 14.5t-12.5 34.5zM378 654q0 21 12.5 35.5 t33.5 14.5q22 0 34.5 -14.5t12.5 -35.5t-12.5 -35.5t-34.5 -14.5q-21 0 -33.5 14.5t-12.5 35.5z"/>
		<glyph unicode="&#xec;" horiz-adv-x="259" d="M160 500h75l-106 -500h-75zM248 571h-43l-81 128l4 21h91z"/>
		<glyph unicode="&#xed;" horiz-adv-x="259" d="M160 500h75l-106 -500h-75zM265 720h84l-5 -21l-123 -128h-44z"/>
		<glyph unicode="&#xee;" horiz-adv-x="259" d="M160 500h75l-106 -500h-75zM234 732h30l66 -182h-63l-24 66l-6 58l-34 -58l-57 -66h-68z"/>
		<glyph unicode="&#xef;" horiz-adv-x="259" d="M160 500h75l-106 -500h-75zM90 653q0 22 12.5 36.5t33.5 14.5t34 -14.5t13 -36.5q0 -20 -13 -34.5t-34 -14.5t-33.5 14.5t-12.5 34.5zM273 654q0 21 12.5 35.5t33.5 14.5q22 0 34.5 -14.5t12.5 -35.5t-12.5 -35.5t-34.5 -14.5q-21 0 -33.5 14.5t-12.5 35.5z"/>
		<glyph unicode="&#xf0;" horiz-adv-x="496" d="M276 595l78 34q-16 20 -34.5 33.5t-38.5 22.5l59 27q46 -19 76 -56l76 33l20 -41l-71 -31q16 -32 25 -72t9 -89q0 -126 -23.5 -214.5t-61.5 -145t-86 -82.5t-97 -26q-39 0 -68.5 13t-49 35.5t-29 53.5t-9.5 66q0 69 18.5 132.5t52.5 113t80 79t102 29.5q43 0 64 -11.5 t36 -28.5v5q0 67 -25 115l-81 -35zM130 164q0 -54 23 -83t58 -29q53 0 88.5 35.5t57 86.5t30 108t8.5 100q-8 29 -33.5 46t-60.5 17q-38 0 -69.5 -26t-54 -67t-35 -90.5t-12.5 -97.5z"/>
		<glyph unicode="&#xf1;" horiz-adv-x="522" d="M321 0l67 316q4 18 7 35.5t3 31.5q0 29 -13.5 47t-50.5 18q-26 0 -51 -12t-47 -30.5t-39.5 -41t-29.5 -44.5l-66 -320h-75l106 500h52l-4 -86h4q13 16 31 33.5t40.5 31.5t50.5 23.5t62 9.5q50 0 79 -24t29 -84q0 -30 -9 -72l-71 -332h-75zM221 656q32 33 55.5 45.5 t41.5 12.5q15 0 27 -6.5t23.5 -14t23 -13.5t25.5 -6q23 0 54 24l15 -43q-29 -29 -50 -40t-38 -11q-15 0 -27 6t-23.5 13.5t-23.5 13.5t-27 6q-13 0 -28 -6.5t-35 -22.5z"/>
		<glyph unicode="&#xf2;" horiz-adv-x="498" d="M50 156q0 79 20.5 144.5t56.5 112.5t83.5 73t101.5 26q42 0 71.5 -13.5t48 -37t26.5 -54t8 -63.5q0 -75 -19.5 -140t-54 -113t-80.5 -75.5t-100 -27.5q-45 0 -75.5 14.5t-50 38.5t-28 54t-8.5 61zM130 174q0 -59 22 -90.5t70 -31.5q33 0 62.5 23.5t52 63.5t36 91.5 t13.5 107.5q0 51 -18.5 80.5t-70.5 29.5q-33 0 -63 -22.5t-53.5 -60.5t-37 -87.5t-13.5 -103.5zM356 571h-43l-81 128l4 21h91z"/>
		<glyph unicode="&#xf3;" horiz-adv-x="498" d="M50 156q0 79 20.5 144.5t56.5 112.5t83.5 73t101.5 26q42 0 71.5 -13.5t48 -37t26.5 -54t8 -63.5q0 -75 -19.5 -140t-54 -113t-80.5 -75.5t-100 -27.5q-45 0 -75.5 14.5t-50 38.5t-28 54t-8.5 61zM130 174q0 -59 22 -90.5t70 -31.5q33 0 62.5 23.5t52 63.5t36 91.5 t13.5 107.5q0 51 -18.5 80.5t-70.5 29.5q-33 0 -63 -22.5t-53.5 -60.5t-37 -87.5t-13.5 -103.5zM377 720h84l-5 -21l-123 -128h-44z"/>
		<glyph unicode="&#xf4;" horiz-adv-x="498" d="M50 156q0 79 20.5 144.5t56.5 112.5t83.5 73t101.5 26q42 0 71.5 -13.5t48 -37t26.5 -54t8 -63.5q0 -75 -19.5 -140t-54 -113t-80.5 -75.5t-100 -27.5q-45 0 -75.5 14.5t-50 38.5t-28 54t-8.5 61zM130 174q0 -59 22 -90.5t70 -31.5q33 0 62.5 23.5t52 63.5t36 91.5 t13.5 107.5q0 51 -18.5 80.5t-70.5 29.5q-33 0 -63 -22.5t-53.5 -60.5t-37 -87.5t-13.5 -103.5zM343 732h30l66 -182h-63l-24 66l-6 58l-34 -58l-57 -66h-68z"/>
		<glyph unicode="&#xf5;" horiz-adv-x="498" d="M50 156q0 79 20.5 144.5t56.5 112.5t83.5 73t101.5 26q42 0 71.5 -13.5t48 -37t26.5 -54t8 -63.5q0 -75 -19.5 -140t-54 -113t-80.5 -75.5t-100 -27.5q-45 0 -75.5 14.5t-50 38.5t-28 54t-8.5 61zM130 174q0 -59 22 -90.5t70 -31.5q33 0 62.5 23.5t52 63.5t36 91.5 t13.5 107.5q0 51 -18.5 80.5t-70.5 29.5q-33 0 -63 -22.5t-53.5 -60.5t-37 -87.5t-13.5 -103.5zM196 656q32 33 55.5 45.5t41.5 12.5q15 0 27 -6.5t23.5 -14t23 -13.5t25.5 -6q23 0 54 24l15 -43q-29 -29 -50 -40t-38 -11q-15 0 -27 6t-23.5 13.5t-23.5 13.5t-27 6 q-13 0 -28 -6.5t-35 -22.5z"/>
		<glyph unicode="&#xf6;" horiz-adv-x="498" d="M50 156q0 79 20.5 144.5t56.5 112.5t83.5 73t101.5 26q42 0 71.5 -13.5t48 -37t26.5 -54t8 -63.5q0 -75 -19.5 -140t-54 -113t-80.5 -75.5t-100 -27.5q-45 0 -75.5 14.5t-50 38.5t-28 54t-8.5 61zM130 174q0 -59 22 -90.5t70 -31.5q33 0 62.5 23.5t52 63.5t36 91.5 t13.5 107.5q0 51 -18.5 80.5t-70.5 29.5q-33 0 -63 -22.5t-53.5 -60.5t-37 -87.5t-13.5 -103.5zM190 653q0 22 12.5 36.5t33.5 14.5t34 -14.5t13 -36.5q0 -20 -13 -34.5t-34 -14.5t-33.5 14.5t-12.5 34.5zM373 654q0 21 12.5 35.5t33.5 14.5q22 0 34.5 -14.5t12.5 -35.5 t-12.5 -35.5t-34.5 -14.5q-21 0 -33.5 14.5t-12.5 35.5z"/>
		<glyph unicode="&#xf7;" horiz-adv-x="480" d="M55 374h424v-72h-424v72zM222 517q0 27 16 42.5t42 15.5t42 -15.5t16 -42.5q0 -26 -16 -42t-42 -16t-42 16t-16 42zM222 151q0 27 16 42.5t42 15.5t42 -15.5t16 -42.5q0 -26 -16 -42t-42 -16t-42 16t-16 42z"/>
		<glyph unicode="&#xf8;" horiz-adv-x="498" d="M50 156q0 79 20.5 144.5t56.5 112.5t83.5 73t101.5 26q35 0 61 -9.5t45 -26.5l36 39l40 -37l-44 -50q8 -19 12 -40t4 -44q0 -75 -19.5 -140t-54 -113t-80.5 -75.5t-100 -27.5q-40 0 -68.5 11.5t-48.5 31.5l-40 -45l-42 38l50 56q-13 35 -13 76zM386 338v10q0 5 -1 10 l-239 -266q23 -40 76 -40q33 0 62.5 23.5t52 63.5t36 91.5t13.5 107.5zM130 174v-12q0 -6 1 -12l238 266q-21 32 -72 32q-33 0 -63 -22.5t-53.5 -60.5t-37 -87.5t-13.5 -103.5z"/>
		<glyph unicode="&#xf9;" horiz-adv-x="511" d="M213 500l-70 -333q-6 -27 -6 -50q0 -28 11 -46.5t40 -18.5q24 0 48.5 12t47 31t41 42t30.5 45l67 318h75l-63 -297q-4 -17 -8 -41.5t-7.5 -51.5t-5.5 -52.5t-2 -44.5v-13h-59v95h-4q-15 -20 -34.5 -39t-43 -34t-50.5 -24.5t-57 -9.5q-22 0 -40.5 5t-32.5 17.5t-22 33 t-8 52.5q0 35 10 79l68 325h75zM367 571h-43l-81 128l4 21h91z"/>
		<glyph unicode="&#xfa;" horiz-adv-x="511" d="M213 500l-70 -333q-6 -27 -6 -50q0 -28 11 -46.5t40 -18.5q24 0 48.5 12t47 31t41 42t30.5 45l67 318h75l-63 -297q-4 -17 -8 -41.5t-7.5 -51.5t-5.5 -52.5t-2 -44.5v-13h-59v95h-4q-15 -20 -34.5 -39t-43 -34t-50.5 -24.5t-57 -9.5q-22 0 -40.5 5t-32.5 17.5t-22 33 t-8 52.5q0 35 10 79l68 325h75zM378 720h84l-5 -21l-123 -128h-44z"/>
		<glyph unicode="&#xfb;" horiz-adv-x="511" d="M213 500l-70 -333q-6 -27 -6 -50q0 -28 11 -46.5t40 -18.5q24 0 48.5 12t47 31t41 42t30.5 45l67 318h75l-63 -297q-4 -17 -8 -41.5t-7.5 -51.5t-5.5 -52.5t-2 -44.5v-13h-59v95h-4q-15 -20 -34.5 -39t-43 -34t-50.5 -24.5t-57 -9.5q-22 0 -40.5 5t-32.5 17.5t-22 33 t-8 52.5q0 35 10 79l68 325h75zM356 732h30l66 -182h-63l-24 66l-6 58l-34 -58l-57 -66h-68z"/>
		<glyph unicode="&#xfc;" horiz-adv-x="511" d="M213 500l-70 -333q-6 -27 -6 -50q0 -28 11 -46.5t40 -18.5q24 0 48.5 12t47 31t41 42t30.5 45l67 318h75l-63 -297q-4 -17 -8 -41.5t-7.5 -51.5t-5.5 -52.5t-2 -44.5v-13h-59v95h-4q-15 -20 -34.5 -39t-43 -34t-50.5 -24.5t-57 -9.5q-22 0 -40.5 5t-32.5 17.5t-22 33 t-8 52.5q0 35 10 79l68 325h75zM210 653q0 22 12.5 36.5t33.5 14.5t34 -14.5t13 -36.5q0 -20 -13 -34.5t-34 -14.5t-33.5 14.5t-12.5 34.5zM393 654q0 21 12.5 35.5t33.5 14.5q22 0 34.5 -14.5t12.5 -35.5t-12.5 -35.5t-34.5 -14.5q-21 0 -33.5 14.5t-12.5 35.5z"/>
		<glyph unicode="&#xfd;" horiz-adv-x="439" d="M194 176l5 -96h5l38 97l166 323h80l-236 -446l-52 -96q-25 -46 -52 -82.5t-56 -58.5t-60 -22q-17 0 -29.5 2t-22.5 7l24 69q11 -4 24 -4q29 0 58 30t65 101l-86 500h80zM338 720h84l-5 -21l-123 -128h-44z"/>
		<glyph unicode="&#xfe;" horiz-adv-x="508" d="M188 700h75l-62 -274h4q14 17 30 32.5t35 27.5t42.5 19t52.5 7q24 0 45 -7.5t37 -25t25.5 -46.5t9.5 -71q0 -88 -24 -157.5t-63 -117.5t-87.5 -73.5t-96.5 -25.5q-35 0 -61.5 6.5t-35.5 13.5l-44 -208h-75zM337 448q-27 0 -51.5 -14t-45 -34.5t-36.5 -44t-26 -43.5 l-49 -237q17 -13 35 -18t39 -5q39 0 74.5 21.5t63.5 61.5t44.5 96t16.5 125q0 40 -16.5 66t-48.5 26z"/>
		<glyph unicode="&#xff;" horiz-adv-x="439" d="M194 176l5 -96h5l38 97l166 323h80l-236 -446l-52 -96q-25 -46 -52 -82.5t-56 -58.5t-60 -22q-17 0 -29.5 2t-22.5 7l24 69q11 -4 24 -4q29 0 58 30t65 101l-86 500h80zM151 653q0 22 12.5 36.5t33.5 14.5t34 -14.5t13 -36.5q0 -20 -13 -34.5t-34 -14.5t-33.5 14.5 t-12.5 34.5zM334 654q0 21 12.5 35.5t33.5 14.5q22 0 34.5 -14.5t12.5 -35.5t-12.5 -35.5t-34.5 -14.5q-21 0 -33.5 14.5t-12.5 35.5z"/>
		<glyph unicode="&#x131;" horiz-adv-x="259" d="M160 500h75l-106 -500h-75z"/>
		<glyph unicode="&#x152;" horiz-adv-x="888" d="M549 618q-23 11 -51 16.5t-75 5.5q-65 0 -115 -31.5t-84 -84.5t-51 -122t-17 -145q0 -30 6 -64.5t23 -64t48 -49t81 -19.5q14 0 27 0.5t27 2t30 5t37 9.5zM419 0q-26 -6 -49 -9t-60 -3q-47 0 -90 13t-76 44t-52.5 82.5t-19.5 128.5q0 96 25 179.5t72 145t114 96.5t152 35 q22 0 38 -0.5t30.5 -2t29 -4t34.5 -5.5h362l-16 -74h-282l-49 -229h258l-15 -74h-259l-52 -249h287l-15 -74h-367z"/>
		<glyph unicode="&#x153;" horiz-adv-x="784" d="M130 174q0 -59 22 -90.5t70 -31.5q33 0 63 23.5t52.5 63.5t36 91.5t13.5 107.5q0 51 -19 80.5t-71 29.5q-33 0 -63 -22.5t-53.5 -60.5t-37 -87.5t-13.5 -103.5zM387 95q-29 -48 -76.5 -77.5t-98.5 -29.5q-45 0 -75.5 14.5t-50 38.5t-28 54t-8.5 61q0 79 20.5 144.5 t56.5 112.5t83.5 73t101.5 26q63 0 95.5 -30.5t43.5 -79.5q34 53 83 81.5t103 28.5q36 0 62.5 -10t43.5 -26.5t25 -38t8 -45.5q0 -71 -69 -111.5t-201 -40.5q-12 0 -25 0.5t-27 1.5q-4 -19 -5.5 -36t-1.5 -30q0 -55 24.5 -89.5t77.5 -34.5q44 0 80.5 14.5t56.5 30.5l24 -48 q-35 -30 -82.5 -45.5t-95.5 -15.5q-29 0 -53 8.5t-42.5 23t-31 34t-18.5 41.5zM625 448q-55 0 -95 -37.5t-62 -112.5h16q32 0 69.5 2t70 10.5t54 27t21.5 51.5q0 10 -3.5 20.5t-11.5 19t-22.5 14t-36.5 5.5z"/>
		<glyph unicode="&#x178;" horiz-adv-x="531" d="M241 278l-133 422h87l89 -306l3 -61h1l30 63l217 304h90l-304 -421l-59 -279h-80zM252 794q0 20 14 33.5t37 13.5t36.5 -13.5t13.5 -33.5t-13.5 -33t-36.5 -13t-37 13t-14 33zM435 794q0 20 13.5 33.5t36.5 13.5t37 -13.5t14 -33.5t-14 -33t-37 -13t-36.5 13t-13.5 33z "/>
		<glyph unicode="&#x2c6;" horiz-adv-x="431" d="M461 732h30l66 -182h-63l-24 66l-6 58l-34 -58l-57 -66h-68z"/>
		<glyph unicode="&#x2da;" horiz-adv-x="401" d="M394 643q0 42 26.5 66.5t70.5 24.5q42 0 70 -22t28 -69q0 -39 -28 -64.5t-70 -25.5t-69.5 23.5t-27.5 66.5zM448 643q0 -20 13.5 -31t29.5 -11q19 0 31.5 10t12.5 32t-13.5 32.5t-30.5 10.5t-30 -10t-13 -33z"/>
		<glyph unicode="&#x2dc;" horiz-adv-x="349" d="M325 656q32 33 55.5 45.5t41.5 12.5q15 0 27 -6.5t23.5 -14t23 -13.5t25.5 -6q23 0 54 24l15 -43q-29 -29 -50 -40t-38 -11q-15 0 -27 6t-23.5 13.5t-23.5 13.5t-27 6q-13 0 -28 -6.5t-35 -22.5z"/>
		<glyph unicode="&#x2000;" horiz-adv-x="435"/>
		<glyph unicode="&#x2001;" horiz-adv-x="870"/>
		<glyph unicode="&#x2002;" horiz-adv-x="435"/>
		<glyph unicode="&#x2003;" horiz-adv-x="870"/>
		<glyph unicode="&#x2004;" horiz-adv-x="290"/>
		<glyph unicode="&#x2005;" horiz-adv-x="217"/>
		<glyph unicode="&#x2006;" horiz-adv-x="145"/>
		<glyph unicode="&#x2007;" horiz-adv-x="145"/>
		<glyph unicode="&#x2008;" horiz-adv-x="108"/>
		<glyph unicode="&#x2009;" horiz-adv-x="174"/>
		<glyph unicode="&#x200a;" horiz-adv-x="48"/>
		<glyph unicode="&#x2010;" horiz-adv-x="342" d="M79 322h230l-17 -68h-229z"/>
		<glyph unicode="&#x2011;" horiz-adv-x="342" d="M79 322h230l-17 -68h-229z"/>
		<glyph unicode="&#x2013;" horiz-adv-x="627" d="M129 322h403l-16 -68h-403z"/>
		<glyph unicode="&#x2014;" horiz-adv-x="779" d="M129 322h555l-16 -68h-555z"/>
		<glyph unicode="&#x2018;" horiz-adv-x="186" d="M215 628q0 -29 -14.5 -43.5t-39.5 -14.5q-26 0 -39.5 18t-13.5 41q0 34 13 60.5t31 45t37 29t31 14.5l15 -35q-23 -11 -40 -30.5t-21 -45.5q3 1 9 1q15 0 23.5 -12t8.5 -28z"/>
		<glyph unicode="&#x2019;" horiz-adv-x="187" d="M130 658q0 12 5.5 21.5t13.5 15.5t17.5 9.5t18.5 3.5q30 0 40.5 -15t10.5 -43q0 -34 -13 -60t-31 -44.5t-37 -30t-31 -15.5l-16 34q23 12 40 31t22 46q-40 2 -40 47z"/>
		<glyph unicode="&#x201a;" horiz-adv-x="189" d="M24 49q0 12 5.5 21.5t13.5 15.5t17.5 9.5t18.5 3.5q30 0 40.5 -15t10.5 -43q0 -34 -13 -60t-31 -44.5t-37 -30t-31 -15.5l-16 34q23 12 40 31t22 46q-40 2 -40 47z"/>
		<glyph unicode="&#x201c;" horiz-adv-x="325" d="M354 628q0 -29 -14.5 -43.5t-39.5 -14.5q-26 0 -39.5 18t-13.5 41q0 34 13 60.5t31 45t37 29t31 14.5l15 -35q-23 -11 -40 -30.5t-21 -45.5q3 1 9 1q15 0 23.5 -12t8.5 -28zM215 628q0 -29 -14.5 -43.5t-39.5 -14.5q-26 0 -39.5 18t-13.5 41q0 34 13 60.5t31 45t37 29 t31 14.5l15 -35q-23 -11 -40 -30.5t-21 -45.5q3 1 9 1q15 0 23.5 -12t8.5 -28z"/>
		<glyph unicode="&#x201d;" horiz-adv-x="325" d="M268 658q0 12 5.5 21.5t13.5 15.5t17.5 9.5t18.5 3.5q30 0 40.5 -15t10.5 -43q0 -34 -13 -60t-31 -44.5t-37 -30t-31 -15.5l-16 34q23 12 40 31t22 46q-40 2 -40 47zM130 658q0 12 5.5 21.5t13.5 15.5t17.5 9.5t18.5 3.5q30 0 40.5 -15t10.5 -43q0 -34 -13 -60t-31 -44.5 t-37 -30t-31 -15.5l-16 34q23 12 40 31t22 46q-40 2 -40 47z"/>
		<glyph unicode="&#x201e;" horiz-adv-x="327" d="M161 49q0 12 5.5 21.5t13.5 15.5t17.5 9.5t18.5 3.5q30 0 40.5 -15t10.5 -43q0 -34 -13 -60t-31 -44.5t-37 -30t-31 -15.5l-16 34q23 12 40 31t22 46q-40 2 -40 47zM24 49q0 12 5.5 21.5t13.5 15.5t17.5 9.5t18.5 3.5q30 0 40.5 -15t10.5 -43q0 -34 -13 -60t-31 -44.5 t-37 -30t-31 -15.5l-16 34q23 12 40 31t22 46q-40 2 -40 47z"/>
		<glyph unicode="&#x2022;" horiz-adv-x="452" d="M112 311q0 31 11 56.5t29.5 44t44 28.5t54.5 10t54.5 -9.5t44 -27.5t29.5 -43.5t11 -58.5t-11 -58.5t-29.5 -43.5t-44 -27.5t-54.5 -9.5t-54.5 9.5t-44 27.5t-29.5 43.5t-11 58.5z"/>
		<glyph unicode="&#x2026;" horiz-adv-x="721" d="M510 46q0 27 16 42.5t42 15.5t42 -15.5t16 -42.5q0 -26 -16 -42t-42 -16t-42 16t-16 42zM268 46q0 27 16 42.5t42 15.5t42 -15.5t16 -42.5q0 -26 -16 -42t-42 -16t-42 16t-16 42zM27 46q0 27 16 42.5t42 15.5t42 -15.5t16 -42.5q0 -26 -16 -42t-42 -16t-42 16t-16 42z "/>
		<glyph unicode="&#x202f;" horiz-adv-x="174"/>
		<glyph unicode="&#x2039;" horiz-adv-x="300" d="M56 259l200 230l44 -48l-123 -144l-56 -37l33 -39l68 -141l-55 -42z"/>
		<glyph unicode="&#x203a;" horiz-adv-x="283" d="M283 268l-200 -230l-45 43l124 145l57 41l-35 42l-68 142l57 38z"/>
		<glyph unicode="&#x2044;" horiz-adv-x="184" d="M336 713l52 -36l-487 -689l-52 36z"/>
		<glyph unicode="&#x205f;" horiz-adv-x="217"/>
		<glyph unicode="&#x2081;" horiz-adv-x="377" d="M27 -39h101l54 254l14 36l-31 -28l-81 -45l-21 46l170 103h39l-78 -366h90l-13 -61h-257z"/>
		<glyph unicode="&#x2082;" horiz-adv-x="377" d="M314 233q0 -32 -14.5 -64.5t-39 -65t-56.5 -63t-66 -58.5l-50 -31v-3l57 16h131l-14 -64h-275l7 33l44 33q25 19 53 43t55 51t49 54.5t35.5 53.5t13.5 49q0 46 -55 46q-26 0 -52 -9.5t-46 -21.5l-9 57q28 18 63 28t69 10q18 0 36 -4.5t32 -15.5t23 -29t9 -45z"/>
		<glyph unicode="&#x2083;" horiz-adv-x="377" d="M121 -47q56 0 82.5 27.5t26.5 65.5q0 27 -16 40.5t-64 13.5h-52l4 23l116 117l38 26l-48 -6h-121l13 60h243l-7 -33l-124 -124l-26 -18l-1 -2l22 3q38 0 64.5 -24.5t26.5 -66.5q0 -32 -10 -61.5t-32 -52t-57.5 -35.5t-87.5 -13q-34 0 -57.5 6t-40.5 13l26 60 q14 -8 35 -13.5t47 -5.5z"/>
		<glyph unicode="&#x2084;" horiz-adv-x="377" d="M325 -4h-78l-21 -96h-64l21 96h-193l7 37l278 302h43l-59 -280h79zM222 183l17 49h-2l-31 -46l-96 -105l-38 -31l49 5h74z"/>
		<glyph unicode="&#x20ac;" d="M67 454h74q26 69 63 117t81 79.5t91.5 46.5t92.5 15q48 0 81.5 -8t57.5 -21l-35 -61q-38 22 -119 22q-27 0 -59 -11t-64 -34t-60.5 -58.5t-50.5 -86.5h276l-30 -64h-266q-5 -16 -8 -36.5t-5 -35.5h243l-30 -64h-216l-1 -4v-9q0 -40 8 -71q9 -35 28.5 -60t51.5 -39.5 t80 -14.5q32 0 63.5 9t57.5 23l14 -60q-18 -12 -38.5 -19.5t-42.5 -12t-43 -6.5t-39 -2q-54 0 -95 18.5t-68.5 51t-41.5 77t-15 101.5l1 18h-98l31 64h71q3 15 6.5 36t7.5 36h-86z"/>
		<glyph unicode="&#x2122;" horiz-adv-x="886" d="M440 632h-136v-292h-78v292h-136v68h350v-68zM822 507l10 103h-4l-39 -85l-87 -140h-33l-89 139l-36 86h-4l13 -102v-168h-73v360h78l105 -168l28 -58h1l30 60l97 166h79v-360h-76v167z"/>
		<glyph unicode="&#xf408;" horiz-adv-x="431" d="M447 870h48l99 -102l-4 -21h-68l-46 49l-10 35l-25 -34l-71 -50h-75l5 22z"/>
		<glyph unicode="&#xf40d;" horiz-adv-x="349" d="M259 785q35 32 62.5 43.5t50.5 11.5q18 0 33.5 -5t30 -11.5t28.5 -11.5t29 -5q25 0 53 21l16 -43q-32 -26 -56.5 -35t-44.5 -9q-18 0 -33 5t-29.5 11.5t-28.5 11.5t-29 5t-31.5 -6.5t-36.5 -23.5z"/>
		<glyph unicode="&#xf662;" horiz-adv-x="377" d="M255 595l15 36l-31 -28l-81 -45l-24 49l173 100h39l-91 -427h-66z"/>
		<glyph unicode="&#xf6c9;" horiz-adv-x="238" d="M436 870h116l-5 -21l-175 -97h-73z"/>
		<glyph unicode="&#xf6cb;" horiz-adv-x="242" d="M183 794q0 20 14 33.5t37 13.5t36.5 -13.5t13.5 -33.5t-13.5 -33t-36.5 -13t-37 13t-14 33zM366 794q0 20 13.5 33.5t36.5 13.5t37 -13.5t14 -33.5t-14 -33t-37 -13t-36.5 13t-13.5 33z"/>
		<glyph unicode="&#xf6ce;" horiz-adv-x="238" d="M430 752h-63l-129 97l4 21h101z"/>
		<glyph horiz-adv-x="184" d="M323 713l50 -39l-513 -686l-50 39z"/>
	</font>
	<font id="PTSansBoldItalic" horiz-adv-x="545" >
		<font-face units-per-em="1000" ascent="750" descent="-250"/>
		<missing-glyph horiz-adv-x="253"/>
		<glyph unicode=" "  horiz-adv-x="253"/>
		<glyph unicode="&#x09;" horiz-adv-x="253"/>
		<glyph unicode="&#xa0;" horiz-adv-x="253"/>
		<glyph unicode="!" horiz-adv-x="283" d="M217 700h128l-70 -329l-59 -163h-78l9 163zM74 66q0 35 22 55.5t58 20.5q37 0 59 -20.5t22 -55.5t-22 -56t-59 -21q-36 0 -58 21t-22 56z"/>
		<glyph unicode="&#x22;" horiz-adv-x="354" d="M116 700h108l-79 -216h-75zM256 700h108l-79 -216h-75z"/>
		<glyph unicode="#" d="M318 205h-89l-36 -154h-107l36 154h-74l22 97h75l25 106h-72l22 97h73l35 144h107l-35 -144h89l35 144h107l-35 -144h72l-25 -97h-70l-25 -106h69l-24 -97h-68l-36 -154h-107zM252 302h89l25 106h-89z"/>
		<glyph unicode="$" d="M192 -10q-52 7 -84 23t-49 30l47 97q14 -10 42.5 -23t66.5 -20l47 221q-23 15 -45 32.5t-39.5 40t-28 51t-10.5 66.5q0 48 16.5 84t45 61t65.5 39t79 19l20 89h99l-19 -90q38 -5 67 -14.5t50 -20.5l-50 -102q-14 8 -38 16t-53 13l-43 -203q23 -16 46 -34t41 -41.5t29 -53 t11 -67.5q0 -48 -16 -85.5t-44.5 -64.5t-68 -43t-86.5 -21l-18 -89h-99zM272 94q53 4 78 31t25 63q0 32 -18 54t-45 42zM364 606q-48 -2 -71.5 -25t-23.5 -57q0 -29 16.5 -49.5t42.5 -40.5z"/>
		<glyph unicode="%" horiz-adv-x="804" d="M55 499q0 54 18.5 94t48.5 66.5t66.5 39.5t72.5 13q66 0 100.5 -30.5t34.5 -89.5q0 -57 -17 -98.5t-46 -68.5t-66.5 -40t-77.5 -13q-62 0 -98 34.5t-36 92.5zM165 505q-1 -22 10 -35.5t32 -13.5q33 0 56 34.5t23 88.5q0 49 -43 49q-17 0 -31 -10t-25 -26.5t-17 -39.5 q-5 -19 -5 -40v-7zM420 128q0 54 18.5 94t48.5 66.5t66.5 39.5t72.5 13q66 0 100.5 -30.5t34.5 -89.5q0 -57 -17 -98.5t-46 -68.5t-66.5 -40t-77.5 -13q-62 0 -98 34.5t-36 92.5zM530 134q-1 -22 10 -35.5t32 -13.5q33 0 56 34.5t23 88.5q0 49 -43 49q-17 0 -31 -10 t-25 -26.5t-17 -39.5q-5 -19 -5 -40v-7zM656 714l73 -66l-576 -662l-73 69z"/>
		<glyph unicode="&#x26;" horiz-adv-x="783" d="M73 162q0 46 18.5 87t49 75t69 61.5t79.5 47.5q-17 33 -21.5 60t-4.5 54q0 33 11 63t35 53t61 37t88 14q40 0 65.5 -10t40.5 -26.5t20.5 -37t5.5 -40.5q0 -51 -40.5 -97.5t-115.5 -87.5q22 -54 45.5 -99t55.5 -89q26 25 52 62.5t48 76.5l79 -50q-10 -18 -25 -40l-31 -43 l-33.5 -41.5t-29.5 -33.5q24 -29 52.5 -54.5t56.5 -37.5l-87 -96q-15 6 -31 17.5t-31.5 25t-29.5 28.5t-24 29q-43 -33 -99.5 -58.5t-131.5 -25.5q-46 0 -82.5 13.5t-62 37t-39 55.5t-13.5 70zM443 149q-37 53 -66 105.5t-48 99.5q-59 -40 -92.5 -80.5t-33.5 -87.5 q0 -42 27 -66t80 -24q38 0 74.5 16.5t58.5 36.5zM384 553q0 -22 3.5 -37.5t14.5 -39.5q42 25 65 49t23 51q0 19 -9 30t-34 11q-31 0 -47 -19t-16 -45z"/>
		<glyph unicode="'" horiz-adv-x="218" d="M137 700h108l-79 -216h-75z"/>
		<glyph unicode="(" horiz-adv-x="310" d="M157 -218q-29 38 -47 77.5t-29 78.5t-15 76.5t-4 72.5q0 96 23 186.5t61.5 171t89.5 148.5t107 119l64 -54q-47 -52 -87.5 -116.5t-70.5 -137.5t-47.5 -151.5t-17.5 -158.5q0 -63 9 -124.5t41 -133.5z"/>
		<glyph unicode=")" horiz-adv-x="310" d="M183 711q45 -60 65.5 -135.5t20.5 -166.5q0 -96 -22.5 -187t-61 -172t-89 -150t-106.5 -120l-67 55q45 50 86 115.5t71.5 139.5t48.5 152t18 153q0 83 -12 146.5t-39 113.5z"/>
		<glyph unicode="*" horiz-adv-x="356" d="M182 731l28 -46l15 -59l15 55l28 49l63 -35l-30 -52l-47 -43l64 16h57v-73h-54l-61 16l50 -47l25 -42l-64 -37l-27 46l-20 64l-13 -58l-29 -49l-65 37l30 49l45 37l-55 -16h-59v74h59l59 -17l-50 44l-28 50z"/>
		<glyph unicode="+" horiz-adv-x="505" d="M58 394h162v169h117v-169h163v-112h-163v-171h-117v171h-162v112z"/>
		<glyph unicode="," horiz-adv-x="216" d="M60 -5q-17 1 -32 17t-15 42q0 40 25.5 62t60.5 22t53 -23q16 -22 16 -50q0 -50 -20 -89q-19 -36 -45.5 -61.5t-55 -41t-47.5 -21.5l-26 54q29 11 53 36t33 53z"/>
		<glyph unicode="-" horiz-adv-x="343" d="M81 340h239l-25 -104h-239z"/>
		<glyph unicode="." horiz-adv-x="251" d="M33 66q0 35 22 55.5t58 20.5q37 0 59 -20.5t22 -55.5t-22 -56t-59 -21q-36 0 -58 21t-22 56z"/>
		<glyph unicode="/" horiz-adv-x="388" d="M432 712l86 -46l-510 -808l-85 48z"/>
		<glyph unicode="0" d="M55 229q0 104 23.5 192.5t65.5 153.5t99.5 102t125.5 37q39 0 73.5 -12t60.5 -40t41 -75t15 -116q0 -93 -21.5 -180.5t-62 -155t-99 -108.5t-131.5 -41q-49 0 -85 19t-59 51.5t-34.5 77t-11.5 95.5zM179 230q0 -41 7 -67t18.5 -41t27.5 -20.5t34 -5.5q35 0 65.5 33 t53.5 86t36.5 119.5t13.5 134.5q0 31 -3.5 56t-13 42.5t-25.5 27t-41 9.5q-33 0 -64 -31t-55.5 -82.5t-39 -119.5t-14.5 -141z"/>
		<glyph unicode="1" d="M81 110h132l85 395l28 68l-58 -59l-97 -62l-39 77l257 183h70l-128 -602h129l-23 -110h-379z"/>
		<glyph unicode="2" d="M540 560q0 -56 -26 -113.5t-66 -112.5t-88 -104t-91 -88l-59 -41v-5l70 14h179l-23 -110h-400l14 67l66 61l79 76l80.5 84.5t70.5 85.5t50.5 81t19.5 71q0 33 -17 54t-65 21q-31 0 -63.5 -14.5t-64.5 -37.5l-30 94q48 35 96.5 53t112.5 18q74 0 114.5 -42.5t40.5 -111.5z "/>
		<glyph unicode="3" d="M193 389l147 165l64 45l-76 -9h-159l24 110h363l-15 -71l-171 -190l-48 -27v-5l40 6q20 -2 42.5 -12t41.5 -29.5t31.5 -50t12.5 -74.5q0 -57 -18.5 -105t-55.5 -82.5t-92 -54t-127 -19.5q-43 0 -87 8t-69 23l57 111q20 -13 49 -21t67 -8q39 0 67.5 11t47.5 29t28 41.5 t9 47.5q0 48 -25.5 70t-92.5 22h-70z"/>
		<glyph unicode="4" d="M535 195h-105l-41 -195h-115l41 195h-287l15 74l393 436h102l-86 -407h105zM370 452l26 84h-3l-48 -72l-126 -135l-55 -38l62 7h111z"/>
		<glyph unicode="5" d="M201 99q42 0 72 12t49.5 32t29 46t9.5 55q0 50 -30.5 71t-101.5 21l-77 -3l77 367h327l-25 -122h-220l-29 -138l37 4q40 0 70.5 -13t51.5 -36t32 -55t11 -69q0 -138 -78 -211.5t-224 -73.5q-20 0 -41 2.5t-40.5 6.5t-36 9.5t-28.5 11.5l56 106q20 -10 45.5 -16.5 t63.5 -6.5z"/>
		<glyph unicode="6" d="M516 255q0 -54 -16 -103t-48.5 -85.5t-81.5 -58.5t-114 -22q-32 0 -66.5 11.5t-63 38t-46.5 69.5t-18 106q0 102 38 190.5t100.5 155t142.5 107.5t165 50l7 -103q-50 -8 -98 -28.5t-89.5 -52t-73.5 -71.5t-49 -86q27 29 66.5 44t81.5 15q77 0 120 -48.5t43 -128.5z M394 232q0 40 -20.5 65t-68.5 25q-38 0 -71 -17t-50 -43q-2 -10 -3.5 -22.5t-1.5 -20.5q0 -54 22.5 -88.5t69.5 -34.5q57 0 90 38t33 98z"/>
		<glyph unicode="7" d="M62 0l329 539l51 49l-58 -10h-235l25 122h430l-8 -38l-405 -662h-129z"/>
		<glyph unicode="8" d="M54 153q0 38 13 70.5t35 59t51 46.5t61 32q-14 13 -26.5 26.5t-22 30.5t-15 39.5t-5.5 52.5q0 49 18.5 87.5t50.5 64t74 39t89 13.5q84 0 128 -43.5t44 -111.5q0 -35 -11.5 -63.5t-31 -52.5t-45 -43.5t-53.5 -34.5q45 -35 64.5 -74.5t19.5 -85.5q0 -51 -18.5 -91.5 t-51.5 -69t-79 -43.5t-101 -15q-39 0 -73.5 11t-60 32t-40 52t-14.5 72zM374 190q0 23 -7.5 41t-20 32.5t-29.5 27t-35 23.5q-51 -26 -81 -60.5t-30 -76.5q0 -35 21 -58t69 -23q22 0 42.5 6t36.5 17.5t25 29t9 41.5zM263 511q0 -35 22 -59.5t56 -44.5q18 13 34 28t28.5 31 t20 33t7.5 33q0 36 -18 54t-51 18q-42 0 -70.5 -24t-28.5 -69z"/>
		<glyph unicode="9" d="M99 456q0 60 20 108t55.5 81t83 51t103.5 18q42 0 78 -13t62.5 -40.5t42 -69t15.5 -98.5q0 -80 -20.5 -147.5t-55 -122.5t-80 -98t-95.5 -73t-101.5 -46.5t-97.5 -19.5l-6 102q55 10 103.5 31.5t87.5 51t67.5 66t44.5 75.5q-29 -23 -63 -34.5t-82 -11.5q-28 0 -57 10.5 t-52 33t-38 59t-15 87.5zM221 475q0 -29 7.5 -48t20.5 -31t28.5 -17t32.5 -5q38 0 71 12t52 32q3 11 5.5 31t2.5 29q0 57 -22.5 92.5t-73.5 35.5q-24 0 -46 -7.5t-39.5 -23.5t-28 -41t-10.5 -59z"/>
		<glyph unicode=":" horiz-adv-x="314" d="M165 428q0 35 22 55.5t58 20.5q37 0 59 -20.5t22 -55.5t-22 -56t-59 -21q-36 0 -58 21t-22 56zM90 78q0 35 22 55.5t58 20.5q37 0 59 -20.5t22 -55.5t-22 -56t-59 -21q-36 0 -58 21t-22 56z"/>
		<glyph unicode=";" horiz-adv-x="307" d="M138 -5q-17 1 -32 17t-15 42q0 40 25.5 62t60.5 22t53 -23q16 -22 16 -50q0 -50 -20 -89q-19 -36 -45.5 -61.5t-55 -41t-47.5 -21.5l-26 54q29 11 53 36t33 53zM158 428q0 35 22 55.5t58 20.5q37 0 59 -20.5t22 -55.5t-22 -56t-59 -21q-36 0 -58 21t-22 56z"/>
		<glyph unicode="&#x3c;" horiz-adv-x="505" d="M51 285v70l386 231l57 -90l-224 -139l-91 -35l90 -31l230 -137l-57 -90z"/>
		<glyph unicode="=" horiz-adv-x="505" d="M58 490h442v-112h-442v112zM58 299h442v-112h-442v112z"/>
		<glyph unicode="&#x3e;" horiz-adv-x="505" d="M508 365v-70l-387 -231l-56 91l223 138l91 36l-90 30l-229 138l56 89z"/>
		<glyph unicode="?" horiz-adv-x="430" d="M127 208q6 54 24.5 92.5t43 67t52 50t50 41.5t37.5 41t15 49q0 27 -15.5 42t-55.5 15q-31 0 -68 -13.5t-65 -32.5l-31 94q41 25 89 42.5t117 17.5q84 0 123 -35.5t39 -95.5q0 -53 -16 -89.5t-41 -64t-55 -49t-57.5 -45.5t-49.5 -54t-30 -73h-106zM82 66q0 35 22 55.5 t58 20.5q37 0 59 -20.5t22 -55.5t-22 -56t-59 -21q-36 0 -58 21t-22 56z"/>
		<glyph unicode="@" horiz-adv-x="1059" d="M706 484h70l-49 -271q-2 -12 -3 -22.5t-1 -18.5q0 -48 37 -48q26 0 51.5 12t45.5 37t32 63t12 90q0 75 -25 128.5t-68.5 88t-102.5 50.5t-126 16q-78 0 -145.5 -28t-117 -77.5t-77.5 -117t-28 -146.5q0 -78 23.5 -140t69 -106t112 -67.5t152.5 -23.5q29 0 66 7.5t67 21.5 l31 -96q-42 -20 -84 -28t-97 -8q-98 0 -180.5 28t-142.5 83t-94 136.5t-34 188.5q0 109 39 197t105 150t153 95.5t184 33.5q92 0 171 -26.5t137 -76t91 -121t33 -162.5q0 -64 -23 -120t-62 -97t-91.5 -65t-112.5 -24q-25 0 -46.5 5.5t-36.5 18.5t-22 34q-5 15 -5 34 q0 9 1 18h-4q-15 -21 -32 -41t-38 -35.5t-46 -24.5t-55 -9q-25 0 -46.5 10.5t-37.5 29.5t-25.5 46t-9.5 60q0 62 20 120.5t54 103.5t79.5 72.5t96.5 27.5q35 0 59 -10.5t45 -27.5zM643 363q-14 11 -28 17.5t-34 6.5q-30 0 -55.5 -17.5t-44 -44.5t-29 -60.5t-10.5 -65.5 q0 -33 14 -54.5t47 -21.5q14 0 30 8.5t31 23t28.5 32.5t24.5 38z"/>
		<glyph unicode="A" horiz-adv-x="582" d="M387 155h-204l-83 -155h-138l389 705h96l91 -705h-131zM240 265h142l-16 156l1 110h-5l-40 -111z"/>
		<glyph unicode="B" horiz-adv-x="568" d="M166 695q19 3 43 6t51 5t55.5 3t55.5 1q46 0 85.5 -9.5t68 -29.5t45 -51.5t16.5 -75.5q0 -33 -11 -63.5t-31.5 -54.5t-49 -40t-64.5 -21v-5q19 -4 38 -14.5t34 -27t24 -39t9 -50.5q0 -64 -25 -109.5t-67 -74t-98 -42t-118 -13.5h-41q-26 0 -55 1.5t-58 4.5t-53 9z M167 109q4 -2 14.5 -3t22.5 -2h26q13 -1 22 -1q25 0 51.5 6t48 20t35.5 36t14 54q0 25 -11 41t-29 25.5t-41.5 13t-48.5 3.5h-64zM230 406h43q14 0 33 0.5t32 2.5q18 3 38.5 10t37 20t27.5 33t11 50q0 43 -28.5 59t-72.5 16q-26 0 -48 -1t-34 -3z"/>
		<glyph unicode="C" horiz-adv-x="537" d="M483 29q-67 -43 -164 -43q-66 0 -115 22t-81.5 61t-48.5 91t-16 112q0 118 33 201.5t87 137t123.5 78.5t142.5 25q57 0 97.5 -8.5t63.5 -19.5l-51 -116q-20 11 -48 16.5t-71 5.5q-51 0 -95 -21t-76 -60t-50.5 -95t-18.5 -127q0 -85 42.5 -133t113.5 -48q45 0 74.5 9.5 t55.5 23.5z"/>
		<glyph unicode="D" horiz-adv-x="620" d="M168 700q21 3 46 5t46.5 3t37.5 1q9 0 25.5 0.5t36.5 0.5q61 0 111 -15.5t85.5 -47.5t55 -82t19.5 -119q0 -44 -7.5 -94.5t-25.5 -101.5t-49.5 -98t-79 -83t-114 -58t-154.5 -22q-15 0 -30 0.5t-21 0.5q-20 1 -44 2l-50 4q-24 1 -36 3zM174 114q4 -1 12.5 -1.5t18.5 -1 t19 -0.5h14q70 0 119 31.5t79.5 79t44 103t13.5 103.5q0 80 -33.5 120t-111.5 40q-20 0 -42 -1t-34 -3z"/>
		<glyph unicode="E" horiz-adv-x="503" d="M168 700h130h264l-26 -122h-264l-35 -163h241l-27 -122h-239l-37 -171h269l-25 -122h-269h-130z"/>
		<glyph unicode="F" horiz-adv-x="489" d="M168 700h130h264l-26 -122h-264l-37 -173h243l-25 -122h-243l-60 -283h-130z"/>
		</font>
</defs>
</svg>
